<svg xmlns="http://www.w3.org/2000/svg" fill="none" style="-webkit-print-color-adjust:exact" viewBox="-1 -1 26.5 41.1">
    <path d="M11 21.6c-2 3.7 3 10 8 13 3.1-5.9 1-10.9-2-15 0 0 3-1.8-.5-9.5-3.6-7.9-4-10.5-5.5-10L9.5.6s3 7 3.5 8.5 0 2.4-1 3c-1 .4-2 0-3-2S5.5 2 5.5 2 0 3.2 0 5c0 1.6 2.7 4.9 2.8 6.4.1 1.6-.2 8.8 2.7 12.1 2.1 2.5 5.4 2 5.4 2"/>
    <defs>
      <marker id="a" fill="#F2F2D9" fill-opacity="1" markerHeight="6" markerWidth="6" orient="auto-start-reverse" refX="3" refY="3" viewBox="0 0 6 6">
        <path d="M3 2.5a.5.5 0 0 1 0 1"/>
      </marker>
    </defs>
    <path stroke="#F2F2D9" stroke-width="2" marker-start="url(#a)" d="M11 21.6c-2 3.7 3 10 8 13 3.1-5.9 1-10.9-2-15 0 0 3-1.8-.5-9.5-3.6-7.9-4-10.5-5.5-10L9.5.6s3 7 3.5 8.5 0 2.4-1 3c-1 .4-2 0-3-2S5.5 2 5.5 2 0 3.2 0 5c0 1.6 2.7 4.9 2.8 6.4.1 1.6-.2 8.8 2.7 12.1 2.1 2.5 5.4 2 5.4 2"/>
    <path d="M10.5 26a8.6 8.6 0 0 0-1 13c4.5-4.7 4.5-9 4.5-9"/>
    <path stroke="#F2F2D9" stroke-width="2" d="M10.5 26a8.6 8.6 0 0 0-1 13c4.5-4.7 4.5-9 4.5-9"/>
    <path d="M17.5 12c2-1 6.4 6.5 7 10 .4 3.5-4 4-4 4"/>
    <path stroke="#F2F2D9" stroke-width="2" d="M17.5 12c2-1 6.4 6.5 7 10 .4 3.5-4 4-4 4"/>
    <path d="m9.5.6-4 2"/>
    <path stroke="#F2F2D9" d="m9.5.6-4 2"/>
    <path d="m11 3.6-4 2"/>
    <path stroke="#F2F2D9" d="m11 3.6-4 2"/>
    <path d="m12.5 7-4 2"/>
    <path stroke="#F2F2D9" d="m12.5 7-4 2"/>
    <path d="M12 12 7.5 1.7"/>
    <path stroke="#F2F2D9" d="M12 12 7.5 1.7"/>
    <circle cx="2.5" cy="4.6" r="1.5"/>
    <circle cx="2.5" cy="4.6" r="1.5" stroke="#F2F2D9"/>
    <path d="m9 25.6-6 3"/>
    <defs>
      <marker id="b" fill="#F2F2D9" fill-opacity="1" markerHeight="6" markerWidth="6" orient="auto-start-reverse" refX="3" refY="3" viewBox="0 0 6 6">
        <path d="M3 2.5a.5.5 0 0 1 0 1"/>
      </marker>
    </defs>
    <path stroke="#F2F2D9" stroke-width="1.5" marker-end="url(#b)" d="m9 25.6-6 3"/>
    <path d="M8.5 26C6 27.7 5 33 5 33"/>
    <defs>
      <marker id="c" fill="#F2F2D9" fill-opacity="1" markerHeight="6" markerWidth="6" orient="auto-start-reverse" refX="3" refY="3" viewBox="0 0 6 6">
        <path d="M3 2.5a.5.5 0 0 1 0 1"/>
      </marker>
    </defs>
    <path stroke="#F2F2D9" stroke-width="1.5" marker-end="url(#c)" d="M8.5 26C6 27.7 5 33 5 33"/>
    <path d="M9 25.6c-3.6.6-8-1-8-1"/>
    <defs>
      <marker id="d" fill="#F2F2D9" fill-opacity="1" markerHeight="6" markerWidth="6" orient="auto-start-reverse" refX="3" refY="3" viewBox="0 0 6 6">
        <path d="M3 2.5a.5.5 0 0 1 0 1"/>
      </marker>
    </defs>
    <path stroke="#F2F2D9" stroke-width="1.5" marker-end="url(#d)" d="M9 25.6c-3.6.6-8-1-8-1"/>
    <path d="M8.6 21.2A7 7 0 0 1 6 11.6a7 7 0 0 1 2.6 9.6z"/>
    <path stroke="#F2F2D9" d="M8.6 21.2A7 7 0 0 1 6 11.6a7 7 0 0 1 2.6 9.6z"/>
    <circle cx="7.3" cy="16.4" r="2" transform="rotate(170 7.3 16.4)"/>
    <circle cx="7.3" cy="16.4" r="2" stroke="#F2F2D9" transform="rotate(170 7.3 16.4)"/>
  </svg>