<svg xmlns="http://www.w3.org/2000/svg" fill="none" style="-webkit-print-color-adjust:exact" viewBox="-.5 -.5 34.3 31.6">
    <circle cx="10.5" cy="15.3" r="4.3"/>
    <defs>
      <clipPath id="b">
        <use href="#a"/>
      </clipPath>
      <circle id="a" cx="10.5" cy="15.3" r="4.3" fill="none" stroke="#F2F2D9" stroke-opacity="1" stroke-width="2.5"/>
    </defs>
    <use clip-path="url('#b')" href="#a"/>
    <circle cx="10.5" cy="15.3" r="2.3"/>
    <defs>
      <clipPath id="d">
        <use href="#c"/>
      </clipPath>
      <circle id="c" cx="10.5" cy="15.3" r="2.3" fill="none" stroke="#F2F2D9" stroke-opacity="1" stroke-width="2.5"/>
    </defs>
    <use clip-path="url('#d')" href="#c"/>
    <path d="M1.8 10a1.8 1.8 0 0 1 2.4 1l.7 1.5L1.7 14 1 12.4a1.8 1.8 0 0 1 .8-2.4z"/>
    <path stroke="#F2F2D9" d="M1.8 10a1.8 1.8 0 0 1 2.4 1l.7 1.5L1.7 14 1 12.4a1.8 1.8 0 0 1 .8-2.4z"/>
    <path d="M8.2 7.2a1.8 1.8 0 0 1 2.4.9l.7 1.6L8 11l-.7-1.6a1.8 1.8 0 0 1 .8-2.3z"/>
    <path stroke="#F2F2D9" d="M8.2 7.2a1.8 1.8 0 0 1 2.4.9l.7 1.6L8 11l-.7-1.6a1.8 1.8 0 0 1 .8-2.3z"/>
    <path d="M5 8.6a1.8 1.8 0 0 1 2.4.9l.7 1.6-3.2 1.4-.7-1.6A1.8 1.8 0 0 1 5 8.6z"/>
    <path stroke="#F2F2D9" d="M5 8.6a1.8 1.8 0 0 1 2.4.9l.7 1.6-3.2 1.4-.7-1.6A1.8 1.8 0 0 1 5 8.6z"/>
    <path d="M11.4 5.8a1.8 1.8 0 0 1 2.4.9l.7 1.6-3.2 1.4-.7-1.6a1.8 1.8 0 0 1 .8-2.3z"/>
    <path stroke="#F2F2D9" d="M11.4 5.8a1.8 1.8 0 0 1 2.4.9l.7 1.6-3.2 1.4-.7-1.6a1.8 1.8 0 0 1 .8-2.3z"/>
    <path d="M.8 11.6C-.3 10-.3 8 .8 7l15-7.1 2.5 5c.4 1.1 2.4.6 3 1.5.5 1 .4 2.2 0 2.8-.7.9-2.6.8-3-.2.5 1 0 2-1 2.5s-2.1-.2-2.6-1.2 1-1.5.5-2.5-1.9-2.7-2.5-2"/>
    <path stroke="#F2F2D9" d="M.8 11.6C-.3 10-.3 8 .8 7l15-7.1 2.5 5c.4 1.1 2.4.6 3 1.5.5 1 .4 2.2 0 2.8-.7.9-2.6.8-3-.2.5 1 0 2-1 2.5s-2.1-.2-2.6-1.2 1-1.5.5-2.5-1.9-2.7-2.5-2"/>
    <path d="M18.3 4S24.8.7 28.6 2.7c-2.5 6-7.4 6.8-7.4 6.8"/>
    <path stroke="#F2F2D9" d="M18.3 4S24.8.7 28.6 2.7c-2.5 6-7.4 6.8-7.4 6.8"/>
    <path d="M27.5 10s3.7-.6 5.8.6c-1 3.8-6 6.1-6 6.1"/>
    <path stroke="#F2F2D9" d="M27.5 10s3.7-.6 5.8.6c-1 3.8-6 6.1-6 6.1"/>
    <path d="m25.9 7 1.9 3s-10.6 8.8-14 3.1"/>
    <defs>
      <marker id="e" fill="#F2F2D9" fill-opacity="1" markerHeight="6" markerWidth="6" orient="auto-start-reverse" refX="3" refY="3" viewBox="0 0 6 6">
        <path d="M3 2.5a.5.5 0 0 1 0 1"/>
      </marker>
    </defs>
    <path stroke="#F2F2D9" marker-end="url(#e)" d="m25.9 7 1.9 3s-10.6 8.8-14 3.1"/>
    <path d="M26.8 8.6s-9 7-13 4.5"/>
    <defs>
      <marker id="f" fill="#F2F2D9" fill-opacity="1" markerHeight="6" markerWidth="6" orient="auto-start-reverse" refX="3" refY="3" viewBox="0 0 6 6">
        <path d="M3 2.5a.5.5 0 0 1 0 1"/>
      </marker>
    </defs>
    <path stroke="#F2F2D9" marker-end="url(#f)" d="M26.8 8.6s-9 7-13 4.5"/>
    <path d="m25.3 12 2 4.6s-7 5-10.6 2.5"/>
    <path stroke="#F2F2D9" d="m25.3 12 2 4.6s-7 5-10.6 2.5"/>
    <path d="m27.3 16.6 2 4.5-8 3-2-4.5"/>
    <path stroke="#F2F2D9" d="m27.3 16.6 2 4.5-8 3-2-4.5"/>
    <path d="m27.8 18-6.2 3"/>
    <defs>
      <marker id="g" fill="#F2F2D9" fill-opacity="1" markerHeight="6" markerWidth="6" orient="auto-start-reverse" refX="3" refY="3" viewBox="0 0 6 6">
        <path d="M3 2.5a.5.5 0 0 1 0 1"/>
      </marker>
    </defs>
    <path stroke="#F2F2D9" marker-end="url(#g)" d="m27.8 18-6.2 3"/>
    <path d="M28.2 19.5 22.3 22"/>
    <defs>
      <marker id="h" fill="#F2F2D9" fill-opacity="1" markerHeight="6" markerWidth="6" orient="auto-start-reverse" refX="3" refY="3" viewBox="0 0 6 6">
        <path d="M3 2.5a.5.5 0 0 1 0 1"/>
      </marker>
    </defs>
    <path stroke="#F2F2D9" marker-end="url(#h)" d="M28.2 19.5 22.3 22"/>
    <path d="M16.8 15c1.4 3-.7 5.9-2.6 6.8C12 23 8.1 21.7 7.7 18"/>
    <path stroke="#F2F2D9" stroke-linecap="round" d="M16.8 15c1.4 3-.7 5.9-2.6 6.8C12 23 8.1 21.7 7.7 18"/>
    <path d="m17.3 16.6-3-.5"/>
    <defs>
      <marker id="i" fill="#F2F2D9" fill-opacity="1" markerHeight="6" markerWidth="6" orient="auto-start-reverse" refX="3" refY="3" viewBox="0 0 6 6">
        <path d="M3 2.5a.5.5 0 0 1 0 1"/>
      </marker>
    </defs>
    <path stroke="#F2F2D9" marker-end="url(#i)" d="m17.3 16.6-3-.5"/>
    <path d="m16.8 18.6-3-1.5"/>
    <defs>
      <marker id="j" fill="#F2F2D9" fill-opacity="1" markerHeight="6" markerWidth="6" orient="auto-start-reverse" refX="3" refY="3" viewBox="0 0 6 6">
        <path d="M3 2.5a.5.5 0 0 1 0 1"/>
      </marker>
    </defs>
    <path stroke="#F2F2D9" marker-end="url(#j)" d="m16.8 18.6-3-1.5"/>
    <path d="M15.8 20.6 13.2 18"/>
    <defs>
      <marker id="k" fill="#F2F2D9" fill-opacity="1" markerHeight="6" markerWidth="6" orient="auto-start-reverse" refX="3" refY="3" viewBox="0 0 6 6">
        <path d="M3 2.5a.5.5 0 0 1 0 1"/>
      </marker>
    </defs>
    <path stroke="#F2F2D9" marker-end="url(#k)" d="M15.8 20.6 13.2 18"/>
    <path d="m11.8 18.6 2 3"/>
    <defs>
      <marker id="l" fill="#F2F2D9" fill-opacity="1" markerHeight="6" markerWidth="6" orient="auto-start-reverse" refX="3" refY="3" viewBox="0 0 6 6">
        <path d="M3 2.5a.5.5 0 0 1 0 1"/>
      </marker>
    </defs>
    <path stroke="#F2F2D9" marker-end="url(#l)" d="m11.8 18.6 2 3"/>
    <path d="m9.8 18.6 1 3"/>
    <defs>
      <marker id="m" fill="#F2F2D9" fill-opacity="1" markerHeight="6" markerWidth="6" orient="auto-start-reverse" refX="3" refY="3" viewBox="0 0 6 6">
        <path d="M3 2.5a.5.5 0 0 1 0 1"/>
      </marker>
    </defs>
    <path stroke="#F2F2D9" marker-end="url(#m)" d="m9.8 18.6 1 3"/>
    <path d="M25.8 13s-6 4-8.6 3.6"/>
    <path stroke="#F2F2D9" d="M25.8 13s-6 4-8.6 3.6"/>
    <path d="M26.8 15s-7 4.6-9.6 3"/>
    <path stroke="#F2F2D9" d="M26.8 15s-7 4.6-9.6 3"/>
    <path d="m12.3 22-.6 3.9s5 2.1 9.6-1.8"/>
    <path stroke="#F2F2D9" d="m12.3 22-.6 3.9s5 2.1 9.6-1.8"/>
    <path d="M11.8 24.6s5 1.5 9-2"/>
    <path stroke="#F2F2D9" d="M11.8 24.6s5 1.5 9-2"/>
    <path d="M12.3 23s4 1.6 7.4-2"/>
    <path stroke="#F2F2D9" d="M12.3 23s4 1.6 7.4-2"/>
    <path d="m19.8 20-5 1.6"/>
    <path stroke="#F2F2D9" d="m19.8 20-5 1.6"/>
    <path d="m6.8 16.6-2.5 6.9"/>
    <defs>
      <marker id="n" fill="#F2F2D9" fill-opacity="1" markerHeight="6" markerWidth="6" orient="auto-start-reverse" refX="3" refY="3" viewBox="0 0 6 6">
        <path d="M3 2.5a.5.5 0 0 1 0 1"/>
      </marker>
    </defs>
    <path stroke="#F2F2D9" marker-start="url(#n)" d="m6.8 16.6-2.5 6.9"/>
    <path d="m11.4 25.6.8-3.6"/>
    <defs>
      <marker id="o" fill="#F2F2D9" fill-opacity="1" markerHeight="6" markerWidth="6" orient="auto-start-reverse" refX="3" refY="3" viewBox="0 0 6 6">
        <path d="M3 2.5a.5.5 0 0 1 0 1"/>
      </marker>
    </defs>
    <path stroke="#F2F2D9" marker-start="url(#o)" d="m11.4 25.6.8-3.6"/>
    <path d="m3.4 26-.6 2 7.5 2.6.6-2.7"/>
    <defs>
      <marker id="p" fill="#F2F2D9" fill-opacity="1" markerHeight="6" markerWidth="6" orient="auto-start-reverse" refX="3" refY="3" viewBox="0 0 6 6">
        <path d="M3 2.5a.5.5 0 0 1 0 1"/>
      </marker>
    </defs>
    <path stroke="#F2F2D9" marker-start="url(#p)" d="m3.4 26-.6 2 7.5 2.6.6-2.7"/>
    <path d="m5 27-.8 2"/>
    <path stroke="#F2F2D9" d="m5 27-.8 2"/>
    <path d="M7.8 18.6 6 23.4"/>
    <path stroke="#F2F2D9" d="M7.8 18.6 6 23.4"/>
    <path d="m8.8 20.6-1.1 3.2"/>
    <path stroke="#F2F2D9" d="m8.8 20.6-1.1 3.2"/>
    <path d="m6.4 27.7-.7 1.9"/>
    <path stroke="#F2F2D9" d="m6.4 27.7-.7 1.9"/>
    <path d="m7.9 28-.7 2"/>
    <path stroke="#F2F2D9" d="m7.9 28-.7 2"/>
    <path d="M9.8 21.6 9 24"/>
    <path stroke="#F2F2D9" d="M9.8 21.6 9 24"/>
    <path d="m11 22-.8 2.8"/>
    <path stroke="#F2F2D9" d="m11 22-.8 2.8"/>
    <path d="M9.3 28.1 8.7 30"/>
    <path stroke="#F2F2D9" d="M9.3 28.1 8.7 30"/>
    <ellipse cx="7.4" cy="25.8" rx="4.8" ry="2" transform="rotate(16 7.4 25.8)"/>
    <ellipse cx="7.4" cy="25.8" stroke="#F2F2D9" rx="4.8" ry="2" transform="rotate(16 7.4 25.8)"/>
    <path d="M2.3 15.2c0-1.5 3-1.5 3.5 0s0 3.8-1.5 3.5c-1.1-.2-1.1-1.3-.6-1.8.5-.5 0-.9-.4-.7-.5.2-1.1 0-1-1Z"/>
    <path stroke="#F2F2D9" d="M2.3 15.2c0-1.5 3-1.5 3.5 0s0 3.8-1.5 3.5c-1.1-.2-1.1-1.3-.6-1.8.5-.5 0-.9-.4-.7-.5.2-1.1 0-1-1Z"/>
  </svg>