<svg xmlns="http://www.w3.org/2000/svg" fill="none" style="-webkit-print-color-adjust:exact" viewBox="-4.092 -7.092 38.684 38.684">
    <rect width="30" height="5.5" x="6.541" y="15.791" rx="0" ry="0" transform="rotate(-45 21.54 18.54)"/>
    <rect width="30" height="5.5" x="6.541" y="15.791" stroke="#F2F2D9" rx="0" ry="0" transform="rotate(-45 21.54 18.54)"/>
    <rect width="9.5" height="2.5" x="8.836" y="19.589" rx="0" ry="0" transform="rotate(-45 13.586 20.839)"/>
    <rect width="9.5" height="2.5" x="8.836" y="19.589" stroke="#F2F2D9" rx="0" ry="0" transform="rotate(-45 13.586 20.839)"/>
    <path d="m17.828 18.364 3.536-3.536-3.889-3.889 6.01-6.01-2.828-2.828L7.532 15.225l2.829 2.829 3.579-3.579 3.888 3.889Z"/>
    <path stroke="#F2F2D9" d="m17.828 18.364 3.536-3.536-3.889-3.889 6.01-6.01-2.828-2.828L7.532 15.225l2.829 2.829 3.579-3.579 3.888 3.889Z"/>
    <path d="m16.061 16.596-6.718 6.718-7.08-7.08L18.53-.033l2.131 2.13M9.697.333"/>
    <path stroke="#F2F2D9" d="m16.061 16.596-6.718 6.718-7.08-7.08L18.53-.033l2.131 2.13M9.697.333"/>
    <path d="m9.697.333 4.242 4.242 4.597-4.596-1.415-1.414-1.414 1.414-1.414-1.414-1.414 1.414-1.415-1.414L9.697.333Z"/>
    <path stroke="#F2F2D9" d="m9.697.333 4.242 4.242 4.597-4.596-1.415-1.414-1.414 1.414-1.414-1.414-1.414 1.414-1.415-1.414L9.697.333Z"/>
    <path d="m3.863 6.166 4.243 4.243 4.596-4.596-1.414-1.414-1.415 1.414-1.414-1.414-1.414 1.414-1.414-1.414-1.768 1.767Z"/>
    <path stroke="#F2F2D9" d="m3.863 6.166 4.243 4.243 4.596-4.596-1.414-1.414-1.415 1.414-1.414-1.414-1.414 1.414-1.414-1.414-1.768 1.767Z"/>
    <path d="m-1.971 12 4.243 4.243 4.596-4.597-1.414-1.414-1.414 1.414-1.414-1.414-1.415 1.414-1.414-1.414L-1.971 12Z"/>
    <path stroke="#F2F2D9" d="m-1.971 12 4.243 4.243 4.596-4.597-1.414-1.414-1.414 1.414-1.414-1.414-1.415 1.414-1.414-1.414L-1.971 12Z"/>
  </svg>