<svg xmlns="http://www.w3.org/2000/svg" fill="none" style="-webkit-print-color-adjust:exact" viewBox="-.5 -.5 34.5 35.2">
    <path d="M24 8.5c3.2-2.4 5.4-2.5 6.5-.5 2 4-3.7 6.2-9.2 6.7"/>
    <defs>
      <marker id="a" fill="#F2F2D9" fill-opacity="1" markerHeight="6" markerWidth="6" orient="auto-start-reverse" refX="3" refY="3" viewBox="0 0 6 6">
        <path d="M3 2.5a.5.5 0 0 1 0 1"/>
      </marker>
    </defs>
    <path stroke="#F2F2D9" marker-start="url(#a)" d="M24 8.5c3.2-2.4 5.4-2.5 6.5-.5 2 4-3.7 6.2-9.2 6.7"/>
    <path d="M29 12.4c1.7-.4 3.8.2 4.3 1.6 1.2 3.2-2.5 5.4-8 6"/>
    <defs>
      <marker id="b" fill="#F2F2D9" fill-opacity="1" markerHeight="6" markerWidth="6" orient="auto-start-reverse" refX="3" refY="3" viewBox="0 0 6 6">
        <path d="M3 2.5a.5.5 0 0 1 0 1"/>
      </marker>
    </defs>
    <path stroke="#F2F2D9" marker-start="url(#b)" d="M29 12.4c1.7-.4 3.8.2 4.3 1.6 1.2 3.2-2.5 5.4-8 6"/>
    <path d="M22 16.5s9-3 9.4-1.5c.5 1.6-8.9 3.6-8.9 3.6"/>
    <path stroke="#F2F2D9" d="M22 16.5s9-3 9.4-1.5c.5 1.6-8.9 3.6-8.9 3.6"/>
    <path d="M22 11.5s6-4 6.5-2.5-6 4-6 4"/>
    <path stroke="#F2F2D9" d="M22 11.5s6-4 6.5-2.5-6 4-6 4"/>
    <path d="M8 24.6C5.5 27.8 5.5 30 7.5 31c3.9 2 5.4-3.6 6.5-8.7"/>
    <defs>
      <marker id="c" fill="#F2F2D9" fill-opacity="1" markerHeight="6" markerWidth="6" orient="auto-start-reverse" refX="3" refY="3" viewBox="0 0 6 6">
        <path d="M3 2.5a.5.5 0 0 1 0 1"/>
      </marker>
    </defs>
    <path stroke="#F2F2D9" marker-start="url(#c)" d="M8 24.6C5.5 27.8 5.5 30 7.5 31c3.9 2 5.4-3.6 6.5-8.7"/>
    <path d="M11.9 29.6c-.5 1.7.2 3.9 1.6 4.4 3.1 1.2 5-3.1 5.4-8.6"/>
    <defs>
      <marker id="d" fill="#F2F2D9" fill-opacity="1" markerHeight="6" markerWidth="6" orient="auto-start-reverse" refX="3" refY="3" viewBox="0 0 6 6">
        <path d="M3 2.5a.5.5 0 0 1 0 1"/>
      </marker>
    </defs>
    <path stroke="#F2F2D9" marker-start="url(#d)" d="M11.9 29.6c-.5 1.7.2 3.9 1.6 4.4 3.1 1.2 5-3.1 5.4-8.6"/>
    <path d="M16 22.6s-3 9-1.5 9.5 3.5-9 3.5-9"/>
    <path stroke="#F2F2D9" d="M16 22.6s-3 9-1.5 9.5 3.5-9 3.5-9"/>
    <path d="M11 22.6s-4 6-2.5 6.5 3.6-4.8 3.6-4.8"/>
    <path stroke="#F2F2D9" d="M11 22.6s-4 6-2.5 6.5 3.6-4.8 3.6-4.8"/>
    <path d="M15 0 0 15.4l3.8 4.3c1.3 1.2-1.5 1.5-.4 3 1 1.3 3.6-.7 3-2.7-.4-1.8-1.9-2.6-2.9-4l12-12.5a10 10 0 0 0 4 2.9c2.5.5 5-1.8 3.5-3.3-1.5-1.5-1.7 1.9-3 1C18.5 3 15 0 15 0Z"/>
    <path stroke="#F2F2D9" d="M15 0 0 15.4l3.8 4.3c1.3 1.2-1.5 1.5-.4 3 1 1.3 3.6-.7 3-2.7-.4-1.8-1.9-2.6-2.9-4l12-12.5a10 10 0 0 0 4 2.9c2.5.5 5-1.8 3.5-3.3-1.5-1.5-1.7 1.9-3 1C18.5 3 15 0 15 0Z"/>
    <path d="M3 18.6c-3.4 1-3.2 4.8-1.5 6.5 1.5 1.5 4.5 1.4 6.4-.6 1.6-1.8 1.3-4.9 0-6.5-1-1.5-2-2.4-2-2.4L15.5 6s1.7 1.5 3.1 2.5c2.4 1.4 5 .2 6.3-1.5 2.2-2.9.7-5.3-1-6.4-1.4-1-4.7-.5-4.8 2.9"/>
    <path stroke="#F2F2D9" d="M3 18.6c-3.4 1-3.2 4.8-1.5 6.5 1.5 1.5 4.5 1.4 6.4-.6 1.6-1.8 1.3-4.9 0-6.5-1-1.5-2-2.4-2-2.4L15.5 6s1.7 1.5 3.1 2.5c2.4 1.4 5 .2 6.3-1.5 2.2-2.9.7-5.3-1-6.4-1.4-1-4.7-.5-4.8 2.9"/>
    <circle cx="12.7" cy="13.3" r="3.3"/>
    <defs>
      <clipPath id="f">
        <use href="#e"/>
      </clipPath>
      <circle id="e" cx="12.7" cy="13.3" r="3.3" fill="none" stroke="#F2F2D9" stroke-opacity="1" stroke-width="2"/>
    </defs>
    <use clip-path="url('#f')" href="#e"/>
    <circle cx="12.7" cy="13.3" r="1.8"/>
    <defs>
      <clipPath id="h">
        <use href="#g"/>
      </clipPath>
      <circle id="g" cx="12.7" cy="13.3" r="1.8" fill="none" stroke="#F2F2D9" stroke-opacity="1" stroke-width="2"/>
    </defs>
    <use clip-path="url('#h')" href="#g"/>
    <path d="m17.3 23.2 3.6 5.3 6.8-7-6-4"/>
    <path stroke="#F2F2D9" d="m17.3 23.2 3.6 5.3 6.8-7-6-4"/>
    <path d="m19 23 2.3 3.2 4.2-4.2-3.5-2.6"/>
    <path stroke="#F2F2D9" d="m19 23 2.3 3.2 4.2-4.2-3.5-2.6"/>
    <path d="M23.5 12.6 12 25s-2.6-3-1.6-5.6c1.4-1.4 6.5-7 8.5-8.8 2-.4 4.6 1.9 4.6 1.9Z"/>
    <path stroke="#F2F2D9" stroke-width="2" d="M23.5 12.6 12 25s-2.6-3-1.6-5.6c1.4-1.4 6.5-7 8.5-8.8 2-.4 4.6 1.9 4.6 1.9Z"/>
    <path d="M13.5 23s7.5 1 8.5 0-.5-8-.5-8"/>
    <path stroke="#F2F2D9" stroke-width="2" d="M13.5 23s7.5 1 8.5 0-.5-8-.5-8"/>
    <path d="m11 18-3.5-4"/>
    <path stroke="#F2F2D9" stroke-width="2" d="m11 18-3.5-4"/>
    <path d="m18 11-4-3.4"/>
    <path stroke="#F2F2D9" stroke-width="2" d="m18 11-4-3.4"/>
    <path d="m16 16.5.5 3.6 3.5.8-.5-3.8-3.4-.6Z"/>
    <path stroke="#F2F2D9" d="m16 16.5.5 3.6 3.5.8-.5-3.8-3.4-.6Z"/>
  </svg>