<svg xmlns="http://www.w3.org/2000/svg" fill="none" style="-webkit-print-color-adjust:exact" viewBox="-.5 -1 40.5 35.5">
    <path d="m5.5 20 .5-4"/>
    <defs>
      <marker id="a" fill="#F2F2D9" fill-opacity="1" markerHeight="6" markerWidth="6" orient="auto-start-reverse" refX="3" refY="3" viewBox="0 0 6 6">
        <path d="M3 2.5a.5.5 0 0 1 0 1"/>
      </marker>
    </defs>
    <path stroke="#F2F2D9" marker-end="url(#a)" d="m5.5 20 .5-4"/>
    <path d="M3.5 19v-3.5"/>
    <defs>
      <marker id="b" fill="#F2F2D9" fill-opacity="1" markerHeight="6" markerWidth="6" orient="auto-start-reverse" refX="3" refY="3" viewBox="0 0 6 6">
        <path d="M3 2.5a.5.5 0 0 1 0 1"/>
      </marker>
    </defs>
    <path stroke="#F2F2D9" marker-end="url(#b)" d="M3.5 19v-3.5"/>
    <path d="m2 18-.5-2"/>
    <defs>
      <marker id="c" fill="#F2F2D9" fill-opacity="1" markerHeight="6" markerWidth="6" orient="auto-start-reverse" refX="3" refY="3" viewBox="0 0 6 6">
        <path d="M3 2.5a.5.5 0 0 1 0 1"/>
      </marker>
    </defs>
    <path stroke="#F2F2D9" marker-end="url(#c)" d="m2 18-.5-2"/>
    <path d="m26 30.5 3.5-2"/>
    <defs>
      <marker id="d" fill="#F2F2D9" fill-opacity="1" markerHeight="6" markerWidth="6" orient="auto-start-reverse" refX="3" refY="3" viewBox="0 0 6 6">
        <path d="M3 2.5a.5.5 0 0 1 0 1"/>
      </marker>
    </defs>
    <path stroke="#F2F2D9" marker-end="url(#d)" d="m26 30.5 3.5-2"/>
    <path d="m28 31.5 3-1.5"/>
    <defs>
      <marker id="e" fill="#F2F2D9" fill-opacity="1" markerHeight="6" markerWidth="6" orient="auto-start-reverse" refX="3" refY="3" viewBox="0 0 6 6">
        <path d="M3 2.5a.5.5 0 0 1 0 1"/>
      </marker>
    </defs>
    <path stroke="#F2F2D9" marker-end="url(#e)" d="m28 31.5 3-1.5"/>
    <path d="m30 33 2-1"/>
    <defs>
      <marker id="f" fill="#F2F2D9" fill-opacity="1" markerHeight="6" markerWidth="6" orient="auto-start-reverse" refX="3" refY="3" viewBox="0 0 6 6">
        <path d="M3 2.5a.5.5 0 0 1 0 1"/>
      </marker>
    </defs>
    <path stroke="#F2F2D9" marker-end="url(#f)" d="m30 33 2-1"/>
    <path d="M5.06 9.83s4.9 2.46 5.4 2.46 4-5.46 4.5-5.46 16.5 7.6 16.5 8.1-1.87 6.94-1.37 7.44 4.5 2.4 4.5 2.4S38.14 16.02 39 13.5C36.48 12.36 14.56 1.38 11.5 0c-1.4 1.74-6.44 9.83-6.44 9.83Z"/>
    <path stroke="#F2F2D9" stroke-width="2" d="M5.06 9.83s4.9 2.46 5.4 2.46 4-5.46 4.5-5.46 16.5 7.6 16.5 8.1-1.87 6.94-1.37 7.44 4.5 2.4 4.5 2.4S38.14 16.02 39 13.5C36.48 12.36 14.56 1.38 11.5 0c-1.4 1.74-6.44 9.83-6.44 9.83Z"/>
    <path d="M15 7 13 .5"/>
    <path stroke="#F2F2D9" stroke-width="2" d="M15 7 13 .5"/>
    <path d="M20 9.5 22 5"/>
    <path stroke="#F2F2D9" stroke-width="2" d="M20 9.5 22 5"/>
    <path d="m28.5 8.5-2 4"/>
    <path stroke="#F2F2D9" stroke-width="2" d="m28.5 8.5-2 4"/>
    <path d="m31 15 6.5-2"/>
    <path stroke="#F2F2D9" stroke-width="2" d="m31 15 6.5-2"/>
    <path d="M15.56 10.9s-7.23 9.69-3.85 11.32c1.8.88 3.98-3.56 3.98-3.56"/>
    <path stroke="#F2F2D9" d="M15.56 10.9s-7.23 9.69-3.85 11.32c1.8.88 3.98-3.56 3.98-3.56"/>
    <path d="M20.34 22.24s-2.22 3.89-.26 4.76c.9.4 1.9-.26 2.81-1.29 2.41-2.73 5.19-9.24 5.19-9.24"/>
    <path stroke="#F2F2D9" d="M20.34 22.24s-2.22 3.89-.26 4.76c.9.4 1.9-.26 2.81-1.29 2.41-2.73 5.19-9.24 5.19-9.24"/>
    <path d="M15.86 18.68s-5.84 8.15-2.07 9.88c3.85 1.78 6.31-6.84 6.31-6.84"/>
    <path stroke="#F2F2D9" d="M15.86 18.68s-5.84 8.15-2.07 9.88c3.85 1.78 6.31-6.84 6.31-6.84"/>
    <circle cx="20" cy="17.5" r="4.5"/>
    <circle cx="20" cy="17.5" r="4.5" stroke="#F2F2D9"/>
    <path d="M22.56 13.89c-3.7-1.34-5.57 1.04-5.56 3.05.02 2.54 2.57 3.47 4.1 2.4a2.44 2.44 0 0 0 .98-2.95c-.52-1.29-3.16-.8-2.54.97"/>
    <path stroke="#F2F2D9" stroke-linecap="round" d="M22.56 13.89c-3.7-1.34-5.57 1.04-5.56 3.05.02 2.54 2.57 3.47 4.1 2.4a2.44 2.44 0 0 0 .98-2.95c-.52-1.29-3.16-.8-2.54.97"/>
    <path d="M3.06 11.78S10.5 15.5 11 15.5s4-5.5 4.5-5.5 13 6 13 6.5-2 7-1.5 7.5 7.04 3.82 7.04 3.82"/>
    <path stroke="#F2F2D9" stroke-width="2" d="M3.06 11.78S10.5 15.5 11 15.5s4-5.5 4.5-5.5 13 6 13 6.5-2 7-1.5 7.5 7.04 3.82 7.04 3.82"/>
    <path d="M7.5 17.5c3 0 2.58 3.45 1 3.5-1.83.06-6.5-4-8.5-3"/>
    <path stroke="#F2F2D9" stroke-linecap="round" d="M7.5 17.5c3 0 2.58 3.45 1 3.5-1.83.06-6.5-4-8.5-3"/>
    <path d="M27.63 27.28c-2-2-4.47-.68-3.63 1.7.66 1.9 5.5 2.52 7 5.02"/>
    <path stroke="#F2F2D9" stroke-linecap="round" d="M27.63 27.28c-2-2-4.47-.68-3.63 1.7.66 1.9 5.5 2.52 7 5.02"/>
  </svg>