<svg xmlns="http://www.w3.org/2000/svg" fill="none" style="-webkit-print-color-adjust:exact" viewBox="-1 -.5 40.6 33">
    <path d="M22 10c-1.5.5-.5 2 .5 1.5s1.5-2.5 0-3-4 1-3 4-.5 4-1.5 5-1.4 3.4 1.6 5c3 1.4 13.3-6.4 15.9-6.5 2 0 1.9-3-1-2-4.6 1.5-12.6 7.5-13.5 4.6-.5-1.6 6.4-8.3 11.5-9.1 3.5-.6 3-2.5 1-3-3-.8-10 4-10 4"/>
    <defs>
      <marker id="a" fill="#F2F2D9" fill-opacity="1" markerHeight="6" markerWidth="6" orient="auto-start-reverse" refX="3" refY="3" viewBox="0 0 6 6">
        <path d="M3 2.5a.5.5 0 0 1 0 1"/>
      </marker>
    </defs>
    <path stroke="#F2F2D9" marker-start="url(#a)" d="M22 10c-1.5.5-.5 2 .5 1.5s1.5-2.5 0-3-4 1-3 4-.5 4-1.5 5-1.4 3.4 1.6 5c3 1.4 13.3-6.4 15.9-6.5 2 0 1.9-3-1-2-4.6 1.5-12.6 7.5-13.5 4.6-.5-1.6 6.4-8.3 11.5-9.1 3.5-.6 3-2.5 1-3-3-.8-10 4-10 4"/>
    <path d="M30.4 9.9s1.6 2.5 2 3.5A4.2 4.2 0 0 0 33.6 9"/>
    <path stroke="#F2F2D9" d="M30.4 9.9s1.6 2.5 2 3.5A4.2 4.2 0 0 0 33.6 9"/>
    <path d="M27 12s1.5 2 2 3c1.6-1.5 1-3.5.5-4.6"/>
    <path stroke="#F2F2D9" d="M27 12s1.5 2 2 3c1.6-1.5 1-3.5.5-4.6"/>
    <path d="M24.5 13.8s1 1.2 1.5 2.2c1.5-1 1-2.5 0-3.6"/>
    <path stroke="#F2F2D9" d="M24.5 13.8s1 1.2 1.5 2.2c1.5-1 1-2.5 0-3.6"/>
    <path d="m22 15.9 1 2c1-.8 1.5-1.6.5-3.4"/>
    <path stroke="#F2F2D9" d="m22 15.9 1 2c1-.8 1.5-1.6.5-3.4"/>
    <path d="M19.5 22.5c-.5 3.5 2.5 5 6 3s11-5.8 13.6-7c-1.6-2-3-2-5.1-2"/>
    <path stroke="#F2F2D9" d="M19.5 22.5c-.5 3.5 2.5 5 6 3s11-5.8 13.6-7c-1.6-2-3-2-5.1-2"/>
    <path d="m22 22.3 3 3.2"/>
    <path stroke="#F2F2D9" d="m22 22.3 3 3.2"/>
    <path d="m24 21.5 3 3.2"/>
    <path stroke="#F2F2D9" d="m24 21.5 3 3.2"/>
    <path d="m26.5 20.5 3 3.2"/>
    <path stroke="#F2F2D9" d="m26.5 20.5 3 3.2"/>
    <path d="m29 19 3 3.2"/>
    <path stroke="#F2F2D9" d="m29 19 3 3.2"/>
    <path d="m31.5 17.5 3 3.2"/>
    <path stroke="#F2F2D9" d="m31.5 17.5 3 3.2"/>
    <path d="m33.5 16.5 3 3.2"/>
    <path stroke="#F2F2D9" d="m33.5 16.5 3 3.2"/>
    <circle cx="12" cy="20.5" r="4"/>
    <defs>
      <clipPath id="c">
        <use href="#b"/>
      </clipPath>
      <circle id="b" cx="12" cy="20.5" r="4" fill="none" stroke="#F2F2D9" stroke-opacity="1" stroke-width="2"/>
    </defs>
    <use clip-path="url('#c')" href="#b"/>
    <circle cx="12" cy="20.5" r="2.2"/>
    <defs>
      <clipPath id="e">
        <use href="#d"/>
      </clipPath>
      <circle id="d" cx="12" cy="20.5" r="2.2" fill="none" stroke="#F2F2D9" stroke-opacity="1" stroke-width="2"/>
    </defs>
    <use clip-path="url('#e')" href="#d"/>
    <path d="M15.5 21c2.5 1 4 4 2.5 5s-2-2.5-3-1.5-2.5 7-4.5 7.5c-1.6.3-3-2.4-2.5-3.4s4.4-3.1 4-4.6"/>
    <path stroke="#F2F2D9" d="M15.5 21c2.5 1 4 4 2.5 5s-2-2.5-3-1.5-2.5 7-4.5 7.5c-1.6.3-3-2.4-2.5-3.4s4.4-3.1 4-4.6"/>
    <path d="M19 11.1c-2.6-.5-5.6.5-6.6 3-1 2.6-1.6 3-3.1 2.9-1-.1-2.3-2.4 0-2.9 1-.3 1.6 1 .5 1.5"/>
    <defs>
      <marker id="f" fill="#F2F2D9" fill-opacity="1" markerHeight="6" markerWidth="6" orient="auto-start-reverse" refX="3" refY="3" viewBox="0 0 6 6">
        <path d="M3 2.5a.5.5 0 0 1 0 1"/>
      </marker>
    </defs>
    <path stroke="#F2F2D9" marker-end="url(#f)" d="M19 11.1c-2.6-.5-5.6.5-6.6 3-1 2.6-1.6 3-3.1 2.9-1-.1-2.3-2.4 0-2.9 1-.3 1.6 1 .5 1.5"/>
    <path d="M19.5 12c-3.4 0-5.6 1-7 5"/>
    <path stroke="#F2F2D9" d="M19.5 12c-3.4 0-5.6 1-7 5"/>
    <path d="m19.5 12-7 5"/>
    <path stroke="#F2F2D9" d="m19.5 12-7 5"/>
    <path d="M19.5 12.4c1 5-4.5 6.6-6.5 4.6"/>
    <path stroke="#F2F2D9" d="M19.5 12.4c1 5-4.5 6.6-6.5 4.6"/>
    <path d="M17.5 13.5c.5 1.6-1.4 3-3 2"/>
    <path stroke="#F2F2D9" d="M17.5 13.5c.5 1.6-1.4 3-3 2"/>
    <path d="M31.5 6.5 28 0l-6 8.5"/>
    <path stroke="#F2F2D9" d="M31.5 6.5 28 0l-6 8.5"/>
    <path d="m0 15.5 19-10"/>
    <path stroke="#F2F2D9" stroke-linecap="round" stroke-width="2" d="m0 15.5 19-10"/>
    <path d="m1 17.5 19-10"/>
    <path stroke="#F2F2D9" stroke-linecap="round" stroke-width="2" d="m1 17.5 19-10"/>
  </svg>