<?xml version="1.0" encoding="utf-8"?>
<!-- Generator: Adobe Illustrator 24.0.3, SVG Export Plug-In . SVG Version: 6.00 Build 0)  -->
<svg version="1.1" id="Layer_1" xmlns="http://www.w3.org/2000/svg" xmlns:xlink="http://www.w3.org/1999/xlink" x="0px" y="0px"
	 viewBox="0 0 100 100" style="enable-background:new 0 0 100 100;" xml:space="preserve">
<style type="text/css">
	.st0{fill:url(#SVGID_1_);}
	.st1{fill:url(#SVGID_2_);}
	.st2{fill:url(#SVGID_3_);}
	.st3{fill:url(#SVGID_4_);}
	.st4{fill:url(#SVGID_5_);}
	.st5{fill:url(#SVGID_6_);}
	.st6{fill:url(#SVGID_7_);}
	.st7{fill:url(#SVGID_8_);}
	.st8{fill:url(#SVGID_9_);}
	.st9{fill:url(#SVGID_10_);}
	.st10{fill:url(#SVGID_11_);}
	.st11{fill:url(#SVGID_12_);}
	.st12{fill:url(#SVGID_13_);}
	.st13{fill:url(#SVGID_14_);}
	.st14{fill:url(#SVGID_15_);}
	.st15{fill:url(#SVGID_16_);}
	.st16{fill:url(#SVGID_17_);}
	.st17{fill:url(#SVGID_18_);}
</style>
<g>
	<linearGradient id="SVGID_1_" gradientUnits="userSpaceOnUse" x1="16.4616" y1="80.9572" x2="16.794" y2="100.0703">
		<stop  offset="0" style="stop-color:#39B54A"/>
		<stop  offset="1" style="stop-color:#009245"/>
	</linearGradient>
	<path class="st0" d="M16,81c-4.7,6.3,8.7,12.7,4,19c-2,0-4,0-6,0c6-6.3-6-12.7,0-19C14.7,81,15.3,81,16,81z"/>
</g>
<g>
	<linearGradient id="SVGID_2_" gradientUnits="userSpaceOnUse" x1="52.1884" y1="85.8863" x2="52.4346" y2="100.0417">
		<stop  offset="0" style="stop-color:#39B54A"/>
		<stop  offset="1" style="stop-color:#009245"/>
	</linearGradient>
	<path class="st1" d="M52,85.9c-2.3,4.7,4.3,9.4,2,14.1c-1,0-2,0-3,0c3-4.7-3-9.4,0-14.1C51.3,85.9,51.7,85.9,52,85.9z"/>
</g>
<g>
	<linearGradient id="SVGID_3_" gradientUnits="userSpaceOnUse" x1="5.0544" y1="102.4781" x2="6.2634" y2="87.9701">
		<stop  offset="0" style="stop-color:#39B54A"/>
		<stop  offset="1" style="stop-color:#009245"/>
	</linearGradient>
	<path class="st2" d="M6.1,85.9C8.2,90.6,2,95.3,4.2,100c0.9,0,1.9,0,2.8,0c-2.8-4.7,2.8-9.4,0-14.1C6.7,85.9,6.4,85.9,6.1,85.9z"/>
</g>
<g>
	<linearGradient id="SVGID_4_" gradientUnits="userSpaceOnUse" x1="97.2355" y1="90.9785" x2="97.3928" y2="100.0279">
		<stop  offset="0" style="stop-color:#39B54A"/>
		<stop  offset="1" style="stop-color:#009245"/>
	</linearGradient>
	<path class="st3" d="M97,91c-2.3,3,4.3,6,2,9c-1,0-2,0-3,0c3-3-3-6,0-9C96.3,91,96.7,91,97,91z"/>
</g>
<g>
	<linearGradient id="SVGID_5_" gradientUnits="userSpaceOnUse" x1="61.7101" y1="94.0061" x2="61.8147" y2="100.0206">
		<stop  offset="0" style="stop-color:#39B54A"/>
		<stop  offset="1" style="stop-color:#009245"/>
	</linearGradient>
	<path class="st4" d="M62.1,94c2.2,2-4.1,4-1.9,6c0.9,0,1.9,0,2.8,0c-2.8-2,2.8-4,0-6C62.7,94,62.4,94,62.1,94z"/>
</g>
<linearGradient id="SVGID_6_" gradientUnits="userSpaceOnUse" x1="77.0372" y1="94.1321" x2="77.1366" y2="99.8464">
	<stop  offset="0" style="stop-color:#39B54A"/>
	<stop  offset="1" style="stop-color:#009245"/>
</linearGradient>
<path class="st5" d="M80.3,100.2c0,0,0.6-6.5,4.2-5.6c0,0-4.2-2.7-6.2,2.7c0,0-0.6-5.9,1.2-6.2c0,0-4.2-0.6-5.1,4.5
	c0,0-1.8-2.7-4.8-0.6c0,0,3.9,2.4,3.9,5.3"/>
<g>
	<linearGradient id="SVGID_7_" gradientUnits="userSpaceOnUse" x1="86.3231" y1="84.6572" x2="86.5915" y2="100.0912">
		<stop  offset="0" style="stop-color:#39B54A"/>
		<stop  offset="1" style="stop-color:#009245"/>
	</linearGradient>
	<path class="st6" d="M87,84.7c11.5,5.1-7.5,10.2,4,15.3c-2,0-4,0-6,0c-10.2-5.1,10.2-10.2,0-15.3C85.7,84.7,86.3,84.7,87,84.7z"/>
</g>
<g>
	<linearGradient id="SVGID_8_" gradientUnits="userSpaceOnUse" x1="57.6181" y1="84.0735" x2="57.8964" y2="100.0741">
		<stop  offset="0" style="stop-color:#39B54A"/>
		<stop  offset="1" style="stop-color:#009245"/>
	</linearGradient>
	<path class="st7" d="M58,84.1c-7.3,5.3,3.3,10.6-4,16c2,0,4,0,6,0c6-5.3-6-10.6,0-16C59.3,84.1,58.7,84.1,58,84.1z"/>
</g>
<g>
	<linearGradient id="SVGID_9_" gradientUnits="userSpaceOnUse" x1="44.7491" y1="88.1927" x2="44.9555" y2="100.0557">
		<stop  offset="0" style="stop-color:#39B54A"/>
		<stop  offset="1" style="stop-color:#009245"/>
	</linearGradient>
	<path class="st8" d="M45,88.2c-3.7,3.9,1.7,7.9-2,11.8c1,0,2,0,3,0c3-3.9-3-7.9,0-11.8C45.7,88.2,45.3,88.2,45,88.2z"/>
</g>
<g>
	<linearGradient id="SVGID_10_" gradientUnits="userSpaceOnUse" x1="67.8141" y1="88.1742" x2="68.021" y2="100.0686">
		<stop  offset="0" style="stop-color:#39B54A"/>
		<stop  offset="1" style="stop-color:#009245"/>
	</linearGradient>
	<path class="st9" d="M67.9,88.2c3.4,3.9-1.6,7.9,1.9,11.8c-0.9,0-1.9,0-2.8,0c-2.8-3.9,2.8-7.9,0-11.8
		C67.3,88.2,67.6,88.2,67.9,88.2z"/>
</g>
<g>
	<linearGradient id="SVGID_11_" gradientUnits="userSpaceOnUse" x1="3.8156" y1="92.4814" x2="3.9474" y2="100.0558">
		<stop  offset="0" style="stop-color:#39B54A"/>
		<stop  offset="1" style="stop-color:#009245"/>
	</linearGradient>
	<path class="st10" d="M4,92.5c-3.7,2.5,1.7,5-2,7.6c1,0,2,0,3,0c3-2.5-3-5,0-7.6C4.7,92.5,4.3,92.5,4,92.5z"/>
</g>
<g>
	<linearGradient id="SVGID_12_" gradientUnits="userSpaceOnUse" x1="34.9784" y1="98.9546" x2="34.797" y2="94.0581">
		<stop  offset="0" style="stop-color:#39B54A"/>
		<stop  offset="1" style="stop-color:#009245"/>
	</linearGradient>
	<path class="st11" d="M34.9,95c3.4,1.7-1.6,3.4,1.9,5c-0.9,0-1.9,0-2.8,0c-2.8-1.7,2.8-3.4,0-5C34.3,95,34.6,95,34.9,95z"/>
</g>
<linearGradient id="SVGID_13_" gradientUnits="userSpaceOnUse" x1="79.2481" y1="95.0716" x2="79.1638" y2="99.919" gradientTransform="matrix(-1 0 0 1 99.191 0)">
	<stop  offset="0" style="stop-color:#39B54A"/>
	<stop  offset="1" style="stop-color:#009245"/>
</linearGradient>
<path class="st12" d="M16.7,100.2c0,0-0.6-5.5-4.2-4.7c0,0,4.2-2.2,6.2,2.2c0,0,0.6-5-1.2-5.2c0,0,4.2-0.5,5.1,3.7
	c0,0,1.8-2.2,4.8-0.5c0,0-3.9,2-3.9,4.5"/>
<g>
	<linearGradient id="SVGID_14_" gradientUnits="userSpaceOnUse" x1="9.2707" y1="87.1706" x2="9.4952" y2="100.0811">
		<stop  offset="0" style="stop-color:#39B54A"/>
		<stop  offset="1" style="stop-color:#009245"/>
	</linearGradient>
	<path class="st13" d="M10,87.2c8.9,4.3-12.9,8.6-4,12.9c2,0,4,0,6,0c-10.2-4.3,10.2-8.6,0-12.9C11.3,87.2,10.7,87.2,10,87.2z"/>
</g>
<g>
	<linearGradient id="SVGID_15_" gradientUnits="userSpaceOnUse" x1="27.3897" y1="99.2356" x2="27.2083" y2="94.3392">
		<stop  offset="0" style="stop-color:#39B54A"/>
		<stop  offset="1" style="stop-color:#009245"/>
	</linearGradient>
	<path class="st14" d="M27.5,91.3c-3.7,3,1.7,6-2,9c1,0,2,0,3,0c3-3-3-6,0-9C28.1,91.3,27.8,91.3,27.5,91.3z"/>
</g>
<linearGradient id="SVGID_16_" gradientUnits="userSpaceOnUse" x1="7.5204" y1="94.4288" x2="7.4203" y2="100.1887" gradientTransform="matrix(-1 0 0 1 98.923 0)">
	<stop  offset="0" style="stop-color:#39B54A"/>
	<stop  offset="1" style="stop-color:#009245"/>
</linearGradient>
<path class="st15" d="M88.1,100.6c0,0-0.6-6.5-4.2-5.6c0,0,4.2-2.7,6.2,2.7c0,0,0.6-5.9-1.2-6.2c0,0,4.2-0.6,5.1,4.5
	c0,0,1.8-2.7,4.8-0.6c0,0-3.9,2.4-3.9,5.3"/>
<g>
	<linearGradient id="SVGID_17_" gradientUnits="userSpaceOnUse" x1="32.7101" y1="85.034" x2="32.9773" y2="100.3984">
		<stop  offset="0" style="stop-color:#39B54A"/>
		<stop  offset="1" style="stop-color:#009245"/>
	</linearGradient>
	<path class="st16" d="M33.5,85c8.9,5.1-12.9,10.2-4,15.3c2,0,4,0,6,0c-10.2-5.1,10.2-10.2,0-15.3C34.8,85,34.1,85,33.5,85z"/>
</g>
<g>
	<linearGradient id="SVGID_18_" gradientUnits="userSpaceOnUse" x1="52.4223" y1="102.1861" x2="52.12" y2="90.7611">
		<stop  offset="0" style="stop-color:#39B54A"/>
		<stop  offset="1" style="stop-color:#009245"/>
	</linearGradient>
	<path class="st17" d="M52.5,88.5c2.2,3.9-4.1,7.9-1.9,11.8c0.9,0,1.9,0,2.8,0c-2.8-3.9,2.8-7.9,0-11.8
		C53.1,88.5,52.8,88.5,52.5,88.5z"/>
</g>
</svg>
