<?xml version="1.0" encoding="utf-8"?>
<!-- Generator: Adobe Illustrator 24.0.3, SVG Export Plug-In . SVG Version: 6.00 Build 0)  -->
<svg version="1.1" id="Layer_1" xmlns="http://www.w3.org/2000/svg" xmlns:xlink="http://www.w3.org/1999/xlink" x="0px" y="0px"
	 viewBox="0 0 100 100" style="enable-background:new 0 0 100 100;" xml:space="preserve">
<style type="text/css">
	.st0{fill:#CCCCCC;}
	.st1{fill:#9E9E9E;}
	.st2{fill:#FF0206;}
	.st3{fill:#E8E4A2;}
</style>
<g>
	<g>
		<circle cx="40.2" cy="90.2" r="9.8"/>
		<circle class="st0" cx="40.2" cy="90.2" r="6.8"/>
	</g>
	<g>
		<circle cx="89" cy="92" r="8"/>
		<circle class="st0" cx="89" cy="92" r="5"/>
	</g>
	<path class="st1" d="M78,81v-2h-4v-4h4c0-4-6.8-5.2-6.8-5.2L68,66.5h-6.5L59,69h-9v6h4v2c6,0,6,3,10,5C68.6,84.3,72.6,81,78,81z"/>
	<path class="st2" d="M78,81c-5.4,0-9.4,3.3-14,1c-4-2-4-5-10-5h-5c-5.9,0-17.5-1.9-22.7,9.3l3.5,0.7c1.1-4.9,5.5-8.5,10.7-8.5
		c6.1,0,11,4.9,11,11c0,2.8-1.1,5.4-2.8,7.3L49,97h3.7h27.9c-0.7-1.4-1.1-2.9-1.1-4.5c0-5.5,4.5-10,10-10c3.1,0,5.9,1.5,7.8,3.7
		L99,85C96,79,78,81,78,81z"/>
	<path d="M49,77L5,33v-9H2v10l34,34l8.9,8.9C46.4,76.9,47.8,77,49,77z"/>
	<path class="st3" d="M36,68H11l3,16l12.3,2.3c2.1-4.5,5.1-6.8,8.5-8.1c3.4-1.3,7-1.4,10.1-1.3L36,68z"/>
</g>
</svg>
