<?xml version="1.0" encoding="utf-8"?>
<!-- Generator: Adobe Illustrator 24.2.0, SVG Export Plug-In . SVG Version: 6.00 Build 0)  -->
<svg version="1.1" id="Layer_1" xmlns="http://www.w3.org/2000/svg" xmlns:xlink="http://www.w3.org/1999/xlink" x="0px" y="0px"
	 viewBox="0 0 369.6 221" style="enable-background:new 0 0 369.6 221;" xml:space="preserve">
<style type="text/css">
	.st0{fill:url(#SVGID_1_);stroke:#525252;stroke-width:5;stroke-miterlimit:10;}
	.st1{fill:#18225E;}
	.st2{display:none;}
	.st3{fill:#9C966B;}
	.st4{fill:#7A744B;}
	.st5{fill:#EAE8CA;}
	.st6{fill:#FFFED0;}
	.st7{fill:#CECCAE;}
	.st8{fill:#FF8EF9;}
	.st9{fill:#FFFC4B;}
	.st10{fill:#1E8EF9;}
	.st11{fill:#00CD2F;}
	.st12{fill:#FF3D18;}
	.st13{fill:#FFAE0D;}
	.st14{fill:#FFFFFF;}
</style>
<g id="pool">
	
		<radialGradient id="SVGID_1_" cx="134.9319" cy="75.2519" r="145.5056" gradientTransform="matrix(1 0 0 1 136.939 0)" gradientUnits="userSpaceOnUse">
		<stop  offset="0" style="stop-color:#75D5FF"/>
		<stop  offset="1" style="stop-color:#45B7FF"/>
	</radialGradient>
	<path class="st0" d="M356.1,61C407.1,5.4,267.1-24.6,204,35.7C161.4,83,97.9,46.3,34.1,91.6c-64.8,45.8-27,104.2,87.7,121.8
		c55.8,8.6,101.8,5.2,137-1.9c45-9.1,81.5-31.1,88.3-62.4C355.8,109,309,112.5,356.1,61z"/>
</g>
<g id="divingBoard">
	<polygon class="st1" points="85.3,113.8 116.5,97.4 62.7,76.5 36.1,92.6 	"/>
	<g class="st2">
		
			<image style="display:inline;overflow:visible;" width="160" height="113" xlink:href="7FD5397392DD21CC.png"  transform="matrix(1 0 0 1 -44.439 44.9867)">
		</image>
	</g>
	<g>
		<polygon class="st3" points="44.5,72.3 44.5,87.8 16.5,77.1 16.5,62.1 		"/>
		<polygon class="st4" points="44.5,72.3 59.4,71.2 59.4,78.8 44.5,87.8 		"/>
	</g>
	<polygon class="st5" points="10.3,66.7 93.6,99.2 93.6,88.4 10.3,57.5 	"/>
	<polygon class="st6" points="93.6,88.4 123.1,75.1 36.5,44.7 10.3,57.5 	"/>
	<polygon class="st7" points="123.1,75.1 123.5,85.1 93.6,99.2 93.6,88.4 	"/>
</g>
<g id="beachBall">
	<ellipse id="shadow" class="st1" cx="241.3" cy="112.8" rx="30.5" ry="11.4"/>
	<g id="betterBeachBall">
		<g>
			<path class="st1" d="M255.5,94.1l0.5,0.1C256,94.2,255.8,94.2,255.5,94.1z"/>
			<path class="st8" d="M269.9,92.9c-2.5-5.1-6.6-9.3-11.7-11.8c-1.4-0.7-2.9-1.3-4.5-1.7c5.4,6.7,2.3,14.8,2.3,14.8
				C260.6,91.5,266,92,269.9,92.9z"/>
			<path class="st9" d="M253.7,79.5c-2.2-0.7-4.5-1-6.9-1c-3,0-5.8,0.5-8.4,1.4c-2.8,0.9-5.4,2.4-7.7,4.2
				c18.5-1.2,25.3,10.1,25.3,10.1S259.2,86.1,253.7,79.5z"/>
			<path class="st10" d="M220.9,105.1c0.1,1.8,0.4,3.6,0.8,5.3c2,0.6,4,1.1,6.1,1.5c4.3-20.3,24.3-18.3,27.7-17.8
				c0.3,0.1,0.5,0.1,0.5,0.1s-6.8-11.3-25.3-10.1c-5.9,4.8-9.7,12-9.7,20.2C221,104.6,221,104.9,220.9,105.1z"/>
			<path class="st11" d="M271.3,111.1c0.1,0,0.3-0.1,0.4-0.1c0.6-2.1,0.9-4.4,0.9-6.7c0-4.1-0.9-7.9-2.6-11.3c-4.1-1-9.5-1.5-14,1.2
				C256,94.2,267.3,96.5,271.3,111.1z"/>
			<path class="st12" d="M256,94.2c0,0,2.8,10-0.9,19.4c5.8-0.4,11.3-1.3,16.2-2.5C267.3,96.5,256,94.2,256,94.2z"/>
			<path class="st13" d="M256,94.3l-0.5-0.1c-3.5-0.5-23.4-2.5-27.7,17.8c6,1.2,12.7,1.9,19.8,1.9c2.6,0,5.1-0.1,7.5-0.3
				C258.8,104.2,256,94.2,256,94.3z"/>
		</g>
		
			<ellipse id="center" transform="matrix(0.7692 -0.6391 0.6391 0.7692 -1.0981 185.3694)" class="st14" cx="256" cy="94.2" rx="5.1" ry="7.1"/>
	</g>
</g>
</svg>
