<svg xmlns="http://www.w3.org/2000/svg" xmlns:xlink="http://www.w3.org/1999/xlink" viewBox="0 0 369.58 220.96"><defs><style>.cls-1{stroke:#525252;stroke-miterlimit:10;stroke-width:5px;fill:url(#radial-gradient);}.cls-2{fill:#18225e;}.cls-3{fill:#9c966b;}.cls-4{fill:#7a744b;}.cls-5{fill:#eae8ca;}.cls-6{fill:#fffed0;}.cls-7{fill:#ceccae;}.cls-8{fill:#ff8ef9;}.cls-9{fill:#fffc4b;}.cls-10{fill:#1e8ef9;}.cls-11{fill:#00cd2f;}.cls-12{fill:#ff3d18;}.cls-13{fill:#ffae0d;}.cls-14{fill:#fff;}</style><radialGradient id="radial-gradient" cx="134.93" cy="75.25" r="145.51" gradientTransform="translate(136.94)" gradientUnits="userSpaceOnUse"><stop offset="0" stop-color="#75d5ff"/><stop offset="1" stop-color="#45b7ff"/></radialGradient></defs><g id="Layer_2" data-name="Layer 2"><g id="Layer_1-2" data-name="Layer 1"><g id="pool"><path class="cls-1" d="M356.14,61C407.08,5.42,267.06-24.64,204,35.69,161.4,83,98,46.28,34.06,91.55c-64.79,45.84-27,104.22,87.68,121.83,55.81,8.57,101.85,5.2,137-1.94,45-9.13,81.53-31.11,88.35-62.36C355.84,109,309,112.53,356.14,61Z"/></g><g id="divingBoard"><polygon class="cls-2" points="85.3 113.82 116.54 97.44 62.75 76.53 36.15 92.58 85.3 113.82"/><polygon class="cls-3" points="44.49 72.28 44.49 87.78 16.49 77.08 16.49 62.08 44.49 72.28"/><polygon class="cls-4" points="44.49 72.28 59.39 71.18 59.39 78.78 44.49 87.78 44.49 72.28"/><polygon class="cls-5" points="10.32 66.75 93.62 99.25 93.62 88.44 10.32 57.55 10.32 66.75"/><polygon class="cls-6" points="93.62 88.44 123.12 75.14 36.52 44.74 10.32 57.55 93.62 88.44"/><polygon class="cls-7" points="123.12 75.14 123.52 85.14 93.62 99.25 93.62 88.44 123.12 75.14"/></g><g id="beachBall"><ellipse id="shadow" class="cls-2" cx="241.28" cy="112.83" rx="30.47" ry="11.35"/><g id="betterBeachBall"><path class="cls-2" d="M255.5,94.12l.5.1A1.75,1.75,0,0,1,255.5,94.12Z"/><path class="cls-8" d="M269.9,92.92a25.72,25.72,0,0,0-11.7-11.8,22,22,0,0,0-4.5-1.7c5.4,6.7,2.3,14.8,2.3,14.8C260.6,91.52,266,92,269.9,92.92Z"/><path class="cls-9" d="M253.7,79.52a22.59,22.59,0,0,0-6.9-1,25.52,25.52,0,0,0-8.4,1.4,25.1,25.1,0,0,0-7.7,4.2c18.5-1.2,25.3,10.1,25.3,10.1S259.2,86.12,253.7,79.52Z"/><path class="cls-10" d="M220.9,105.12a30.79,30.79,0,0,0,.8,5.3,60.35,60.35,0,0,0,6.1,1.5c4.3-20.3,24.3-18.3,27.7-17.8a1.75,1.75,0,0,0,.5.1s-6.8-11.3-25.3-10.1a25.92,25.92,0,0,0-9.7,20.2A2,2,0,0,1,220.9,105.12Z"/><path class="cls-11" d="M271.3,111.12c.1,0,.3-.1.4-.1a24.63,24.63,0,0,0,.9-6.7A25,25,0,0,0,270,93c-4.1-1-9.5-1.5-14,1.2C256,94.22,267.3,96.52,271.3,111.12Z"/><path class="cls-12" d="M256,94.22s2.8,10-.9,19.4a96.58,96.58,0,0,0,16.2-2.5C267.3,96.52,256,94.22,256,94.22Z"/><path class="cls-13" d="M256,94.32l-.5-.1c-3.5-.5-23.4-2.5-27.7,17.8a101.59,101.59,0,0,0,19.8,1.9q3.9,0,7.5-.3C258.8,104.22,256,94.22,256,94.32Z"/><ellipse id="center" class="cls-14" cx="256.04" cy="94.2" rx="5.1" ry="7.1" transform="translate(-1.1 185.37) rotate(-39.72)"/></g></g></g></g></svg>