<?xml version="1.0" encoding="utf-8"?>
<!-- Generator: Adobe Illustrator 24.0.3, SVG Export Plug-In . SVG Version: 6.00 Build 0)  -->
<svg version="1.1"
	 id="svg8" xmlns:cc="http://creativecommons.org/ns#" xmlns:dc="http://purl.org/dc/elements/1.1/" xmlns:inkscape="http://www.inkscape.org/namespaces/inkscape" xmlns:rdf="http://www.w3.org/1999/02/22-rdf-syntax-ns#" xmlns:sodipodi="http://sodipodi.sourceforge.net/DTD/sodipodi-0.dtd" xmlns:svg="http://www.w3.org/2000/svg"
	 xmlns="http://www.w3.org/2000/svg" xmlns:xlink="http://www.w3.org/1999/xlink" x="0px" y="0px" viewBox="0 0 400 100"
	 style="enable-background:new 0 0 400 100;" xml:space="preserve">
<style type="text/css">
	.st0{fill:#2CA02C;stroke:#6DF379;stroke-miterlimit:15.1181;}
	.st1{fill-rule:evenodd;clip-rule:evenodd;fill:#37C837;}
	.st2{fill:url(#pole_1_);}
	.st3{fill:url(#SVGID_1_);}
</style>
<g id="money1_1_" transform="rotate(18.530836,49.095414,52.840738)">
	<path id="path899" inkscape:connector-curvature="0" sodipodi:nodetypes="cczcczc" class="st0" d="M158.9-22.9v22.7
		c0,0,10.9,5.3,25.4,0.5c14.5-4.7,23.6-0.5,23.6-0.5v-23.2c0,0-9.3-1.8-25.8,3.2S158.9-22.9,158.9-22.9L158.9-22.9z"/>
	
		<ellipse id="path903" transform="matrix(7.407798e-06 1 -1 7.407798e-06 172.667 -192.8137)" class="st1" cx="182.7" cy="-10.1" rx="8.8" ry="5.1"/>
</g>
<g id="money3" transform="rotate(-22.554757,69.148124,47.822628)">
	<path id="path899-6" inkscape:connector-curvature="0" sodipodi:nodetypes="cczcczc" class="st0" d="M193.9,96.5v22.7
		c0,0,10.9,5.3,25.4,0.5c14.5-4.7,23.6-0.5,23.6-0.5V96c0,0-9.3-1.8-25.8,3.2C200.6,104.3,193.9,96.5,193.9,96.5L193.9,96.5z"/>
	
		<ellipse id="path903-7" transform="matrix(-1 7.687048e-06 -7.687048e-06 -1 435.5919 218.6964)" class="st1" cx="217.8" cy="109.3" rx="5.1" ry="8.8"/>
</g>
<g id="money2_1_" transform="rotate(0.86328776,-569.86084,-207.00009)">
	<path id="path899-6-3" inkscape:connector-curvature="0" sodipodi:nodetypes="cczcczc" class="st0" d="M171.3,41.6l0,22.7
		c0,0,10.9,5.3,25.4,0.5c14.5-4.7,23.6-0.5,23.6-0.5V41.1c0,0-9.3-1.8-25.8,3.2S171.3,41.6,171.3,41.6L171.3,41.6z"/>
	
		<ellipse id="path903-7-5" transform="matrix(8.653662e-06 1 -1 8.653662e-06 249.6865 -140.665)" class="st1" cx="195.2" cy="54.5" rx="8.8" ry="5.1"/>
</g>
<g id="money4" transform="rotate(4.5229778,-37.477309,351.1959)">
	<path id="path899-6-2" inkscape:connector-curvature="0" sodipodi:nodetypes="cczcczc" class="st0" d="M244.4,23.5l0,22.7
		c0,0,10.9,5.3,25.4,0.5c14.5-4.7,23.6-0.5,23.6-0.5V23c0,0-9.3-1.8-25.8,3.2S244.4,23.5,244.4,23.5L244.4,23.5z"/>
	
		<ellipse id="path903-7-9" transform="matrix(7.882725e-06 1 -1 7.882725e-06 304.6085 -231.922)" class="st1" cx="268.3" cy="36.3" rx="8.8" ry="5.1"/>
</g>
<g id="money5" transform="rotate(-10.962721,71.040148,-116.03641)">
	<path id="path899-6-2-2" inkscape:connector-curvature="0" sodipodi:nodetypes="cczcczc" class="st0" d="M278.6,64.8v22.7
		c0,0,10.9,5.3,25.4,0.5c14.5-4.7,23.6-0.5,23.6-0.5V64.3c0,0-9.3-1.8-25.8,3.2C285.4,72.5,278.6,64.8,278.6,64.8L278.6,64.8z"/>
	
		<ellipse id="path903-7-9-7" transform="matrix(-1 8.284141e-06 -8.284141e-06 -1 604.8977 155.3717)" class="st1" cx="302.4" cy="77.7" rx="5.1" ry="8.8"/>
</g>
<linearGradient id="pole_1_" gradientUnits="userSpaceOnUse" x1="-178.9877" y1="52.9301" x2="-178.9877" y2="46.5504" gradientTransform="matrix(1 0 0 -1 0 100)">
	<stop  offset="5.760169e-02" style="stop-color:#E34C4C"/>
	<stop  offset="0.5745" style="stop-color:#930000"/>
	<stop  offset="1" style="stop-color:#E24747"/>
</linearGradient>
<rect id="pole" x="-383.9" y="47.1" class="st2" width="409.9" height="6.4"/>
<g id="rakeEnd">
	<linearGradient id="SVGID_1_" gradientUnits="userSpaceOnUse" x1="25.4708" y1="50.2433" x2="138.0023" y2="50.2433">
		<stop  offset="0" style="stop-color:#4D4D4D"/>
		<stop  offset="0.5263" style="stop-color:#141414"/>
		<stop  offset="1" style="stop-color:#4D4D4D"/>
	</linearGradient>
	<polygon class="st3" points="130.3,53 138,53 138,47.6 130.3,47.6 63.1,47.6 130,37 136.2,37 136.2,31.6 129.6,31.6 129.6,31.6 
		129.6,31.6 129.6,31.6 129.6,31.6 67.8,41.4 126.2,22.4 132,22.4 132,17 125.3,17 125.3,17.1 63.9,37 120.1,8.4 125.4,8.4 125.4,3 
		119,3 118.9,2.9 118.8,3 118.8,3 118.8,3 34.1,46.1 25.5,46.1 25.5,54.5 34.1,54.5 118.6,97.6 118.6,97.6 118.6,97.6 125.2,97.6 
		125.2,92.2 119.9,92.2 63.5,63.5 125,83.4 125,83.4 125,83.5 131.6,83.5 131.6,78.1 125.9,78.1 67.5,59.1 129.2,68.9 129.2,68.8 
		135.8,68.8 135.8,63.5 129.6,63.5 63.7,53 	"/>
</g>
</svg>
