<?xml version="1.0" encoding="utf-8"?>
<!-- Generator: Adobe Illustrator 24.0.3, SVG Export Plug-In . SVG Version: 6.00 Build 0)  -->
<svg version="1.1" id="scorpionAndLight" xmlns="http://www.w3.org/2000/svg" xmlns:xlink="http://www.w3.org/1999/xlink" x="0px"
	 y="0px" viewBox="0 0 352 331" style="enable-background:new 0 0 352 331;" xml:space="preserve">
<style type="text/css">
	.st0{display:none;fill:#7F00FF;}
	.st1{fill:#CCCC00;stroke:#A4AB1F;stroke-width:3;stroke-miterlimit:10;}
</style>
<path id="light" class="st0" d="M347.9,197.3L239.1-0.2H0.1l35.4,253c0,0,34.6,92.2,176.1,76.6S359.7,218.8,347.9,197.3z"/>
<g id="scorpion">
	<path id="tail_1_" class="st1" d="M148.5,212.5c-6.1,0-19,0-20-5c0,0-18-2-22-12c0,0-14-13-13-22c0,0,0-16,13-30c0,0,2-2,5-1
		c0,0,1-7,20,4s14,22,13,24s-14,13-18,1c-2-6-6-8-9-9c0,0,16-2,23,1c0,0-22-7-27-15c0,0-3,16-14,21c0,0,13,1,11,19c0,0,13-5,20,9
		c0,0,10-8,20,3S152.5,212.5,148.5,212.5z"/>
	<g id="leftLegs_1_">
		<path class="st1" d="M165.5,163.5c0,0-4-6-5-2c-1,2,3,4,3,4s-6,8-11,10s-9,1-9,4s13,13,16,15s8,1,10,1s28,4,30,6s16,6,16,6
			s-11-10-14-10s-26-7-39-8c0,0-7-9-11-11c0,0,3,1,4,0s11-11,12-12S165.5,163.5,165.5,163.5z"/>
		<path class="st1" d="M226.5,215.5c0,0-14-15-18-17s-14-6-15-8s-8-5-10-20c0,0,12-16,11-17s-2-9,0-9s3,8,3,8s-2,7-4,11s-2,4-5,6
			c0,0,9,9,7,17c0,0,3-4,26,18c0,0,18,14,17,20S226.5,215.5,226.5,215.5z"/>
		<path class="st1" d="M236.5,225.5c0-1,1-5,1-5s-18-13-21-15s6-12,17-15c3-1,21,14,23,15s1,4,1,4s0,2-3-2l-3-2c0,0-13-5-15-10
			c0,0-3,7-12,8c0,0,14,9,16,14c0,0,7,1,4,10S236.5,225.5,236.5,225.5z"/>
		<path class="st1" d="M255.5,234.5c0,0,0-13,1-14s2,4,12,5c0,0,1,5,4,8c1,3,4,10,4,10s2,1,6,2s5-2,0-4c-2-1-4,0-4,0s-3-15-7-19
			s-14-13-18-14s-2,24-2,24S251.5,238.5,255.5,234.5z"/>
		<path class="st1" d="M256.5,233.5c0,0-1,2-1,4s1,9,5,7s8-7,8-12c0,0-12-16-16-19c0,0,9,2,17-2c0,0,5,11,16,13s17,20,19,21
			s-3-15-14-24c-5-10-14-15-16-16s-3,0-3,0s-6-5-18-1s-14,2-13,7S256.5,233.5,256.5,233.5z"/>
	</g>
	<g id="rightForearms_1_">
		<path class="st1" d="M240.5,250.5c0,0-13,16-18,21s19,12,22,11c0,0,11,1,21-2c0,0,3,7,5,6s-4-9-4-9s-9,1-11,1s-5-2-9-1
			c0,0-8-8-17-5c0,0,13-3,18-23L240.5,250.5z"/>
		<path class="st1" d="M243.5,251.5c0,0,1,7-3,5s-20-10-25-4s3,29,5,31s5,2,5,2s-3,9,18,7c8,0,8-3,10-3s19-3,25-8c0,0-24,10-34,0
			c-3-4-15,0-15,0s0-13-7-22c0,0,12,3,20,5c4,4,11,6,12-6S243.5,251.5,243.5,251.5z"/>
	</g>
	<g id="body_1_">
		<path id="exo_1_" class="st1" d="M234.5,251.5c0,0,9,2,15,0s10-11,9-13s-22-17-22-17s-1-4-7-5c0,0-2-4-5-3c0,0,0-3-6-3
			c0,0-3-6-8-5c0,0-4-4-10-4c0,0-15-6-20-4c0,0-5-4-12,0c0,0-11-3-19,2c0,0-3,7-3,12c0,0,3,11,13,11c0,0,10,9,13,8c0,0,8,6,11,5
			c0,0,5,5,14,3c0,0,5,4,7,4c0,0,2,2,5,2c0,0,1,2,6,2C215.5,246.5,230.5,250.5,234.5,251.5z"/>
		<g id="vertebrae_1_">
			<path class="st1" d="M229.5,216.5c0,0-12,18-13,30"/>
			<path class="st1" d="M224.5,213.5c0,0-14,13-15,31"/>
			<path class="st1" d="M218.5,210.5c0,0-15,20-14,32"/>
			<path class="st1" d="M211.5,205.5c0,0-16,11-14,33"/>
			<path class="st1" d="M200.5,201.5c0,0-12,4-17,34"/>
			<path class="st1" d="M181.5,197.5c0,0-11,8-9,33"/>
			<path class="st1" d="M168.5,197.5c0,0-8,5-9,25"/>
		</g>
	</g>
	<g id="rightHindLegs_1_">
		<path class="st1" d="M195.5,247.5c0,0-16-1-17-5c0,0-33-16-34-22c0,0-11,4-25-1c0,0-6,5-13,8s-12,7-13,7s-9-7-11-7s-2-5,11,3
			c0,0,25-16,26-17s20-3,27,2c0,0,15,5,23,12S195.5,247.5,195.5,247.5z"/>
		<path class="st1" d="M214.5,252.5c3.1,0.3-11,3-14,1s-4-4-4-4s-21-14-22-17c0,0-1,13-11,17c0,0,18,18,18,20s-5,13-6,12s0-7,2-11
			c0,0-20-19-21-21s13-25,18-25S204.5,251.5,214.5,252.5z"/>
		<path class="st1" d="M218.5,250.5c0,0-4,2-4,4c0,2.8-12-6-13-9c0,0-2,13-10,15c0,0,5,5,7,10l8,8c0,0-1,12-3,12s0-11,0-11
			s-20-16-18-20s10-20,15-20S212.5,250.5,218.5,250.5z"/>
	</g>
</g>
</svg>
