<?xml version="1.0" encoding="utf-8"?>
<!-- Generator: Adobe Illustrator 24.0.3, SVG Export Plug-In . SVG Version: 6.00 Build 0)  -->
<svg version="1.1" id="Layer_1" xmlns="http://www.w3.org/2000/svg" xmlns:xlink="http://www.w3.org/1999/xlink" x="0px" y="0px"
	 viewBox="0 0 100 100" style="enable-background:new 0 0 100 100;" xml:space="preserve">
<style type="text/css">
	.st0{fill:#BF0000;}
	.st1{fill:#FCFCFC;}
</style>
<g>
	<polygon class="st0" points="61.5,14.3 69.4,26.2 85.3,28.2 84.4,40.6 97.9,49 88.5,57.9 95.2,70.1 80.4,72.7 78.3,84.7 62.7,80.2 
		52.3,88.3 40.9,78.1 25.7,79.7 22.1,67.1 6.8,61.6 12.1,50.6 1.6,39.8 14.2,33.8 11.8,21.2 27.6,22.2 34.2,11.7 48.2,19.3 	"/>
</g>
<g>
	<path class="st1" d="M22.4,50.5L27,34.1l3.2,0.9l3.6,12.8l3.1-10.9l3.1,0.9l-4.6,16.3L32,53.2l-3.6-12.5l-3,10.7L22.4,50.5z"/>
	<path class="st1" d="M38.8,55.1l4.6-16.3l12.1,3.4L54.8,45L46,42.5l-1,3.6l8.2,2.3l-0.8,2.8l-8.2-2.3l-1.3,4.4l9.1,2.6l-0.8,2.8
		L38.8,55.1z"/>
	<path class="st1" d="M56.4,60.1l0.7-17.4l3.4,1l-0.7,11.9l6.2-10.4l3.9,1.1l-0.4,12.2l5.7-10.7l3.3,0.9L70,63.9l-3.5-1l0.2-13.1
		L60,61.1L56.4,60.1z"/>
</g>
</svg>
