<svg xmlns="http://www.w3.org/2000/svg" xml:space="preserve" stroke-linecap="round" stroke-linejoin="round" stroke-miterlimit="10" clip-rule="evenodd" viewBox="0 0 93 102.9"><defs><clipPath id="a"><path d="M.7 80h63.2v20H.7z"/></clipPath><clipPath id="b"><path d="M48.7 23.2h46.8v35.4H48.7z"/></clipPath></defs><g fill-rule="evenodd"><path fill="#fff" stroke="#136796" stroke-width="2" d="M6.4 1.7h52.4c2.4 0 4.4 2 4.4 4.4v91c0 2.4-2 4.3-4.4 4.3H6.4C4 101.4 2 99.4 2 97V6c0-2.4 2-4.3 4.4-4.3Z"/><path fill="#136796" d="M8.1 78.7h49.1c2.4 0 4.4 2 4.4 4.3v12.7c0 2.3-2 4.3-4.4 4.3h-49c-2.5 0-4.4-2-4.4-4.3V83c0-2.4 2-4.3 4.3-4.3Z"/></g><g fill="#136796" fill-rule="evenodd"><path d="M33.1 4.4C30.1 10.8 19 17 32.6 27c3.7 2.7 10 4.4 6.8 11-.2.5.3.7.7.3 4.6-5.4 12.1-13.8 5.8-20.7-3.6-3.9-11-6.4-12.4-10-.3-.8 0-1.8.4-2.7.3-.7-.6-1-.8-.6Z"/><path d="M33.3 4.4C30.2 10.8 19 17 32.8 27c3.7 2.7 10 4.4 6.8 11-.3.5.2.7.7.3 4.6-5.4 12-13.8 5.8-20.7-3.6-3.9-11-6.4-12.4-10-.3-.8 0-1.8.4-2.7.3-.7-.7-1-.8-.6Z"/><path d="M26.7 26.7c-1.6 4.4-9.6 9.4 1.1 15.1 2.5 1.5 5.7 3.4 5.4 6.1-.1.4.2.4.4.1 3.6-4 6.2-9.9 1.9-13.8-2.3-2.2-7.7-3.4-8.2-7.1 0-.5-.5-.6-.6-.4Zm-7.3 22.9h27.2V53H19.4v-3.4Z"/><path d="M19.5 49.5 18.3 53h2l-.8-3.4Zm27.1 0 1.2 3.4h-2l.8-3.4Zm-21.4 2.6 2 5.4H39l1.8-5.4H25.2Zm-14.3 8.3h3.6v16.1h-3.6V60.4Z"/><path d="M14.4 60.4h5.8c2.9 0 5.1 5.1 1.4 7.9 5 1.4 3.2 8.1-.8 8.1l-6.4.1-1-3 6.2.1c1.9 0 2-3.8 0-3.9l-5.6.1-.2-3h5c2.3.1 1.6-3.5.1-3.5l-5-.1-.5-2.3 1-.5Zm12 0H30v16.1h-3.6V60.4Z"/><path d="M30 60.4h5.7c3 0 5.1 5.1 1.4 7.9 5 1.4 3.2 8.1-.8 8.1l-6.4.1-1-3 6.2.1c2 0 2-3.8 0-3.9l-5.6.1-.1-3h5c2.2.1 1.5-3.5 0-3.5l-5-.1-.5-2.3 1-.5Zm11.7 0h3.6v16.1h-3.6V60.4Z"/><path d="M45.3 60.4H51c2.9 0 5 5.1 1.3 7.9 5 1.4 3.2 8.1-.8 8.1l-6.4.1-1-3 6.2.1c2 0 2-3.8 0-3.9l-5.6.1-.1-3h5c2.3.1 1.6-3.5 0-3.5l-5-.1-.5-2.3 1-.5Z"/></g><path fill="#fff" fill-rule="evenodd" d="M7.3 87.7h1.5l.4-1.3H11l.3 1.3H13L11 82H9.3l-1.9 5.7Zm2.8-4.5.6 2.2H9.5l.6-2.2Zm5.5 4.6c1.5 0 2.5-1 2.6-2.2h-1.4c0 .6-.5 1-1.2 1s-1.2-.7-1.2-1.8c0-1 .5-1.7 1.2-1.7s1.1.4 1.2 1h1.4c0-1.2-1-2.2-2.6-2.2S13 83 13 85c0 1.8 1 2.9 2.7 2.9Zm5.8 0c1.5 0 2.5-1 2.6-2.2h-1.4c0 .6-.5 1-1.1 1-.8 0-1.3-.7-1.3-1.8 0-1 .5-1.7 1.2-1.7s1.1.4 1.2 1H24c0-1.2-1-2.2-2.6-2.2s-2.7 1.1-2.7 3c0 1.8 1 2.9 2.7 2.9Zm3.3-.1H26v-2h.7l1 2h1.6l-1.1-2.2c.6-.3 1-.9 1-1.6 0-1.2-.8-1.9-2.2-1.9h-2.4v5.7Zm1.4-3V83h.8c.5 0 .9.3.9.8s-.3.8-.8.8h-1Zm3.9 3h3.8v-1.2h-2.4v-1.1h2.3v-1.1h-2.3v-1.1h2.4V82H30v5.7Zm4.6 0H37c1.7 0 2.7-1 2.7-2.9 0-1.8-1-2.8-2.7-2.8h-2.3v5.7Zm1.5-1.2v-3.3h.6c1 0 1.5.5 1.5 1.6s-.5 1.7-1.5 1.7h-.6Zm4.2 1.2h1.5V82h-1.5v5.7Zm3.7 0h1.3v-4.5H47V82h-4.5v1.2H44v4.5Zm3.5 0h3.9v-1.2h-2.5v-1.1h2.3v-1.1H49v-1.1h2.5V82h-3.9v5.7Zm4.7 0h2.3c1.7 0 2.7-1 2.7-2.9 0-1.8-1-2.8-2.7-2.8h-2.3v5.7Zm1.4-1.2v-3.3h.7c.9 0 1.4.5 1.4 1.6s-.5 1.7-1.4 1.7h-.7ZM13 97.2h2.8c1.2 0 2-.6 2-1.6 0-.8-.7-1.3-1.4-1.4.6 0 1-.6 1-1.2 0-.9-.6-1.4-1.7-1.4h-2.6v5.6Zm2.3-4.6c.5 0 .8.2.8.6 0 .4-.3.7-.9.7h-.7v-1.3h.8Zm0 2.2c.6 0 1 .2 1 .7 0 .4-.4.7-1 .7h-.8v-1.4h.8Zm5.5 2.5c1.4 0 2.4-.8 2.4-2v-3.7h-1.4V95c0 .6-.4 1-1 1-.7 0-1-.4-1-1v-3.5h-1.5v3.6c0 1.3 1 2.1 2.5 2.1Zm5.4 0c1.5 0 2.4-.7 2.4-1.8 0-1-.6-1.4-1.8-1.7h-.5c-.6-.2-1-.3-1-.6 0-.4.4-.6 1-.6.4 0 .8.2.8.6h1.4c0-1-.9-1.7-2.3-1.7-1.3 0-2.2.7-2.2 1.8 0 .8.6 1.4 1.7 1.6h.6c.6.2.9.4.9.7 0 .3-.4.6-1 .6-.5 0-1-.3-1-.6h-1.3c0 1 1 1.7 2.3 1.7Zm3.1-.1h1.4v-5.6h-1.4v5.6Zm2.2 0H33V94l2.3 3.3h1.2v-5.6H35v3.2l-2.2-3.2h-1.3v5.6Zm5.8 0h3.9v-1.1h-2.4v-1.2H41v-1h-2.2v-1.2h2.4v-1.1h-3.9v5.6Zm6.9.1c1.5 0 2.3-.7 2.3-1.8 0-1-.5-1.4-1.7-1.7h-.6c-.6-.2-.9-.3-.9-.6 0-.4.3-.6.9-.6.5 0 .8.2.9.6h1.3c0-1-.8-1.7-2.3-1.7-1.2 0-2.2.7-2.2 1.8 0 .8.6 1.4 1.7 1.6h.6c.7.2 1 .4 1 .7 0 .3-.4.6-1 .6s-1-.3-1-.6h-1.4c0 1 1 1.7 2.4 1.7Zm5.2 0c1.5 0 2.3-.7 2.3-1.8 0-1-.5-1.4-1.7-1.7h-.6c-.6-.2-.9-.3-.9-.6 0-.4.3-.6.9-.6.5 0 .8.2.9.6h1.3c0-1-.8-1.7-2.2-1.7-1.3 0-2.3.7-2.3 1.8 0 .8.6 1.4 1.7 1.6h.6c.7.2 1 .4 1 .7 0 .3-.4.6-1 .6s-1-.3-1-.6H47c0 1 1 1.7 2.4 1.7Z" clip-path="url(#a)"/><g fill-rule="evenodd"><path fill="#136796" d="M47.6 41a22.3 22.3 0 1 1 44.7 0 22.3 22.3 0 0 1-44.7 0Z"/><path fill="#fff" d="M53.4 50h5.3l1.2-4.4h6.4l1.3 4.3h5.2l-6.6-19.7h-6.1l-6.7 19.7Zm9.7-15.5 2.2 7.5H61l2.2-7.5ZM74.2 44h5.6v5H84v-5h5.6v-4.2H84v-5h-4.2v5h-5.6V44Z" clip-path="url(#b)"/></g></svg>