<svg xmlns="http://www.w3.org/2000/svg" fill="#2F2F06" viewBox="0 0 24 24"><path d="M18 18V5a3 3 0 0 0-3-3 3 3 0 0 0-3 3v1h2V5a1 1 0 0 1 1-1 1 1 0 0 1 .7.3 1 1 0 0 1 .3.7v2H8V5a3 3 0 0 0-.9-2.1A3 3 0 0 0 5 2a3 3 0 0 0-3 3v1h2V5a1 1 0 0 1 1-1 1 1 0 0 1 .7.3A1 1 0 0 1 6 5v15c-.6 0-.8-.2-1.3-.7A3.6 3.6 0 0 0 2 18v2c.6 0 .8.2 1.3.7A3.6 3.6 0 0 0 6 22a3.6 3.6 0 0 0 2.7-1.3c.5-.5.7-.7 1.3-.7s.8.2 1.3.7a3.5 3.5 0 0 0 5.4 0c.5-.5.7-.7 1.3-.7s.8.2 1.3.7A3.6 3.6 0 0 0 22 22v-2c-.6 0-.8-.2-1.3-.7A3.6 3.6 0 0 0 18 18Zm-2-3H8v-2h8Zm0-6v2H8V9Zm-2 11c-.6 0-.8-.2-1.3-.7A3.6 3.6 0 0 0 10 18a3.2 3.2 0 0 0-2 .7V17h8v1.6a6.5 6.5 0 0 0-.7.7c-.5.5-.8.7-1.3.7Z"/></svg>