<svg xmlns="http://www.w3.org/2000/svg" width="24" height="24"><path d="M24 4.557a9.8 9.8 0 0 1-2.828.775 4.93 4.93 0 0 0 2.165-2.724 9.9 9.9 0 0 1-3.127 1.195 4.92 4.92 0 0 0-3.594-1.555c-3.179 0-5.515 2.966-4.797 6.045A13.98 13.98 0 0 1 1.671 3.149a4.93 4.93 0 0 0 1.523 6.574 4.9 4.9 0 0 1-2.229-.616c-.054 2.281 1.581 4.415 3.949 4.89a4.9 4.9 0 0 1-2.224.084 4.93 4.93 0 0 0 4.6 3.419A9.9 9.9 0 0 1 0 19.54a13.94 13.94 0 0 0 7.548 2.212c9.142 0 14.307-7.721 13.995-14.646A10 10 0 0 0 24 4.557"/></svg>