<svg xmlns="http://www.w3.org/2000/svg" xml:space="preserve" stroke-linecap="round" stroke-linejoin="round" stroke-miterlimit="10" clip-rule="evenodd" viewBox="0 0 93.72 52.6"><g fill-rule="evenodd"><path fill="#1a284c" d="M4.54 5.22h65.28a4.2 4.2 0 0 1 4.2 4.2v38.73a4.2 4.2 0 0 1-4.2 4.2H4.54a4.2 4.2 0 0 1-4.2-4.2V9.42a4.2 4.2 0 0 1 4.2-4.2"/><path fill="#e94420" d="M6.58 7.16h54.55a4.21 4.21 0 0 1 4.21 4.22V29.7a4.21 4.21 0 0 1-4.21 4.22H6.58a4.21 4.21 0 0 1-4.21-4.22V11.38a4.21 4.21 0 0 1 4.21-4.22"/><path fill="#1a284c" d="M23.86 38.34h65.36c2.3 0 4.16 1.86 4.16 4.16v5.7c0 2.3-1.86 4.16-4.16 4.16H23.86a4.16 4.16 0 0 1-4.16-4.17V42.5c0-2.3 1.86-4.16 4.16-4.16"/></g><g fill-rule="evenodd"><path fill="#fff" d="M15 7.17c.4.2 2.48 1.22 4.41 1.19 1.98-.03 4.18-.27 6.13-1.19zm-3.56 0 3.41 3.35c-1.04-1.35 4.94-1.57 4.94-1.57zm50.22.88s-7.22.67-10.78 1.84c-3.55 1.17-5.59 2.24-8.1 2.81-2.5.58-7.43.04-11.12-.87-3.68-.92-8.73-1.1-13.02 1.1l4.83 3.66s7.16-3.38 11.38-3.2c4.7.2 8.41 1.9 11.66 1.75 2.56-.11 4.37.15 6.75-1.16 2.38-1.3 5.8-3 6.59-2.9s1.81-3.03 1.81-3.03M64 20.02s-4.26-.24-8.12 1.78c-3.86 2.01-10.68 5.95-13.97 6.25-3.28.3-.31 3.75-.31 3.75l22.16.1.25-11.88Zm-2.24-4.54s-2.72 1.37-4.91 1.29c-2.19-.09-1.78.93-1.78.93s5.16 1.75 6.9 1.47c1.75-.28-.21-3.69-.21-3.69M21.73 28.33c-5.01-.23-12.25 1.1-18.5 3.78a4.13 4.13 0 0 0 3.34 1.81h18.75c1.61-1.34 3.75-3.51.72-4.81-1.05-.45-2.55-.7-4.31-.78"/><path fill="#fff" d="M36.07 7.17c-6.2 3.35-10.4 3.06-10.4 3.06 1.16.3 5.86 1.51 9.93.85 3.83-.63 10.65-3.54 11.5-3.9H36.07Z"/><path fill="#1a284c" d="M6.46 6.25c-2.32 0-5.03 2.77-5.03 5.1l.95 11.35 15.38 1.13 11.43-2.88L11.51 7.17z"/><path fill="#fff" d="M43.66 15.64c-1.5 0-3.18.11-5 .44-7.26 1.3-10.05 4.18-13.78 5.19a32.8 32.8 0 0 1-11.69 1.25c-2.74-.1-8.54-1.11-10.8-1.13v3.66c1.18-.11 3.61-.82 6.8-.63 5.3.33 10.6 1.6 16.22 1.53 8.35-.1 13.8-4.38 16.82-5.4 2.55-.87 4.8-2.54 7.59-1.9 2.78.62 1.31-1.88 1.31-1.88s-2.94-1.11-7.47-1.13M6.27 16.93l.87 1.43-2.68.12 2.88.3.43 1.1 1.32-.67 2.68.1-1.92-.78.96-.96-2.25.57-2.3-1.21ZM2.38 12.9v3.08l1.53-1.25 2.44-.09-1.66-.53.97-1.19-2.18.66-1.1-.69Z"/><path fill="#fff" d="m2.76 19.05.43.72-.8-.04v.22l1.18.25.16.63 1.43-.31 2.75.62-1.65-.75.72-.25-2.22-.19zm2.3-10.61.62 1.51-2.12.68 2.4-.1.2 1.1 1-1.02 2.15-.1-1.26-.54.88-1.37-2 .91zm5.44 4.27.62 1.52L9 14.9l2.4-.09.27 1.83 1.19-1.6 2.58-.12-1.94-.67.88-1.37-2 .91zm5.54 5.06.44 1.26-2.27.72 2.87.23.64 1.2 1.08-1.16 2.57-.1-1.93-.68.87-1.38-2.43 1z"/><path fill="#1a284c" d="M12.91 7.17 65.25 20.4l.1-9c0-2.33-1.9-4.22-4.22-4.22H12.91ZM2.66 9.92c-.17.46-.28.95-.28 1.47V29.7a4.2 4.2 0 0 0 4.19 4.22h25.37z" opacity=".25"/><path fill="#1a284c" d="M93.3 43.23c.41-3.2-1.34-7.75-3.16-9.11l-.25-1.28s-3.64-3.4-9.79-3.26l-4.36-5.07-.04-3.74c1.65-.18 4.34-6.31 1.78-6.44l-.09-2.28c1.26-.06.73-3.03.88-3.03 2.2-.01 4.48-.75 4.5-3.3.01-2.55-4.22-5.47-14.48-5.47s-12.3 3.22-12.3 4.91c0 1.94 4.29 3.1 4.29 3.1s-1.48.8-1.45 1.3c.04.5 1.07.61 1.07.61s-.86 1.66-.76 2.32c.1.65 1.54.98 1.54.98l.05 1.2c-2 .05-.33 5.6 1.39 5.94l.22 3.66s-1.4.82-1.51 1.97c0 0-2.02.1-2.56 1.2 0 0-9.25-3.19-10.58.45 0 0-2.36.53-2.45 1.43l-2.26.13s2.2-2.51 2.9-2.82c.72-.3 2.85-1.17 3.89-3 1.03-1.82 1.54-2.33 2.5-3.1.98-.78 2.42-1.36 3.3-2.08.59-.46 2.22-2.12 3.3-3.58.75-1 .83-1.53.31-1.96-1.27-1.06-8.7 2.9-10.3 3.75-.87.46-3.21 6.18-4.42 6.19-1.2 0-4.1-.41-5.77.54 0 0-3.2.58-6.6 2.05-3.42 1.46-9.04 4.12-9.58 5.24 0 0-4.14 1.94-4.36 4.94-.21 3 74.83 10.18 75.15 7.61"/></g><path fill="#fff" fill-rule="evenodd" d="M1.37 37.54h2.54v.88H3l1.21 7.74 1.19-7.74h-.9v-.88h2.53v.88H6.3l-1.67 9.85H3.8l-1.67-9.85h-.75v-.88Zm7.58 6.67a10.6 10.6 0 0 0-.17-1.86 2 2 0 0 0-.21-.6c-.09-.14-.19-.21-.31-.21-.11 0-.21.07-.3.22a6 6 0 0 0-.35 1.44c-.03.33-.05.66-.06 1.01zm-.57 3.42c.14 0 .26-.04.35-.14.1-.1.17-.22.23-.36s.1-.3.14-.46l.09-.46h.72c-.04.32-.1.63-.18.9-.08.28-.2.52-.32.73-.13.2-.29.36-.47.47a1.1 1.1 0 0 1-.6.18c-.27 0-.5-.09-.72-.25-.2-.17-.39-.42-.54-.75a4.8 4.8 0 0 1-.35-1.22 10.3 10.3 0 0 1 0-3.3c.08-.48.2-.9.34-1.23.15-.34.32-.6.52-.79a1 1 0 0 1 .68-.28c.52 0 .92.36 1.2 1.07.29.72.43 1.75.43 3.11v.17H7.55c.02.86.09 1.5.21 1.95.12.44.33.66.62.66m3.99-.09a.7.7 0 0 0 .37-.1l.3-.25.4.75-.2.17a1.9 1.9 0 0 1-.6.3 1.2 1.2 0 0 1-.38.06c-.4 0-.72-.14-.95-.43-.23-.3-.35-.73-.35-1.32v-5h-.83v-.88h.83v-2.26h.92v2.26h1.21v.87h-1.21v5.01c0 .28.04.49.12.62s.2.2.37.2m3.57-3.33a10.6 10.6 0 0 0-.17-1.86 2 2 0 0 0-.2-.6c-.1-.14-.2-.21-.32-.21-.11 0-.2.07-.3.22-.07.15-.14.34-.2.59a11 11 0 0 0-.2 1.86h1.4Zm-.56 3.42c.14 0 .26-.04.35-.14.1-.1.17-.22.23-.36a14 14 0 0 0 .23-.92h.72a4.8 4.8 0 0 1-.51 1.63c-.13.2-.28.36-.46.47a1.1 1.1 0 0 1-.6.18c-.27 0-.5-.09-.72-.25-.21-.17-.4-.42-.55-.75a4.8 4.8 0 0 1-.34-1.22 10.3 10.3 0 0 1 0-3.3c.08-.48.19-.9.34-1.23.14-.34.32-.6.52-.79a1 1 0 0 1 .68-.28c.51 0 .91.36 1.2 1.07.28.72.42 1.75.42 3.11v.17h-2.34c.01.86.08 1.5.2 1.95.13.44.33.66.63.66m2.05-6.79h1.52v.7c.19-.33.37-.56.56-.7a.95.95 0 0 1 .58-.21c.1 0 .19.01.27.04a1.8 1.8 0 0 1 .4.2l.11.08-.33.88-.07-.08a1 1 0 0 0-.11-.1.7.7 0 0 0-.15-.1.5.5 0 0 0-.2-.04.58.58 0 0 0-.35.12 1.3 1.3 0 0 0-.3.33 3.3 3.3 0 0 0-.41 1.04v4.4h.75v.87h-2.27v-.88h.6v-5.68h-.6zm5.54 3.53c-.26.02-.47.08-.62.17a.9.9 0 0 0-.37.36c-.1.15-.15.34-.18.56a6 6 0 0 0-.04.78c0 .46.04.81.13 1.05s.2.36.36.36c.06 0 .13-.03.2-.08a1 1 0 0 0 .2-.21 2.2 2.2 0 0 0 .32-.7v-2.3Zm-1.86-1.9c.03-.37.09-.68.18-.92.09-.23.2-.42.32-.56a1 1 0 0 1 .42-.29 1.54 1.54 0 0 1 1.02.02 1 1 0 0 1 .44.36c.12.16.22.4.3.7.06.3.1.67.1 1.14v4.47h.6v.88h-1.52v-.51c-.14.24-.28.43-.43.55a.9.9 0 0 1-.58.18.7.7 0 0 1-.42-.15 1.2 1.2 0 0 1-.35-.41 4.2 4.2 0 0 1-.34-1.64c0-.51.06-.93.17-1.25a2 2 0 0 1 .44-.78c.2-.2.42-.34.67-.43.26-.1.54-.16.84-.21v-.72c0-.31-.01-.56-.04-.75a1.8 1.8 0 0 0-.1-.43.43.43 0 0 0-.15-.2.33.33 0 0 0-.18-.06c-.15 0-.27.1-.36.28-.08.18-.13.48-.16.89zm3.75-1.63h1.52v.83c.17-.32.35-.57.54-.76.2-.19.42-.28.67-.28a.8.8 0 0 1 .77.5c.16.34.24.82.24 1.45v4.81h.6v.88h-1.97v-.88h.45v-4.5c0-.3 0-.52-.02-.7a2.3 2.3 0 0 0-.06-.42c-.02-.1-.06-.17-.1-.2a.24.24 0 0 0-.16-.06q-.15 0-.3.15c-.1.1-.2.23-.28.4a3.5 3.5 0 0 0-.38 1.14v4.2h.44v.87h-1.96v-.88h.6v-5.68h-.6zm12.53 2.08c0 .96-.07 1.8-.2 2.5a6.7 6.7 0 0 1-.54 1.73c-.23.45-.5.79-.8 1a1.72 1.72 0 0 1-2.03 0 2.66 2.66 0 0 1-.81-1 6.6 6.6 0 0 1-.55-1.74c-.13-.7-.2-1.53-.2-2.5 0-.95.07-1.78.2-2.48a7 7 0 0 1 .55-1.74c.23-.46.5-.8.82-1.02a1.73 1.73 0 0 1 2.01 0q.465.33.81 1.02c.23.45.4 1.03.54 1.73.13.7.2 1.53.2 2.5m-1.01 0c0-1.53-.13-2.68-.4-3.48q-.375-1.2-1.14-1.2c-.53 0-.92.4-1.17 1.21-.26.8-.4 1.96-.4 3.47 0 1.52.14 2.67.4 3.47q.375 1.2 1.17 1.2c.5 0 .89-.4 1.15-1.2s.39-1.95.39-3.47m3.92 5.35h-.94l-1.06-6.56h-.48v-.87h1.87v.87h-.47l.64 4.8.84-5.67h.7l.83 5.68.64-4.8h-.47v-.88h1.87v.87h-.48l-1.06 6.56h-.93l-.76-5.1-.75 5.1Zm4.2-7.43H46v.83c.17-.32.36-.57.55-.76.2-.19.41-.28.66-.28a.8.8 0 0 1 .78.5c.16.34.23.82.23 1.45v4.81h.6v.88h-1.97v-.88h.46v-4.5c0-.3 0-.52-.02-.7a2.3 2.3 0 0 0-.06-.42c-.03-.1-.06-.17-.1-.2a.24.24 0 0 0-.17-.06q-.15 0-.3.15c-.1.1-.19.23-.28.4A3.5 3.5 0 0 0 46 43.2v4.2h.45v.87H44.5v-.88h.6v-5.68h-.6zm7.16 3.37a10.6 10.6 0 0 0-.17-1.86 2 2 0 0 0-.2-.6c-.1-.14-.2-.21-.32-.21-.11 0-.2.07-.3.22-.07.15-.14.34-.2.59a11 11 0 0 0-.2 1.86h1.4Zm-.56 3.42c.14 0 .26-.04.35-.14.1-.1.17-.22.23-.36a14 14 0 0 0 .23-.92h.72a4.8 4.8 0 0 1-.51 1.63c-.13.2-.28.36-.46.47a1.1 1.1 0 0 1-.6.18c-.27 0-.5-.09-.72-.25-.21-.17-.4-.42-.55-.75a4.8 4.8 0 0 1-.34-1.22 10.3 10.3 0 0 1 0-3.3c.08-.48.19-.9.34-1.23.14-.34.32-.6.52-.79a1 1 0 0 1 .68-.28c.51 0 .91.36 1.2 1.07.28.72.42 1.75.42 3.11v.17h-2.34c.01.86.08 1.5.2 1.95.13.44.33.66.63.66m6.1.64h-1.5v-.49c-.14.23-.29.4-.44.52a.85.85 0 0 1-.55.19.96.96 0 0 1-.56-.2 1.5 1.5 0 0 1-.47-.64 5 5 0 0 1-.31-1.22 13 13 0 0 1 0-3.64c.08-.48.18-.89.32-1.2a2 2 0 0 1 .47-.73.88.88 0 0 1 .6-.23c.19 0 .36.05.52.17.15.11.3.31.42.6v-2.98h-.65v-.88h1.56v9.85h.6v.88Zm-2.28-.62q.255 0 .45-.3c.13-.19.24-.46.32-.8V42.9a4.7 4.7 0 0 0-.3-.95 1.4 1.4 0 0 0-.2-.35c-.08-.1-.17-.14-.26-.14-.1 0-.21.07-.3.2-.1.14-.18.34-.26.6a12 12 0 0 0-.23 2.25c0 1 .07 1.79.2 2.33s.33.8.58.8Zm5.15-10.11h2.75a1.8 1.8 0 0 1 .77.18 1.57 1.57 0 0 1 .7.78c.1.2.17.44.22.73a5.34 5.34 0 0 1-.19 2.59 1.37 1.37 0 0 1-.79.73c.46.07.8.35 1.03.83.22.48.34 1.12.34 1.93 0 .63-.06 1.13-.17 1.52-.12.38-.26.69-.45.9-.18.22-.39.36-.62.43-.24.08-.48.11-.73.11h-2.86v-.88h.83v-8.97h-.83zm3.87 7.76c0-.4-.03-.75-.08-1.04a2.5 2.5 0 0 0-.2-.7 1 1 0 0 0-.34-.4.73.73 0 0 0-.42-.14h-1.08v4.37h1.11c.16 0 .3-.04.43-.11a.9.9 0 0 0 .32-.37c.08-.17.15-.39.19-.65a6 6 0 0 0 .07-.96m-.2-5.04c0-.23 0-.46-.04-.68a2.4 2.4 0 0 0-.15-.59 1.1 1.1 0 0 0-.28-.41.65.65 0 0 0-.45-.16h-1v3.75h1c.17 0 .31-.06.43-.16s.22-.24.3-.41c.06-.18.12-.38.15-.61s.05-.48.05-.73Zm6.09 8.01h-1.5v-.85q-.12.33-.24.54a1.3 1.3 0 0 1-.28.32c-.1.08-.2.13-.3.16a1.02 1.02 0 0 1-.73-.04.87.87 0 0 1-.35-.3c-.1-.14-.18-.33-.24-.56-.06-.24-.1-.54-.1-.9v-4.93h-.6v-.87h1.52v5.3c0 .3.01.55.03.74.02.18.05.33.09.44.03.1.08.18.13.22a.3.3 0 0 0 .18.06c.1 0 .2-.05.3-.17.1-.11.2-.26.27-.44a4.7 4.7 0 0 0 .31-1.28v-4h-.75v-.87h1.66v6.55h.6zm.54 0v-2.73h.79v.66c0 .27.02.5.06.67.04.18.1.32.16.42s.13.18.21.22a.52.52 0 0 0 .46.01.5.5 0 0 0 .2-.17c.06-.08.1-.2.14-.34s.06-.33.06-.56a1.87 1.87 0 0 0-.53-1.36 6 6 0 0 0-.49-.49 4 4 0 0 1-.48-.53 2.7 2.7 0 0 1-.38-.7 2.7 2.7 0 0 1-.15-.97c0-.28.03-.52.1-.74.06-.21.15-.4.26-.55.11-.14.24-.26.38-.34a.9.9 0 0 1 .43-.11q.255 0 .45.15c.14.1.25.26.33.46v-.43h.74v2.5h-.79v-.62c0-.23-.01-.42-.04-.58a1.6 1.6 0 0 0-.1-.38.5.5 0 0 0-.16-.2.35.35 0 0 0-.2-.07.44.44 0 0 0-.19.05.43.43 0 0 0-.16.14.8.8 0 0 0-.12.27 1.6 1.6 0 0 0-.05.42 1.82 1.82 0 0 0 .53 1.35c.15.17.32.33.49.48s.33.33.49.53a2.68 2.68 0 0 1 .52 1.77c0 .36-.04.65-.12.9-.08.24-.19.43-.31.58-.13.15-.26.26-.4.32a1 1 0 0 1-.99-.07 1.4 1.4 0 0 1-.4-.47v.51zm3.55-7.43h1.52v6.55h.73v.88h-2.25v-.88h.6v-5.68h-.6zm.26-2.1a.8.8 0 0 1 .19-.54c.13-.14.3-.21.5-.21.19 0 .36.07.5.21.13.15.2.33.2.54 0 .2-.07.39-.2.53a.67.67 0 0 1-.5.2.64.64 0 0 1-.5-.2.75.75 0 0 1-.2-.53Zm2.3 2.1H78v.83c.17-.32.35-.57.54-.76.2-.19.42-.28.67-.28a.8.8 0 0 1 .77.5c.16.34.24.82.24 1.45v4.81h.6v.88h-1.97v-.88h.45v-4.5c0-.3 0-.52-.02-.7a2.3 2.3 0 0 0-.05-.42c-.03-.1-.07-.17-.11-.2a.24.24 0 0 0-.16-.06q-.15 0-.3.15c-.1.1-.2.23-.28.4A3.5 3.5 0 0 0 78 43.2v4.2h.45v.87h-1.97v-.88h.6v-5.68h-.6zm7.17 3.37a15 15 0 0 0-.17-1.86 2 2 0 0 0-.21-.6c-.09-.14-.2-.21-.31-.21s-.21.07-.3.22a6 6 0 0 0-.35 1.44c-.03.33-.05.66-.06 1.01zm-.57 3.42c.14 0 .26-.04.35-.14.1-.1.17-.22.23-.36s.1-.3.14-.46l.09-.46h.72c-.04.32-.1.63-.18.9-.08.28-.2.52-.32.73-.13.2-.29.36-.47.47a1.1 1.1 0 0 1-.6.18c-.27 0-.5-.09-.72-.25-.2-.17-.4-.42-.54-.75a4.8 4.8 0 0 1-.35-1.22 10.3 10.3 0 0 1 0-3.3c.08-.48.2-.9.34-1.23.15-.34.32-.6.52-.79a1 1 0 0 1 .68-.28c.52 0 .92.36 1.2 1.07.29.72.43 1.75.43 3.11v.17h-2.35c.02.86.09 1.5.2 1.95q.195.66.63.66m2.19.64v-2.73h.79v.66c0 .27.02.5.06.67.04.18.1.32.16.42s.13.18.21.22a.52.52 0 0 0 .46.01.5.5 0 0 0 .2-.17c.06-.08.1-.2.14-.34s.05-.33.05-.56q0-.45-.15-.78c-.1-.21-.22-.4-.37-.58a6 6 0 0 0-.49-.49 4 4 0 0 1-.49-.53 2.7 2.7 0 0 1-.37-.7 2.7 2.7 0 0 1-.15-.97c0-.28.03-.52.1-.74.06-.21.15-.4.26-.55.1-.14.23-.26.38-.34a.9.9 0 0 1 .43-.11q.24 0 .45.15c.14.1.25.26.33.46v-.43H88v2.5h-.78v-.62c0-.23-.01-.42-.04-.58a1.6 1.6 0 0 0-.1-.38.5.5 0 0 0-.16-.2.35.35 0 0 0-.2-.07.44.44 0 0 0-.2.05.44.44 0 0 0-.16.14.8.8 0 0 0-.11.27 1.6 1.6 0 0 0-.05.42 1.82 1.82 0 0 0 .53 1.35c.15.17.31.33.49.48.17.15.33.33.48.53a2.7 2.7 0 0 1 .53 1.77c0 .36-.04.65-.12.9-.09.24-.2.43-.32.58s-.26.26-.4.32a1 1 0 0 1-.98-.07 1.4 1.4 0 0 1-.4-.47v.51zm3.53 0v-2.73h.79v.66c0 .27.02.5.06.67.04.18.1.32.16.42s.13.18.21.22a.52.52 0 0 0 .46.01.5.5 0 0 0 .2-.17c.06-.08.1-.2.14-.34s.05-.33.05-.56q0-.45-.15-.78c-.1-.21-.22-.4-.37-.58a6 6 0 0 0-.49-.49 4 4 0 0 1-.49-.53 2.7 2.7 0 0 1-.37-.7 2.7 2.7 0 0 1-.15-.97c0-.28.03-.52.1-.74.06-.21.15-.4.26-.55.1-.14.23-.26.38-.34a.9.9 0 0 1 .43-.11c.16 0 .32.05.45.15.14.1.25.26.33.46v-.43h.73v2.5h-.78v-.62c0-.23-.01-.42-.04-.58a1.6 1.6 0 0 0-.1-.38.5.5 0 0 0-.16-.2.35.35 0 0 0-.2-.07.44.44 0 0 0-.2.05.43.43 0 0 0-.16.14.8.8 0 0 0-.11.27 1.6 1.6 0 0 0-.05.42 1.82 1.82 0 0 0 .53 1.35c.15.17.31.33.49.48.17.15.33.33.48.53a2.68 2.68 0 0 1 .53 1.77c0 .36-.04.65-.12.9a2.1 2.1 0 0 1-.31.58 1.1 1.1 0 0 1-.41.32 1 1 0 0 1-.98-.07 1.4 1.4 0 0 1-.4-.47v.51z"/></svg>