<svg xmlns="http://www.w3.org/2000/svg" viewBox="0 0 235 235">
    <path d="m215 141-35-36-6-2h-15l21-20 2-5V30a7 7 0 1 0-15 0v45l-21 20c-1-5-4-9-7-13 11-4 17-12 17-23 0-13-10-27-23-33l13-13a8 8 0 0 0-11-11l-17 17-17-17a8 8 0 0 0-11 11l13 13c-14 6-23 20-23 33 0 11 6 19 16 23l-7 13-20-20V30a7 7 0 1 0-15 0v48c0 2 0 4 2 5l20 20H61l-5 2-36 36a7 7 0 1 0 11 11l33-34h12l-20 20c-2 2-2 4-2 6v70a7 7 0 1 0 15 0v-67l20-21c2 5 4 10 8 14-13 6-21 20-21 37 0 28 18 58 42 58 23 0 41-30 41-58 0-17-7-31-20-37 3-4 6-9 7-14l21 21v67a7 7 0 1 0 15 0v-70l-2-6-21-20h12l34 34a7 7 0 0 0 10 0c3-3 3-8 0-11zm-81-30c0 13-8 24-16 24-9 0-16-11-16-24s7-25 16-25 16 12 16 25zm-16-73c12 0 23 11 23 21 0 12-20 12-23 12-4 0-23 0-23-12 0-10 10-21 23-21zm0 182c-13 0-27-22-27-43 0-24 19-27 27-27s26 3 26 27c0 21-13 43-26 43z"/>
</svg>