<svg
    xmlns="http://www.w3.org/2000/svg"
    xml:space="preserve"
    viewBox="-5 -12 520 535"
    stroke="black"
    stroke-width="15"
>
    <path
    d="m499 496-56-32-25-108-4-5-90-57v-13l69-8c3 0 5-2 7-4l31-47h55a9 9 0 1 0 0-17h-59c-3 0-6 1-7 4l-32 47-64 8-1-11 83-58c2-2 4-4 4-7v-64l38-23a9 9 0 1 0-9-14l-42 25c-3 2-4 4-4 7v64l-72 50-5-30-2-9c-2-12-7-22-15-31v-1c0-62 123-146 124-146a9 9 0 1 0-10-15c-5 4-119 81-130 150a59 59 0 0 0-54 0C218 82 104 5 99 1a9 9 0 0 0-10 15c35 23 124 94 124 146v1c-8 9-13 19-15 31l-2 9-5 30-72-50v-64c0-3-1-5-4-7L73 87a9 9 0 1 0-9 14l38 23v64c0 3 2 5 4 7l83 58-1 11-64-8-32-47c-1-3-4-4-7-4H26a9 9 0 1 0 0 17h55l31 47c2 2 4 4 7 4l69 8v13l-90 57-4 5-25 108-56 32a9 9 0 1 0 8 15l60-34c2-1 4-3 4-6l25-107 79-51c5 42 18 92 50 139a20 20 0 0 0 34 0c32-47 45-97 50-139l79 51 25 107c0 3 2 5 4 6l60 34 4 1a9 9 0 0 0 4-16zM297 196h-82a42 42 0 0 1 82 0zm-38 246c-1 2-2 2-3 2s-2 0-3-2c-65-95-47-202-41-229h88c6 27 24 134-41 229z"
    ></path>
</svg>