<svg xmlns="http://www.w3.org/2000/svg" viewBox="0 -5 252 262">
  <path d="M225 139c-8-19-23-36-44-49-8-6-17-10-25-13 5-5 8-11 8-18 0-13-9-27-23-33l13-13a8 8 0 0 0-11-11l-17 17-17-17a8 8 0 0 0-10 11l12 13c-13 6-23 20-23 33 0 7 3 13 8 18-8 3-17 7-25 13-20 13-36 30-43 49a38 38 0 0 0 51 48c7 21 21 35 40 38v20a7 7 0 1 0 15 0v-20c18-3 33-17 39-38a38 38 0 0 0 52-48zM126 38c12 0 23 11 23 21 0 12-19 12-23 12s-23 0-23-12c0-10 11-21 23-21zm-24 119h48l4 10H98l4-10zm6-15 5-10h27l4 10h-36zm11-25 7-18 7 18h-14zm-56 59-9-2c-12-5-17-18-12-30 12-31 52-54 73-57l-14 34-11 25v1l-6 15c-4 8-12 14-21 14zm63 34c-15 0-27-11-33-28h66c-5 17-18 28-33 28zm72-36a23 23 0 0 1-30-12l-6-15v-1l-10-23-1-3-13-33c21 3 60 26 73 57 5 12-1 25-13 30z"/>
</svg>