<svg
    xmlns="http://www.w3.org/2000/svg"
    xml:space="preserve"
    viewBox="-5 45 522 425"
    >
    <circle cx="355.9" cy="133.5" r="21.6"></circle>
    <path
    d="M430 117a89 89 0 0 0-175 18v41c-34 6-26 5-249 197-12 10-5 29 10 29h158l59 59c3 3 7 5 11 5h31a16 16 0 0 0 0-33h-24l-31-31h44l60 59c3 3 7 5 11 5h31a16 16 0 0 0 0-33h-24l-31-31h39c45 0 82-37 82-82V208h64c9 0 16-7 16-16 0-36-25-75-82-75zm-142 18a56 56 0 0 1 111 0v40H288v-40zm39 185c0 27-22 49-49 49H60c187-160 181-161 209-161 32 0 58 26 58 57v55zm72 0c0 24-17 49-56 49 10-13 17-31 17-49v-55c0-21-8-41-21-57h60v112zm33-145v-25c20 0 36 6 44 25h-44z"
    ></path>
</svg>