<svg xmlns="http://www.w3.org/2000/svg" viewBox="65 30 308 535" stroke="#000" stroke-width="8">
  <path d="M339.2 217.6Zm-166.4 0Zm-8.38 101.56ZM256.33 368Zm-39.99-103Zm131.24 54.15ZM296 277Zm-1.18-34Zm-1.59-2.53Zm-23.81-58.79Zm-16.29-2.4 35.8 7.16c.47.1.95.14 1.43.15 2.31.07 23.31-.6 46.7-35.4 5.47-.33 10.7-2.6 15.06-6.9 17.44-17.2 23.05-41.23 16.22-69.45a133.45 133.45 0 0 0-15.09-36.54 8 8 0 0 0-13.5 8.58c.12.2 5.1 8.22 9.34 19.82 2.56 14.24-5.78 19.76-20.55 28.17-7.14 4.07-14.52 8.27-20 14.39-7.3 8.15-4.48 22.25 6.58 32.79a38.34 38.34 0 0 0 5.66 4.48c-15 20.5-27.14 23.56-29.83 24l-38.88-7.78a8 8 0 0 0-7.23 2.19l-11.83 11.83c-4.3-4.12-8.9-6.17-13.85-6.17-5.07 0-9.79 2.15-14.19 6.5l-12.15-12.16a8 8 0 0 0-7.22-2.19l-38.89 7.78c-2.69-.44-14.83-3.5-29.83-24a38.3 38.3 0 0 0 5.66-4.48c11.06-10.54 13.9-24.64 6.58-32.8-5.47-6.1-12.86-10.3-20-14.38-14.77-8.4-23.1-13.93-20.55-28.16a117.12 117.12 0 0 1 9.35-19.83 8 8 0 0 0-13.5-8.58c-.42.65-10.15 16.1-15.1 36.54-6.82 28.23-1.21 52.24 16.23 69.45a23.16 23.16 0 0 0 15.06 6.9c23.39 34.8 44.38 35.48 46.7 35.4a8.09 8.09 0 0 0 1.42-.15l35.8-7.16 11.16 11.16a108.68 108.68 0 0 0-4.23 9.36l-1.56-.78c-5.87-2.94-14.63-3.56-20.85-1.48l-8.83 2.94a6.96 6.96 0 0 1-3.74.11l-3.66-3.65a8 8 0 0 0-11.31 0 8 8 0 0 0 0 11.31l4 4c4.92 4.92 13.67 5.44 19.78 3.4l8.82-2.94c2.16-.72 6.6-.4 8.63.62l3.47 1.73a265.46 265.46 0 0 0-2.48 8.87l-1.83-.91c-7.02-3.51-16.5-1.97-22.05 3.57l-12.68 12.69c-.3.3-1.27.36-1.6.12l-19.2-14.4c-1.5-1.13-3.2-4.53-3.2-6.4v-16c0-7.38-4.98-15.44-11.58-18.74l-8.85-4.42a8 8 0 0 0-10.73 3.58 8 8 0 0 0 3.58 10.73l8.84 4.42c1.23.62 2.74 3.05 2.74 4.43v16c0 6.95 4.03 15.02 9.6 19.2l19.2 14.4a17.1 17.1 0 0 0 10.27 3.35c4.48 0 8.97-1.68 12.24-4.95l12.68-12.7c.68-.67 2.72-1 3.58-.57l5.25 2.62a388.81 388.81 0 0 0-2.07 10.64h-2.76c-6.1 0-11.95 5.51-15.1 10.22l-7.11 10.7a90.72 90.72 0 0 1-9.1 11.09l-12.69 12.68a51.23 51.23 0 0 1-10.73 7.74l-17.69 8.84c-6.6 3.3-11.58 11.36-11.58 18.74v8a8 8 0 0 0 16 0v-8c0-1.37 1.51-3.81 2.74-4.43l17.69-8.84a66.49 66.49 0 0 0 14.89-10.73l12.68-12.69c3.5-3.49 8.36-9.43 11.1-13.53l7.12-10.7a13.05 13.05 0 0 1 1.85-2.17 430.01 430.01 0 0 0-3.86 43.56l-16.2 16.21c-.68.68-2.72 1.01-3.58.58l-1.7-.84a15.88 15.88 0 0 0-12.2-.86 15.9 15.9 0 0 0-9.26 8.01l-4.42 8.85a8 8 0 0 0 3.58 10.73 7.97 7.97 0 0 0 3.57.85 8 8 0 0 0 7.16-4.43l4.43-8.84 1.68.84c7.02 3.51 16.5 1.97 22.05-3.57l4.9-4.91c.98 23.92 5.2 42.48 12.57 55.27 6.63 11.48 15.9 18.57 27.1 20.84-.21 22.77-28 58.15-11.91 98.36a8 8 0 1 0 14.86-5.94c-14.87-37.17 12.9-70.67 13.06-92.38 11.3-2.21 20.65-9.32 27.32-20.88 7.38-12.79 11.6-31.35 12.56-55.27l4.91 4.9c5.55 5.56 15.03 7.1 22.05 3.59l1.69-.85 4.42 8.85a8 8 0 0 0 7.16 4.42 7.96 7.96 0 0 0 3.57-.85 8 8 0 0 0 3.58-10.73l-4.42-8.85a15.9 15.9 0 0 0-9.26-8.01 15.88 15.88 0 0 0-12.2.86l-1.7.84c-.85.43-2.9.1-3.57-.58l-16.21-16.2c-.49-14-1.83-28.93-3.86-43.56a13.04 13.04 0 0 1 1.85 2.17l7.12 10.69a105.1 105.1 0 0 0 11.1 13.53l12.68 12.69a66.36 66.36 0 0 0 14.9 10.73l17.68 8.84c1.23.62 2.74 3.06 2.74 4.43v8a8 8 0 0 0 16 0v-8c0-7.38-4.98-15.44-11.58-18.74l-17.69-8.84c-3.2-1.6-8.2-5.21-10.73-7.74l-12.69-12.68a90.72 90.72 0 0 1-9.1-11.1l-7.12-10.69c-3.14-4.7-8.98-10.21-15.1-10.21h-2.75a390.4 390.4 0 0 0-2.07-10.65l5.25-2.62c.86-.43 2.9-.1 3.58.58l12.68 12.69a17.31 17.31 0 0 0 12.24 4.95c3.64 0 7.28-1.1 10.28-3.35l19.2-14.4c5.56-4.18 9.6-12.25 9.6-19.2v-16c0-1.37 1.5-3.81 2.73-4.43l8.84-4.42a8 8 0 1 0-7.15-14.3l-8.85 4.41c-6.6 3.3-11.58 11.36-11.58 18.74v16c0 1.87-1.7 5.27-3.2 6.4l-19.2 14.4c-.33.25-1.3.18-1.6-.12l-12.68-12.68c-5.55-5.55-15.03-7.1-22.05-3.58l-1.83.91a267.87 267.87 0 0 0-2.48-8.87l3.47-1.73c2.03-1.02 6.47-1.34 8.63-.61l8.82 2.94c6.1 2.03 14.86 1.51 19.78-3.4l4-4a8 8 0 0 0 0-11.32 8 8 0 0 0-11.31 0l-3.66 3.65a6.9 6.9 0 0 1-3.75-.11l-8.82-2.94c-6.22-2.07-14.99-1.45-20.85 1.48l-1.56.78a110.2 110.2 0 0 0-4.46-9.8l10.72-10.72Zm67.33-59.35c3.74-4.17 9.7-7.56 16-11.15 6.02-3.43 12.99-7.4 18.6-12.88.25 12.87-3.2 26.17-14.18 37-1.17 1.15-4.73 4.67-11.85-.12-6.52-4.38-9.19-11.3-8.57-12.85ZM82.62 95.9c5.6 5.48 12.57 9.45 18.6 12.88 6.3 3.59 12.25 6.98 15.94 11.08.67 1.62-2 8.54-8.52 12.92-7.12 4.79-10.68 1.28-11.85.12-10.98-10.83-14.43-24.13-14.17-37Zm168.55 226.7c0 2.74-.05 5.4-.13 8a8.06 8.06 0 0 0-1.77.22 129.51 129.51 0 0 1-60.2 0 7.99 7.99 0 0 0-1.78-.22 269.62 269.62 0 0 1-.12-8c0-2.55.04-5.16.1-7.79a145.25 145.25 0 0 0 31.9 3.55 145.18 145.18 0 0 0 31.89-3.55c.06 2.64.1 5.24.1 7.78Zm-62.77 24.47a145.36 145.36 0 0 0 30.77 3.3c10.33 0 20.67-1.11 30.77-3.3a129.95 129.95 0 0 1-2.75 16.22 129.57 129.57 0 0 1-56.04 0 130.17 130.17 0 0 1-2.75-16.22Zm61.89-48.42a7.97 7.97 0 0 0-1.01.17 129.52 129.52 0 0 1-60.22 0 7.96 7.96 0 0 0-1-.17c.35-5.07.8-10.2 1.35-15.36a145.34 145.34 0 0 0 29.76 3.07 145.36 145.36 0 0 0 29.76-3.07 421.09 421.09 0 0 1 1.36 15.36Zm-31.12-112.06c2 0 11.35 7.4 20.53 43.6a367.74 367.74 0 0 1 7.22 37.16 129.55 129.55 0 0 1-55.5 0 367.22 367.22 0 0 1 7.22-37.16c9.18-36.2 18.53-43.6 20.53-43.6Zm0 208c-9.08 0-16.06-4.46-21.36-13.63l-.1-.19a145.78 145.78 0 0 0 42.92 0l-.1.2c-5.3 9.16-12.28 13.62-21.36 13.62Z"/>
  <path fill="none" stroke-linecap="round" stroke-linejoin="round" stroke-width="23" d="M238.48 523.99c-16.06.47-29.05-6.64-29.16-17.75-.17-18.08 15.66-22.8 26.03-16.75 11.81 6.88 17.8 21.7 52.26-3.41-5.7 24.84-27.42 37.26-49.13 37.9Z"/>
</svg>