<svg
              xmlns="http://www.w3.org/2000/svg"
              xmlns:xlink="http://www.w3.org/1999/xlink"
              viewBox="0 0 32 32"
              fill="none"
              stroke="#000"
              stroke-width="2"
              stroke-linecap="round"
              stroke-linejoin="round"
              stroke-miterlimit="10"
            >
              <ellipse class="st0" cx="16" cy="19.1" rx="2.9" ry="2.9"
              ></ellipse>
              <path class="st0" d="M14,24c0-1.1,0.9-2,2-2s2,0.9,2,2"></path>
              <path
                class="st0"
                d="M13.9,17.2c-1.7-0.8-2.9-2.6-2.9-4.6C11,7.5,16,6,16,6s5,1.5,5,6.5c0,2-1.2,3.8-2.9,4.6"
              ></path>
              <path
                class="st0"
                d="M6,28L6,28c1.3-0.6,2.2-1.8,2.6-3.2L10,20l3-3l-4-6L8.5,7.8C8.2,6,7.3,4.3,6,3l0,0"
              ></path>
              <path
                class="st0"
                d="M3,16L3,16c1.3,0,2.5-0.5,3.4-1.4L7,14l6,3l-5,1l-1.3,2.6c-0.5,0.9-1.2,1.7-2.2,2.2L4,23"
              ></path>
              <path
                class="st0"
                d="M26,28L26,28c-1.3-0.6-2.2-1.8-2.6-3.2L22,20l-3-3l4-6l0.5-3.2C23.8,6,24.7,4.3,26,3l0,0"
              ></path>
              <path
                class="st0"
                d="M29,16L29,16c-1.3,0-2.5-0.5-3.4-1.4L25,14l-6,3l5,1l1.3,2.6c0.5,0.9,1.2,1.7,2.2,2.2L28,23"
              ></path>
            </svg>