<svg
              xmlns="http://www.w3.org/2000/svg"
              xml:space="preserve"
              viewBox="0 0 512 512"
              stroke="#000"
              stroke-width="15"
            >
              <path
                d="M512 173c-2-5-7-8-12-7l-74 19-44-9c-8-12-18-21-28-29h47l59-40a9 9 0 0 0-10-15l-55 36h-72c-10-5-21-9-30-11l9-8a9 9 0 0 0 3 0l70-10 50-70a9 9 0 0 0-16-11l-45 63-52 8 1-8v-2a38 38 0 0 0-10-74 9 9 0 0 0 0 19 19 19 0 0 1 5 37c-9-16-29-28-52-28s-43 12-52 28a19 19 0 0 1 5-37 9 9 0 0 0 0-19 38 38 0 0 0-10 74v2l1 8-52-8-45-63a9 9 0 1 0-16 11l50 70 70 10a9 9 0 0 0 3 0l9 8c-9 2-20 6-30 11h-72L62 92a9 9 0 1 0-10 15l59 40h47c-10 8-20 17-28 29l-44 9-74-19c-5-1-10 2-12 7-1 5 2 10 7 12l76 19a9 9 0 0 0 4 0l32-7-5 14-6 54-10 83c-4 34 3 67 20 93 20 30 60 66 138 66s118-36 138-66c17-26 24-59 20-93l-11-94-5-42v-1l-5-14 32 7a9 9 0 0 0 4 0l76-19c5-2 8-7 7-12zm-383 69 4-27 4-13c27-61 109-73 119-74 10 1 103 15 123 87l4 28 2 18c-24 40-74 66-129 66s-105-26-129-66l2-19zM256 52c21 0 38 13 38 29 0 15-17 28-38 28s-38-13-38-28c0-16 17-29 38-29zm122 379c-25 38-66 57-122 57s-97-19-122-57c-14-23-21-52-17-81l7-61c30 35 79 57 132 57s102-22 132-57l7 61c4 29-3 58-17 81z"
              ></path>
            </svg>