<svg xmlns="http://www.w3.org/2000/svg" xml:space="preserve" stroke-linecap="round" stroke-linejoin="round" stroke-miterlimit="10" clip-rule="evenodd" viewBox="0 0 232.52 142.73">
    <path fill="black" fill-rule="evenodd" d="M167.29 119c-11.5 12.4-28.1 21.9-47.8 23.1-21.6 1.3-38.9-6.4-51.7-17.5a70.52 70.52 0 0 1-24.1-46.8c-2.2-22.9 7.6-41.5 17.2-52.4 11.2-12.6 25.4-21.9 47.5-23.8 23.2-2.1 41.9 6.9 53.7 17.5 11.6 10.5 22.2 26.6 23.6 47.3 1.7 23.3-7.1 40.4-18.4 52.6"/>
    <g fill="#bb8" fill-rule="evenodd">
      <path d="M125.19 51.8c-.2-1.5-1.2-2.3-3.2-1.7-1.3.4-1.7 1.2-1.7 1.7-.7 4.5 5.4 3.4 4.9 0m-1.5 2.5c-3.2 1.4-4.9-4.9 0-3.9.2.4.6.8 1 1 .1 1.6-.2 2.5-1 2.9m52 3.9c1-.2 2.8.5 2.7-.7-.6-1.2-2.6-.2-2.7.7m.7-.3c.2-.6 1.2-1 1.7-.5 0 .8-1 .5-1.7.5m-53.4 3.5c-3-.5-7.5 1.1-7.4 3.4.2 4.3 11.4 3.9 11.6-.2-1-1.2-2-2.8-4.2-3.2m-6.9 3.4c-.1-3.7 9.8-4.1 10.6-.2-.2 3.8-10.5 4-10.6.2m-37 2.7c-.6-1.7-3.3-.7-2.2 1.2 1.1.6 2.4.3 2.2-1.2m-1.4 1.3c-1.3-.9.3-2.6 1.2-1.2 0 .7-.5 1.1-1.2 1.2m90.1 21.6c-.3-2.6-2.7-4.3-5.9-3.5-1.7.5-2.6 1.4-3 2.5-1.9 6.2 9.6 8.6 8.9 1m-.5 1.3c-.6 4.5-8.1 4.6-8.1-.7 0-2.2 1-3.3 3.2-3.7 3.4-.7 5.3 1.3 4.9 4.4m-34.7 5.6c-.2-.1-.3-.2-.2-.5-.5-.4-2.3-.5-2.2.5-1.3 2.1 2.9 2.8 2.4 0m-1.3 1.8c-.7-.2-1.2-.6-1.2-1.5.4-.4.7-.9 1.7-.7.8.7.4 1.7-.5 2.2m5.2 13.3c0-.1 0-.1 0 0 0-.1 0-.1 0 0m1.7-2c-2.8-.8-2.6 1-1.7 1.9-.1-.4-.5-.6-.5-1.2.4-.6 1.1-.9 2-.5.2.9.2 1-.2 1.7h-1.2c.7.7 1.7.7 1.9-1.5-.2 0-.3-.1-.3-.4m-5.1 8.6s0 .1 0 0c0 .1 0 .1 0 0m0 0c.3.2.7.4.7 1-.6.5-.7.5-1.2 0-.2-.6.4-.5.5-1-.8.3-1.4 1.4.7 1.7.6-1.6-.1-1.9-.7-1.7m7.4.5c-.9-.6-2.1-.5-2 1 .3.1.4.3.5.5 1.1.1 1.6-.4 1.5-1.5m-.8 1.2c-.8.1-.8-.5-.7-1.2h1c0 .6-.1.9-.3 1.2m-2.2.3c-1-.9-2.4.4-1.5 1.5 1.2.2 1.7-.3 1.5-1.5m-1.2 1.2c-.8-.7.3-1.8 1-1 .1.8-.3 1.1-1 1m-6.7 1.2c-.9.5-.5 2.6.5 2.7.3-.7.5-2.5-.5-2.7m0 .5c.6 0 .5.8.5 1.5-.8.1-.9-1.1-.5-1.5m-6.4 2.2c-1.2-1.5-3.2.5-1.7 1.7 1.3.3 1.9-.3 1.7-1.7m-.7 1.5c-.8 0-1.2-.5-1.2-1.2.3-.1.4-.4.7-.5.6 0 .8.4 1 .7.2.7-.5.5-.5 1m-54.1-98.5-.3.3c0-.1.2-.2.3-.3m-21.4 51.3c.3 0 .5-.1.7-.3-.1.2-.4.3-.7.3m53.6 56.9h.2c-.1-.1-.1 0-.2 0m20.2-.8c-.1.4.2.4.2.7.1-.2.3-.4.4-.5-.2.1-.5-.1-.6-.2m60.4-74.5c.4 0 .8.1 1.1 0-.3-.1-.7-.1-1.1 0m-4.6 40.8-.3.3h.1c.1-.2.1-.3.2-.3m-97.6-85.1c-.1-.1-.1-.3-.2-.4v.3c.1 0 .2.1.2.1m63-8.5c-.3.6-.6 1.3-1 1.7.6-.6.9-1.2 1-1.7m18.9 104s0-.1 0 0c0-.1 0-.1 0 0 0-.1 0-.1 0 0"/>
      <path d="M185.79 66.3c-1.4-20.6-12-36.8-23.6-47.3-11.7-10.6-30.5-19.5-53.7-17.5-22.2 2-36.4 11.3-47.6 23.9-9.7 10.9-19.4 29.6-17.2 52.4a70.52 70.52 0 0 0 24.1 46.8c12.8 11 30.2 18.8 51.7 17.5 19.7-1.2 36.3-10.7 47.8-23.1 11.3-12.2 20.1-29.3 18.5-52.7m-1.8-6.6c.9 1.4.8 5.1 1.2 7.6-1.3.5-3.6.1-4.9.5.2-.9 1.3-.8 1.2-2 .8.2.4 1.6 1.5 1.5.7-1 .5-3 1.5-3.7-.3-1.1-.8-1.9-.7-3.1v.1c-.4-.1-1.3.3-1.2-.2-.2-.7 1.2-.7 1.3-.1 0-.2.1-.4.1-.6m-4.1 18.4c.5-.3.1-1.5.5-2 .8.3.9 1.3 1.5 1.7-.6.8-.9-.9-1.2-1.2-.5 1-.4 2-.2 3.2-.5-.5-.5-1.5-1-2-.6.4-.1 1.7 0 2.2-.8-.5-1.2-2.9.2-3-.2.7.1.8.2 1.1m3.4 3.7c0 .3-.2.1-.2 0-.3 0-.2.4-.2.7-.6-.7.3-2 1-2.2.1.8-1.4 1-.6 1.5m-3.9 2.5c-.7-.4-1.4-.7-1.7-1.5-1.1.3 0 2.8-1.7 2.5.9-.8.2-3.1.5-3.9.8-.4 1.7.9 1.7-.2 0 .4 1 2.5 3 2.5.5-.1.1-1.1.5-1.2 0 .9.3 1 1.2 1-.9 1.9-3.1 6.5-5.7 3.7 1.9.1 2.3-1.1 2.2-2.9m-1.3-5.9c.5.4-.1 1.9-.2 2.5-.6-.6-.3-2.2.2-2.5m.3 1c.4.4 1 1.6.5 2.2-.4-.5-.5-1.4-.5-2.2m1.7 1.4c-.5.2-.7.7-.7 1.5-.6-.4 0-1.6.5-1.7 1-.1.9 1.9.5 2.5-.6-.3-.1-1.6-.3-2.3m.7 0c.2.1.4.3.7.2 0 .4-1 .8 0 .7-.2.5-.5 1-.7 1.5-.3-.6.5-1.2 0-2.4m.5-1.4c2.5 1.2-2 2 0 0m2.5-.3c-.4-.4-.4-1.1-.5-1.7-.9.4-.4 1.6-.7 2-.7-.7.1-2 .5-2.5.7.3.8 1.2.7 2.2m-2.7-4.2c.7.7 0 1.9 1.2 2.5-.8.5-1.4-1.2-1.2-2.5m-3.7.8c.6-.6 2 .1 2 1-.7-.4-.9-1.1-2-1m-.3-1c-1.1 3.8-.6 7.3-1.7 10.3.6.7 1.8.7 2.5 1.2.4-.1-.2-1.2 0-2-.5 0-.1 1-.2 1.5-1.1-.3-.1-1.4 0-2 .7-.1.8.6 1.5.5.1 1.1-.2 1.8-.5 2.5-.8-.1-2.6 0-1.7.7-.6.5-2-.3-2.7-.5 1-4.1 1.9-8.3 2-13.3 1.2-.3 1.2.6 1.7 1-.3.5-.6.1-.9.1m-17.9 38.2c-10.5 10.9-23.8 18-42.1 19.2-26.4 1.7-47.1-14.5-56.9-33.5-3.3-6.5-6-14.7-6.4-23.6-1-19.2 6.5-34.2 16-44.6 9.1-10 24.1-18.1 42.8-19 16.7-.8 33 6.1 43.3 15.8 9.9 9.4 18.8 23.2 19.7 41.1 1 19.5-6.5 34.3-16.4 44.6m18.2-13.1c-.2-.1-.9-.6-1 0-.4-1-1.8-2.6.2-2.7-.2.4-1 .3-.7 1.2 1.2 1.4 2.6-.7 3.4-1.2 0 .6-1.2 2.2-3 2 0 .6 1.5-.3 1.1.7m0 .5c0 .7-1.5.7-1.2-.2.5-.6.8 0 1.2.2m-1.2-2.5c.5.1.7-.2 1-.2 0-1.1-1.8-.4-2-1.2-.6.1.3.4 0 1-.5.1-.5-.4-.5-.7-1.1.7 1.4 1.4 1 3-.2 0-.2-.3-.2-.5-.6 0-.8.4-1.2.5 0 .7.5.8-.2.5.5 1.2-.5 0-.2 1.7-1 .2-1 .2-2 0v-.7c.5-.7 1.1 1 1-.5.7.2.3.4.2 1 .3-.1.5-.3.5-.7-.1-.6-1.2-.1-1-1 .2.2.6.3 1 .2.2-.1.2-.2.5-.2 0-1.3-1.3-.8-.7-1.5-.1-.6-.7.3-.7.5-.4 0 .2-1.1.7-1 .2.5.5 1 1.2 1 .2-.1.4-.2.5-.5-.1-.8-1.3-.3-1.5-1 0-.6 1.4-1 .5-1.7-.6.1.3.4 0 1-1.3-.1-.2-1.1-1-1.5-.6-.1.1 1.1-.7.7 0-.2-.1-.2-.2-.2v-.5c1.4-.7 3.6-.6 4.2.7 1.1-.6 2.4 0 3.2.5-.7.8-2.7 3.1-3.4 1.3m-3.7 6.4c-.3-.2-.5-.5-.5-1 .2 0 .2.3.2.5.4-.7 1-1.1 1.5-1.7.7.9-1.5 1-1.2 2.2m-3.5-1.7c-.4 0-.5.3-1 .2.6-.1.7-3.7 2.2-1.7-1-.7-1.6.5-1.2 1.5m-.7 1.2c-.1-.6.3-.8 1-.7 0 .7-.4.8-1 .7m1.7-5.1c.2.5.9.5 1 1.2-.4.1-.5-.2-.5-.5-.7-.1.2 1.4-.7 1 .3-.7-.3-1 .2-1.7m-.5 4.2c.6-.1.5.5 1.2.2.1 1.2-1.3.6-1.2-.2m0-.3c.1-.4.4-.6.5-1 .5.1.4.7 1.2.5.2 1.1-1.1.7-1.7.5m1-4.4c.9-.3.5.8 1 1-.1.4-1.3-.2-1-1m0-.8c.4.3 1.6-.1 1.5.7-.4.4-1.3 0-1.5-.7m1.2 0c-.9.3-.7-1.5.2-1 .1.4.2 1-.2 1m1-1.4c.3.1.2.5.5.5-.2.3-.5.5-1 .5.3-.9-.9-.4-.7-1.2.4-.1 1 .8 1.2.2m-8.1 16.7c-.6 0-.3 1.1-1.2.7 0-2.3 2.6-1 2.5.5-.1 2-3.8 2.1-4.7.2-.7.8-2.6 1.1-2.7 2.2 0 .7 1.7 1.3 1.7 2.2.1 1.6-.7 2.6-3.2 2-.2-.6-.5-2 .2-2.2 1.1.5.3.7.2 1.7.9.1 1.5-.1 1.7-.7.5-1.6-1.5-1.6-1.5-2.5 0-1.5 2.7-1.8 3.2-3.6-1.4.9-2.3 2.2-3.4 3.4.1 1.2 1.4 1.1 1.5 2.2 0 .7-.4 1-1.2 1 1.4-1.4-1.1-1.9-1.2-3.2 1.9-1.4 3-3.5 5.2-4.7.9.6 1.5 2.2 3 1.5-.3 2.2-2.7.1-3.2-.5-.2.1-.3.2-.5.3.9 1.4 5 2.3 3.6-.5m1.5 2.7c.3-.4 1-1.2 1.5-.7v1.2c-.6 1.3-5.6.5-1.5.5.5-.3 1.2-.4 1.2-1.2-.4-.8-.6.5-1.2.2m-1.5 4.2c.4-.8.2 1.1-.5.7 0-.7-1-1.1.2-1.2.1.4-.2.4-.2.7.3.1.4 0 .5-.2m-.5-.7c-.4-.3-.6-.8-.7-1.5.5.2 1.2 1 .7 1.5m-2.2.2c.1-.8 1.4-.2 1.5.5-.5-.2-.9-.4-1.5-.5m-.3 3.9c-.3-.6.8-2.5.7-2.9.3.9-.1 2.2-.7 2.9m1.3-5.1c.6-.1.3.7.7.7-.4.8-1.5-.3-.7-.7m-20.7 14.5c-.2 0-.2-.1-.2-.2v-.5c1.4.5 2.8 0 3-1.5.7-.2.5.5 1 .5-.8.5-.1.4 0 1.2-.5-.1-.5.4-.5.7-.9.5-1.6.1-2 .7-.3-1-1.1-.1-1-1.2-.3 0-.3.2-.3.3m-2.7-3.9c.3-2.2 4.7-2.4 6.2-4.2.8.7 1.9 1.2 2.2 2.5-.9.4-1.3 1.4-2.5 1.5-.2-.8-.4-1.6-1-2-1.9.3-3.5 2.2-4.9 2.2m1.7.9c-.4 0-.5.3-1 .2 0-.6-.5-.8 0-1.2.6.1 1 .4 1 1m4.7-.9c1.2-.5 2-1.5 3.2-2-.6 1.5-3.1 3.5-4.7 1.7.4-1.1.7.4 1.5.3m-2-.8c-.3-.3-.3-.9 0-1.2.6 0 1 .4 1 1-.5-.1-.5.3-1 .2m-1.5-.5c.6-.1.9 0 1.2.2 0 .6-.4 1-1 1 .2-.5-.4-.5-.2-1.2m0 1.5c-.4 0-.5.3-1 .2-.2-.2-.3-.6-.2-1 .7 0 1.3 0 1.2.8m-.5 1c.2-.2.4-.4.5-.7 1.5-.2 2.2.4 2.2 1.7-.8 1.2-2.9 1.2-2.7-1m4.7 3c.8.6-.9.9-1.7.7-.1-.9 1.5-.1 1.7-.7m-.5-1.5c.2-.6 1.4-.2 1.5-1 .7.5-1.2 1.4-1.5 1m0-.5c0-.9 1.4-.4 1.5-1.2.7.6-.8 1.1-1.5 1.2m-1.2-.8c-.2-.7-.6-1.2-1.5-1.2.6-1.2 1.4.7 2.2.7 1.4-.2 2.1-1 3-1.7.3 1.3-1.7 2.4-3.7 2.2m4.7-2.9h1.7c.1 1.7-.4 2.8-1.5 3.4-.8 0-1-.6-1.5-1 .5-.8.8-1.6 1.3-2.4m-2.5-2c.2-1.2 2.8-1.3 3.4-.5-.1.8-.4 1.4-.7 2-.6-1.2-1.6-2-2.7-1.5m-.7-.7c.5-1 1.8-1.2 2.5-2 .7.1.6 1.1 1.2 1.2-1.3-.3-2.8 1-3.7.8m-15.8 8.8c-.3 0-.4.1-.5.2-.8-.2-.2-.6 0-1-.4 0-.5.3-1 .2-.1-.6.3-.8 1-.7-.2.9.7.6.5 1.3m1 3.2c-.3-.5-1.5-.2-1.5-1 .8.1 1.7.1 1.5 1m0 1c-.7-.3-1.4-.4-1.5-1.2.9 0 1.6.2 1.5 1.2m0-1.9c-.3-.3-.9-.3-1.5-.2-.2-1.2 1.8-1 1.5.2m-1.5-1.8c.5-.5 1-.2 1.2.2.1.5-1.6.6-1.2-.2m-.2 1.3c-.4.4-1 .6-2 .5-.4-.4-.6-1-.5-2 .5.4.2 1.6 1 1.7.8.2.8-.4 1.2-.5-.2-1.3-1.2-1.8-2-2.5-.4-.4 2.9.7 2.3 2.8m-1 2.4c.8-.2.2-1.6.5-1.7 1.3.6.1 2.6-1.5 2-.3-.3-.2-1.1-.2-1.7h1.2c.2.6.5 1.3-.5 1.2-.5-.6.1-.3.3-.7-1.3-.4-.8 1.4.2.9m-6.2.5c-1.3.2-2.6.3-2.5-1.5.1-.1 1.2-.6 1.2 0v.4c.8-.7 2.1-1 2-2.6-.2-.4-.6-.5-1.2-.5-.4.1.3.9-.7.7.4-.9 0-.7-1-.7-.2-2 2.3-1.2 3.7-1.5.4.9 1 1.4.7 3-.9.8-2.4.9-2.2 2.7m-2.7-3.7c.7.9 2 .2 3.2.2-.7.6-3.3 1.3-3.2-.2m1.7 1.8v-.7c.6 0 .8.5 1-.2.7.2-.5.8-1 .9m2.3 0c3-1.7 4.3 3.8 1.2 3.9-1.9.1-3.2-2.9-1.2-3.9m1.2-.5c.5-1.6-.2-2.3-.7-3.4 1.2.2 2.1-.7 2.7-.2-.6 2.2.5 3.1.2 4.7-.9-.3-1.2-1.1-2.2-1.1m2.7-2.5c.9 0 1.6 1.2 1 2-1 0-1.1-.9-1-2m-24.9 3.2h-1c-.1-.8.4-1 .5-1.5.9.3.1.8.5 1.5m-1.2-.2c-.7 0-.7-.6-.7-1.2.2 0 .2-.3.2-.5.4 0 .5.3 1 .2-.1.5-.6.7-.5 1.5m-1-.3c-.5.1-.7-.2-1-.2 0-.7.4-1.1 1.2-1-.1.3-.3.6-.2 1.2m-1.7-2.2c.6 0 1 .4 1 1-.6-.1-1-.4-1-1m.2-.5c-.1-1 .2-1.4.5-2 1.2.8 3.6.3 4.4 1.5-.9.2-3.8-.3-4.9.5m-7.6-3c-.3.6-.7 1.1-.7 2 .3.8 1.7.4 1.7 1.5-.7.4-1.9-.4-2.7-.7-.1-1.2.6-1.5.5-2.7-2-1.2-4.6-2-6.4-3.4-1.4 1.8-2.5 2.6-4.4.7.3-1.1 1.5-.1 2 .2.6-.3.8-1 1.2-1.5.1-1.3-.9-1.3-1-2.5 1.1-.2 1 .8 1.2 1.5.7-.2-.2-.5 0-1 1.1.2.8 1.8 2 2 .8.3.2-.8 1-.5.4.5 0 .3 0 1 1.1-1.5.9 2.3 2.5.5.7.2.3.4.2 1 .5 0 .3-.7 1-.5-.8 1.8 1.9.8 2.7 1.2-.1.5-1.1.1-1 .7.8 0 2.1-1.2 2.2.2-.9 0-1.4.2-2 .3m2 0c-.1.9-.5 1.6-.7 2.5-.8.2-.7-.4-1.5-.2-.1-1 .2-1.4.5-2 .8.2.9-.4 1.7-.3m-2.7 5.7c-.1.7-.5 1.1-1.2 1.2-.5-.8-2.6-1-1.7-2.5.6.8 1.1.8 2 .2-.1.5-.7.5-.7 1 .8.2.3-.9 1.2-.5-.1.3-.4.4-.5.7.1.9.3-.4.9-.1m-2.7-2.2c0-1.1.6-1.7.7-2.7-1.5-1.1-3.4-1.7-4.9-2.7-.8.6-1.1 1.6-1.7 2.2-1.2-.7-2.9-.9-3.2-2.5.9-.5 1.7 1 2.7 1.2 1.1-.2 1.2-1.4 2-2 2.1 1.1 4.3 2.1 6.4 3.2-.2.9-.6 1.6-.7 2.5.6 1 2.8.3 2.7 2-1.8 0-2.7-.8-4-1.2m-.8-1c-.4.2-.5.9-.7 1.2-.8-.5.4-1 .5-1.5.6 0 .6.9.2 1.2-.7-.1.3-.4 0-.9m-.7 1.5c-2.1-.9 1.5-2.4 1.2-3.4.3.1.2.6.2 1-.6.1-2.7 1.3-1.4 2.4m-2-2c1 .3.1 2.2-.2 2.7-1.2-.5.5-1.5.2-2.7m-.2-.5c0-.9-.1-1.9.5-2.2 1.2.1-.5.5-.2 1.2 0 .7.4 1 1.2 1 .7 0 .6-1.2.2-1.5-1.1.3.6.6-.2 1.2-.8.1-.8-.5-.7-1.2.5-.5 1.6-.2 2 .2-.1.7-.4 1.3-.7 1.7-1.1.3-1.6-.1-2.1-.4m-1.3.5c-.5-.9.3-2.7.7-3.4.8.3-.8 2-.7 3.4m-4.2-1.5c.7.1-.2-1.4.7-1v1.2c1-1.5.4.7 1.7.7-.7 1.3-1.8-.4-3-.2 0-.7-.1-1.4.2-1.7.5.1.4.7.4 1m1.3-3.9c0-1.1.8-1.3 1-2.2.8.2 1 1 1 2-.4.1-.6.4-.7.7-.6-.1-.7-.5-1.3-.5m-10.4-11.8c1.9-.3 3 2.2 4.4 3.2-.2.8-.7 1.3-1.5 1.5-.3-.5-.8-.8-1.5-1 .9-1.7-.8-2.6-1.4-3.7m-4.6 1c-.4-.8.7-1.9 2-1.7-.8.5-.8 1.7-2 1.7m2.4 0c-.6 0-1-.4-1-1 .7 0 1 .3 1 1m-3.4-1.3c0-1 1.5-1.5 2.2-1-.5.6-1.4 1.6-2.2 1m2.2-2.4c-.5 0-.3.7-1 .5.3-.8 1.1-1.2 1.7-1.7 1.2.9 2.3 2 3 3.4-.2.1-.4.2-.5.5-1.6-.4-2.4-1.6-3.2-2.7m8.1 6.1c1 .4 1.6 1.2 2.2 2-.4.8-.7 1.7-1.7 2-.1-1.2-1.1-1.4-1.5-2.2 0-1 1.1-.8 1-1.8m-13.3-15c1.6.2 1.5 1.9 2.5 2.7-.3 1.1-1.2 1.4-2.2 1.7.6-2.1-1.4-3.2-.3-4.4m-3.2 4.2c0 1.4-.7 2.1-1 3.2-1.3-.7-2-3.3-1-4.9.7.6 1.6.9 2 1.7m0-4c-.9 1-.9 2.9.7 3.2-1.9 1.1-3.7-3.9-.7-3.2m.3 3.7c1 .2 1.9.5 2.7 1-1 .9-2.3 1.5-3.2 2.5-.7-1 .9-1.9.5-3.5m-.8-2.2c.1-.6.7-.7.7-1.5-.1-.3-1.1-.8-1.2-.2-.4-1.3-.8-2.6-2.2-2.9-.8.9.5 3.1 1.2 2.5.2-.1.6.9 0 1.7-3.2-.4-2.6-4.5-3.7-6.9 1 .2 1.4-.2 1.2-1.2 1.1.3.6 2.4 1.7 2.7.7.2.5-.5 1-.5.3-1.5-.6-1.9-.5-3.2 1.4.6 1.8 2.2 2.5 3.6-.3-1.7-.8-3.1-2-3.9 1.8-1.5 2.8 2.8 2.7 3.9h-.7c.3.8.8 1.5 1.5 2-.3.7-.1 1.9-1.2 1.7 1.6 1 3 2 2.7 4.9-1.6-.5-3-1.2-3.7-2.7m-1.7-2.4c-.4-.2-.8-.4-.7-1 .2-.2.6-.3 1-.2.2.7.1.6-.3 1.2m-2.5-5.9c.1.6-.3.8-1 .7 0-.7.4-.8 1-.7m.5-.5c.3-.5 1.1-.5 1.7-.7 0 .7-1.3.9-1.7.7m7.7 6.9c-.6.4-1.2.6-2 .2.5-1.3.9-3.4-.7-3.7 1.3-1.1 2.1 2.2 2.7 3.5m-12.1-19.5v-1.2c1.2 0 2.2-.3 3.2-.5-.1-2.3-.4-2.6-.7-4.7.2 0 .2-.2.5-.2 1.6 1.1 1.2 4.2 1.5 6.6-1.1.6-2 1.4-2.7 2.5-.3-.5-.9-.7-1-1.5.7.2.5-.5.7-.7-.1-.6-1.1-.2-1.5-.3m.7-5.4c-.6.1-1.1-.1-1-.7.2 0 .2-.1.2-.2.8-.2.9.2.8.9m.5 2.7v1c-.6.1-.9 0-1.2-.2.2-.5.5-.9 1.2-.8m-.7-2.5c.3.1.2.6.2 1h-.7c-.3-.8.4-.6.5-1m2.5 1.5c.1.6-.7.3-.7.7 1.1-.2.9 1.6-.2 1.2-.1-.6 0-.9.2-1.2-.3-.2-.5-.5-.5-1 .2-.2.6-.3 1-.2-.1.3 0 .5.2.5m-.5-.7c-.9.2-1.1-.6-.7-1 .6-.1.7.3.7 1m0-10.1c-.5.3-.2 1.3-1.2 1v-1c.5-.3 1.3-.3 1.5-1 .6.2 1.2 2.1 0 2 .1-.2.2-.4.5-.5-.2-.4-.8-.1-.8-.5m-2.7.2h-.7c-.1-.5.2-.7.2-1 .7-.2.4.6.5 1m-3.7-5.6c-1.3-1.5 2.9-2.2 3 0-.2 0-.2.1-.2.2-.4.1-.4-.2-.7-.2 1-1.3-.7 0 0-1.2-1.1.1-1.8.4-2.1 1.2 1.1.3.5-1 1.5-.7-.3 1.1-1.3 1.5-1.5 2.7-1.3-.8.7-.9 0-2m1.2-2c.5.1.5-.3 1-.2.1-.6 0-.9-.2-1.2h-.7c.6-.4 1.3-.3 1.2 1.2-.3.1-.4.4-.7.5-1.4-.3-1.1-1.2-.5-1.7-.4.3-.4 1.1-.1 1.4m.2 3.7c.4-.1.4.2.7.2-.3.6-.5 2.2-1.5 1.5.7-1.1 1-.7.8-1.7-.5.1-.7-.2-1-.2.3-.5.9-.8 1-1.5 1.2.5-.8.8 0 1.7m-.7 1.2c-.3-.1-.4-.4-.7-.5.1-.3.4-.4.5-.7.6 0 .5.9.2 1.2m0 1.2c.5-.5.8 0 1.2.2 0 .8-1.4.8-1.2-.2m1.5-1.7h.7c-.4 1-.6.8-1 1.7-1.2-.4.6-.6.3-1.7m.5-1.5c-.4-1.1.8-.6.7-1.5.9 0-.2 1.5-.7 1.5m1-3.2c-1.3-.1.1.8-1.2 1-.3-.5.5-1.5 1.2-1.7v.7Zm-3 7.2c-.1.3-.4.4-.5.7-1-.1-.1-1.5.5-.7m.2.2c.4.1.6.4.5 1 .2-.6 1.4-.8 1.2.2-1 .1-1.6-.2-2.2-.5.1-.3.5-.3.5-.7m1.8.3h-1c.1-.8.7-1.1 1-1.7h.5c-.4.8-.9.5-.5 1.7m1-4.9c.8 0 1.1 2.1.2 2.2-1.2-.1-.7-1.8-.2-2.2m1.4-2.5h.5c0 .2.1.2.2.2v.5c-.2 0-.2.1-.2.2h-.5c0-.2-.1-.2-.2-.2v-.5c-.5-.2-1-.7-.5-1.2.5.2 1 .7.5 1.2.2.1.2-.1.2-.2m1.5 3.9c1.3.6-.6 1.1-.7 1.7-.9-.6.9-.8.7-1.7m-.7.8c-.5.5-.5-.1-1-.2 0-.8 1.2-.7 1 .2m-1.5-2.7v-1c.9-.2.9 1.2 0 1m1.2 1.9c.1-.3.4-.4.5-.7 1 .2.1 1.5-.5.7m-.2-.7c.1-.9.8-1.1 1.5-1.5-.4.7-.6 1.4-1.5 1.5m-.5 4.4c.1.6-.1 1.1-.7 1-.1-.2-.3-.4-.2-.7.1-.2.5-.3.9-.3m-.5-2.9h.5c0 .2.1.2.2.2 0 .2-.3.2-.5.2.7.3 1 .9 1.2 1.7-.3 0-.4.1-.5.2-.5-.6-.5-1.1-.9-2.3m2.7-1.3h-.5c0-.2-.1-.2-.2-.2v-.5c.2 0 .2-.1.2-.2h.5c0 .2.1.2.2.2v.5c-.2-.1-.2.1-.2.2m-.2-2.4c-.4.1-.9-1 0-.7-.1-1.6-2.2-1.1-2.2-2.7 1.2.4 1.8 1.4 2.7 2.2-.2.4-.8.4-.5 1.2m-1.5-4.8c-.4.3-.8.7-1.2 1.1 0-1.2.2-2.6-.5-3.2 1.1-.4 2.8.6 4.2.7-1 .3-1.7.8-2.5 1.4 1 .6 1 2.2 2.2 2.6-.9.2-2.5-.9-2.2-2.6m2.7-1.1c.6-.1 1.1.1 1 .7-.4-.1-.5.2-.5.5-.8.3-.4-.8-.5-1.2m.2 2.2c-1.3.2-1.2-1.4-1-2 .6.5.9 1.1 1 2m-.2 1c-.8.3-2-.9-1.7-2.5.7.6 1 1.7 1.7 2.5m.7-2.2c.5 1.8-.9 3.9-.7 6.2-2-1.9 1-4.6.7-6.2m4.9-12.6c-.9-.3-1.5-.8-2.7-.7.4-1.1 1.1-.5 2-.2 1.4 0 1-1.8 2.2-2-.4 1-1 1.9-1.5 2.9m1-6.9c-.2-.6-1.2-.4-1.2-1.2 1.3.5 2.2 1.4 3.4 2-.3 1-.5 2.2-1.7 2.2 0-1.2-1.2-1-1.7-1.2-.2-1.1.9-1.7.7-1.5.2-.1.3-.3.5-.3m9.9-10.8c-.3.2-.7.4-1 .7-1.3-1.7-1.9-1.2-3.4 0-.8-2.2 3.2-3.6 4.2-5.7.4.3 1 .5 1 1.2-.7.5-1.5.9-2 1.7 0 1.2 1.2 1 1.2 2.1m-1.9 1.9c.3-.2.5-.5.7-.7 1.4-1.5 3.1-2.8 4.2-3.9.7-.2.5.5 1 .5-1.4 2.7-4.9 5.4-7.4 7.9-.9-1.1.1-2.3 1.2-3.4-.4.4-1 .6-1.4.7.1-1.3 1.3-1.5 1.7-2.5.5.4.4.9 0 1.4M80.09 19c-.3-.5.8-.4 1.2-1.2 1.1.5-.6 1.5-.5 2.5h-1c.1-.5 1-1.8.3-1.3m2.7-7.1c-2.1.5-2.2 2.9-4.2 3.4-.5-.5-.1-1.1.2-1.5.8.2.2.6 0 1 2-.3 1.1-3.6 4-2.9m7.2 2c.1-.7.3-1.4 1.2-1.2 0 .2.2.2.2.5.2.8-.7.7-1.4.7m2.2.7c-.6.7-2.1 1.5-3.2 1 .8-.7 2.4-.6 2.5-2 .6-.1.2.9.7 1m-5.4 0c0-.8.6-1.1.5-2 .8.1 1.1.7 1.2 1.5-.2.2-.6.3-1 .2v-1c-.7 0 .3 1.7-.7 1.3m-.3 0c-.8-.5-.6-.8-1.5-.2.3-.7.8-1.2 1.7-1.2.3.7-.3.7-.2 1.4m-.7.7c-.3 0-.4.1-.5.2-.5-.2-.7-.7-.7-1.2.3.4 1.4.1 1.2 1m2.7-3.4c.4-.4.8.2 1.7 0 0 .9-.4 1.4-.7 2-.2-.7-1.3-1.7-1-2m-2.9 1.2c.2-2 2.3-2.1 3.7-3 .6.3 1.4.6 1.5 1.5-2.5-.5-3.6.7-5.2 1.5m-.3-1.4c.3-1.6 1.3-2.4 2-3.7 1 .3 1.8.8 1.7 2.2-1.6.1-2.2 1.3-3.7 1.5m-.7-1v-1h.7c.1.6-.1 1-.7 1m.5 1c.4.4.5 2-.5 1.7-.5-.5 0-.6 0-1.2-.3.1-.4.4-.7.5.3.4.2 1.1 1 1-.3.6-1 .8-1.2 1.5 0 .2.2.2.2.5 2.5.6 3.8-1.9 6.9-1.5-.3 1.3-1.7.7-2.7 1-1.6.5-2.1 1.6-4.4 1.5.2.8-.9.4-1 1-.8-.2-.7-1.2-1-2 1.4-.4.9 1 2 1-.2-.3-.4-.7-.7-1 .9-1.6-.7-4.2 2.1-4m2.9 3.6c.6 0 1 .4 1 1-.8.1-1.5-.5-1-1m0 1.5c-.6 0-1-.4-1-1 .9-.1 1.5.6 1 1m-1.5.8c-.8.1-1.2-.3-1.2-1 .8-.1 1.2.3 1.2 1m-4.4 1.4h.7c.2.8-.6.5-.7 1-.7-.1.2-.5 0-1m-2 2c1.2-.5 1-2.3 2.5-2.5-.1-.4-.4-.6-.7-.7.3-.4 1.4.6 1.5 1.2-2-1.1-1.6 2.1-3.3 2m2.7-3.4c.6.2.7.8 1.2 1 0-.6-.6-.6-.7-1 .4-.6 1.2.4 1.2 1-.3 0-.4.1-.5.2-.6-.1-1.1-.5-1.2-1.2m.8-5.9c0 .5-.6-.3-1.2 0 .2-.6.8-.7 1-1.2 1.1.1-.2 1.2.2 1.2m-2.5 2.2c-.6-.4.4-1.2 1.2-1-.2.4-.9.5-1.2 1m1.2-.3c0 .7-.6 1.2-1 .7 0-.6.4-.7 1-.7m.3-.5c1.9 1.2-1.7 3.6-2 1.2 1 .8 2.3.6 2-1.2m15.5-4.4c.4 1.2 1.3 1.8 2.5 2.2.4-.7.8-1.3.7-2.5-.2-.5-1.5 0-1.2-1 1-.1 1.4.2 2 .5-.2 1.6-.6 3-1.5 3.9-1.4-.9-2.9-1.7-3.4-3.4.8-.4 1.3-1.1 2.5-1.2-.4.7-1.4.7-1.6 1.5m1.7 1.5c-.6-.5-1.3-.8-1.5-1.7.3-.2.9-.2 1-.7.4.5.4 1.5.5 2.4m.3-2c.2.2.6.3 1 .2.1.9-.5 1.2-.5 2-.7-.2-.5-1.3-.5-2.2m.5-2.5c.5.2.2 1.2.7 1.2-.1.3-.6.2-1 .2 0-.5 0-1.1.3-1.4m3.7 1c.1.1-1.2.9-2 1-.2-.3-.3-.7-.2-1.2h.7c.2 1.1-.5-.2-.5.5.7.9 1.1-.5 2-.3m3.9 1c-.9-.2-1.2-1.2-.5-1.7.7 0 .5 1 .5 1.7m1 2v1.2c-.2-.4-.8-1.6-1.5-.7.1.5.7-.4 1 .2.1 1.4-2.7.4-2.7 1-.4-.3.5-1.2 1.5-1 0-.3-.4-.2-.7-.2.2-.7 1.4-.5 2.4-.5m-5.2.7c1.5-.9 2.1-2.7 2.7-4.4-.1-1.5-2.2-1-2.5-2.2 1 .4 2 1 3 1.5-.7 2-.9 4.6-3.2 5.1m-1.2.8c.9.3.7-.6 1.5-.5-.4 1.8-2.1.8-3.4 1.5.1-.4.4-.6.5-1 .3.1.4.4.7.5v-1.5c.5-.1.6-.5 1.2-.5.2.3.3.7.2 1.2-.5.1-.8-.1-.7-.5-.5.2 0 .5 0 .8m2-6.4c.9 0 1.1.7 1.7 1-.8 1.3-.7 3.4-2.2 3.9-.8 0-1.5-.1-2-.5.2-1.3.8.5 1.7 0 1.3-.3 1.4-2.8.2-3 .1-.5.4-1 .6-1.4m-1.8 2.9c.3-.2.7-.3 1.2-.2.5 1.1-1.4 1.3-1.2.2m-5.4 4.2c0-.8.6-.8 1.2-1 .2.9-.5 1-1.2 1m1.7-.5c1.4.6-.9 2.1-1.7 1.2.5-.5 1.3-.6 1.7-1.2m11.4-1.2c-.3-.8-.8-1.3-1.5-1.7 0-.9.9-.9.7-2 .3.1.2.5.5.5-.9 1.8.7 1.7.5 3.9h-1.2c-.3-.5-.2-1.4-.5-2 .5.4 1.1.5 1 1.5.2 0 .2-.2.5-.2m6.6-6.7c2.5-1.2 4.3 1.3 3.2 3.7-.1-1.3.1-3.9-2.5-3.4-.4 1 1 1 1.2 2.2.3 1.3-.8 3.4.5 4.4.5 0 .8.2 1 .5 3 .1-.4.4-1.5 0-.8-1.1-.8-3.1-.7-5.2 0-1.1-1.4-.8-1.2-2.2m7.9.5c-.1 1.3.2 2.8-1.2 2.7.1-1.2-.6-3.1 1.2-2.7m.7 6.2c-1.5 2-4.6 1.2-4.4-1.2.2-2.7 5.2-3.2 4.4 1.2m1.8 1.7h-1.5c2.9-.5 2.1-4.8 4.9-5.4-3-2.7-2.7 3.4-4.9 3.9 1.4-1.6 2.4-7.3 5.4-4.2-2 1.3-2.4 4-3.9 5.7m4.1-4.7c-.7 1.6-1 3.6-1.5 5.4-.9.1-1.2-.4-2.2-.2 1-1.1 1-5.1 3.7-5.2m-6.4 4.2c0-1.2.7-.4 1.2-.7 1.6-.9 1.3-3 2.5-4.4h1.5c-2.6.8-1.5 5.3-5.2 5.1m1.3-2c-1-.9-.9-3.3.2-3.9 1.9.3 0 2.8-.2 3.9m-8.4-5.1c3.6-.6 0 5.5 3.2 6.2-4 .3-.5-5.4-3.2-6.2m2.2 4.2c.1.6.9.5.7 1.2-1.2.3-.9-3.6-.7-1.2m.8.2c-.8-1.1-.7-4.3 1-4.2.9 1.7-.5 3.1-1 4.2m15.2 3.4c.9.1.6 1.4 2 1-.2.7-.9.9-.7 2-.8 0-.8-.7-1.7-.5-.3-1.2.5-1.4.4-2.5m4 .5c1.9.8 5 1.5 5.2 3.2-1.4-.6-2.6-1.5-4.2-2-1 0-1 1.1-1.5 1.7-.9.1-1.6-.1-2-.5-.1-1.4 2.6-3.5 0-3.7.3.4 1.1.2.7 1.2-1 .7-2-.4-1.7-1.7 3.1-1.9 3.8 2.4 2 3.9.7-.4 1-1.3 1.5-2.1m1.4-1.4v.3c.2 2.9 5.3 1.8 3.4-.8.2-.4.4 0 .7 0 0 2.1-.5 2.3-.7 3.9-1.7-.6-2.8-2-4.9-2.2-.1-.8 1.4.1 1.5-.9v-.3m1-.8c1-.6 3-.3 2.5 1.5-.9-.5-2.2-.4-2.5-1.5m1.5 2c-.8.1-1.2-.3-1.2-1 .7 0 1.4.1 1.2 1m1-.3c-.6 1.6-3.2.9-3-1 .8 1 1.5 2.1 3 1m1.2 2.8c-.7 1.1-.6-.4-.7-1.2 1.7-.2-.4 1.3.7 1.2m2.7-2.8c.6 0 1.2 0 1.2.5-.3 1.7-2.7.6-3-.5 1 0 1.1.8 2.2.7.3-1-.6.5-.4-.7m.3 1.8c0 .8.1 1.7-.5 2 0 .7.8 1.4 1 .5.1-.7-1 .7-.7-.5.5-.5.6 0 1.2 0 .2 1-.4 1.2-1 1.5-.5-.1-1.1-.1-1-.7-.7.5.5 1.1 1.2 1-.2 1.2-1.1 1.7-1.5 2.7-1.8-.2-2.5-1.6-4.2-2 .7-.4 1.1-1 2-1.2.2.2.1.7.5.7 1.9.1 1.5-2 2.2-3-.1-1-1.1-1-1.7-1.5.8-.8 1.6.5 2.5.5m-8.7 1c.5-2.1 3.5 1.7 4.9 1 .3.1.2.6.2 1-1.9-.3-3.3-2.4-5.1-2m-.2 1.4c-.5-.6.1-1.4 1-1.2.1.8-.3 1.2-1 1.2m2-1c0 .2.2.2.2.5 0 .6-.4 1-1 1-.4-.4 0-1.5.8-1.5m1.5 1c.1.9-.9 1.3-1.5.7.1-.6.8-1.3 1.5-.7m.7.3c.5.6-.1 1.4-1 1.2.2-.6.3-1.1 1-1.2m2.7-2.5c-.5 1.4-.4 1.8.2 3-.4.3-1 .8-1.5.2.2-.7.4-.3 1-.2 0-.6-1-.4-1-1 .4-.8.4-1.8 1.3-2m21.9 27.3c0 .6 0 1.2-.2 1.5-.9 0-.6-1.2-1.2-1.5 0-.5 1.2-.1 1.4 0m-1-.9v-1c.6-.1 1.1.1 1 .7-.2.2-.5.3-1 .3m5.9-2.5c.1.5-.2.7-.2 1-.6.1-.8-.3-.7-1h.9Zm.8-1c-.2.4-.4.8-1 .7-.6-.8.3-1.2 1-.7m-1 2.2c.6.2.8.8 1.1 1.7-1.8-4.2-6.5 1.8-2.6 2.5 1.3.3 2.2-.6 2.5-2 .4 1.2-.7 2.1-1.2 2.2-4 1.1-3.9-5.8.2-4.4m2.5 6.7c-.2.2-.4.4-.5.7h-1.5c-.6-.7-.7-1.8-1-2.7.4 0 .6-.2.7-.5 1.4.3 2.1 1.1 2.3 2.5m-1-4c.2 0 .2-.1.2-.2.6-.1.8.3.7 1-.6 0-1-.1-.9-.8m-3.2.5c.8.3 1.5-.6 1.7 0-1.7 2.8-4.2-3-1.2-2.2-1 .4-1.2 1.3-.5 2.2m.7-1.7c.1.5.6.7.5 1.5-1.4.6-1.7-1.6-.5-1.5m.3-1c1 .1 1.9 1.5 1.2 2.5-.7-.4-1.7-1.8-1.2-2.5m-1.8 4.2h1v1c-.8.1-1.1-.2-1-1m.5 2.2h-1c-.1-.5.2-.7.2-1 .7 0 .9.4.8 1m-1-6.6c-.2-1.2-1.5-1.2-1.5-2.5 1.2-2.4 2.8-.2 3 1.7-.3.4-.8.7-1.5.8m-1.2.2h.5c0 .2.1.2.2.2v.5c-.2 0-.2.1-.2.2h-.5c0-.2-.1-.2-.2-.2v-.5c.2.1.2 0 .2-.2m.5 5.7c-.8-.3-.8-1.5-1-1.7.4-.6 1.9.9 1 1.7m7.9 10.6c-.8 0-.6-1.8-.5-2h.7c-.1.6.3 1.8-.2 2m1 1.2c-.1 1.8-3.2 1.8-4.4 1 .5-1.4 3.3-2.9 4.4-1m1.4.3c-.7.7.9 1.2 1.2 1.7-.2.7.3 2-.2 2.2-.7-1.1-.8-2.8-1.7-3.7.2-.9 2.2-.4 1.2.5-.8-.1.1-.7-.5-.7m2.7 3.6c-.4.5-.8.7-1.2.8 1.7.3 2.6 2 .2 2.6-.7-.5-.6-1.8.5-1.7.5.5.1.7-.2 1 1.1.4.8-.9.5-1.2-.8-.1-1 .3-1.5.5.2 2.9-1.2 5-3.9 4.2.6-1.1 2.3-1.2 2-3.2-.2-.4-.5-.9-1.2-.7-.8.1-.4 1.2-.5 2-2.9-.5-1.1-3.8.8-3.8-.7-.1-1.4-.1-2 .3-.9-.9-.3-2.2.2-3 1.2.1 1.9-.3 2.2-1 .2 1.7.5 3.3 2 3.7 1.1.2 1-1.2 2.1-.5m.3-2.4v1h-1.5c-.1-.9.9-.8 1.5-1m-.5 6.6v.7c-.4-.1-1.2.2-1-.5.5.1.5-.2 1-.2m-4.7-1.7c2.3.4-.3 4.2-1.5 2.5-.2-.9 1-.3 1.5-.5-.1-.6-.5-1.5 0-2m-2.4-3.2c-.7-.2.1-1 0-1.5 1.1.1-.2.9 0 1.5m-.8 0c-.4-.4-.5-1-.5-1.7.3 0 .2.5.2.7.3-.2.3-.6.7-.5-.5.5-.1 1-.4 1.5m-.7-4.7c.9-.1 1.3.4 1.2 1.2-.6-.1-1.3-.3-1.2-1.2m6.4 1.3c.2-.8.5-1.3 1.5-1.2-.2.7-.9 1.6-1.5 1.2m-.8-.5c.4-.5.3-1.5 1.2-1.5.5.4-.6 2-1.2 1.5m-.4-.3c.1-.6.1-1.4.5-1.7 1 0 .1 1.8-.5 1.7m-.5.3c-.9-.2-.4-1.7-.2-2.2h.7c0 .9-.3 1.5-.5 2.2m-2-.3c-.8 0-1.4-1.8-.5-2 .8.1.9 1.5.5 2m-.7.3c-.8-.1-1.6-1-1-1.7.7.1.9.9 1 1.7m-2.8-.8v-1c2.9-1 2 .4 0 1m1.5 5.2c.5.4.3 1.4 1.2 1.2-.3 2.4-.3 4.7 1.7 5.4-.4.5-1.3.5-2.2.5-.1-2.4-.5-4.6-.7-7.1m.8 7.4c3.1-.1 6-.4 9.1-.5v2.7c-3.7-.2-5.5.3-8.9.2-.4-.4-.2-1.6-.2-2.4m7.6-10.6c0 1-1.5 1.5-2.2 1 .1-.5.7-.5 1-.7 0-.9-.8.5-.7-.2-.5-.6.6-1.2 1.5-1.2a6.18 6.18 0 0 0-5.2-2.7c1.3-.7 2.9-1 4.4-1.5.4 1.4 1.7 4.1.2 5.2.1.4.7-.5 1 .1m-1.2-6.2c-2.4 1.5-5.9 2-8.9 3-.1-.8-.6-1.2-.5-2.2 2.8-1 5.5-2.2 8.6-3 .1.9.3 1.7.8 2.2m-1-2.9c-2.5 1.5-5.6 2.4-8.9 3.2.1-.9-.5-1.2-.5-2 2.9-1 5.4-2.5 8.6-3.2.1.9.4 1.4.8 2m-2.7-5.9c.8.9 1.3 2 1.5 3.4-2.7 1.1-5.2 2.5-8.4 3.2-.4-.8-.7-1.6-1-2.5 1.3.8 1.9-.5 2.2-1.5.8 4 6.2.6 3-2 .8 0 2.6 1.2 2.7-.6m-.8 0c-.3 0-.4.1-.5.2-.4-.1-.6-.4-.5-1 .3 0 .4-.1.5-.2.5.1.6.4.5 1m-.7-3.2c.4.4.7.9.7 1.7-.9.2-.9-.4-1.7-.2 0-.9.8-.9 1-1.5m-.3-.5c-.9-.2-1.2.3-2 .2 0-1 .5-1.4.7-2.2.7.5 1.2 1.1 1.3 2m-1.4-3c-.3.6-1.2-.2-1.5-.5-.5.2-.7.7-.7 1.5-.8-2.7-5.8-1.6-3.7 1.5-.2.7-1-.1-1.5 0-.7 0-.5 1-.5 1.7-1.1-.3-1-1.7-2-2.2 2.2-2.3 4.9-3.9 7.9-5.4.4 1.3 1.3 2.3 2 3.4m-2.5-3.9c-2.6 1.7-4.9 3.8-7.9 5.2-.1-.9-.9-1-1-2 2.3-1.8 4.6-3.5 6.9-5.2 1.2.2 1.4 1.3 2 2m-2-2.5c-2.5 1.8-4.7 3.8-7.4 5.4-3.6-2.3 4.5-5.5 5.7-7.4.8.5 1.4 1.1 1.7 2m-1.9-2.4c-1.1 1.7-3.1 2.5-4.4 3.9.1-2.1 1.2-6.8-.5-8.9 1.8.5 3.4 3.3 4.9 5m-7.7-7.7c.4.1.1.7.5.7-.9 0-3.2-.2-2.5 2.2-.4 0-.5-.3-1-.2 0-.6.5-.8-.2-1 .5-.6.4-.7.7-1.7 1.1-.3 1.4 0 2.2-.2 0 .4.3.5.3.2m.5 1.8c0 1-.6 1.6-1.7 1.5-1.2-.9 0-3 1.5-2-.1.3 0 .4.2.5m-3.4-3.2c-3.3 4.5-.4 11.9 3.9 13.3 1.6-.7 2-4.9 1-6.6-1.2.3-2.3 0-3.2.2-.7-.1.2 1.3-.5 1.2-3.1-.9.8-2.8 2.2-3 .8.1.1-1.2 1-1 .7 1.1-.3 1.1-.5 2 .2.5.6-.9 1.2-.7-.1-1-.7-1.5-1-2.2-.4.6-.4 1.5-1 2-1.5.4-3.3.4-3.4 2.2-.1 1.2 1.3.8 2 1.2.2.8-.3.9-.2 1.5 1.7-.7 1.9-.2 3.7-.7-.2 1.3-.4 2.8-1 3.7-2.6-1.3-5.3-3.7-4.9-7.1-.6-1.8-.4-6.1 1.7-5.2-1.2.5-2.4 3.6-.2 3.9-.2.7-1.4.4-1.5 1.2 1.4-1.4 5.4-.2 4.4-3.9 3.1 2.5 3.6 9.2.7 12.3-5.4-1.2-8.9-9.8-4.9-15.3 1.4 0 1.8 1 2.7 1.5-.8.8-1.3-.7-2.2-.5m4.2 6.8h.7c.4.8.4 2.5-.7 2.5-.1-1.2.3-1.4 0-2.5m-1.3 0h.7c.6 1 .2 2.8-1 2.7.4-.7.8-1.8.3-2.7m-.7 2.8c-.4-.6-.4-1.6-.5-2.5h1c.2 1.3 0 1.5-.5 2.5m-2.7-11.4c-1.1 1.8-2.7 3.2-3.7 5.2.8-.5 1.1-1.3 1.7-2 .2 2.1-.6 5.2.5 7.4-1.4-.9-2.5-2-3.7-3 .1-.9.9-1.3 1.2-2-.5-.5-1.1 1-1.5 1.5-1-.1-1.3-.8-2-1.2 1.5-2.7 3.4-5 5.2-7.4 1.1.3 1.4 1.2 2.3 1.5m-2.7-1.7c-1.3.9-4.7 10-6.9 6.2 1.2-2.9 3.2-5 4.7-7.6 1.1 0 1.7.7 2.2 1.4m-2.5-2c-.4 1.5-1.5 2.2-2 3.4-1-.5-1.1-1-1.2-2-.1-.8 1-.5 1-1.2 0-.4-.3-.5-.2-1-1.6.4-2.1.1-3.2.2.6-2.4-2.5-4.3-4.9-3.7-.4-.3-.5-.8-.5-1.5 3.9 1.8 7.5 3.8 11 5.8m-11-3.4c.2-.3.4-.6.7-.7 2 0 5.7 1.8 3.7 3.4.3-2.2-1.8-2-3-2.7-1.7.1-.8 2.8-3 2.5-.1-.2-.2-.4-.5-.5.2-1 .6-1.9 1-2.7.1-.9-1.3-1.4-1.5-.5.3.4.7-.6 1.2.2 0 .9-.7 1.1-1.7 1-1.4-4 3.4-2.5 3.1 0m-1.8.2c0 .4-.3.5-.2 1-.7.1-1.7-.7-2.2 0-.7-.6.3-1.5.2-2.2.5.7.7 1.6 2.2 1.2m-1.7-3.7c-.8 3-1.9 5.6-3 8.4-1 .1-1.4-.4-2.2-.5.8-3.1 1.8-5.9 2.7-8.9.8.4 1.8.6 2.5 1m-3-.9c-.7 3.1-1.7 5.8-2.7 8.6-.7-.1-1.3-.4-2-.5.5-3.2 1.3-6.1 2.2-8.9.9.3 1.8.5 2.5.8m-2.9-.8c-.1.7-.4 1.3-.5 2-.9-1.2-3.1-1.2-4.2-.2-1.3-.5-.6-3-2.5-3 2.2-.4 5.1.7 7.2 1.2m-6.2-.5c0 1.7-.1 3.2-1.2 3.7-.2-1.4.5-1.8.5-3-.1-.6-.9-.5-1.5-.7-.7.6-.6 2-.7 3.2-2.4-1.8.7-5.7 2.9-3.2m-9.1-1.7c1.3 0 2.8-.2 3.7.2-.7.5-.5 1.4 0 2 1.5.3 1.7-1 1.2-2 1-.1 1.4.4 2.5.2-.2.2-2.5.5-2.2 2-2.2.8-2.5-2.3-4.9-1-.6.1-.1-1-.3-1.4m-.2 3c2.5.7.3 4.5 1.7 6.2h-1.7V4.8Zm-3-3.2c1.3 0 2.2 0 2.7.2.1 3.6-.3 5.2-.2 8.9-.8.3-1.1 0-2.2.2-.5-2.7-.2-7-.3-9.3m-.7 0c.6 2.6.1 6.3.2 9.4h-2.2c-.4-3.2-.3-6.1-.5-9.1 1.1.1 1.4-.5 2.5-.3m-7.2.5c1.7.2 2.6-.4 4.2-.2.1 1.6.4 2.9.2 4.7-1-1.3-1 .6-1.5 1.2-1.1-.1-.6-1.8-1.2-2.5-1.5-.1-.2-1.1 0-1.7.7.4-.2 1.1 0 1.7.6-.3.5-1.3.5-2.2-.7-.2-.5.5-.7.7-.5 0-.1-.9-.2-1.2-.7 0-.6.7-1 1-.6-.1-.1-1.1-.3-1.5m.8.9c.6.3.2 1.8-.7 1.5-.7-.6.5-.8.7-1.5m-2 .8c-.2-.8.6-.5.7-1 .7.3.1 1.3-.7 1m.7-1.5c-.1.8-1 .8-1.5 1.2-.8 0-1.1-.6-2-.5.8-.7 2.3-.5 3.5-.7m-4.6.7c1.1-.2-.1 1.9 1.2 1.5 1 .1.3-1.4 1.5-1 .2 1-.6 1-.5 2-1.3-.1-3.1-1.8-2.2-2.5m-1.3 0c1 1.2 2.1 2.3 3.4 3.2-.3.4-.9-.5-1.6-.1.8-.6-.6-1.2-1.1-1.1-.5.2-.5.9-.5 1.7-1.2-.8-2-1.9-2.9-3 1-.1 1.9-.3 2.7-.7m-2.9 1.5c1 0-.2 1.3.5 2 .9.2.9-.4 1.7-.2-.1 1.1-1 1.4-2 1.7.1-1.2-.9-2.5-.2-3.5m-1-.5c.9 1.1.5 3.4 1 4.9-.5-1.3-2-3.7-1-4.9m-1 .5c.9 2.8 1.7 5.7 2.5 8.6-.9.1-1.4.6-2.2.7-1-2.8-2-5.7-3-8.6.9-.2 1.5-.7 2.7-.7m-2.9 1c.7 3 2.1 5.4 2.7 8.6-1-.1-1.1.7-2.2.5-1.1-2.6-1.9-5.5-3.2-7.9.4-.8 1.4-1.1 2.7-1.2m-3 1c.3 1.3 1.1 2.2 1.2 3.7-1.2-.7-1.4-2.4-3-2.7-.7.6-.7 2-1.7 2.2-.5-.6.3-1.1-.5-1.5 1.1-.8 2.6-1.2 4-1.7m-7.1 3.2c.7-.2.5.5 1 .5.1-1.2 1.3-1.3 2.2-1.7.1.5-.2.7-.2 1-.8-.2-.7-.8-.7.5-1-.7-.3-.1-1.2.2 0 .9-.8.8-1 1.5-.6-.2.7-.6.2-1.5-.8-.1-1 .3-1.5.5.2.6.7-.5 1.2-.2 0 .6-.4 1-1 1-.1-.2-.2-.4-.5-.5.3-.7.8-1 1.5-1.3m-1 2.4c-.7-.1-1.1-.5-1.2-1.2.7.1 1.1.5 1.2 1.2m-.5.3c-.5.7-.9-.7-1.5-.7.5-.8 1 .6 1.5.7m-1 0c-.2.5-.9.9-1.2.5.1-.5.7-1 1.2-.5m-1-.7c.8.4-.6.7-.5 1.2.3 1 1 0 1.7 0-.1.8-.9.9-1.7 1-.8-.6-.4-2.1.5-2.2m-1.2 2.4c-.1-.5-.5-.6-.5-1.2.5-.1.5.4.5.7 0 .5.8.2 1 .5-.2 1 .3 2.1.7 3.1 0-.7.1-1.1.3-1.7.8.1.9-.4 1.7-.2 1.8 1.3-.2 3.7-1.8 2.3.2.5.4 1.1.4 1.6-1.3-.8-2.1-2.2-2.7-3.7.4-.1.6-.4 1-.5 0-.4-.3-.5-.2-1-.7.2.2.5 0 1-1-.7-.3-.1-1.2.2-.4-.8.4-.7.8-1.1m-2.2-.2c1.4 2.5 3.2 4.7 4.7 7.1 0 1.1-1.3.9-1.5 1.7-1.9-2.2-3.7-4.6-5.4-7.1.4-.9 1.2-1.4 2.2-1.7m-3 1.9c2.3 1.8 3.6 4.8 5.7 6.9-.3.7-1.1 1-1.7 1.5-1-.3-1.6-1.8-3-3.4-1.7-2.1-4.4-3.5-1-5m-2.5 1.8c1 1 2.4 2.4 3.4 3.7 1 1.1 2.6 2.7 2 3.9-1 .2-.5-1.2-1.5-1-1.3.4-1.6 1.7-2.7 2.2-2.6-.7-.4-2.1.5-3.2-.2-1.1-1.3-1.4-1.7-2.2-.7.2.7.5.2 1.2-1.7 1.5-3.4 3.2-4.9 4.9.1.7 1.1.6 1.2 1.2.8-.2 1.2-1.8 2-1.2-.9 3.4-3.2 2-4.7 0 1.6-2.5 4-4.2 5.9-6.4-.6-1.2-1.6-.2-2.7 0 .6-1.5 2.3-1.8 3-3.1m-.7 2.9c-.2.9-.9 1.2-1.5 1.7-.7-.1-1.2-.5-1.2-1.4.7.5 1.8-.2 2.7-.3m-2.9.8c.2.7 1.2.6 1 1.7-.5-.7-1.7-.2-2.7 0 .2-.9.9-1.4 1.7-1.7m.4 1.7c-.6 1.8-1.7 1.9-2.7.5 1-.7 1.8-.2 2.7-.5m-4.4 2.2c.3-.6 1-.8 1.2-1.5.8.2 1.3.7 1.5 1.5-1.6-.7-.1 1-1.5 1.7-.5-.5-1.5-.5-1.5-1.5.6.7 1.2-.3 1.7.2.2 0 .2-.1.2-.2-.2-.7-1.3.4-1.6-.2m-.7.7c2 1.4 3.9 2.9 5.4 4.7.1.8-.7.7-.7 1.2-.1 1 1.5 1.1.7 2-.9.3-2.4-1-3.9-2.2-2.9-2.1-4.9-3.1-1.5-5.7m-2.5 3c.5-.1 2.7 1.9 3.7 2.7 1.5 1.2 2.5 2.2 3.4 2.7-.2.9-.9 1.2-1.2 2-1.4-.8-2.3-1.4-3.9-2.5-.8-.6-3.6-2.2-3.7-2.7 0-.2 1.4-2.2 1.7-2.2m-2 2.5c2.4 1.9 5.2 3.3 7.4 5.4-.2.8-.7 1.2-1.2 1.7-2.7-1.4-5.1-3.1-7.6-4.7.2-1.1 1.1-1.4 1.4-2.4m-1.9 2.7c1.3.3 2 1.3 3.2 1.7-.4.8-1.2 1.2-1.5 2.2-.4 0-.5-.3-1-.2.6-.9-.9-1.6-1.2-.7-1.2-1 .3-2.1.5-3m.5 6.4c-.6.1-.5-.5-1.2-.2.3-.7.4-1.6 1.5-1.5-.4.3-.3 1-.3 1.7m-2.5-2.7c.6.9-.5 2.1-1 2.7 0 .4.3.5.2 1 .7 0 1.6-.1 2 .2 0 .2-.1.2-.2.2v.5c-.8.1-.6-.8-1.5-.5-.5.2-.5.9-.5 1.7-.6-.3-.8-1-1.2-1.5.6-1.5 1.4-3 2.2-4.3m-2.5 6.9c-.3-.4-.8-.5.2-.5-.1-.2-.2-.4-.5-.5.7-.5.7.4.5-1 .9.2.5 1.6 1.2 2 .6-.3-.1-2.1.5-2.5.7.1 1.1.5 1.2 1.2.5-.4.2-1.6 1-1.7-.3-.6-1.3-.5-2.2-.5 0-.3-.1-.4-.2-.5.6-1.1 1.6-1.9 1.2-3.9.9-.2.4 1.8 1 .5.3 0 .2.4.2.7.2-.1.4-.2.5-.5.5-.2-.4 1.3.2.5.2.4-1.3 1.3-1.7 2 .2.8 1.6.3 2 1 .2-.2-.3-2.2.5-2.5.6.1 0 .9-.2 1 .2.9 1.7.4 1.7-.2.1-.9-.9-.6-.7-1.5.7-.2.8-1 1.2-1.5.5.5.2.5 1 .2-.1 1.3-.8 2-1.2 3 .5.8.4-1.1 1.2-.7 0 1.5-1.1 2-2 2.7.3.6 1 .8 1.5 1.2.5-.5.5-1.5.5-2.5 1 .5.6.4 1.7.5-.1.2-.6.9.2.7-1.2.3-1 1.9-2.2 2.2-.8 0-1-.5-1.5-.7-.4.6-1.1 1.1-1.5 1.7 1-.2 2.2-.1 3.2.2-.1.9-1 1-1.7 1.2-.1.6.1.9.5 1-.2.7-.5-.2-1 0 1 .7-.5.8.5 1.2-.7.6-2.2-1.3-1-2-2.1 1.2 1 2.1 1.2 3.2-.9.2-2-1.2-2.7-2 .1-1.3 1.1-1.7 2.2-2-1.3-.4-2.4.8-2.5 1.5-.2 1.8 2.7 1.8 2.5 3.7-2.7-1.1-5.8-1.6-8.9-3 .8-1 .9-2.7 2.4-2.9m8.2-2.5c-.4-.1-.4-.4-.8-.5-.2-.7.5-.5.5-1 .8.1.4.9.3 1.5m-10.6 6.1c3.2.7 5.9 2 8.9 3-.2.8-.4 1.5-.7 2.2-3.2-.7-5.9-1.7-9-2.4.1-1.2.6-1.7.8-2.8m-.8 3c2.7 1 6 1.6 8.6 2.7.1 1-.6 1.2-.5 2.2-3.1-.6-6-1.4-8.9-2.2.1-1.1.4-2 .8-2.7m-.7 3.7c1.9-1 4.2 1.6 2.5 3.4-.8-.1-.4-1.2-.2-1.7-.1-.7-1.5-1.5-2.2-.7-.9-.1.9-.8-.1-1m1.7 1.2v1.2c-1 0-1.1-.8-2.2-.7.3-.8 1.4-.8 2.2-.5m-1.7 1.7c0 .3 0 .7-.2.7.2.4 1.1.4.5 1-.7-.2-.9-.9-1-1.7h.7Zm-1.2 1.8c.6-.1 1.1.1 1 .7-.4 0-.5.3-1 .2v-.9Zm-.5 3.7c.6-.1.8.3.7 1-.6 0-.8-.4-.7-1m0 1.4c.3.4 1 .7.5 1.2-1.2.4-.6-2.3-.5-1.2m.2 3.5c.4-1.2-.2-.6-.5-1.5.9 0 1.9 1.4.5 1.5m-.7-.8c.7.6.9 1.6 1.7 2-.2.6-1.4.1-2 .2 0-.8.1-1.5.3-2.2m0 2.5c1.9.4 5.9.2 8.9.2v2.5c-2.9 0-7 .1-9.1 0 0-.9-.3-2.2.2-2.7m-.3 3.2c4 .1 6.1-.6 9.4 0v2c-3.3.5-5.7.3-9.1.7-.3-.7-.3-1.7-.3-2.7m.3 3c3.6 0 6-.5 9.1-.5v1c-2.5-.3-3.5.5-6.2-.2-.6 0-1.1 1.3-.5 1.7-1.5 0-.7 2.3-2 2.5-.2-1.5-.5-2.8-.4-4.5m1 4.4c.6 0 1.3 0 1.9-.2-.3 0-.6 0-.9-.1-.6-.5-.6-1.3 0-1.7.5-.1.4.5.7.5.4-.2.9-.5.7-1.2-.1-.6-.4.3-1 0 1.3-3.2 2.7 1 1.1 2.2.8-.5 1.3-1.3 1.1-2.7 1.2 1.7.4 4 .2 5.7 0 .6.8.5 1.5.5 0 .6-.6.6-.7 1 .3.6.8 1 1.2 1.5 1.3-.2 1.2-2 2.7-2-.2 1.3.3 1.9.5 2.7-1.9.5-2.1 2.3-3.7 2.7-4.9 1.1-6.1-5.1-5.3-8.9m1 8.4c.5-.6 1.3.7 2 .7 3.7.7 4.1-2 6.4-2.7-.2-1.4-.5-2.2-.6-3.2 1.2.9.8 3.5 1.7 4.7-2.3 1.6-6 1.9-8.9 3-.2-.8-.2-1.9-.6-2.5m.9 2.7c2.8-.8 5.7-1.4 8.1-2.5 1 .2 1.2 1.1 1.2 2.2-2.7 1.1-5.7 2-8.6 3-.2-.9-.7-1.5-.7-2.7m1 2.9c3-.7 5.5-2 8.6-2.7.3.6.6 1.2.7 2-2.5 1.4-5.6 2.1-8.1 3.4-.8-.4-1-1.6-1.2-2.7m1 3c1.1-.2 1.6-1 3-1 .6 2.4 1 5.1 2.2 6.9 0 .5-1 .1-1.5.2-.4 1.1 1.2.8.5 1.5-2.2-1.7-2.9-5-4.2-7.6m5.9 7.4c-.5-.4-1.6-.2-2-.7.8-.6 2.2.3 3.2.2-.2 1.2-.7 2.1-1.7 2.5 0-.8.5-1 .7-1.5-.3-.5-1.1.5-2 .2.3-.6.9-.8 1.8-.7m-.5 1c-.2.3-.3.7-.2 1.2.4 0 .9.1 1-.2 0 1.8 1.6 3.1 1.5 4.2-1.3-1.3-2.9-3.6-3.2-5.2h.9Zm2.2 5.6c2.5-1.8 4.8-3.9 7.9-5.2 2.7 2.6-4.8 5.5-6.4 7.1-.4-.6-.9-1.3-1.5-1.9m2 2.2c2.5-1.7 4.5-3.9 7.4-5.2.4.4.4 1 1 1.2-1.7 2.5-4.5 3.9-6.6 5.9-1.1-.1-1.4-1-1.8-1.9m4 .8c.2.1.4.3.7.2.1.8-.2 1.1-1 1-.1-.6 0-.9.3-1.2m-2 1.9c0-.9.8-.8 1-1.5 1 1.2 1.5 2.9 2.2 4.4-1.3.3-2.1-2-3.2-2.9m2-.4c1.5 0 .9-1.3.5-2 .5-.1.4-.7 1.2-.5-.7.9.8 1.4 1 2.2 1.3-.8 1.6.2 2.7-.2.2-1-.8-.8-.5-2 1.3 1.4 4 1.5 3.7 4.4-.7.2-.7-.4-1.5-.2 2.2.8 4 2 5.2 3.9-2.2.3-5.6-.3-5.7-3-.3 0-.7 0-.7.2-.3-1-.6-1.8-1.5-2.2-1.9-.2-2.7 2.5-1 3.2 1 .1 1.7-.1 2-.7.5 3.3 5 2.5 4.9 6.4-2.5 0-3.9-1-4.2-3.2-4.3 1.1-4.6-3.8-6.1-6.3m6.1 3.2c.8 2.3 3.6 2.7 6.2 3.2-2.9.8-6.4-1-6.2-3.2m5.9 3.6c-.2.9-.9 1.2-1.2 2-.5-.5-.8-1.2-1-2h2.2Zm-6.6-4.6c0 1.1-.7 1.6-2 1.5-.5-.6-1-1.3-.5-2.2 1-.6 2.2-.2 2.5.7m-1.3 4.9c.1-.5 1.2-.1 1.7-.2.3 2.1 2.1 2.7 3.9 3.2-1.6 2.2-3.5-2.4-5.6-3m5.5 4.2c1.4-2.7 3.4-4.8 5.2-7.1.8.3 1.3.8 2 1.2-1.6 2.6-3.2 5.2-5.2 7.4-1-.3-1.6-.8-2-1.5m2.4 1.9c1.4-2.7 3.4-4.8 4.9-7.4.9.1 1.2.8 2 1-1.2 2.9-3.2 5-4.7 7.6-1.1 0-1.5-.7-2.2-1.2m2.5 1.8c.4-.5.4-1.4 1.2-1.5-.1.6-.4 1.1-.2 2-.4-.2-.7-.4-1-.5m1.2.5c.9-.7 2.2 1.3 3.4.2.3-1.1-.8-.6-.7-1.5 1.8-.6 1.4 2 .7 2.5-1.4.5-2.3-.6-3.4-1.2m3 1.4c1.1-.1 1.4-1.1 2.5-1.2v-1.2c.4-.4.5 2.5-1 1.7.1.4.4.6 1 .5-.4.4-.5 1-.7 1.5-.6-.5-1.7-.4-1.8-1.3m3.4 2c-.8.2-.8-.4-1.2-.5-.2-1.4.9-1.5.7-3 1 1-1.2 2.1-.2 3.2.7-.1 1.4-.3 1.2-1.2.6.4-.1 1.4-.5 1.5m2 1c-.6-.1-1.1-.3-1.5-.7 0-.7.4-1.1 1.2-1 .4.3.3 1 .3 1.7m.2-1.7c.4-.8 2.9-.6 2 .5-.3-.9-1.4-.9-1.5.2.3 1.2 1.6 1.4 2.5 2-1.4.5-3.4-.6-3-2.7m3.7.7c.2-.7.8.1 1.2 0-.1 1-.7 1.6-.7 2.7-2.6-.1 1.2-2-.5-2.7m.8 3c.7-3.1 2-5.6 2.7-8.6 1 0 1.5.4 2.2.7-.6 3.1-1.6 5.8-2.5 8.6-.8-.2-1.7-.4-2.4-.7m5.4 1.7c-.7-.4-1.6-.5-2.5-.7.9-3 1.5-6.2 2.7-8.9.6.3 1.5.3 2 .7-.5 2.3-.6 5-2.2 6.2 1.2-.1.5 1.5 0 2.7m1 0c-.1-1.4.2-4.5 1.5-5.4-.5 1-.3 3.9-1.2 3.9.3 1.2 2.4.5 3 .7 0 0-.3.5-.2.5.1 0 .6-.3 1-.2 1.8.4 3.2 2.3 6.4 2-3.4.4-8.5-.7-10.5-1.5m10.3.7c1-.9 2.4-.1 2.5 1.2-1.3 0-2.4-.1-2.5-1.2m1.5-2.2c-.9 1.5 1.5 1.8 2.7 2-1.7 1-4.6-.9-3-2.5.7.1 1.5.8 1 1.5-1.2.1-.1-.7-.7-1m1.2 2.5c1.1.2 1.4-.2 1.7.5.1.9-2.3.6-1.7-.5m0-1c-.5-.4.2-.6 0-1.5-.2-.5-.7-.7-1.2-.7-1.2-.1-1 1.3-1 2.5-3.6 2.1-6.2-1.5-9.6-1.7-.2-.8.5-.4.5 0 .7.1.6-.7 1-.9-.5-.1-1-1.2-1.3-.3-.6 0 .3-.6 0-1.2 2.2-.2 3.9 1.7 4.9 0 .3-2.6-3.1-1.3-4.2-2.5 2.3-1.4 9-1.1 8.4 3 .9-2.6-1.9-3.5-3.7-4.2 2 .1 3.7.4 5.7.5-.2 3.4 2.3 4.1 2.2 7.4-.7 0-.8-.6-1.7-.4m1.7-2.2c-.9-1.4-1.7-2.7-1.7-4.9.7 0 1.6-.1 2 .2-.2 1.5-.4 2.9-.3 4.7m3 4.2c-1.1-.1-1.6.5-2.5 0v-8.9c.8.1 1-.4 2-.2.5 2.7.5 5.8.5 9.1m3.2 0h-2.7c-.1-2.3-.3-4.8-.2-8.9.4-.4 2-.4 2.5 0-.2 3.2.5 5.7.4 8.9m.5 0c-.2-3-.6-5.8-.5-9.1h1.5c0 1.2-1 2.1.2 2.7-.1.7-.8.9-.5 2 .4 1 1.6 1.1 2.7.7.9 1.2 0 2.3-.5 3.4-1.6 0-1.3.3-2.9.3m4.4-.5h-1c0-.8.8-.8.7-1.7 1 .2.1.8.3 1.7m.3 0c-.2-.7.3-.6.2-1.2.9-.3.7 1.7-.2 1.2m.9-.5c.1-.2.3-.4.2-.7.9-.4.1.8.7.7.1.6-.7 0-.9 0m1.8.2c-.7.1-.5-.8-.7-1.2.7-.1.7.5.7 1.2m.2-1.9c.6.3 1 .8 1 1.7-1.1.2-1.5-1.1-1-1.7m.3-.8c.8-.3 1.9 1 2 2.2-1.3-.2-1.8-1.1-2-2.2m.2-.5c1-.3 2.6.9 2.7 2.2-1.4-.2-1.3-2-2.7-2.2m1.7.3c.8-.8 2.3.7 1.5 1.5-.7-.4-.7-1.3-1.5-1.5m1.3 1.9c.3-.5.8-.8 1-1.5-.3-.1-1.4-.5-1.5-1.5 1.1-.2 1 .8 1.7 1 .8-2.7-.1-5.7-2-6.6-.4-.1-.8 1.2-1 .5.6-1 1.9-1.2 3.2-1.5.8 2.9 1.9 5.5 2.5 8.6-1.2.5-2.3 1-3.9 1m4.4-.9c-.7-3.1-1.8-5.7-2.5-8.9.5-.3 1.2-.3 1.7-.5 1.7 2.3 2.3 5.6 3.2 8.6-.9.1-1.6.5-2.4.8m2.9-1c-1-2.9-2-5.7-3-8.6.7-.2 1.2-.6 2-.7 1.6 2.4 2.7 5.4 3.4 8.6-1-.1-1.4.5-2.4.7m2.5-3.7c-1.6-1.3-1.9-3.9-2.7-5.9.4-.1.6-.4 1-.5 1.6.9 2.2 4.2 1.7 6.4m0-3.5c-.3-1 .6-.7 1.2-.7.6.8.6 2.2-1 2 .3-.8 1.5-.9.5-1.7-.2.1-.2.5-.7.4m.5 1.8c.6 0 .5.8.5 1.5-.9.2-.3-1-.5-1.5m-.2 1.7c.9.4 2 .2 3 0-.4.9-2.8.9-3 0m2.4.7c.4-.1.5.2.5.5.6-.3.1-1.5 0-2 .7.5 1.2 1.1 2.5 1-.6.3-2.8 2.1-3 .5m1.3-1.7c1.1.6 2.5.1 3.4-.2-.3 1.1-3.2 1.9-3.4.2m6.4-1c-.3-.2-.4-.5-.4-.9-.7 1.5-3.1 2.2-3.6.1.9-.3 1.2-1.2 2.2-1.5 0 .9-.8.8-1 1.5 1 .1.8-1.1 1.7-1 0 .9-.8.8-1 1.5 1 .1.8-1 1.7-1 .5-1.7 3-4 .1-4.7.1-.6.3-1 .5-1.5 1.4 1.3 2.2 3.3 3.4 4.7-.9 1.3-2.7 1.6-3.6 2.8m3.6-3c-1.3-2.6-3.2-4.6-4.7-7.1.3-.9 1-1.3 2-1.5 1.4 2.5 3.4 4.5 4.9 6.9-.2 1-1 1.6-2.2 1.7m2.8-1.7c-1.8-2.3-3.4-4.6-5.2-6.9.1-1 1-1.1 1.5-1.7.8.5 1.7 1.9 3 3.4 1.7 2.2 4.4 4 .7 5.2m2.7-1.7c-2.1-2.4-4.2-4.7-5.9-7.4 1.2-.7 2.1-2.5 3.2-.7 0 .7-.6.8-.7 1.5.3 1.8 1.9 2.2 3.4 1.5.2 1-1.2.5-1 1.5-.1.6.5.6 1 .7-.3-.4-1.1-.6-.5-1.2.8.8 1.6.1 1.7-1 .4.4-.2 1.7-1 1.7.3.8.3 1.9 1.7 1.5-.3.9-1.6 1-1.9 1.9m.7-2.5c.4-1.1 1.3-1.7 1-3.4.7.1 0 2.7-.5 3.2 1.3.5 2-1.4 1.7-3.2 1.1 1.5-.3 4.3-2.2 3.4m3-.7c-.7-.4.2-1.1 0-1.7.3.1.4.4.7.5.1.7-.7.6-.7 1.2m0-3c.6 1.3 1.4.8 2-.2.1-.6-1-.2-.7-1 .6 0 .8.4 1.2.5-.2 1.6-2.4 3.2-2.5.7m2.9-.4c-.2-.2-.4-.4-.7-.5.3-.4 1.3-.2 1.7-.5 0 .6-.4.9-1 1m-1.5-1c.3-.8-.8-.2-.5-1 .7.7 2.6-.1 3.4-.7.7 1-1.8 1-2.7 1.2.7.2 3.3.1 3.2-1.2-1-.4-2.8 1.3-4.2.5 1.7-.2 3.1-.7 4.4-1.2.9 1.8-1.6 2.4-3.6 2.4m4.7-2.2c-1.4 0-1.3-1.5-2.2-2-1-.1-.8 1.1-1.7 1 1.9-2.1-1.6-4.7-2.7-2.5-.6-.3-.8-1-1.5-1.2 1.3-5 7 2.1 8.9 3.7-.4.2-.5.6-.8 1m1-1.8c-2.2-1.9-4.8-3.4-6.9-5.4.2-.8.6-1.4 1.2-1.7 2.7 1.4 4.8 3.4 7.4 4.9-.2 1.1-.9 1.7-1.7 2.2m2.2-2.4c-2.8-1.4-4.9-3.5-7.6-4.9.3-.9.5-1.8 1.5-2 2.7 1.3 5 3 7.4 4.7-.1 1-1.1 1.3-1.3 2.2m1.5-2.7c-2.7-1.4-5-3.2-7.6-4.7.4-.5.7-1.1 1-1.7.5 0 .5.6.5 1.2.9.2 1.1-.4 2-.2.1 1 .8 1.6 1.7 1.7.7.1 2.9-1 4.5-2.4-.6.1-.4-.7-1.1-.5-.6.8-1 1.8-2.2 2 .3-.3.2-.5-.2-.5.1-.2.3-.4.2-.7.8 1.3 1-1.5 2.5-1.7-.1.6.3.8 1 .7.9-.6-.3-1.3-.7-1.5-.4.3-1.1 1.5-1.7.7.1-1 1.7.2 1.5-1.5.2 0 .2.3.2.5.4.4 1 .5 1.7.5-.1.7-.5 1.2-.8 1.7 1-1 1.6-2.1 1.3-3.2.4-.2 1.2-.1 1.5-.5-.9 3.3-3.2 7.3-5.3 10.1m3.7-9.9c.3-.6 1-1.4 1.7-.7-.1.7-1.2.4-1.7.7m2.2-.7c-1.1-.4-.5-.9 0-1.5-.4-1.3-1.7-1.8-3.4-1.7-1.1-.9-3.4-1.4-4.9-.5 0-1 .5-1.4.7-2.2 3.1.7 5.8 1.9 8.6 3-.4.9-.7 1.8-1 2.9m1.2-3.5c-3.1-.7-5.8-1.9-8.6-3 .2-.8.3-1.6.7-2.2 2.8.9 5.9 1.6 8.6 2.7.1 1.1-.6 1.5-.7 2.5m1-2.9c-3.1-.6-5.7-1.7-8.6-2.5-.1-1 .1-1.7.5-2.2 3 .6 5.8 1.4 8.6 2.2.3 1.3-.6 1.4-.5 2.5m.8-3c-1.5 0-2.4-.6-3.7-.7 2-1.7 3.3-4.1 4.7-6.4-.4-.8-.2 1.1-1 .7.3-.4.7-.8.5-1.7.4-.1.5.2.5.5.5-3.3-.9-6.8-3.7-7.1-.6.1.3.7.5.7-.6.3-1.8-.8-3-.7.5-.8 1.2.3 2 0-.2-.4-1-.3-1.5-.5 2.9-.5 4.1 0 6.9 0-.2 5.6-.9 10.7-2.2 15.2m2.2-15.7h-8.9c-.4-.5-.2-1.6-.2-2.5 3.2 0 6.7.1 8.9-.2.4.5.1 1.8.2 2.7m-134.2-16v.1-.1m132.8 2.8v.3-.3"/>
      <path d="M150.29 131.1c0 .1-.1.2-.1.4 0-.2.1-.3.1-.4m28.6-69.6c.2 0 .3 0 .5.1-.2 0-.3-.1-.5-.1m1.4.9c.3-.2.6-.3.9-.4-.6-.1-1.2-.3-1.8-.4.3.1.6.4.9.8m-56.9-54.7c.5 0 1 .2 1.4.5-.3-.3-.8-.6-1.4-.5m-.7.3c.2-.1.4-.2.6-.2-1-.1-1.7.7-.4 2.9.4-.1.7-.1.9-.2-.4 0-.7-.2-1.2-.3-.2-.7-.2-1.5.1-2.2m2.1 2.1c1-.6.7-1.3 0-1.8.4.5.4 1.2 0 1.8m-.3.3.3-.3c-.2.1-.5.3-.9.4.2 0 .3 0 .6-.1m-27.2 89.5c-.3-.1-.5-.3-.7-.5 0 .1 0 .1.1.2l.6.3m63.6-31.8s.1 0 .1-.1l-.1.1m-17.6 49.4c.2.2.3.5.4.8 0-.2 0-.3-.1-.6 0 0-.1-.1-.3-.2m19.8-44.7c-.2.1-.4.2-.5.3.2-.1.4-.2.5-.3m-19.2-32.9c0 .1-.1.1-.1.2.1 0 .1-.1.1-.1v-.1Zm9.9 24.2s0 .1-.1.1l.1-.1m-87.3 10.6c.2.1.4.2.6.2-.2-.1-.4-.1-.6-.2m95.9-7.8c0-.1.1-.1.1-.2 0 0-.1.1-.1.2 0-.1 0 0 0 0m-3.6 1.2c0 .1-.1.2-.1.3 0 0 .1-.1.1-.3m-75 9.5h-.2c.1.2.1.4 0 .5.2 0 .3-.2.2-.5m76.1-13.5c-.5-2.9-4.2-1.5-6.1 0 1.4 1.4 1.6 4.1 4.9 3.7.1.1.1.3.1.3.6-1.3 1.3-3 1.1-4m-1.2 3.4c-2.5.1-4.4-1.6-3.7-3.9h.7c-.1 2.5 1.4 3.3 3.2 2.7.2.7-.3.7-.2 1.2m-1.7-1.4c-2.4-1.5.5-4.9 2.5-2.7.2 2-.6 2.9-2.5 2.7"/>
      <path d="M156.19 30.4c-10-10-26-17.8-44.1-16.7-13.1.7-24.8 5.5-32.5 11.1a57.98 57.98 0 0 0-21.9 60.5c2.7 11.3 8.4 20.7 15.5 27.8 14.1 14.2 40.4 22.5 64.3 12.3 18.8-8 34.5-25.4 35.9-50.7 1.2-20.2-7.8-35-17.2-44.3m15.8 31.7c-1.6-2.3-3.1-4.7-5.9-5.7 1.4-1.2 2.2-3.1 3.4-4.4.8 3.4 2.1 6.4 2.5 10.1m-4.2-7.8c-.3.5-1.4 1.5-2.2 1.7-1 .2-4.3.3-5.7 0-1-.2-1.8-.8-2.3-1.4.4.6.9 1.1 1.6 1.4-2.5 1.6-5.4 2.8-7.6 4.7.4-3.3 3.2-6.3 4.4-9.6.4.8.7 1.8 1.1 2.6-1.8-4.3 2.9-12.4 9-8.2 2.2 1.4 3.5 6.2 1.7 8.8m-1.7-9.2c-1.6-1-4.9-1.4-6.4 0-.7-1.7 2.1-4 2.5-6.2 1.9 1.5 2.8 3.9 3.9 6.2m-5.7-9.1c-7.5-4.6-16.6-9.7-25.9-13.3.9-.6 2.5-.5 2.7-2 .2-2.1-2.3-2.9-4.7-2-.2-.6-.4-1.2-.5-2 12.3 3.7 21.2 10.7 28.4 19.3m-24.1-16c-.2-.2-.5-.4-.7-.5-.3 0 1.3 1.4 0 1.7-.8.1-.9-.6-.5-1-2.3-.1-3.6.8-5.7 1 1.1-1.2 3.3-1.2 5.2-1.5-1.6-.7-4 1.1-5.4.5 1.7-1.9 10.2-2.4 7.1 1.7-1.3.1-2.5 0-2.2-1.5.4.9 2.6 2 2.2-.4m-4 3c-1.4-.3.6-1.3-.3-1.7-.6-.6.7.2 1.2 0 .1.8-1.3.3-.9 1.7m-2.9 2.4c0-.4.3-.5.2-1 .7 0 .8.6 1.5.7-.3.2-.1.9-.7.7v-1c-.4.3-.2.9-1 .6m-9.4-1.7c-.2-.8.2-1.1.2-1.6v-.3.3c.1 3.2 5.4 1.1 6.4 3.4 0 .9-.5 1.3-1.2 1.5 0-.7.1-1.4-.2-1.7-2.3 0-4.4.4-5.4-.5.2-1.2 1 .4 2 0-.4-.6-1.4-.6-1.8-1.1m9.4-.5c-.1-1 1.2-.7 1.7-1 0 1-1 .9-1.7 1m1 1.3c-.4-.1-.6-.4-.5-1h.7c.1.5-.2.6-.2 1m-1-.3c0 .7-.6.7-1.2.7-.1-.7.7-.5 1.2-.7m-.5 0h-.8c-.1-.5.2-.7.2-1 .5.1.7.5.6 1m0 1v1c-.5.1-.7-.2-1-.2.2-.4.4-.8 1-.8m-2.2-5.4c.9.4.9 1.7 1.2 2.7-1.1-.2-1.2-1.5-1.2-2.7m.2 3.7c-.6-.3-1.5-.5-2.2-.7.6-.5.9-1.2 2-1.2 0 .7.9 1.2.2 1.9m-2-1.3c-.9-.2-.5-1.6-1.2-2h-1.7c.9-1.8 4.4 0 2.9 2m-3.2-1.4c5.7-.9-.7 5.2 0 0m1 2.7c.6-.1 1.1-.3 1.2-.7 2 .5 3.7 1.8 3.7 3-1.1-1.7-3.6-1.8-6.2-2-.8-.7-1.2-3.2.2-3.4-.8 1-.2 2.9 1.1 3.1m4.2 5.1c-.3.6-.1 1.7-1 1.7.2-.7.1-1.7 1-1.7m-.7-.4c0-.7.6-.7 1.2-.7 0 .6-.6.6-1.2.7m-1 1.7c0-.7.5-1 .5-1.7.9.1.2 1.6-.5 1.7m0-.8c-.6-.3-.1-1.5 0-2 1.2.2-.3 1.2 0 2m-.5.5c-1.5-.2-2-3.1-1-4.2h1.2c.9 1.5-.6 2.4-.2 4.2m2.5 1.5c.4-.3.4-2.2 1-1.5-.5 2.2-2.1 3.3-3.9 4.2-.6-1.2-1.6-2-1.5-3.9a7 7 0 0 1 4.4 1.2m-.5-.5c.2-.6.1-1.6 1-1.5-.5.4-.1 1.6-1 1.5m-3.7-5.2c-.3 2 .3 3.1.7 4.4-1.9-.3-4-4.3-.7-4.4m1.2 8.9c1.6-.7 2.3-2.3 4.2-2.7 0 1.8-2.4 3.1-3.9 4.2-2.1-1-2.7-3.5-3.4-5.9 2.3.1 1.6 3.4 3.1 4.4m3.7-2.9c.2-.6.1-1.6 1-1.5-.2.6-.2 1.4-1 1.5m-.2-2.5c.2-.4.5-.9 1.2-.7-.1.3-.4.4-.5.7.4 0 .6-.2.7-.5.8.8-.8.7-1.4.5m1.4-1c-.6.2-.5-1.8-.7-.5-.6.1-.8-.3-.7-1 1-.2.7.7 1.7.5.1.5-.2.7-.3 1m1.8-4.4c.1-.8 1.1-.5 1.2 0-.2.7-.8-.2-1.2 0m.9-5.7c-.8-.2-1.3-.6-1.7-1.2.6-.6 2 .1 1.7 1.2m-2.4-1.7c.4.2.9.5.7 1.2-.8.1-.8-.5-.7-1.2m1 1.7c-.2 1.1-2-.4-2.2 1-.3-.1-.5-.3-.5-.7.5-.3 1.9-1 2.7-.3m.5 1.5c-1.1-.4-2.4-.3-2.7.7-.1 1 .5 1.5 1.2 1.7.6 0 .8-.4 1.2-.5 1.1.3-.8 1.4-2 1-2.6-1.2.4-5.6 2.3-2.9m-4.2 0c-.8.2-.5-.7-1.2-.5.5 1 .7 1.4.7 2.5-1.1-.9-1.8-2.9-3.9-2 1.1-1.5 2.1-.5 3.2-.5-.1-.5-.7-.5-1-.7.4-1 1.2-1.8 2.2-2.2-.9 1.5 1 2 0 3.4m-.5-4c-1.1.8-1.2 2.7-3.2 2.7.7-1.1 1.5-3.2 3.2-2.7m-1.7-.4c.2.7-1 1.9-1.7 2.5-.1-1.3-.9-1.9-1.7-2.5.8-.8 2.1.2 3.4 0m-6.4 5.6c-2.7-1-1.7-5.5.5-5.9 4.1-.8 5.9 6.8-.5 5.9m-.3-6.4c.4.7-1.4 1.4-1.7 2.2-.5 3.6 1.7 4.8 4.2 4.7-.8 2-1 3.9-.7 5.8 0-.8.3-1.4 1.2-1.6.4 1.5.3 3.4 1.5 4.2-1.1.6-2.2-.5-2.6-1.7.6 3.5 2.6 6.5 4.5 8.6 1.2-.7 2.3-1.4 3.2-2.5-.1 2.3-1.9 5-2.7 7.4-3.8-8.8-7.3-17.9-10.8-27.1 1.4-.2 3.2.4 3.9 0m18.5 17.7c-1.7.4-2.6-.7-2.7-1.7-.6-4.6 4.8-1.5 4.3.6.2-.5.3-1.2.1-2 3.3 1.5 6.4 3.1 9.6 4.7-3.3.5-8.8-.7-12.6-.5-1 1.2-1.2 3.2-1.7 4.9-.2.8-1.4.6-1.7 1.2.3 1.6 0 2-.2 3.4-1-.2-1.9-.7-2.7 0 .6-3.9 3.3-7.8 4.4-12.1.6 1.6 3 2.1 4.2 1.1a3 3 0 0 1-1 .4m15.5 6.9c1.1-1.3-.2-2.2-1-3 .9-.5 1.3.1 2 .5-.1 1.2.3 2.7-1 2.5m4.2 4h-1.7c-.6-.6-.7-1.9.2-2.2 1.1 0-.1.7.2 1.5 1.4.2 1.5-.8 2-1.5-1.8-3.5-6.4 1-8.9.5.4-.4.9-.7 1.4-1-.9-.5-.9.3-1.7.5-.1.9.5 1.2.5 2-.7-.3-1.1-1-1-2.2.3-.3.9-.2 1.2-.5-2.1-.9-1.7 3.2 0 3.2 1.2.2.9-1 2-1-.6 3.4-5.1 1-3.9-2.5.7-.2 2.8-.7 2.9.4 3.7-1.9 10.1-2.4 6.8 2.8m-2.7-4.5v-1.7c.9.4 1.5 1.1 2.5 1.5 0 .3-.2.1-.2 0-1.1-.2-1.5.2-2.3.2m8.1 21c3.2-.5 5.5 1.3 6.7 3.7-2.8-.4-4 2.1-5.5 3.8.3-.2.6-.3.8-.6 2.4.9 1.7 5.4-.2 6.8 2.6-1.4 5.6-2.3 6.1-5.8 1.3 2.8.6 7.6-.2 10.3-.2-1.8.7-3.8-.5-5.4-2 .9-4.5 2-6.9 1.7.3-.2.6-.4 1-.6-.2.1-.3.1-.5.1 1.3-1.7 1-4.3.3-6.3-.4.5-.9.9-1.4 1.2h1.1c1.5 1.7.5 5.8-2 5.9 1.7-1.3.4-4 .7-5.8-.2.1-.3.1-.5.2-.3 1 .5 1.7 0 2.2-1.3.1-2-.4-3-.7-1.8 1.9-.5 5.1.2 7.1-1.3-.2-1.4.7-2 1.2 0 .8.1 1.4.5 1.7-1.1.1-3.3-.9-4.2-2 2.6 0 2.7-3.7.7-4.4 1.4-1.1 1.6-3.9-.5-4.4.6-.6 1.4-1.1 1.5-2.2 1 1.3 1.9 2.7 4.4 2.5.1-.2.3-.5.5-.9-.3.2-.9 0-.7.6-.2-.2-.7-.4-.7 0-.3 0-.2-.5-.2-.7-.2.1-.4.2-.5.5-.5-.4-.1-.9-1-.5.1-1-.1-.6-.7-.5.3-1.1.1-.3-.5-.7.3-.5-1.1-1.9-.6-2.8-.3.2-.5.4-.7.6-.5-.1-.7-.6-1.5-.5 2.8-1.9 5.7-3.9 9.4-4.9.1 1.2 1 1.6 2 2-.2-1.2-1.9-.7-1.4-2.4m5.9 6.9c-.2-1.2-1.7-1.1-1.5-2.7 4.3-2 3.6 6.3 1 7.4-.2-1 .9-2.8.5-4.7m-3 5.6c1.4-2 .5-5-.2-6.9 3.9-1.8 3.7 6.8.2 6.9m-5.1 5.7c1.5-.3 1.8-1.8 3.2-2.2 4.2 4.9-7.5 9.1-5.9 2.2.6-.2 2.1-.5 2.7 0m-1.3-1.7c.9 0 1.1.7 1.7 1-.2.5-1.5.2-1.7 0 .1-.7-.4-.5 0-1m10.6 1.9c-.7 3.6-5.4 5.9-9.4 3.9 3.6-.7 5.2-4.6 9.4-3.9m-5.4 1.5c.6-1.6.2-3.9-1-4.4-.8.4-1.2 1.2-1.7 2-1.1-.3-1.3-1.5-3-1.2-.4-1-.6-2.2-.5-3.7.8.3 2.2.9 1.5 2 .8.2.5-.7 1.2-.5.5.5-.1.5-.2 1 .5.1 1.5-.3 1.2.5.5-.8 2.1-1.1 2.2.2-.1-.9 1.9-2 2-.5.3-.1.2-.6.2-1 .9-.1 1.6-.5 1.7.5.5-.1.1-1.1.5-1.2.7.2.6-.4 1.2-.2.4 1.4.3 3.3 0 4.7-3-.8-3.4 1.2-5.3 1.8m-5.9-8.6c1.1-.6 2.1.6 3.7.2.1 1.1-.2 1.8-.5 2.5-1.4-.6-3-.9-3.2-2.7m-3.4 4.2c.5 2.7-1.9 3.7-3.2 3-2.8-1.6.7-6.1 3.2-3m-3.5-1.5c-3.4-2.8 2.3-6 3.2-2.7.4 1.6-.6 3.2-3.2 2.7m.3-4.4c-1.1-.3-1.6-2-1-3.7 4.5-2.8 5 5 1 3.7m-.3 0c-1.5.8-1.8 4.3.2 4.7-1.5.6-1.5 3-.5 4.2-1.7-.1-1.8-2.8-2-4.4-.3-2.9.1-6.4.5-8.6.4 0 .5.3 1 .2-1.1.9-.7 3.6.8 3.9m-1.7 9.1c-2.2-2.9-1.7-9.4-1-13.5.4-.1.4.2.7.2-1.2 4.1-.5 9.2.3 13.3m7.1 26.1c.2-.7.5.2 1 0-.2.4-.4.8-1 .7 0-.4.4-.6 0-.7m-.7-1.2c-.8-1.3-.3-3.4 3-3 3 1.5-1.4 5.9-3 3m.5 1.9c.1.6-.7.3-.7.7-.2-.1-.4-.7-.5-.2-.4-1 .5-3.9.2-.5.7.1.2-1 1-.7.3.6-1.2.6 0 .7m-2.7.3c-.2.2-.4.5-.5.7-.5-.5.7-1.5.2-2.7.5-.5 0 2.1.5 2.5 1.3-1.5-.2-3.7-.2-5.4 1.2 1.2 1.9 4.8.2 5.9-.4-.3.1-.4-.2-1m-4 2.2c.2-.3.5-.5 1-.5 0 .2-.3.2-.5.2.2.2.3.4 0 .5.6-.1 1.8-.2 2.5-1-.9.5-1.2.4-2.2 0 .2-.5 1.2-.3 1.2-1 0-.5-.9-.1-1.2-.2-.7.4 1.2-1.1 1.7-.2.1 1-.6 1.1-1.2 1.2.2.2.4.4.7.5.2-.2.1-.8 1.2-.7 0 1.8-1.9 1.6-3 2.2.1-.4.6-1-.2-1m-1.7 0c0-.8 1.3-.7 1.5-.5-.3.3-.9.5-1.5.5m1.5 0c0 .8-.7.7-1.5.7 0-.7.9-.6 1.5-.7m-1-1.5c-.6.2-.7.9-1.2 1.2-.6.1-1 .3-1.5.5-2 1.6-1.5 1 0-.5.4 0 .5-.3 1-.2 1.5-1.3 3.4-2.2 5.2-3.2-.8 1.1-2.2 1.7-3.5 2.2m-.7 1.5v1.7c-.7-.1-.5-1.2-.7-1.7h.7Zm-2.7 2.5h.7c-.2.6-.3 1.1-1 1.2-.1-.4.2-.5.5-.5-.1-.2-.3-.4-.2-.7m-.5-.5c.6-.8 1-1.6 2.2-1.7-.2.8.3.9.2 1.5-.4.4-1.6.1-2.4.2m-8.9 1.7c-1.1-2.1-2.6-5.1-3-7.1 2.4-.4 3.9-.2 5.4-1.2 1.1 2.3-2.7 1.9-3 3.7-.2 2 3.2 3 3.2-.2 1 .3 1-.5 1.7-.5v1c.8 0 .7-1 1.7-.7-.3-.8-1.2.3-1.5-.2 0-.7.9-.6 1.5-.7-.2.8.4.7.2 1.5-.6 0-.7.4-1.5.2.1 2.5 1.9 3.4 2.7 5.2-1.2.3-2 1.1-3.4 1.2 2.6-3.3-3.4-5.7-4-2.2m3.9 2c-4.9 3-4-6.3.2-2.5.1.9.1 1.8-.2 2.5m-4.9-14.3c.3.5.3 1.2.5 1.7-1.1-.5-2.9.3-3.7 1-.5-.1-.2-.9-.7-1 1.6.1 2.9-.6 3.9-1.7m-2.7-2.7c3-.2 3 5.3-1.2 3.7-1.3-1.6-.4-3.6 1.2-3.7m2.2.2h1.5c.2.7.9 1.9.5 2.5h-1.2c-.3-.8-.7-1.5-.8-2.5m-2.4 5.2c.3.1.5.3.5.7.3-.1.2-.6.2-1 .4.1.6.4.5 1 .7-.2-.1-.8 0-1.2.5.7 1.1.6 1.7.7 0 1.3-1.7.9-2.7 1.2-.2-.5-.7-1-.2-1.4m3.2 1.2c.6-1.6-1-1.1-1.2-2 .8-.3 1.1-.1 1.7.2.5 2.5-1 3-3.2 2.7.3-.8 1.9-.4 2.7-.9m16.9.5c-1.3 1-3.1 1.5-4.2 2.7.2-1.2 2.7-2.1 4.2-2.7m-.4-2.7c.5.5.5 1.6 1 2.2-.5.4-1.1-1.3-1-2.2m-6.2-.2c1.5.7 1.3 2.9 2.7 3.7 0 .6-1 .4-1 1 .2-1.8-1.7-2.5-1.7-4.7m-7.6 4.9c-.1-.8.7-.6.7-1.2.5.1-.4.8-.5 1 .1.3.4.4.5.7 1.1.2.7-1 1.5-1 0 .7-.6.9-1 1.2-.8.1-.7-.6-1.2-.7m-1.5 2.7c-1.6-1.3.7-3.6 2-2 .1 1.5-.5 2.2-2 2m.5-4.9c-.6.8-.9-.7-.7-1.5.6 0 .7-.4 1.5-.2-.2.4-.6.5-1.2.5 0 .4-.4 1.4.4 1.2m-.3-.3c-.1-1 2.2-1.8 2.5-.7-1.5-.4-1.3.8-2.5.7m2.7.7c.7.4-.1 1.5-.2 2-1.1-.3.1-1.3.2-2m-.2 0c-.7-.6.9-1.1 1.5-1.2-.1.9-1.3.5-1.5 1.2m1.7-7.3c0 1.2-1.2 1.5-2 1.2.4-.8 1.1-1.1 2-1.2m-2 .2c.3-.8 1.4-.9 2.2-1.2 0 .9-1.9 1.3-2.2 1.2m2.8 1c-.3 1-1.7.5-1.7 1.2-.3-.1-.4-.4-.7-.5.6-.2 1.6-1.2 2.4-.7m2.4-1.2c0-.6-.4-.8-.7-1-.6 0-.8.4-1 .7.1.2.2.4.5.5.9-.1-.9-.7 0-.7.7-.5 1.2.5.7 1.2-.6 0-1.2 0-1.5-.2-.2-1.2.3-1.6 1-2 2 .1 1.5 2.3.5 3.2-2.4.6-2.8-2.5-1.5-3.4.7.4-.5.9-.5 1.5.1 1.6 2.4 1.8 2.5.2m7.2 4.9c-1.9-.7-1.7-3.4-3-4.7 1.8.7 2.3 2.8 3 4.7m-1.8-4.2c.2-1 1.4-1.1 2.2-1.5-.5.6-1.4 1.8-2.2 1.5m-8.6 3.5c-.2-1.1 1.4-.4 1.7-1 .9.7-1.3 1.4-1.7 1m0 .4c.6-.1.9-.4 1.7-.2.2.6-1.8 1.2-1.7.2m-1.2-1.4c-.1-.7.8-.5 1.2-.7-.1.4-.4.9-1.2.7m1.5 0c.2-1.4 2.4-.9 3.4-1.5 0-.6 0-1.2.2-1.5.5-.1.7.2 1 .2.1 1-.3 0-1 .2.4 1.2-.2.6-.2 1.7-1.3.2-2.2.7-3.4.9m2.2.2c.6.2.8 1.4.5 1.7-1.5.3-.9-1.2-.5-1.7m.7-.5h.7c.1.8.4 1.4.2 2.5-.6-.1-.5.5-1.2.2.9-.6.4-1.6.3-2.7m1-.7c.2-.6.8-.7 1-1.2 1 .2-.1 1.3-1 1.2m2.2-.5c2.3-.2 1 3.4-.7 2 .9-.2 1.3-1.1.7-2m-.2 1.5c-.3-.3-.9-.2-1.2-.5.2-1.4 2-.8 1.2.5m.2 1.2c1-.1 1.6-.7 1.7-1.7 1.2.8-2.8 3.5-3.2.7.6.3.9.8 1.5 1m.8 2.2c-.7-.2-.7-1.1-1.2-1.5.6-.7 1.6 1.1 1.2 1.5m0-1.7c1.1.3 1.4 1.4 1.7 2.5-1-.5-1.4-1.4-1.7-2.5m.7-.5c.6.7 2 1.6 1.7 2.5-1-.4-1.3-1.5-1.7-2.5m.5-.7c.9 0 .8 1 1 1.7-.5-.4-1-.8-1-1.7m-.3-1.5c-.6-.5-1.3-1.2-2.2-.7.5-1.1 2.2-.2 2.2.7m-3.2-2.2c1 .2 1.3-.9 2-.2-.1.8-1.9 1.4-2 .2m-.9-.3c-.3-1.3 1.7-.3 1.7-1.2.3.1.5.3.5.7-.7.3-1.3.5-2.2.5m-.5-1.5c1 .2 1.2-.5 2-.5.2 1.1-2.2 1.7-2 .5m-1 0c.3-.9 1.6-.9 2.5-1.2-.2 1.1-1.4 1.1-2.5 1.2m-4 6.7c0 .6.8.1.7-.2.6.2-.2 1.1-.7 1 0-.7-.4-.5 0-1 .3 0 .2.2 0 .2m1 3.2c.5-.1.7.2 1 .2-.1.4-.4.6-1 .5v-.7Zm.8-.8c.8-.2.8.4 1.2.5 0-1.1-1.2-1.1-1.5-2 .6-.9 2-.8 2.7-.2-.3.4-1.3.2-1.7.5.3.7 1.6.6 1.2 2-.6.5-2.1.3-1.9-.8m2.2 3c-.7 0-.6-.9-.7-1.5.4.4 1.1 1 .7 1.5m-2.2.5c.8.2.7-.4 1.5-.2.3 1.1-1.7 1.4-1.5.2m1.9.7c0 .8-.7.9-1.5 1-.1-1 .7-1 1.5-1m-1 1.3c.5-.2.9-.4 1.5-.5-.2.7-.4 1.4-1.2 1.5 0-.5-.3-.6-.3-1m1-4.5c.9 1.3 2.2.3 3.2-.2-.1-.8-.7-1.1-1-1.7-.6.2-1 .7-1.7.7.2-.7 1-.8 1.5-1.2 1 .4 1.6 1.1 1.7 2.5-1.1.3-1.9.9-2.7 1.5-.4-.4-1.1-.6-1-1.6m1-1c.7-.3.8-.1 1.5.2-.2.5-1.7-.6-1.2 1-.6.1-.1-.8-.3-1.2m1.5 1.8c.6.6-.9 1.2-1.5 1.5-.1-1.1 1.3-.7 1.5-1.5m.5 1.2c.4 0 .9.1 1-.2.8.4-.6.7-1 .7-2.2 1.8-2 1.6 0-.5m4.4-4.2v-1c.9-.3 1.2 1.4 0 1m-.2-4.9c0-1.4 2.1-.5 1.7-2.2-1.2-.1-1.6.7-2.5 1-.3-.5 2.7-2.7 3-.5-.3 1-1.4 1.3-2.2 1.7m-1.7-1.5c-1.1-.9-2-2.1-2.7-3.4-2.5 1.2-5.1 2.3-7.6 3.4.6 1.2.9 2.9 1.2 4.4-1 .3-2.6 1.1-3.7.5.2-1.1 2-.6 2.7-1.2 0-1.7-.8-2.6-1-4.2 2.7-1.2 5.5-2.4 8.1-3.7 1.6.5 1.8 2.3 3 3.2 1-.2 1.5-1 2.2-1.5.7 1.4-1.9 1.5-2.2 2.5m-5.5 15c-.6-.7.2-1.7 1-1.7.3.5-.1 1.7-1 1.7m1.3-1.2c1.2-.2.5 1.9-.5 1.7-.3-1 .7-.7.5-1.7m8.3-4.2c.7-1.9-.2-3.6-.5-5.2.3.2.5.5.5 1 .3-.3 0-2.2-1-2 .5-.8 1.6.4 1.7-1.5-.1-.3-.6-.2-1-.2.5-1.2 1.8.1 1.5 1.2-.8-.2-.5.7-1.2.5.3 1.8 1.4 4.7 0 6.2m1.5-6.1c-.4.2-.4.8-.5 1.2-.6-.2-.1-1.4.2-1.5 1.4.2 1 2.3 1.5 3.4-.5.2-.5-2.5-1.2-3.1m0-2.2c1.6-1.5 3.6 1.1 1.7 2.2-1.4.1-1.8-.8-1.7-2.2m1.5 4.4c-.4-.4-.3-1.3-.5-2 1.2 0 1.6-.7 2-1.5-.1-1-.7-1.4-1.5-1.7-1.8.9-2.4.1-4.2 1 1.1-1.5 2.7-2.4 3.4-4.2 1.7 1.8 2.6 4.4 4.2 6.4-1.2-.1-3.2.3-3.4 2m-2.5-6.4c-.9-.4-1.7-.7-1.7-2 .8.1.5 1.3 1.2 1.5 1.2-.1 1.2-1.5 1.7-2.2 1.1.6-.8 1.9-1.2 2.7m-.2-.8c-.6-.3-.6-1.3-1-1.7 1.2.4.8.2.5-.7.4 0 .5.3 1 .2-.2-.2-.4-.4-.7-.5.2-.9 1.2-.2 1.7 0-.4 1-1 1.9-1.5 2.7m-1.7-1.2c-.6-.6-1.3-1.2-1.5-2.2 1.7.1 2.3-.8 2.7-2 1.8 1.4-.8 2.9-1.2 4.2m-3-5.7c1-1.2 3.1-1.1 3.7 0 1.7 3-4.5 5.3-3.7 0m1.5 4.2c-.2.5-.7.7-1.2.7-.1-.9-1.5-1.4-.7-2.5.9.3 1.3 1.2 1.9 1.8m-9.4-.7c.2.2 1.2 0 1 1.2-.7-.2-.6.3-1.2.2-.2-.7-.5-1.2-.7-1.7-.4.6-1.1 1.1-2 1.2 3.6-4.7 7-9.6 7.6-17.2 1.5.8.1 3.1 1.5 4.2 1 .2 1.3-.4 2.2-.2-1.4 2.5.5 5.2 1.7 6.7-2.8 2.3-7.1 3.3-10.1 5.6m4-.3c-.6.1-.3-.7-.7-.7.1-.7.9-.6 1.2-1 .7.5-.1 1.6-.5 1.7m-6.7 2.5c0 1-1.2 1.1-2 .7.1-.9.8-1.2 1.7-1.2 0 .3.1.5.3.5m-.7-59.8h.7c0 .6.4.7.2 1.5-.8-.2-.5.7-1.2.5-.2-.2-.3-.6-.2-1 .4 0 .6.2.7.5.4-.1.1-.7.5-.7.1-.7-1.1.1-.7-.8m7.9 1.9c-.1.2-.3.4-.2.7-1 .1-1.3-.6-2.5-.5 0-.3-.1-.4-.2-.5 0-.5.6-.5 1.2-.5v1c.2-.6 1-.4 1.7-.2m1.2-.4c.8-.5.9.6 1 1.2-.7-1.2-3.1-.6-3.7-2 .9.6 2.3.6 3.2 1.2.6 0-.1-.6-.5-.4m2.5 14c-.6-.1-1.3-.2-1.2-1-.2.2-.6.3-1 .2.4.5.6.7.2 1.5-.6 0-.8-.4-1.2-.5.4-1.2.7-1 .7-2.2.6.1 1.3.2 1.2 1 .5-.5.9-.1 1.5 0 0 .4-.3.5-.2 1m-1.8 4.2c-1.6-.2-1.1-3.2.7-2.7 0 .8-.6 1.1-1.5 1 .5.3 1 .7.8 1.7m-8.3-2.5c-1.4-.1-1.9-1.1-1.7-3.2 3.3-3.7 5.6 3.5 1.7 3.2m1.2-5.9c.9-.2 1.1.4 1 1.2h-1.2c-.1-.5 0-.9.2-1.2m1.2 2.7c1 .2 1.7.6 2.5 1-.3 1.5-1.1 2.5-1.5 3.9-1.2-.2-2-.8-3-1.2 1.1-.9 2.5-1.3 2-3.7m-1.7-8.9c-.4 0-.5-.3-1-.2.3-.4.9-.6.7-1.5.4 0 .5.3 1 .2-.2-.9-2.1-.4-2.7-.2.6-1.5 2.9-.5 3.4.2-.5.5-1.9.1-1.4 1.5m-1.7-.9c.2-.5.7-1 1.2-.5.2.8-.9.9-1.2.5m1.9.2c.3-.3 1.2-.3 1.5 0 .1.8-.3 1.2-1 1.2-.1-.4-.7-.4-.5-1.2m2.3.5c0 .9-.2 1.4-1.2 1.2 0-.7.6-.9 1.2-1.2m2.4 2.2v-1c.5-.1.7.2 1 .2v.4c.2-.4.4-.7.2-1.1.7 0 .5 1 .5 1.7-2.3-.1-.4 2.4-2.2 2.7-.6-1.3.6-2.2 1.3-3.1-.2.2-.4.2-.8.2m.8-3.9v-.7c.5-.5 1.4.1 1.7.5-.2.5-1.3.6-1.7.2m.7 11.1c-.6 0-.8-.4-1.2-.5.1-.2.3-.4.2-.7.7-.2.6.3 1.2.2.1.4-.3.5-.2 1m0-5c-.2.8-1.1.7-.5 1.7-1.1 0-.3-1.9.5-1.7m-1-.7c.2-.2.1-.7.5-.7.7-.1.6.5.7 1-.5 0-.9-.1-1.2-.3m.3 3.9c.1-.5.4-.9 1.2-.7.3.3.3.9 0 1.2-.6.1-.8-.4-1.2-.5m-1.3-4.4c-.6.5-2-.3-2.7-.5.5-.4 2.1.2 2.7.5m-2.7-1.7c.9.5 2 .6 3 1-.6.2-3.1.2-3-1m3 .5c-.5.1-.7-.2-1-.2.2-.4.4-.8 1-.7v.9Zm-1-.8c-.5.5-.8 0-1.2-.2 0-.7 1.4-.7 1.2.2m.2 3c-.7-.4-1.9-.3-2.5-.7.2-.8 2.3-.1 2.5.7m0 .5c-.8.6-2.1-.4-3-.5.5-.9 2.2.2 3 .5m1 .7c0 .4.3.5.2 1-.3.3-1.2.3-1.5 0 .1-.7.4-1.2 1.3-1m0 3v-1c.9.2 0 1.5-.7 1.5-.1-.6.3-.5.7-.5m1.3 1.2c0 .4-.3.5-.2 1-.6 0-1-.1-1.2-.5-.2-1.1.8-.7 1.4-.5m-1 1.2c0 .5-.8.2-.7.7.8 0 .7-.8 1.7-.5 0 .8-.7.9-1.5 1-.1-.2-.2-.4-.5-.5 0-.6.4-1.2 1-.7m1.4 3.2c-1.9.9-1.2-3.7.7-2.2-.4.4-.8.9-1.7.7.6.3.6 1.1 1 1.5m-.9.3c-.2.6-.8.8-1.7.7 0-1 .9-1 1.7-.7m-1.3-2.2c.7 0 1.2 1.4.7 1.7-.7-.1-.6-1-.7-1.7m-.2 1.2c-1.1 0-.4-.4-.5-1.2.8-.3.4.7.5 1.2m.2.5c-.2.5-.7.8-1.5.7 0-.7.8-.7 1.5-.7m-1 1.2c.8.5-.5 2.6-1.2 3.2.1-1.4.8-2.2 1.2-3.2m.5.5h.7c-.3 1.2-1 2.1-1.5 3.2-.9-.6.8-2 .8-3.2m1.5.3c-.3 1.3-.5 2.7-1.7 3.2.4-1.3.5-2.8 1.7-3.2m.8.5c-.3 1.3-.5 2.8-1.7 3.2.3-1.3.5-2.7 1.7-3.2m-1-.8c0-.8 1-1.2 1.5-.7-.3.5-.7.8-1.5.7m2.4-.2c-.2.5-.6.9-1.5.7.2-.7 1-1.2 1.5-.7m0-3.7c-.2-1.1 1.1-1.2 1.5-.5.1 1-.9.6-1.5.5m1-4c0 .4-.3.5-.2 1-.7.2-.6-.3-1.2-.2 0-.5.2-.8.5-1 .4 0 .4.3.9.2m-1-.5c.1-.2.3-.4.2-.7.6 0 1 .4 1 1-.6.2-.6-.4-1.2-.3m1 1.8c.1-1.1.8-1 1.5-.5-.2.2-.3.6-.2 1-.7 0-.8-.4-1.3-.5m.5-1.3c0-.7 1.5-.7 1.2.2-.5.2-.9 0-1.2-.2m1-.7c-.9 0-1.2-.6-2-.7-.2-.7.5-.5.5-1 .9.2 1.7.5 1.5 1.7m-2-6.9c.5 0 .5.6.5 1.2-.5-.1-1-.7-.5-1.2m.5.2c0-.3.1-.4.2-.5.5-.5 1.6-.2 2 .2.3 1.2-2.1 1-2.2.3m.3-.7c-.4-.4-.1-.8-.2-1.7h1c.2 1.1-.9.8-.8 1.7m.2-2c-.9.2-.5-.9-1.2-1 .2-.4 1.3.3 1.2 1m-2.2 6.2c.2-.6-.3-1.8.2-2 1.2-.2 1.1 2.5-.2 2m-6.9-8.1c1.1.4 1.7-.1 3.2 0-.6.8-2.8.9-3.2 0m1.2 1.4c-.6-.2-1.1-.4-2-.2v-1.7c.2 0 .2.1.2.2h.5c-1 1.3 1.2.9 1.3 1.7m.5 1c1.9-.7 4.3.1 4.7 1.7-1-1.1-2.3-2.2-4.4-1.5.4 1.3 1.8 2.3 3.7 2.2 1.2-.1 0 .4-1 .2-.8 0-2.8-.6-3-2.6-1.2-.4-2.6-.7-3.9-.2.5-1.2 3.5-.9 3.9.2m3.5 1.3c.9 0 .9 1.3-.2 1-.1-.5.2-.6.2-1m-1.3.7c0-.2-.3-.2-.5-.2v-1c.3-.3 1.2-.3 1.5 0 .1.8-.3 1.2-1 1.2m-5.9-.5c-.4-.1-.6-.4-1-.5.2-.2.3-.6.2-1 .7.2.6 1 .8 1.5m1 4.2c5.1-.7-.7-4.1-3-4.2 2.9-1 8.5 4.8 3 4.2m-1.7-1.2c-.6-.4-.1-1.7.2-2 1-.2.7.7 1.7.5-.1.9-.7 1.4-.2 2.2-.8.1-1-.4-1.5-.5 0-.9.7-1.1 1-1.7-.8 0-1.1.7-1.2 1.5m2.2-1c1-.1 1.3.5 1.2 1.5-.2.3-.9 0-1 .5-.7-.1-.5-1.7-.2-2m-3.4-2.7c0-.7 0-1.3.7-1.2.5.4.3 1.4-.7 1.2m1.2 1.4c-.3.5-.6 1-.5 2-1.1 0-1.5-1.6-1-2.5.8-.1 1 .4 1.5.5m.5 3c-.7.5-1.8-.8-2.7-1 .6-.4 1.7.9 2.7 1m-2 .2c.2.9-1.1.9-1.5.5.3-.4-.1-1.6.7-1.5-.5.6.5.7.8 1m-.5-1.9c-.6-.1-.9.1-1 .5-.8-.5.2-1.3.5-1.5.5.1.6.4.5 1m.3 2.7c-.2 1.5 2.1 2 2.7.7 0-.8-.6-.8-1.2-1 .2.3.5.5 1 .5.1 1-1.3 1.3-2 .7-.1-.6.1-1.1.7-1-.2-.7-.5.2-1 0 .5-.5 0-.6 0-1.2 1.3 1.3 4.7.6 5.7 2.3v-.4h1c.1.5-.2.7-.2 1-.3 0-.4 0-.6-.1 0 .1.1.2.1.4 1.1.2.8-1 1.7-1 .3.9 0 1.5-.5 2.5-.1 1.4 1.3 1.1 1.7 2-1.5-.4-2.8-1-4.2-1.5.1-.5 1.1-.1 1.2-.5 0-.7.1-1.5-.5-1.5-1.2 0-1.6.9-1.2 1.7-.7.2-.6-.3-1.2-.2.3-.8.1-1.1-.2-1.7-.8 0-1.6 0-1.5 1-.7.1-.8-.6-1.5-.5.2-1-.3-1.4-.7-1.7-.7.4 1 .4.5 1.5-1.5-.3-1.1-.9-1.5-2.2.4 0 1.2 1 1.7.2m1.7 2.2a.9.9 0 0 1 1.5.7c-.5.5-1.8.3-1.5-.7m1 1.5c-.7.8-1.9 2.3-.7 3.4-1.5-.2-4.2-1.3-5.4-2.7 1.3-.2 1.9-1.1 2-2.5 1.2.7 2.6 1.3 4.1 1.8m3.9 6.6c-.1 1.1-.8 1.7-1 2.7-2.1-1.8-3.4-4.4-5.9-5.9 2 .4 4.8 2.1 6.9 3.2m.7.3c-.2 1.3-.8 2.2-1.2 3.2-.5-1 .6-2.6 1.2-3.2m2.5 5c-.3-1 1.1-1.9 1-3.3 1.3.3-.1 2.6-.9 3.3 1.2.4 2.4.9 3.6 1.3-.4 1.4-.8 3.4 0 4.7-3.7-.9-2.4 2.5-3 3.7-1.3-3.8-2.1-8-4.4-10.8 1.2.3 2.4.6 3.7 1.1m2 7.8c-.1 1 1.6.2 1.5 1.2-2.6.7-2.9-1.6-1.7-2.7.9 0 1.9-.1 2 .7-.9.1-2-.2-1.8.8m-.5 2.7c-.2 1.3 1.7.4 1.7 1.5-1 0-2.1.1-2.5-.5-.7-2.5 1.9-2.7 2.7-1.5-.7.1-1.9-.3-1.9.5m1.7.5c-.6 0-1.2 0-1.5-.2.1-.9 1.6-.6 1.5.2m-2.4 1.7c.3-.5 2-.8 2.5-.2.2 1.1-1.9-.1-1.7 1-.2 1 .9.7 1.7.7-1 1.7-3.3.4-2.5-1.5m1.2.5c.4.1 1.3-.3 1.2.2.3.9-1.8.8-1.2-.2m-1 2.5c.4-.6 1.4-.5 2.5-.5.1 1-1.3.5-1.7 1 0 .4.3.5.2 1 .8.1 1.2-.6 1.7 0-.1.8-1.4.4-2.2.5-.2-.7-.6-1.1-.5-2m2.5.5c0 .7-1.4 1-1.2 0h1.2Zm-1.8 4.1c-.1-.6-.4-1.1-.2-2 .6-.3 1.8-.8 2.5-.2-.3.6-1.5.3-1.7 1-.1 1.5 1.6 0 2 .7-.4.9-1.9.8-2.6.5m2.3-1.4c.1.8-1.1.9-1.5.5 0-.7.8-.5 1.5-.5m-1.8-11.4c.4-.5.6.2 1.5 0 .3 1.1-1.4.7-1.5 0m-1.2-7.8c.2-.9.6-1.7 1-2.5 1.2.4 1.9 1.2 3.2 1.5-.1 1-.5 1.6-1 2.2-.9.3-2.1-.9-3.2-1.2m2-5.2c3.3-2.8 5.4 2.9 2.2 3.4-1.6.3-3-1.3-2.2-3.4m2.2-1c-1-.2-1.2.5-2 .5 0-.8.6-1.1.5-2 3.8.3 4.8-2.2 5.2-5.4 1.6-.1 1.3-2 3.4-1.5-1.5 3.4-3.2 6.5-4.9 9.6 0 .6-.2.3-.5.2-.2-.8-1-1-1.7-1.4m6.9-10.8c-2.6-.9-5.3 1.6-7.1 1.5 1.9-1.3 5.6-3.3 7.9-2 0 1-.1 1.8-1.2 1.7-.3-.8.6-.5.4-1.2m-3 2.2c.3.2.5.7 1 .7-.1.4-.4.6-1 .5.2-.7.2-.5 0-1.2m-.2-1.3c-.2-.9 1.2-.3 1.2-1 .3 0 .2.4.2.7-.2.4-.8.4-1.4.3m1 .5c.5 0 .5.6.5 1.2-.5-.1-1.1-.7-.5-1.2m-3 3.5c.4.3 1.6-.1 1.5.7-.4-.3-1.6.1-1.5-.7m0 2.2c-.3-.4 0-1.6 1-1.5.1.9-.2 1.5-1 1.5m1.5-2.2c-.9.5-1.1-.8-1.2-.2-.6-.4.9-1.6 1.5-.7-.3.1-.3.5-.3.9m-1.7-1c-.5-.5 0-1.2.7-1.2.5.5 0 1.2-.7 1.2m-.3 4.2c.1-1-.7-1.1-1.2-1.5-.5-.5.8.2 1.2-.2 0 .7 1.6 1.5 0 1.7m-.5-10.6c.8 0 .5 1.3-.2 1.2-.1-.5 0-.9.2-1.2m-1.5-.7c.2-1.5 1.3-2.1 3.2-2-1.1.6-1.6 1.8-3.2 2m-.9-3.2c.8-.4 2.4-.4 2.7.5-.7 1.7-2.4 1-2.7-.5m-15.1 10.8c-.6 2.7-4.9 1.1-4.2-1.2.7-2.1 4.9-1.8 4.2 1.2m-2.2 2.9c.2 0 .2-.3.2-.5 7.9 5.2 14.6 13.9 13.5 27.1-.7 9.2-6 15-10.6 19.9.3.5 1.5.2 1.7.7.8-.6-1.4-.2-1-1.2 1.3-.2 2.2 1 3.7-.2-.1-.7-1-1.2-.5-1.7.8 0 .8.6 1 1.2.8-.4-.8-1.2 0-1.7 1-.1.6 1 1.2 1.2.8-.1 1.1-.5 1.7-.7 0-.8-.9-1.1-.2-1.7.9-.2.6.9 1 1.2.8-.4-1-1.5.2-1.7.8 0 .5 1.1 1 1.5.6-.2 1-.7 1.7-.7.1-.9-.3-2.2.5-2.5 1.2 0-.1 1 .2 1.7.7-.7.1-2.7 1.7-2.5-.1 1.2-.6 2.2-1 3.2.3 1 1.2 1.5 1.5 2.5.7-.2 1.2-1.2 2-.5.5.9-1.3 1.2-1.7 2-1.1-.9-1.7-2.4-2.7-3.4-3 1.2-5.8 2.8-8.9 3.9 0 1.7.7 2.7 1 4.2-.9.1-2 1-2.7.5 0-.8 1-.7 1.7-.7-.1-1.2-.5-1.9-.7-3-.8-.3-2.4.1-2.5-1-.7.2.3.6 0 1.2-1.4-.4-.6-.8-.2-1.7-19.4 14-45.2 1.1-46.8-20.9-1.4-19.3 17.8-35.7 37.9-29.1 2.4.7 4.9 1.7 6.1 3.4m3.7 73.4c-1.3.1-2.3-2-.5-2.7 2.1-.8 2.2 2.6.5 2.7m1.7 1.3c.3 3.7-4.9 1.2-2.2-.7 1.2-.3 1.7.2 2.2.7m-3.9-4.2c.1 1.2-.7 1.4-1 2.2-.3-.4 0-2.2 1-2.2-.3-.2-.5-.5-.7-1.1 1.2-.2 1.8-1 2.2-2 .8.5.9 1.8 1.2 2.7-1.3.3-2.1.8-2.7.4m-.5 4.9c0-.7.2-1.7-.5-1.7-.6.2.8.7 0 1.2-2.4-.7.1-3.1 1.2-1.2 0 .8.1 1.7-.7 1.7m-2.5 1c-.3-.2-.5-.5-.5-1 .3-.2.9-.2 1-.7.8.4-.7.9-.5 1.7m-18.4-2.2c.4-.3.5-.9.7-1.5-1 .6-2.5.9-3.6 1 1 1.3-.9 1.7-.5 3.2.7.1-.2-1.4.7-1 .5.4-.1.7-.2 1.2-.8.1-1-.3-1.2-.7-.1-1.1 1.5-1.3.7-2.2-.4.1.1.3 0 .7-.8.1-1.1-.2-1-1 .3-.3.9-.3 1.5-.2 0-1.7 3.2 0 3-2 .6-.1.8.3.7.8.2-.8.5-1.5 1.5-1.6 0 .4.2.6.5.7-1.1.8-1.4 2.3-2.8 2.6m.2 1.9c-.9-.1-1.2-.8-1.2-1.7-.5.1-.2 1-1 .7-.6-1 .1-1.8 1.5-1.5.1 1 .8 1.4.7 2.5m-10.6-4.9c-.3.6.1 1.9-.7 2 .1-.8-.3-2.2.7-2m-1.9-1.5c-.1-.4.2-.4.2-.7.5.4 1.1.7 1.2 1.5-.7 0-1.2-.3-1.4-.8m1.2 1.5c-.8 0-1.6 0-1.5-1 .6.3 1.4.3 1.5 1m-.2 1c-1 .1-1.7-.1-1.7-1 .7.2 1.7.1 1.7 1m-.3.5c.3.8-.8.4-1.2.5 0-.4-.3-.5-.2-1 .4.2 1.2.1 1.4.5m-1 1.7c.9.3 1.8.4 2 1.5-.2.1-.4.2-.5.5-.6-.2-1-.7-1.7-.7-.2-.8.3-.7.2-1.3m.5-.2c.5-1.5 2.7-.1 2 1-.9-.2-1.4-.7-2-1m1.7-.5c-.2-1 .4-1.3.2-2.2 1.1 0 .5 2.2-.2 2.2m1-2.2c.9 0 .7 2.7-.2 2.5 0-.9.4-1.5.2-2.5m0 2.7c.3.1.2.6.2 1 .7-.2.5-1.5.7-2.2.9.5 1.3-.6 1.5-1.5-.4.2-.5.9-.7 1.2.7-1.8-2.5-1.1-3-2.5.6-.6 2 .5 2.5 0-1.1-.6-2.4-.9-3.2-1.7-.2-1.9.7-2.6 1-3.9.8-.1 1 .4 1.5.5-2.2 3.3 2.9 4.3 2.7.7.8-.1 1 .3 1.5.5-.5 1.7-.2 4-2.5 3.9 1.1 1.1 2.6.2 3.7 1.2-.8.7-2.2-.1-3.2 0 .3 1 .8 1-.2 1.2.1 1 1.9.4 2.5 1 0 .7-1.5-.1-1.7.4.1-.5-1-.2-1.5-.6-.7.5-.2 2.1-1.2 2.2-1.2 0-1.1-.8-.6-1.4m.8-8.9c.7 0 1.4-.1 1.7.2.1 1.1-.2 1.7-.7 2.2h-1c-.6-.6-.1-1.6 0-2.4m7.8 4.4c1-.4.7-1.9 1.2-2.7h1.2a5 5 0 0 1-.7 4.2c-2 .6-4.8.2-5.7-1-.2-1.7.3-2.6.5-3.9.8-.2.7.4 1.5.2v2.5c.3.6 1.1.8 2 .7m-1.4-2.9c.7 0 1.6-.1 2 .2-.1 1.1-.1 2.2-1 2.5-1.6-.2-1.1-1.4-1-2.7m-1 4.9c.8.1 2.1-.3 2 .7-1-.2-1.2.5-2 .5.1-.7.1-.4 0-1.2m-3 4.2c-.8 0-1.1-.6-1-1.5.4.3.3 1.2 1 1.2.5-.1.5-.7.7-1 .7.4 0 1.4-.7 1.3m-1.5-1.5v-.5.5c.1 1.9 3 2.6 2.8 0 1 .4.6 1.1.5 2.2-1.6 0-2.5-.6-4.2-.5.3-.5.7-1 .9-1.7m10.1-7.4c.9.2.6 0 1.5.2.1.7 0 2.3.7 3 .8.1 1.4-.1 2-.2.5-.7 0-2.3.5-3h1.2c.4 1.3.4 2.7.2 3.9-.9 1.3-4.4 1.2-5.9.5-.2-1.2-.7-3-.2-4.4m2 .3c.4-.1 1.4.3 1.5-.2.9.2.3 1.8.5 2.7-.4 0-.5.3-1 .2-1.2-.1-1-1.5-1-2.7m8.4 4.6c-1.6 1.7-3.5 2-4.2-.7.7 0 2.8.6 4.2.7m.2-2.7c-.3 0-.4.1-.5.2-1.5.1-1.4-1.4-1.5-2.7.9.2.9-.4 1.7-.2.5.6.2 1.8.3 2.7m-1.7.5c2.5.6 2.3-1.5 2.2-3.4.8.2.7-.4 1.5-.2.1 1.4.7 2.2.7 3.7-1 1.5-3.1 1.8-5.7 1.7-1.1-.8-.9-2.9-1.2-4.4 1-.1.7-.1 1.7 0 .1 1.1.4 1.9.8 2.6m6.9.5c1-.1.2 1.1.2 1.5-.5 0-.1-1-.2-1.5m-1.7 4.9c-1.2-1-.9-3.1.2-3.4 2.5-.9 3.9 4.1-.2 3.4m-2.7-2.4c.9.3 1.7.6 1.7 1.7-.4 0-.5.3-1 .2.2-1-.7-1-.7-1.9m-.5-.3v-1c1 0 2.2 1 2 1.5-.9 0-1-.7-2-.5m1-.9c.3-1 1.5 0 1.5.7-.8 0-.9-.6-1.5-.7m2.7 0c-.7-.2-1.1-1.4-.7-2 .7.2.8 1 .7 2m-.8.2c-.4-.3-1.3-.7-.7-1.2.7-.1.7.6.7 1.2m-2.4 3.9c-.6.2-1.3.3-2.2.2-3-2.9 3.9-4.5 2.2-.2m-2.7.3c.7.4 1.8.7 2.7.2.1.5.5.6.5 1.2.4 0 .5-.3 1-.2.7-.2-.8-.6 0-1 .9-.4.1.8.7.7-.2.7-1.5.3-1.5 1.2-.8-.9-2.1-1.6-3.4-.7v-1.4Zm6.4 1.5c.1-1.7-1.9-1.2-2.7-2-.5.1.4.7-.2 1-1.2-3.7 6.2.1 2.7 3-1 .1-1.8 0-2.2-.5.5-.8 1.9-.7 2.4-1.5m1.2-5.5c.4-.6 0-1.9 1-2-.2.9-.1 1.9-1 2m1.2-1.9c1.3 0 .2 2.6-.7 2.7 0-1.1.8-1.5.7-2.7m1 2.9c-.3-.9.6-.7.5-1.5.7-.3.5 2-.5 1.5m1.5-4.9a5.9 5.9 0 0 1-5.4 1.7c-.9-.8-1.2-2.2-1.5-3.7.5-.2 1-.5 1.7-.5.3 1 .5 2 1.2 2.5 1.2.2 1.6-.3 2-1 .2-1.2-.4-1.6-.5-2.5 2-1.2 2.7 1.2 2.5 3.5m-4.7-2.7c.4-.2 1.2-.1 1.5-.5 1.1.8 1.4 3.1-.7 3-.3-.8-.7-1.5-.8-2.5m-27.6-1.2c1.4-4.4 3.3-8.3 4.9-12.6 6.4 2.5 15.1 1.6 20.9-.5 1.7 4.2 3.7 8.1 5.2 12.6-8 3.5-22.5 4-31 .5m-25.3-6.4c3.2-2.8 4.3 4.3 8.6 3.7-3.9.9-4.8-4.6-8.6-3.7m3.4 1.4c-.8.5-1.9-.9-2.7-1.2 1-.6 2 .8 2.7 1.2m3-40.8v-.7h.7c1 3.9 1.2 10.5 0 13.5-.4-3 1-9.3-.7-12.8m-1.8 8.8c1.1-1 2-3.9 0-4.7 1.3-1.1 1.2-3.4.7-4.4 1.2.2 1.4 2.4 1.5 3.9.2 3 .2 7.2-1 8.9-.8-.3 1.1-3.6-1.2-3.7m-7.1 3.2c1.2-1.6 1.3-5.1.2-6.9-1.3 0-1.6 1-3.2.7v-1.7c-.2-.1-.3-.2-.5-.3.1 2-.6 4.3 1 5.7-2.6.1-4.3-6-1.3-5.9-2.3-1.7-3.6-5.2-7-4.9 1-2.4 2.7-4.2 6.4-3.9.5 1.7-1.1 1.4-1.5 2.2 1.2-.3 2-1.1 2-2 3.7.8 6.2 2.8 9.4 4.2-.1.5-.9.2-1 .7-1.7-.7-3.7-2.5-5.4-2.2-3.2.6-.8 4.4-.2 6.9 2 .4 3.7-.9 4.4-2.5.8.4.8 1.5 1.7 1.7-1.3.6-2 4.1 0 4.4-1.7 1-2 4.6.7 4.7-.8 1.1-2.4 1.5-3.7 2.2.4-1.7-.3-2.8-2-3.1M59.69 69c1.1 3 3.9 4.5 6.8 5.7-2.1-1.3-3-7.7.3-6.2-.6 2.4-.6 4.5.5 6.4h-.2c.2.1.5.2.7.3-1.7.8-4.7-.6-6.7-1-1.2 1.3-.5 3.6 0 5.2-1.8-2.1-1.4-6.5-1.4-10.4m5.2 4.5c-2.5-.4-3.7-6.3-.7-7.1 0 .5.8.2 1 .5.6 1.1-.5 1.3-.7 2.2-.6 1.2.4 3.6.4 4.4m-2-1c-3.2-.4-4-9.2.5-7.1-1.2 2-2.1 4.8-.5 7.1m-1.7 1.9c.6-.1.5.4 1.2.2.2.3.3.7.2 1.2.3-.8 2.3-1.2 2 .5.3-.5.7-1 1.7-.7.2.2.3.6.2 1 .8.2.3-.8.7-1 1.1-.3 1.1.5 1.7.7.3-.2-.2-.7 1-.5.7-.2-.6-.4-.2-1 .4-.5.7.1 1.2.2-.1-.6.4-1.6 1.2-2 1.1.7.1 2.7 0 3.7-1.4-.2-1.7.8-2.5 1.2-1-.1-1.2-1.1-1.7-1.7-1.8.5-1.8 2.8-1.2 4.4-1.6-.3-2.7-2.6-4.9-1.5-1.2-.3-1-3.1-.6-4.7m8.1.3c-.4-.5-.6-1.2-.5-2.2 1.5.1 2.7-1.3 3.7-.2-.7 1.2-1.7 2-3.2 2.4m2.7 2.7c-.1.8-1.2 1.4-1.7 1 .2-.7.6-1.2 1.7-1m-1.2 5.7c-3.4 2.3-8.4.1-9.4-3 3.5-2.2 5.9 2.8 9.4 3m-4-3c-.1-1.3 0-2.4.5-3.2 1.7 1.5 3.3 1.9 6.2 2.2 1.5 4.7-6 4-6.7 1m12.6-14c1 1.1.8 3.1-.2 3.7-3.6 2-5.2-5.8.2-3.7m-1.5 4.2c1.5-.1 3.2 2.1 1.7 3.7-2.9 3-5.4-3.6-1.7-3.7m-2.9-1.8c-.6.8-1.3.1-1 1.2-.7-.1-.8-.5-.7.5-.4-.2-.9-.9-.7.2-.9-.2-.6-.1-1.7-.2v-1c2.5 0 3.8-1.3 3.9-3.7h.7c.3 1.7-1 2.1-.5 3m-4.5-.2c.3-.6 2.3-.2 2.7-1.2.3-.9 0-1.7.2-2.2.4.1.6.4 1 .5-.2 2.4-1.3 3.7-3.9 3.7v-.8Zm2.5-3.2c.3 1.9-.5 2.7-2.5 2.5-2.3-1.6.6-4.8 2.5-2.5m3.2 10.3c1.8-1.4 4-.3 3.9 1.5 0 3.1-5.5 2.7-3.9-1.5m-3.2-36.7c1.2-1.1 2.3-2.2 3.9-2.7 1.2 1.3.7 3.6-.5 4.4.2.6.2 1.4 1 1.5-.9 1.8-3.5 1.8-3.7 4.2.1.9 1.1.9 1.7 1.2-.5.4.2.6 0 1.5 1.4 1 2.8-.1 3.7-1-.1 2.4 2.4 2.2 2.2 4.7-1.4.3-2.5.8-2.7 2.2-2.7-3.4-4.4-7.7-6.9-11.3 3.5.7 4.9-4.4 1.3-4.7m1.2 4c-.6.3-1.5.3-2.5.2-4.1-4.3 5.9-5.1 2.5-.2m16.5 5.6c-2.4.3-5 1.6-6.2-.2-1-4.2 4.3-3 2.7-6.9.6-.6.8-1.5 2.2-1.2.5.3 1.1 1.3.5 2-.9.2-1.1-.4-1-1.2-.9.2-.3 1.6.2 1.7 3.3-.6 2.4-7.6 6.6-5.7-1.1 1.9-1.9 4.2-2.7 6.4-2 1.4-5.8 1.1-7.1 3.2-.3.9.5.8.7 1.2 3.1-1.1 6.2-1.4 10.1-.7-.4 2.1-3.8 1.2-6 1.4m4 .5v.7c-.2 0-.2-.1-.2-.2-.3 0-.2.4-.2.7-.5-.2-.8-1.2-.5-1.5.2 0 .2.3.2.5.1-.1.3-.2.7-.2m-7.4 5c-1.4 1.3-4.2 2.7-4.4-.5.7-.1.8-.9 1.7-.7.3 1.1-.8.9-1.2 1.2.2 1.4 2.4 1.1 3 .2.2-.9-.3-1.2-.2-2 .6.1.5-.5 1.2-.2.1-1-1.1-.8-1-1.7.6.3 1.1.8 1.7 1.2-.2.6-.7.7-1.2 1-.2.8.6.5.4 1.5m-5.4-3.2c-2.5 0-3.3-3.4-.5-4.2 3.3-.9 3.4 4.2.5 4.2m.4 2.4c-.8-.1-.7-1.1-.7-2 .8.1.6 1.3.7 2m-4.6-13.3c.2.7-.5.5-.5 1 .1.4.4.6.7.7.7.2.5-.5 1-.5-.2-.7-1-.6-1-1.5.6 0 .8.4 1.2.5.1 1-.2 1.6-.7 2-.8.1-1-.4-1.5-.5.1-.7-.2-1.8.8-1.7m.7-3.2c.5.2 1 1 .5 1.5-.2-.1-.4-.3-.7-.2-.2-.7.3-.7.2-1.3m3.9 1c-.4.7-.9-.7-2-.2-.2 0-.2.2-.5.2-.2 1.1.3 1.5.5 2.2-2.5-1 .6-4.6 2-2.2m-1.4-1.2v-1c.6-.1 1.1.1 1 .7-.5 0-.6.3-1 .3m8.8-.5c-1.8-.6-1.5-2.4.2-3 .3 1.3-.3 1.7-.2 3m-.2 3.7c-1.3-.3-1.5.6-2.5.7.3-1.6 1.6-2.1 2.2-3.4.6.4.1 1.8.3 2.7M85.79 54c-.6.1-.9.4-1.7.2 1.3-.7.5-4.2 2.5-3-.8.5-.9 1.5-.8 2.8m-2-4.2c.8.2 1.8 1 1.2 1.7-.8-.1-1.1-.7-1.2-1.7m-.2 2.5c0-.7-.5-1-.5-1.7.9-.1 1.9 1.7.5 1.7m2.2-1.7c-.8-.2-1.5-.6-1.5-1.7.8.2 1.9 1 1.5 1.7m-1.7-3.7c-1.3-.8 1-1.2.5-2.7.2 0 .2.1.2.2h.5c-.5.8-1.1 1.4-1.2 2.5m-4-3.7c-.4-.4-1.1-2.3.2-2.2-.5.9.1 1.1.5 1.7.9.1.9-.7 1.7-.7-.4.7-1.1 1.2-2.4 1.2m.3 3.2c-.9-.2-1.4-.9-1.5-2 .4 0 .5-.3 1-.2 0 .8 1.2 1.3.5 2.2m6.1-9.6c.7.1.7.8 1.2 1-.4.8-.7 1.7-1.7 2 .9-1.2.3-2 .5-3m-.7 2.4c-.4 0 .4-1.2-.2-1.5-1-.1-1.3.4-1.7.7-.7-.8 1.6-1.7 2.5-1 0 1-.4 1.3-.6 1.8m-1.7.8c-.5-.4-1.1-.5-1-1.5.5.3.9.7 1 1.5m-1 1c-.3 0-.2.5-.2.7-.9-1.2-.6.7-2 .5a.9.9 0 0 1 .7-1.5c.1.4-.2.4-.2.7.4.1.4-.2.7-.2.2-.8-.7-.5-.5-1.2.6.2.7.8 1.2 1 0-.6-.4-.8-.7-1 .4-.7.9.5 1 1m-2.5-1.3c.3-.7 1.1-1 1.5-1.7.7.8-.3 2-1.5 1.7m-.2-.7c-.2-.3-.3-.7-.2-1.2.3-.3 1.5-.4 1.5.2-.1.8-.7.8-1.3 1m1.2 4.4c.7 0 1 .4 1 1.2-.7.2-.5-.5-1-.5.1.4.4.6.5 1 .7.2.5-.5 1-.5-.9-3.3 1.7-6.1 3.9-3.9-.6.7-2.4 0-3 1.2.2 1.9.3 3.1-.7 4.2-.9-.2-1.9-.2-2.5-.7 0-1 .1-1.8.8-2m2.7-.5c-.1-1.3.9-1.6 2.2-1.5-.5.8-1.2 1.3-2.2 1.5m1-.2c.4 0 .5-.3 1-.2.3 1-1.1 1.3-1 .2m-.7.5c.8-.1.6.8 1.5.5.7 0 .5-1 .5-1.7 1.3.2.5 1.7 0 2.2-1-.1-2.2.2-2-1m4.6-6.7c-.7-.3-1.5-.5-1.5-1.5.6-.4 1.6.6 1.5 1.5m-.7 1c-.9-.1-1.9-.8-1.2-1.7.8.3 1.6.8 1.2 1.7m-1-2.5c-.8-.3-1.5-.7-1.5-1.7 1.1.1 1.9.9 1.5 1.7m-.5.8c-.8.6-2.2-.5-1.5-1.5.8.2 1.3.7 1.5 1.5m-1 1.2c-.1-.1-1.2-.6-1.2 0-.7-.3.2-1.1.2-1.5.5.4 1.3.4 1 1.5m-1.9-.2c-.7-.2.3-.9.2-1.2-.2-.8-1-.8-1.7-.5.4-.8.8-.6 1.7-.5.5.5.3 1.8-.2 2.2m-1.3-1.5c-.1.7.6.8.5 1.5-.7.2-1.6-1.5-.5-1.5m-3.2 8.1c-.6-.3-.9-.7-1-1.5 1 0 .8.9 1 1.5m-1.9-1c1.2 0 1.8 1.4 1 2-.6-.4-1.6-1.2-1-2m.5 2.2c-.6 1.2-2.1-.7-1.5-1.5 1 0 .9 1.2 1.5 1.5m-1 1c-.9.4-1.2 1.2-2.5 1.2-1.8-2 2.3-4.3 2.5-1.2m.2.3c.9.2 1.2 1.1 1.5 2-.8.5-2.2 1.6-3.2.5-.3-1.8 1.1-1.8 1.7-2.5m.8-.8c.9.2 1.3 1 1.5 2-1.1-.1-1.4-1-1.5-2m4.9 7.9c-.7-.2-.5-1.5-.7-2.2.8.1 1.2 1.5.7 2.2m5.7-1.9c-.8.3-1.6-1.4-.5-1.5.2.4.4.9.5 1.5m-.3-1.8c.9-.1.7.9 1 1.5-.8-.1-.8-.9-1-1.5m1.7 1.8c-.2-.5-1.3-1.5-.7-2 .8 0 .7 1 .7 1.7 1 .1 1.6-.2 2.5-.2-1.5 1-3.7 2.5-5.2 2.7-.3-1.2 1.1-2.2 2.7-2.2m0-2.3c.9 0 .8 1 1 1.7-.9.1-.8-.9-1-1.7m1 0c.7 0 .6.9.7 1.5-.8.1-.4-1.1-.7-1.5m.8-.2c.7.1 1 1.4.7 1.7-.4-.4-.8-.9-.7-1.7m3.4-6.4c-.6-.7-1.1-2.3-.2-3.2 1.2.1.7 2.6.2 3.2m-2 3.4c-1 .1-.7-1.1-1.5-1.2.2-.5 1.2-.3 1.2-1 1 .2.5 1.7.3 2.2m-1.9.5h-1.5c0-.6 0-1.2.2-1.5 1 0 1.4.5 1.3 1.5m-4-.2c.4-.6 1.3-.8 2.2-1-.1.9-1.5.6-2.2 1m2.2 0c-.4 1-2.1 1.5-3.2 1 .4-1.1 1.9-1 3.2-1m6.2.5h-1.7v-2c.8.4 1.5.9 1.7 2m-1.2-2c.4-.7 1.3-1.6 2.2-1-.2.7-1 .6-1 1.5-.8.2-.5-.7-1.2-.5m2.7 2c.9.5 1.5 0 2.2-.2.8-2.8-3.5-2.5-2.5.2-3.4-2.4 4.2-5.3 3.2-.2-1.9.7-3.6 3-5.4 3 .6-1.3 3.3-.9 2.5-2.8m1.7-2c0 .6.4.7.2 1.5-.6.4-1 .6-1.7.2-.7-.9 0-2.2 1.5-1.7m-5.2-.5c-.4-1.2.2-1.3.2-2.5.8 0 .7.7.7 1.5 1.3-.5 2.1-3.1.7-4.2 0-.7.6-.8.7-1.5-.9-1.8-3.3-2.2-3.9-4.2 1.5.3 1.5-.9 2.5-1.2 1.4 3.7 3.6 7.9 4.4 11.3-1.7-.3-3.8-.3-5.3.8m-.2-11.3c-1.3.6-2.6 0-3.2-.7 0-.9 0-1.8.2-2.5 2.3-1.9 5.2 1.3 3 3.2m-3.2-.3c1.4 1 2.6 2.2 3.4 3.7-1.9.7-2.2 2.9-3 4.7-2-1.4-.4-5.9-.4-8.4m-.3-.9c-1 .1-.9-.9-2-.7.3-.7 1.2-.8 2-1 0 .8-.3.9 0 1.7m-.5.2c-.2 1.2-1.2 1.6-1.7 2.5-.6-.3-.8-1-1.5-1.2.4-1.2 1.9-2.5 3.2-1.3m-4.6 3.2c-2-1.7-4.7 1.3-6.6.5-.8.4-.6.5-.5 1.5-.5 0-.5-.6-.5-1.2 2.9-1.3 6.2-3.4 9.8-4.7-.7 1.4-1.7 2.4-2.2 3.9M80.39 53c3-.6 3.7 5 0 4.2-1.7-.4-2-3.8 0-4.2m13.5-2.4c-3.3 4.1-8 10.4-8.4 17.5-1.5.8-.3-1.9-1-3-.5-.5-1.8-.2-2.7-.2 1.3-2.2-.2-4.7-1.2-6.2 3.8-3.4 9-5.4 13.3-8.1m-8.8 22.6c-.4.4-1.4.2-2.2.2.2-.7.2-.8 0-1.5h1.2c.4.9-.8.1-.7.7.2.6 1.2-.1 1.2-.5.1-.9-1.5-.1-1.7-.7-.2-1 1.4-.3 2-.5.3.5.1 1.5.2 2.3m-2.3 1.5c.6 0 1.3 0 1.2.7-.6 0-1.5.3-1.2-.7m1.5 1c.5-1.6-1.4-.7-1.5-1.7 4.2-2.1 1.9 4.5-.2 1.7h1.7Zm-.2-6.7c.1.9-.7.7-1.5.7-.1-.8.7-.7 1.5-.7m1 1.3c-.4.3-2.2.4-2.2.2-.2-1 1.3-.2 1.5-.7.3-1.2-.8-1-1.7-1 .4-1.7 3.3-.6 2.4 1.5m-.5-3c-.5.4-1.2.6-2.2.5-.1-1 1.4-.4 1.5-1.2.2-1.1-1.1-.7-2-.7.5-1.6 3.6-.8 2.7 1.4m-2.5-1c.6-.1 1-.5 1.5 0-.2.6-1.6 1.2-1.5 0m.2 11.3h1.3c-.2-.3-.5-.6-1.1-1 3.6-.9 2.2 4.1-.5 2.2.8-.2 1.4-.4 1.6-.7-.3.4-1.2.1-1.3-.5m0 1.8c1.1 0 2.3.1 2.7-.5.2-1.3-.4-2.1 0-3 .2-.2.4-.3.5 0 1.1 6.7 3.8 11.8 7.6 15.8-3.9-1-7.8-4-11.8-5.7.7-1.8 2.4-4.3 1-6.6m13.6 24.1c.2-.1.4-.2.5-.5.2-.8-.8-.3-1-.7.4-.7.9-.4 1.5 0 .2 1.1-.4 1.4-.7 2-.9-.1-1.9 0-2-1 .7-.2.8.4 1.7.2m-1.5-1c.4-.3 1.4 0 1.5.7-.7 0-1.5.1-1.5-.7m-10.8.7c.2.1.4.2.5.5 0 .5-.2.8-.7.7.6.3.9.9 1 1.7-2 0-1.3-1.7-.8-2.9m-1.3.8c-.1-.6.1-1.1.7-1 .5.3.2 1.2-.7 1m1.8.7c.1-.6.2-1.2 1-1 .1.6 0 .9-.2 1.2-.3-.1-.5-.2-.8-.2m1.7 2.2c-1.1.1-1.2-.7-1.2-1.7 1 0 1.1.8 1.2 1.7m-.5-1.7c-.5-.4.1-.7.2-1.2.5 0 .5.6.5 1.2h-.7Zm2 2.5c-.9-.1-1.3-.9-1.2-2 .9.2 1.3.8 1.2 2m-.8-3.2c.6 0 .6.9.2 1.2-.5 0-.5-.9-.2-1.2m-2.9-1.5c-.1-1.4.7-1.7.7-3-1 .5-.3 2.6-2 2.5-.4.1.3 1-.5 1.2.5.5.9 1.1 1 2-1.8-.1-1.7-2.5-1-3.2-.6-.5-1.5-.6-1.2-2 .7-.5 1.1-.5 1.7 0 .1.5-.4.5-.7.5 1.1 1.5 1.3-1.3 2-1.7.9-.2 1.3.2 1.7.5.2 1.3-.5 1.6-.5 2.7.9 1.2 3.4.7 3.7 2.5-1.6-.8-3.3-1.3-4.9-2m-1.3-4.4c-.6 0-.8-.4-1.2-.5.1-.7.6-1 .7-1.7.6-.1.8.3.7 1-.5.4-.3 0-1 0 .3.4 1.1.3.8 1.2m-2.7 4.2c-1.1-1.1.9-3.1 1.2-4.4.6 1.6-1.4 2.8-1.2 4.4m.3 1.7c-.5-.2-.9-.6-.7-1.5.8-.1.7.7.7 1.5m.7-8.1c.3.5.9-.1.2-.2 1-.6.4.4.2 1.2-.2-.2-.3-.6-.4-1m-.7.2c.4.4 1 .6 1 1.5-.7-.4-.9-1.3-1.7-1.5a4.5 4.5 0 0 1 3-3c-.2 1.6-1.8 1.8-2.3 3m.5 2.5c-.9-.1-1.1-1.1-1.2-2 .9.1 1.2.9 1.2 2m-.5.7c-.6.4-2.2-1.1-1.5-2 .9.3 1.3 1 1.5 2m-.5 1.2c-1-.4-1.8-1-2-2.2 1 .5 1.8 1 2 2.2m-.7 2.5c-.6.7.2-2.2-.7-2-.5 2.7 2.3 5.3 4.7 6.6-3.2-.4-6.4-4.3-4.4-7.4.8.3.2 1.9.4 2.8m-.8-2.7c-.5.6-1.6-.5-1-1 .7 0 1 .4 1 1m-.7 1c-.6.1-1.1-.1-1-.7.3-.4 1.2-.2 1 .7m5.6 6.9c-2.7-.3-5.8-2.3-5.9-5.9.6 3.4 3 4.8 5.9 5.9m-4.1-4.7c1 1.3 1.9 2.7 3.9 3-1.6.2-3.4-1.4-3.9-3m1.4-.5h.7c.3.3.3.9.2 1.5-.6-.1-.6-.9-.9-1.5m6.9-14.3c.5 0 .3.7 1 .5-.3.4-1.3 1.3-.5 2-.6.7-1.1 1.4-1.2 2.5-.9-.6.6-2.1-.2-2.7.4-.6 1.3-.9.9-2.3m6.7 10.4c.1.9-.3 1.2-.5 1.7-1.7-1.5-5.5-1.1-6.2-3.7 2.2.2 3.8 1.6 6.7 2m-1.3-2.5c1.2 0 1.7 1.3 1.2 2.2-1.5.4-1.1-1.1-1.2-2.2m-4.4-4.4c-1.2-.2-.5 1.5-1.5 1.5.1-.8.5-1.3.7-2 .7-.2.6.3 1.2.2v1.2c-.6.2.3-1.1-.4-.9m.8 4.6c-1.6.3-1.2-1.3-1-2.2 1.1 0 1 1.1 1 2.2m-1.3-4.4c.8.1.1 1.2 0 1.7-.6-.3 0-1.3 0-1.7m1.7 3c1.2-.2 1.2 1.8.7 2.5-.7.2-.5-.5-1-.5-.1-1 .5-1.1.3-2m1.8-1.5c-.1-.7-.8-.4-1 0-.7-.2.1-1 .7-.7.6.4.6 1.5.2 2.2-.6-.3.1-1.1.1-1.5m1 4.4c-1.4.2-1.3-1.2-1.2-2.5 1.3 0 1.6 1.5 1.2 2.5m-1.8-5.6c-.1-1.1.4-1.6 1.5-1.5.1.3.4.4.5.7 0 .7-.6.9-1 1.2-.7.2-.5-.4-1-.4m-1.2 2.2c-1.4-1.4.6-3.2.7-4.7.4.1.6.4 1 .5-.9 1-1 2.9-1.7 4.2m-.5-3.5c-.8-.3 1-.1.7-.7 0-.4-.2-.6-.5-.7-.8-.1-.8.5-.7 1.2-.7-.4-.3-.9 0-1.5.8-.2.9.3 1.5.2.1 1-.2 1.5-1 1.5m-3.2-1c-.8-.8-.5-2.1 1-2 .1.2.2.4.5.5.1 1.2-.4 1.7-1.5 1.5m.2.3c.8.8.2 1.4 0 2.7-.8-.6.3-1.5 0-2.5-1.5-.4-.7 1.6-1.7 1.7.4-.8.1-2.3 1.7-1.9m-.4 2.4c-.9-.2-.2-1-.2-1.7 1 0-.2.9.2 1.7m-.5 1.5c-.5-.1 0-1.3-.5-1.5-.5 0-.8.2-.7.7-.9-1.5 2.4-.9 1.2.8m-.8 2.7c.6-1 .6-2.7 1.5-3.4 1-.1 1.4.2 2 .5.1 1.5-.4 2.4-.7 3.4 1.4 2 5.4 1.5 6.4 3.9-2.5-.1-5.2-2-7.6-3-.2-1.7.8-2.2.7-3.7-.9.8-.6 2.7-1.5 3.5-1.9.4-2.3-1.6-1.5-2.5.8 0 .8.6.7 1.3m8.2 6.2c-.8 0-.9-.7-1-1.5h1c0 .6.4 1 0 1.5m-2.5-1.2c-.4-.2-.4-.8-.5-1.2.7-.2.6.3 1.2.2.1.6-.9.2-.7 1m1.2 1.7c-.7-.3-.9-1.1-1-2 1.2-.2 1.4 1.4 1 2m-2.4-.8c-.9-.6-2.6-.5-3-1.7 1 .6 2.6.5 3 1.7m-2.5-3.6c.4 0 .5.3 1 .2-.2.5-.7.7-1.2.7-.2-.5.1-.6.2-.9m1 1.7c2.2 0 .3 1.9 0 0m.7-.3c-.9-.2-.9.5-1.7.5.2-1.9 3.7-1.5 3 1-1 0-.3-1.5-1.3-1.5m0 4.7c1 .2 1.1 1.2 1.2 2.2-1-.1-1.2-1-1.2-2.2m.5 0v-1h.7c.1.7 0 1.1-.7 1m.8-3c1.1-.1 1.4 1.3 1 2-1 0-1.1-.9-1-2m.7 2.3c.5.4-.1.7-.2 1.2-.8 0-.5-1.3.2-1.2m-.5 1.4c.9-.2.9.9.5 1.2-.6 0-.5-.5-.5-1.2m1.7 3.2c-1 .1-.8-1-1.5-1.2.2-1 2.3.6 1.5 1.2m-.7-2.4c.8.3 2.1.8 1.5 1.7-.9-.2-1.5-.7-1.5-1.7m.2-.5c.2-1 2.3 0 2.2 1-.8.6-1.5-.6-2.2-1m.5-1.2c.8.1 1.3.5 2.2.5 0 1.4-2.2.3-2.2-.5m-.7-.5c.4-1.4 1.8-.2 3.2-.5v1c-.7.2-2.3-.3-3.2-.5m3.4.2c0 1.7 1.4 1.9 1.7 3.2-1 0-1.1-.9-2-1-.1-1 .3-1.4.3-2.2m0 3c1.1-.3.5 1 1.5.7 1.3-.7-.1-2.2-1-2.2 0-1.3.4-2 0-3.2.7-.2.5.5 1 .5.2 1.1-.6 1.2-.5 2.2.4.7 1.6.7 2 1.5.2 1.1-.4 1.4-.7 2-1.4.1-3-.4-2.3-1.5m0-4c-.7-1.1.8-2 .7-3.2.8 1.1-.8 2-.7 3.2m-1.9-.2c1.3-.5 1.2-2.4 2.5-3-.7 1.1-.9 3.7-2.5 3m1.9-9.6c-1.2-.9.6-2.7 1.5-1.5.1 1.1-.4 1.6-1.5 1.5m-1.4 1.5c-1.5-1.3.4-2.9.5-4.2.4 0 .5.3 1 .2-.6 1.3-1.2 2.5-1.5 4m-9.9-9.4c-.8-.2-.9.3-1.5.2-.2-.7.5-.5.5-1 .5.2 1.1.2 1 .8m1.2.5c1.4 1.5.5 3.9-1.5 3.7-2.6-.2-2.2-5.3 1.5-3.7m.5.5c.4-.6 1.2.4 1.7.5-1.5 1.6-1.3 4.7-3.4 6.2.1-.2.2-.4.5-.5-1.1-1.3-2.8-2.1-3.7-3.7-.1-.7.5-.8.5-1.4.3 3.5 6.7 2.4 4.4-1.1m-3.7 4.7c-.9-.2-1.2-1-1.5-1.7.8.3 1.3.9 1.5 1.7m-.7.2c-.3.3-.2.9-.5 1.2-.8.1-1-.3-1.2-.7-.2-.7.5-.5.5-1 .6 0 .7.4 1.2.5m-.5 4.2c-1.4 1-2.3 2.5-3 4.2-.7-.3-1.5-.7-2.7-.5.8-2.4 2.3-4.1 3.2-6.4 1.6 1.1 2.2 1 2.5 2.7m-3.2 7.1c-1.5 1.8-4.8-.4-3.4-2.5 1.2-1.7 4.9-.9 3.4 2.5m7.1 3.2c.6-.7 1.2-.3.5-1.2.5.1.4.7 1.2.5 0 .6-1 .4-1 1-.1.4.2.4.2.7.4 0 .9.1 1-.2.7.5-.8.8-1.5.7 0-.5-.5-.7-.4-1.5m.8 2c.5-.2 1-.5 1.7-.5-.3.4-1.2.3-1.2 1 0 .6.8.5 1.5.5-.5 1-2.3.2-2-1m1 .7c-.1-.6.3-.8 1-.7 0 .7-.4.8-1 .7m.7-2.9c.8.5.9 1.8 1.2 2.7-1.1-.2-1.1-1.5-1.2-2.7m1 .5c1.2 0 1.5.8 2.5 1-.3.6-.9 1.1-2 1-.1-.8-.6-1.1-.5-2m1.7 2c.4.1.9 2.5 0 1.7-.1.4.2.4.2.7.9-.2.4-1.9.2-2.5.7.4 1 2.2.5 3-1.6 0-1-2-.9-2.9m1-.3c.8-.1 1.3.9.7 1.5-.6-.2-.5-.9-.7-1.5m4.2-1.2c.2 2.2-3 3.2-1.2 5.4-.8.7-1.7-.6-2.5-.7.1-2.7 2.4-3.2 3.7-4.7m.2 1.9c3.3-.3 2.5 5.8-1.2 3.7-1-1.7-.3-3.5 1.2-3.7m2 .8c1.1-.8 1.8-2.8.5-3.9 1.3.3 1.4-1.9 2.2-1.2.6 1.3-1.5 4.1-2 5.9-.5 0-.2-.8-.7-.8m.2-4.2c.9-.9 1.5-2.3 2.7-3-.9 1-.9 2.9-2.7 3m2.5-1.5c-.3-1 .8-.5.5-1.5-1.7-1.1-1.3 2-2.7 2 .1-1.3 1.2-1.6 1.2-3 2-1.4 3.3 2.4 1 2.5m-2.9-3.2c-.4-.4-.6-.9-1.2-1 .5-2.7-.3-5.3 1.2-7.1 1 .5 2.1 1 2.5 2.2-2.1 1-2 2.4-1.1 3.3-1.5-3.7 3.4-4.1 3.8-1.5.2 1.4-1.3 2.7-3 2.1 1.4.7 3.4.5 3.5-2.3 2.1.9-.8 3.7-1 5.4-1.4-.5-3.6-2.2-4.7-1.1m4.1-68.9c-.9-.4.6-.4.2-1h.7c-.2.6-.1 1.6-1 1.5.7-.4.7-1.5.1-.5m-3.2-10.4c-1.1.3-.8-.9-1.5-1-1 .2 0 .8-.2 1.7-4.1-.2 2.6-4.8 1.7-.7m-2.9 1v1c-.7-.2-.6.3-1.2.2.3-.5.3-1.2 1.2-1.2m-2.7.5c-.3-2.4 1.7-2.4 2.7-3.4.1 1.2-1.4 2.8-2.7 3.4m6.4-3.4c-.9.3-.5-.8-1-1 0-.3.4-.2.7-.2-.2.6.4.6.3 1.2m.2 1.9c-.1 2.1-2.2.9-3.4 1.7.7-1 2.1-1.3 3.4-1.7m9.1-4.6h1c-.7.2-1.4 2.2.2 2 .3 1.3-1.5 1.5-2.2 1 .1-.9.9.2 1.5-.5-.6-.6-1-1.6-.5-2.5m1.3.7v1c-.7.1-.8-.3-.7-1h.7Zm-1.8 3.7c-.6-.3-1.7-.1-1.7-1 1.2-.1 1.7-.4 1.7 1m11.1 8.6c-.5-1.2-1.1-2.3-1.5-3.7.5-.5 1.8-.2 2.7-.2.6 1 .8 2.5 1.5 3.4-1 .5-1.7.3-2.7.5m3 .3c1 1.4 1.6 3.2 2.2 4.9-1 .2-2.2.3-3.4.2-.7-1.6-1.4-3.2-2-4.9 1-.2 1.6-.2 3.2-.2m1 11.8c-1.3-.1-2.4-.3-3.4-.5-1-3.5-2.7-6.3-3.7-9.8-1.6 2.9-2.3 6.7-3.4 10.1-1.1.1-1.8.5-3 .5 1.7-6.5 3.8-12.7 5.9-18.7 2.9 5.8 4.8 11.9 7.6 18.4m-4.2-.5c-1.9.1-4.2-.2-5.7.2.5-3.1 1.7-5.5 2.5-8.4 1.3 2.5 2.4 5.2 3.2 8.2m-17.8-11.6c1.8-.5 3.5-1.1 4.9-2-.4.7-.3.8-.5 1.5-.4.4-1.4.1-1.2 1 .6.7 2.5-.5 3 1.2-1.7-.6-4.1 0-4.7 1.2-.5-.2 0-1.4.5-1.5-.4-1.1-1-.6-2-1.4m5.2-7.1c.2 1.8-1.9 1.2-2 2.7-.1 1.2.8 1.5 1 2.5-.3.2-.7.4-1 .7-1.1-1.1-1.6-4-2-4.9.6-1.2 2.8-1.2 4-1m-2.7-1.8c.6 0 .5.8.5 1.5-.6 0-.5-.8-.5-1.5m.7 1.3v-1.2c.8-.4.8 1.6 0 1.2m.8 0v-1.2c.7-.4.7 1.6 0 1.2m1.2-4c.7 0 .6 1.2.2 1.5-.5 0 0-1-.2-1.5m1 10.1h.7c-.2.9.4 1.1.2 2-.8.2-.5-.7-1.2-.5-.1-.7.5-.7.3-1.5m1-2.9c.8.4 1.1.4 1.7.5.1 1.7-.9 2.4-1 3.9-1.3-1-1.2-2.8-.7-4.4m-2.5 1.9c0-.2-.3-.2-.5-.2-2.4-6 6.7-1.1.5.2m-2.2 1.5c-.6-.3-.8-1-1-1.7.9 0 .9 1 1 1.7m-.7.3c-.6-.4-1.3-1.6-1-2.2.6.4 1.2 1.7 1 2.2m-.8.2c-.6-.1-1.8-2-.7-2.2.3.7.7 1.3.7 2.2m3.5.5c.3-.8 1.2-1.4.7-2.2.8.1 1-.5 1.5 0-1.3.8-1.6 2.8.5 3-.2.2-.3.6-.2 1-.6-1-1.6-1.3-2.5-1.8m6.9.5c-.3 2-1 3.5-1.5 5.2-1.1.2-2.8-.3-3.4.2.1-2.3.4-6.6 4.9-5.4m.2-.5c-1.2-.2-2.7.3-3.2 0 .6-2.1.7-4.5 4.2-3.7-.1 1.4-.8 2.3-1 3.7m-5.6-7.4c1.3.6 2 1.6 3.2 2.2-1 1.9-3.9-.8-3.2-2.2m-.3-4.4c-.8-.2-.7.4-1.5.2-.1-.8 1.7-1.4 1.5-.2m-1 2c-.8.1-.9-1.1-.5-1.5.7 0 .5.8.5 1.5m-.5 0c-1.3 1-4.4 1.4-5.7 1.7 0-.4-.2-.6-.5-.7 1.5-1 4.3-2.1 6.2-1m-4.2 1.7c.9 0 1 .8 1 1.7-.6-.3-.8-1-1-1.7m0 2.4c-.3-.7-.7-1.3-.7-2.2.6.2 1.8 2 .7 2.2m-1.7-.2c-1 .1-.8-1.1-.2-1.2.6 0 .6.9.2 1.2m0 .7v.7c-.8 0-.8-.6-1-1.2.4.2.7.4 1 .5m-.2 1c.9.2.9-.5 1.7-.5-.6-.4-.6-1.5-1-2.2.4-.4 1.1 1 1 2 .6 0 .8-.4 1-.7.6.5.7 1.6 1.2 2.2-1.1.3-2.5.5-3.4 1-.2-.6-.7-.9-.5-1.8m1.5 2c.2.5.6.8.5 1.7-.7.1-1.6-1.7-.5-1.7m1.2 2.7c-.1 1.5-1.3.1-1.2-.7.4.2.3 1 1.2.7m.5 3.4c.2-1.9 3-2.9 5.4-1.7-1.3 2.7-1.3 5.1-2.5 7.9-.5-1.4-3.2-4.2-2.9-6.2m8.1 2.3c-1 2.8-.6 6.9-4.2 7.1-1.1-2.6-.6-8.2 4.2-7.1m15.5 6.6c-.9 0-1.4-.4-2.2-.5-.7-2.2-1.7-4.3-2.5-6.4l3-.2c.5 2.4 2.8 4.6 1.7 7.1m-10.8-29.3c2.3 3.5 3.6 8 5.2 12.3-.5-.2-2.2.2-3.4 0-.3-1.5-.9-2.5-1.5-3.7-.6 1.1-1 2.3-1.2 3.7h-3.4c1.2-4.2 2.7-8.3 4.3-12.3m-2.2-.5c.8-.2.7.4 1.5.2-.2 1.2-.7 2-1 3.2-.1-1-1.4-.9-2.2-1.2.5-.7 1.5-1.1 1.7-2.2m-1.3.5c0 .6-1 .4-1 1-.2.7.4.6.2 1.2h1.5c-.1.4-.7.1-.7.5.1.6.4-.3 1 0 .1.5-.4.5-.7.5.1.3.6.2 1 .2-.1.4-.4.6-1 .5 0 .3.4.2.7.2-.1.3-1 .5 0 .5-1 .8-1 3.2-2 4.7-.3-.2-.9-.2-1-.7 2.3-2.5.4-5.5 0-8.6.8 0 1.5-.6 2 0m-2.7 8.1c-.1 1.4 2 .8 1.7 2.5-1.3.5-2.6-.9-3-2.2 3.9-.5 1.6-5.8 1.2-8.4.6 1.8 3.4 6.6.1 8.1m-.5-7.8c-.4 1.5 1 2.2.5 3-1-.2-.6 1-1.5 1 .2-2.3-1.9-2.4-3-3.4 1.5-.2 2.5-.7 4-.6m-1.9 3.2c-.7.5-.9.8-2 .5-.1-.6-.4-.9-.2-1.7.7-1 2.7-.6 2.2 1.2m-2.3-2.3c-.8 1.1.4 2.6.2 3.9-1 .1-1.6-3.7-.2-3.9m-1.7 0c1.1.8.2 3.4 1.2 4.2-1.5.6-3.8 1.6-5.2 1.5.8-1.1 2.7-1.2 4.2-1.7 0-1.4-.3-2.4-.2-4m-.7 2c.4.2.2.6-.2.5.2.5.7 1.1.2 1.5-.4-.1-.6-.4-.5-1 0-.3-.4-.2-.7-.2 0-.6 1-.3 1.2-.8m-2.2-1.2c1.7.5.2 3-1.5 2.5.3-.8.5-.1 1.2-.5-.1-.3-.6-.2-1-.2-.9-.4 1 0 .7-.5-.2-.7-.6.3-1.2 0 .6-.6 1.2-.9 1.8-1.3m-3 1.7c-.1-.8-1 .7-.7-.5.8.2.9-.3 1.5-.2.4.4.2 1.3.2 2-.6.3-1.2.6-2 .7 0-.8 1.1-.5 1.5-1-.3-.7-.8.4-1.5.2-.1-.7.9-.2 1-.7-.2-.6-.7.5-1.2.2-.1-.7.8-.5 1.2-.7m-1.2 2c-1.3 1-3.7 1.9-3 4.2 1.7.3 1.4-1.4 2.7-1.5-.8.8-1.2 1.9-2.2 2.5-3.4-1.6.5-5.6 2.5-5.2m-.5-1.8c-.8 1.3-2.2 1.9-4.2 2 1.1-.9 2.5-1.6 4.2-2m-.3 1c.1.8-2.1 1.5-3 2.2-1 0-1.8-.2-2-1 2.3.6 3.5-.4 5-1.2m-5.1 1.5c.3.6.9 1.1 2 1-.6 1.5-.1 2.9.5 3.9-7.5 2.5-14 5.8-19.9 9.8 3.6-6 10.4-11.1 17.4-14.7m-21 19.5c1 2 2.1 4 3.2 5.9-1.3-.4-4.7-1.7-6.6-.2.9-2.2 1.6-4.5 3.4-5.7m-3.9 6.1c8.1-4.5 12.8 8 5.9 10.8-8.6 1.8-9.7-5.7-5.9-10.8m9.9 4.9c2.2 3.2 4 6.9 5.9 10.3-3.4-1.2-5.6-3.5-9.4-4.2 1.7-1.4 3.3-3 3.5-6.1m-12.9 2.3c1.3 1.4 1.9 3.5 4.2 3.9-2.7 1.7-5.5 3.4-6.2 7.1-.4-3.9 1.4-7.5 2-11m8.7 4.4c4.3.5 6.6 3.8 10.8 4.4-.2-2.1-1.6-4-2.7-5.9-3.1-5.4-6.5-11.3-9.6-17 2.8-4.3 8.1-6.4 12.8-8.6 4.7-2.3 9.6-4.8 15-6.2 2.3 2.8 3.2 6.4 4.7 9.8 1.4 3.3 3.1 6.7 4.2 10.1-.7.1-1.3.4-1.7.7-1.6-2.2-2.6-4.8-3.7-7.4-1.4-3.3-2.7-6.9-3.9-10.3-9.4 2.8-17.6 6.9-24.1 12.6 3.2 6.4 6.3 11.3 10 17.8.9 1.6 3 4.9 1.5 6.6-1.6 1.8-5.6-.8-7.4-1.7-2.7-1.3-6.2-3.6-9.6-2.2-8.1 3.3-7.2 23.3 2.7 23.6 6 .2 7.1-5.2 14.3-5.4 2.5 4.4-2 9.1-3.9 12.6-2.2 4.1-4.3 8.2-6.4 11.8 6.9 4.9 15.1 8.5 23.4 12.1 2.5-3.8 3.9-8.6 5.9-13.3.6-1.3 1.1-3.2 2.5-3.9 2.2.9.3 3.3-.2 4.7-2 4.9-4.3 10.8-6.4 15.3-10.5-3.7-20.3-8.1-28.3-14.3 3.7-7.6 8.3-14.3 11.8-22.2-5 .6-7.5 6.5-14.8 4.9-11.7-2.5-11.8-30.4 3.1-28.6m5.4 34.2c-.6-2.3-2-3.9-3.4-5.4 3.2-1 5.7-2.7 8.1-4.4.3 0 .4.1.5.2-1.7 3.3-3.7 6.2-5.2 9.6m-16-11.3c1.9 2 3.2 4.7 6.2 5.7-1 1.5-2.8 2.2-3.2 4.2-1.8-2.6-2.2-6.4-3-9.9m3.2 10.8c.1-6.9 12.5-6 12.1 1-.1 2.2-1.6 2.8-2.5 5.2a7.62 7.62 0 0 1-6.9.2c-.7-2.4-2.8-3.8-2.7-6.4m3.2 6.9c1.4.9 4.1.9 5.4 0 .7 1.2-1.8 3.2-2.2 4.9-1.6-1.1-2.5-2.9-3.2-4.9m3.7 6.4c7.3 4 15.6 9.2 24.6 12.3-2.1 1.2-3.5 3.2-2.5 6.2-9.1-4.4-16.3-10.8-22.1-18.5m25.1 13.1c5.3-.7 4.4 6.8.2 6.6-3-.1-5-6-.2-6.6m3.7 7.9c-1.1.1-1.7-.4-2.5-.7.5-.5 1.3-.6 1.7-1.2.3.5.9.8.8 1.9m.2-2.5v1.2c.2-.1.4-.3.7-.2-.2 1.4-2.1-.8-.7-1m3 3.4c-1.6-.4-2.6-.1-3-1.5.3.2.7.4 1 .7.3-.1.4-.4.7-.5-.6-.4-.9-.9-.5-1.7.4.1.2 2.1 1 1 .9.4-.6.5-.5 1 .6 0 .8-.4 1-.7.6.1.1 1.2.3 1.7m.2 0c0-1 0-2 .5-2.5-.4-.8-.3.8-1 .5-.5-.5-.1-1.4.2-1.7.3.2.9.2 1.2.5.2 1.3-.3 1.8-.2 3 .6-.5.4-1.9.7-2.7 1.9.3 3.5.7 5.4 1 .5-.1.5-.7.7-1 .2-.8-.7-.5-.5-1.2.9.9 2.7.8 2.5 2.7-.2.1-.4.2-.5.5-.9.1-1.1-.4-1.5-.7.3-.6.5-.8 1.2-.5-.2-.3-.5-.5-1-.5-.4.2-.5.6-.5 1.2-2 .1-3.2-.6-4.9-.7-.5.8-.5 1.9-1 2.7-.6.1-.8-.3-1.3-.6m6.9-.9c-.6.7-3.3-.2-4.4-.5 1.4-.8 2.9.5 4.4.5m-3.9 1.9c-.3-.8.1-.7-1.2-.5.2-.5.5-1 .7-1.5 1.1-.1.8.8 1.7.2-.2 1.3-.3 1.2-1.2 1.8m2-1.7c1.1.4-.3 1.2-.5 1.7-1.1-.3.3-1.1.5-1.7m.9.2c1.2.5-.4 1.7-1.2 1.7.4-.5.9-1 1.2-1.7m-.2 2c.8-.7 1.2-1.8 1.7-2.7.8-.2.5.7 1.2.5.9-.2 1.4-.8 1.2-2 .4 1.3 1.6 3.9 3 4.9-2.2-.4-4.9-.2-7.1-.7m7.9.5c-3.4-1.3-4.2-6.8-1-9.1 4-.1 7-.6 7.9 2.5.8 5.7-3.6 7.9-6.9 6.6m4.7 0c1-.4 1-1.7 2.2-2 .1.8.6 1.2 1.2 1.5-.7.6-2.1.5-3.4.5m3.4-.7c-.6-.6-1.1-1.2-1-2.5.6-.7 2.2-1 3-.2.6 1.4-.1 3-2 2.7m1.7.2c.5-.5.7-1.3 1-2 1.4 1.7 3 .3 4.7-.2.2.2.1.7.5.7-1.5 1.1-4.1 1-6.2 1.5m6.9-1.2c-1.2-.9-2.5-3.4-.7-4.4 2.3-.1 1.9 3.5.7 4.4m.8-.5c.5-.6.3-2 .7-2.7 1.1.3 3.4 1.5 3.7-1.2 1.4 1 3 0 3.2-1.5 1.2.7 2.8-.1 2.7-1.5 2.5.7 2.9-.5 2.6-1.7.1.7-.3 1.1-.8 1.7-1.9.4-2.4-1.7-1.5-2.7.8-.1 1.4 0 1.9.2-.7-.9-1.9-1.2-2.6 1-1.4-.6-3.1 0-3 1.7-1.3-.8-2.9.1-3 1.5-1.1-.6.8-1.8 0-3 9.8-3.6 18.3-8.4 26.8-13.3-7.3 10.1-17.2 17.6-30.7 21.5m4.6-6.4c.7-.3 1.5-.3 2.2 0 .8 1.6-.5 3.1-2 2.5-.6-.5-.5-1.8-.2-2.5m3.2-1.7c1.1-.1 1.8.1 2.2.7.1 1.5-.6 2.2-2.2 2-.8-.8-.8-1.9 0-2.7m31.3-29.1c-.4-.7-.8-1.3-1.2-2 1.5 3.3-.8 8.8-4.7 9.5 1 0 1.9-.2 2.4-.9.7 1.7-2.1 4.1-2.7 6.2-1.6-1.5-2.2-3.9-3.7-5.4.4 0 1 0 1.6.1-.7-.2-1.4-.5-2.1-1-2.8-2.6-3.4-8.9.7-10.6 2 .9 3.9-.4 5.7 0 .5.1 1 .3 1.4.6-.4-.4-.9-.7-1.4-.9a14 14 0 0 0 5.9-5.9c.3 3.3-1.2 7.1-1.9 10.3m-13.3 1c-2-2.9-3.9-5.9-5.4-9.4 2.7 1.4 5.2 3.1 8.4 3.9-1.1 1.8-2.9 2.8-3 5.5m13.5-9.4c-1.2 1.5-3.9 3.7-6.6 3.9-5.8.4-8.3-3.5-13.1-4.7 1.2 4.1 3.7 7.8 5.9 11.6 2.2 3.7 4.8 7.4 6.6 11.3-8.8 5.5-17.7 10.9-28.6 14.3-2.5-6.5-6.1-13.3-8.1-19.4.6-.1 1-.5 1.5-.7 3.2 5 5.2 11.4 7.9 17.2 8.7-3.4 16.6-7.7 24.4-12.1-3.1-6-7-12.1-10.6-18.2-1.1-1.8-3.3-4.1-1.2-6.4 6.4-.4 8.3 4.8 14.3 4.7 11.9-.3 10.1-28.8-3.4-23.4-3.3 1.3-7.5 5.5-10.3 4.9-4.7-1 2.2-11.1 3-12.6 2.3-4.4 4.1-8.2 6.4-12.3-6.7-5.4-15.3-9-23.6-12.8-3 5.5-5 11.9-7.6 17.7-.5.9.3.5.7.7-.8.4-2.3-.6-3.2-1 2.6-7.1 5.6-13.8 8.4-20.7 11.3 3.3 20.6 8.6 28.8 15-3.7 7.7-7.9 15-11.6 22.9 4.1-.7 6.2-4.1 10.1-4.9 11.9-2.4 16.2 16.8 9.9 25"/>
      <path d="M167.49 86.1c.5.5.9 1 1.3 1.6-.3-.6-.7-1.1-1.3-1.6m-3.4 11.2c-.8 0-1.6-.1-2.4-.1.9.2 1.7.2 2.4.1m-33.1 21s.1 0 0 0c.1 0 .1 0 0 0 .1 0 0 0 0 0m26.6-63.8c-.2-.3-.4-.6-.5-.9.1.4.3.7.5.9m-14.1 3.3c-.1 0-.1 0-.2-.1 0 .1 0 .1.1.2 0 0 .1 0 .1-.1m-4-14.5c0 .2.1.4.2.5-.1-.2-.2-.4-.2-.5m-71.3 26.4c.1.1.2.2.4.2v-.2h-.4m42.2 50.6c0 .1 0 .1-.1.2.1-.1.1-.1.1-.2m38.9-80.4c0 .1 0 .1 0 0 0 .1 0 0 0 0m-29.8-13.1c0 .3 0 .6.1.8 0-.2 0-.5-.1-.8m18.4 3.9c-.1.3-.3.6-.6.7.3-.2.5-.4.6-.7m-58.3-14.9c-.8.8-.4 2 1.2 1.7.1-.2 0-.5.2-.5.2-.9-.4-1.3-1.4-1.2m0 1.5c-.1-.6 0-.9.2-1.2.6 0 1 .4 1 1-.2.2-.6.3-1.2.2m37.7-.2c-.1.4.1 1.1.7 1.7.9.9 1.3.8 1.7.7 4.2-.6-1.3-6.9-2.4-2.4m3 1.9c-2.5 1.5-3.3-2.4-1.5-3 1.8-.4 3 2.1 1.5 3m-17.8-2.2c-.4.8-.1 1.6 1 1.5.1-.4.4-.6.5-1-.4-.2-.6-.7-1.5-.5m.8 1.3c-.3-.1-.4-.4-.7-.5.1-.4.4-.6 1-.5 0 .5-.2.6-.3 1m20.4 3.2c-.5-.1-.6-.5-1.2-.5-1.8 1.3 1.5 3.2 1.2.5m-1.5.9c-.1-.5.2-.7.2-1 .5-.1.7.2 1 .2 0 1-.5 1.1-1.2.8m38.4-1.4c-.6.5-.6 1.2 0 1.7 1.3.1 1.3-1.8 0-1.7m-.2 1c.1-.4.4-.6 1-.5v.7c-.5.1-.7-.2-1-.2m-25.9 7.6v.3c0-.1.1-.3 0-.3.1-.1.1 0 0 0"/>
      <path d="M134.59 29.3c.7-.7 1.7-.7 2.1.3.1 1.6-2.2 1.5-2.2.1-.1.9.5 1.9 2.2 1.2.1-.6.4-.9.2-1.7-1-1.3-1.9-.8-2.3.1m-40.9.8c-.4-.4-1-.6-2-.5-2.2 2 2.6 4 2 .5m-.3.5c-1.6 3.8-2.7-2.7 0 0m8.4 1.7c.1-.8-.2-1.1-1-1-.1.8.2 1.2 1 1m-30 9.6c.6.1 1.1.4 2 .2 2.2-2.5-3.5-3.4-2-.2m1.9-.2c-1 .7-2.2 0-1.7-1.5.3 0 .4-.1.5-.2 1.1-.1 1.3.6 1.2 1.7m57.4 2c-.9-.7-1.9-.9-2.7 0-.6 2.8 3.2 2.7 2.7 0m-.7 1.7h-1.3c-2-2.4 3.3-2.4 1.3 0m29.5 2c-3.5 2.8-.7 8.3 3.7 7.6 6.6-1.1 2.5-12.6-3.7-7.6m2.5 7.3c-5.4-.3-4.4-10.7 2.2-7.9 3.8 1.7 2.1 8.2-2.2 7.9m-49.8 18c-.8.1-1.4.4-2.5.2-2.4-1.7.7-5.6 2.5-3-2.8-4.4-6.2 4.7-.2 3.4.5 1.2 1.2 2 2.5 2 .9 0 1.2-.6 1.7-1.3-1.5 1.3-3.8 1.2-4-1.3m-.7-13.2c-.7 0-1.3.1-2 .1.8.1 1.5.1 2-.1"/>
      <path d="M140.19 67.8c-.7-6.3-4.9-12.3-8.4-15.3-4.5-3.9-11.6-7-20.9-5.9-.6.1-1-.1-1.5 0-10.5 1.8-19.4 10.9-20.4 22.4-1.5 15.9 9.8 25.8 20.7 27.8 17.2 3.3 32.6-11 30.5-29m-6.6-12.3c-2.9.5-6.3.1-8.9.5 1.4-1.1 3-4.6 1-6.2 3 .6 5.7 3.5 7.9 5.7m3.2 12.5c-.8-4.7-3.1-9-4.9-11.8 4.3 2.8 6 9.1 6.2 15.3-2-.3-1.1-2.3-1.3-3.5m-1.8-.2c-.9-4.4-2.2-8.8-4.9-11.6 4.4 2.5 5.8 8 6.4 14.3-2.1.2-1.3-1.6-1.5-2.7m-1.7-1.5c-.6-4.4-2.7-7.5-5.2-10.1 3.5.9 5.8 6 6.4 10.1.1 1 .7 3.1-.5 3.7-1.1-.9-.5-2.5-.7-3.7m1.2 16.3h.7c.1.9.6 1.6-.7 1.5.2-.9-.4-1.1 0-1.5m-3.6-.8c0-.7.5-1 .5-1.7 1.2.9 3.3.4 4.7 0v1.7c-1.2.7-4.2.8-5.2 0m1.4.8v1.2h-1c-.1-.6 0-.9.2-1.2h.8Zm-1-3c.2-2.3 1.5-6.1 3.9-3.9 0 1.4.6 2.4.5 3.9-1.1.9-3.2.9-4.4 0m-.2-.5c-5.9-5.3 6.1-10.1 6.4-3 0 1.2-.5 1.8-1 3-.1-5.6-5.3-5.6-5.4 0m-.2 3.2c.6.1.1 1.2.2 1.7.4-.1.4.2.7.2.9.1.7-.9 1-1.5.6.3.1 1.5 0 2-1 0-2.1.1-2.5-.5 0-.8.3-1.3.6-1.9m-11.4 9.9c.1-2.3.5-4.7 0-7.4 6.6.9 8.5-6.9 2.7-7.9-3.3-.6-8.8-.1-12.6.2-2.7.2-4.7 1.3-5.4 2.7-.4 4 2.3 4.9 5.7 5.2-.1 2.8.5 4.9.7 7.4-4.3-.6-7.2-2.6-10.1-4.7.1-2.5-1.8-4.2-1.2-6.4.5-.5 1-.2 1.2.2-.2-2.1 2.2-4.5 1-7.6-.8-1.9-3.1-2.3-3.7-4.4 1-.3 1.2 1.5 3 2.2 3 1.1 8.4.7 7.1-2.2-1.6-1.2-6.2.3-6.9-2.5-.8-6.2 3.8-7.1 8.9-7.5-.8-.1-1.5-.2-2-.2-3.9.3-7.5 2.1-7.4 6.2.1 3.7 3.1 3.7 7.1 3.9-.2 3.5-5 2.6-6.6 2-6.1-2.3-2.4-14 3.4-15.3 1-.2 3 0 4.7 0 1.4 0 3.5-.5 3.9.7-6.9.2-14.7 2.3-14.3 9.1.2 3.1 3 5.7 7.9 4.4-3.4.3-6.7-.4-7.4-3.2-1.6-6.8 7-10.9 13.8-9.4-.1.9-.6 1.4-1.2 1.6.6 0 1.1 0 1.7-.1.4-1.3-1.2-3.3.7-3.2 1 .3.2 2.4.7 3.2 6.4-1 14.2.2 12.8 8.1-1.3 1.6-5.4.3-6.6 2-.4 1.1.9 1.7.2 2.2-1.2.4-.6-1.1-.7-1.5-.5-1.1-1.4-1.5-3-1.5-.6.2-1 .6-1.2 1.2 1.7-2.5 5.6.5 3.2 2.7-1-.3-2.1.6-2.2-.2 0 .4-.2.7-.4 1 .1-.1.2-.2.4-.2.5-.3 1.2.1 1.7 0 1-.3 1.7-1.3 2.7-1.5 1.9-.2 3.7.9 5.7-.2-1.4-.4-6.6 1.7-5.9-2 2.1-1.3 5.9 0 6.6-2.2.7-1.9-.6-4.7-1.5-5.9-2.3-3.2-8.1-2.5-11.6-2.2v-1c8.1-2.3 15.4 1.5 13.9 9.9 1.4-3.3-.5-8.9-4.8-10.3-2.9-1-6.3.6-9.4-.7.9-1.4 2.7-.7 3.9-.7 4.9 0 8.5.7 10.6 4.2 2.1 3.6 2.8 10.1-1.7 10.6 1.5.9 2.7-1.7 3.4-1.5-1.7 2.1-4.4 3.2-4.4 6.6 0 2.7 1.8 4.3 3.4 6.2-.1 6.5-5 8.4-10.5 9.9m7.2-2.5c-.1-.6.7-.3.7-.7.8.4-.3 1.4-.7.7m-11.1 3.7c-.8-.3-.2.8-1 .5-.3-.3-.3-.9 0-1.2-.7 0-.5.4-1 0 .4-1.2-.2-.8-.2-2 .8 0 .7-1 1-1.5 1.8.5 1.1 3.5 3.7 3.2-.1.6-1.3 3-1.5 1.2-.4.1-.1.7-.5.7-.8.2-.9-.5-.5-.9m0 1.7c-2-.1-2.9-3.5-3.4-5.9h1.7c-1.9 2.2.1 4.9 1.7 5.9m1-3.2c-2-1.4.4-4.2 2.2-2.5.4 1.6-.2 2.8-2.2 2.5m-2.5-6.6c.7.2.4 1.4 1 1.7 1.7.3 3.8 0 4.4 2.2-1.8-1-9-.7-5.4-3.9m4 1.5c.2-2-.2-3.6-.7-4.9 1.7-.1 3 4.6.7 4.9m.7-4.5h1v2c-.7-.4-.7-1.3-1-2m-1.2 4.2c.1.9 1.4.4 2 .2-.1 2.4-2.3-.5-3 0-.1-1.2.1-4-1.2-4.7 2.1-.9 2.8 2.7 2.2 4.5m-2 .3c-1.3-.7-.5-3.6-1.5-4.7 2.3-.5 2.5 3.4 1.5 4.7m4.4-4.7c.7 0 1.4-.1 1.7.2V84c-.8-.2-.9.3-1.5.2-.3-.3-.1-1.4-.2-2.1m2 0h1.5v1.7c-.7-.2-.6.3-1.2.2-.4-.3-.3-1.2-.3-1.9m3.2-2.2c-.1 1 .3 1 0 1.7-.6-.7-1.7-.8-2-1.7h2Zm-3.2-.3c-.2-1.2-.1-1.1-.2-2.2 1.8-.6 2.1 1.2 1.5 2.2h-1.3Zm1.7-1.7c.8.3 1.5.7 1.5 1.7h-1.2c-.4-.3-.3-1.1-.3-1.7m1.2 4.4c.1.8-.7.7-.7 1.2-.4-.2-.5-.8-.5-1.5.4.2 1.3-.2 1.2.3m-3.4-4.9v2.2h-1.5c0-1.1-.5-1.4 0-2.5.8-.1.9.3 1.5.3m-2 0v2.2h-2v-2.2c.7-.3.9-.1 2 0m-4.2 0h2v2.2c-.9-.2-.9.4-1.7.2-.4-.4-.2-1.6-.3-2.4m-2.2 0c.7 0 1.6-.1 2 .2 0 .8.2 1.8-.2 2.2h-1.5c-.5-.4-.2-1.6-.3-2.4m-.2 2.5h-1.7c-.6-1-.5-3.2 1.5-2.5.4.5.1 1.6.2 2.5m-2.2-2.3v2.2h-1.7c-.2-.6-.3-1.3-.2-2.2h1.9Zm-2.3 0v2.2h-1.7v-1.7c.6-.2 1-.5 1.7-.5m-3.4 4.5c-.4-.2-.3-1-.5-1.5.4-.4 1.4-.2 2.2-.2-.4.7-1.4.8-1.7 1.7m1.7 1.7c-1 0-1.9-.9-1.5-1.5.7.4 1.9.1 1.5 1.5m-.2-3.9c-.4.1-1.3-.3-1.2.2-.8-.7.7-1.3 1-1.7.5 0 0 1 .2 1.5m1.9 4.6c-.8.2-.7-.4-1.5-.2v-1.7c.8.2.7-.4 1.5-.2 0 1.1.3 1.1 0 2.1m.5-2.2h1c.6.6 0 1.7 0 2.5-1.3.2-.9-1.4-1-2.5m-7.1 7.9v-1c.4 0 .5.3 1 .2.1.7-.5.7-1 .8m-5.2-5.4c.2-.9-.4-1.6 0-2 .4.2.5.6.5 1.2h1c.8-.1-.4-2.2.7-2 .1.7.4 1.3.5 2-.6.6-1.4.9-2.7.8m1.8.2c.1.6.4.9.2 1.7-.9.1-1.5.6-2.7.5-1.1-1.7.5-2.6 2.5-2.2m-5-2.7v-1.7c2.1 1.3 5.1-2.2 4.9 1.2-1.2.7-3.2 1.1-4.9.5m1.8 1.7c-1 .3-1.2-.8-.7-1.2.7-.1.7.5.7 1.2m-2-4.4c-4.8-3.4 1-9.7 4.9-6.2 1.3 1.2 1.7 4 .2 5.7-1.3-1-.6-3.2-2-3.9-2.2-1.2-3.7.9-3.1 4.4m3.9 3c.3 0 .4-.1.5-.2.7 0 .7 1.7-.2 1.5.1-.7-.5-.6-.3-1.3m.5-12.1c-2.4-1.5-1-6.3 0-8.6 1.3-3.1 3.2-5.4 5.7-5.7-4.1 2.6-6.7 8.2-5.7 14.3m-6.1.5c-.1-6.5 1.9-11.1 5.2-14.8.4 1.4-1.2 2.8-2 4.4-1 2.1-1.5 4.5-2 7.4-.2 1 .7 3-1.2 3m2.2-6.4c.8-3.4 2.5-7.7 4.9-8.1.5.8-.8 1.3-1.2 2-.9 1.3-2 3.8-2.5 5.7-.5 2.1.2 4.6-1.2 6.2-1.2-1.3-.4-4.1 0-5.8m1.2 2.5c.2-4.2 2.6-8.3 4.9-10.8h1.2c-3.4 3.1-4.9 7.5-5.4 13.8-1.3-.6-.7-2.2-.7-3m23.4-15.3c-1.6 1.1-5.2.2-7.6.5v-1.2c1.8.5 6.3-1 7.6.7m-7.1-2.5h1.5c.3.3.3.9.2 1.5-.6-1.3-1.2-.9-2 0 0-.6 0-1.2.3-1.5m3.9 1.5c-.2-1.7-1.3-.6-1.7 0 0-.6 0-1.2.2-1.5 1.3-.5 2.8 1 1.5 1.5m-1.5-2c0-1.2.5-1.2 1.5-1V49c-.8-.3-1 .2-1.5-.2m4.5.8v1.2c-.5-.9-1.5-1.5-1.7 0-1.7-1 .7-2.5 1.7-1.2m2.7 6.1c-.8.6-2.7.1-3.9.2.4-1.2 1.5-1.7 1.5-3.4.8 1 1 2.7 2.4 3.2m-2.7-2.9c.1 4-7.3 4.4-7.1 0 2.6-.1 4.6-.5 7.1 0m7.3 3.4c4.2.5 6.7 4.9 7.4 9.6.2 1.2 1.1 3.8-.7 4.2-.6-6.2-2-11.3-6.7-13.8m.5-5.9c1 3.3-.8 5.8-3.4 5.7-6.8-.3-1.7-11.8 3.4-5.7m-3.7-2.2c-1.4.8-3 1.4-3.4 3.2-.8-.7-.1-3-2.2-2.5.1-.7-.1-1.3-.5-1.5 2-.7 4.3.5 6.1.8m-8.8-1.2c.9 0 1.8 0 2.5.2.2.6.3 1.3.2 2.2-.9-.3-.2-2.3-1.7-2-1 0-1.1.9-1 2-1.3-.2-.5-1.9 0-2.4m-.8.2c-.1.6-.4 1.1-.2 2-3.8-.6-1.3 5.7-.7 6.9h-4.2c3.1-1.3 3.3-7.3-.7-7.6 1.8-1.1 3.2-1.3 5.8-1.3m-9.3 2.2c2.2-2 7.3-.4 6.2 4.2-2.5 5.6-10.2-.6-6.2-4.2m-1 .8c-.6 1.8 0 5.2 2.2 5.7-2.5.6-6.2.1-9.1.2 1.7-2.6 4.2-4.4 6.9-5.9m-6.9 6.4c.2 1.2-1.6 2.6-2.5 4.4-1 2.2-2 5.5-2 8.6 0 1.3.2 2.4-1 3.2-.8-6.7 1.9-13.2 5.5-16.2M89.69 74c1.1-5.1 10-4.5 11.6.5.7 2.2 0 4.8-2.2 6.9-1.4-2.1 1.1-4 .5-6.2-1-4-9.7-4.2-8.6 2.2.3 2.1 2.4 1.7 2.2 4.7-2.4-.9-3.9-6-3.5-8.1m3.5 9.8c-.8-.1-.9-.9-1-1.7.6.3 1.2.5 1 1.7m.7-8.1c2.6-1.6 3.9 2.3 3.7 4.2-1 .4-2.9.8-4.2.2 0-1.7-.1-3.4.5-4.4m-.5 7.1c.9-.2.3 1 .5 1.5h1.2c.6-.1 0-1.3.5-1.5.8 0 .6 1.8.2 2.2h-2.2c-.3-.4-.1-1.4-.2-2.2m.5 2.5h1c.2.6.6 1.1.5 2-.7-.5-1.3-1-1.5-2m4 4.7c-.6-.2-.7-.8-1.2-1 0-.2.3-.2.5-.2-.6-.3-1.3-.5-1.7-1 1.7-.3 4.8-.4 3.2-2.7 1.1-1.3 1.6 1.1 1.5 2.5-.9.2-1.4.9-2.7.7.8.2.6.7.4 1.7m.5.7c-.3-1.9.5-2.7 2.5-2.5 1.9 1.6-.9 4.6-2.5 2.5m2.9 2c-.5-.1-.8-.5-1.2-.7.2-.4.8-.4 1.2-.5v1.2Zm.3-1.5c.5-1.5 2.6-1 3.9-.2.9.5 1.3.7 1.5 1.2 1.2 3.9-6.6 2.2-5.4-1m4.4 3.9c.1-.3.4-.4.5-.7.6-.1.6.5.7 1-.7.2-.6-.4-1.2-.3m1.7.5c-1.6-2.3 1.5-4.2 3-2.2.5 2.2-1.3 2.9-3 2.2m2.7.8c-.4-.8 1.3-1.9.5-3.2.2.3 1.9 2.4 2.4 3.4-.7-.3-1.8-.2-2.9-.2m4.5.2c-4.5-.3-5.1-10.2-4-15.3-.4 1.5-3.7.3-4.9 1.1-.8-.8 1.1-2 2-2.2 2.1-.5 7.9.3 11.6 0 1.4-.1 4.8-.1 4.9 1.7-3.9.2-7.4-.5-10.8 0 .2.9.9 1.4.7 2.7-.3 1-1.6.8-1.7 2-.2 2.1 2.1 1.9 3.7 2.2-.4 1.3-2.5-.1-3.9 0-.8-2.6-.3-4.1 0-7.4-1.6 4.8-.6 11.9 2.5 14.3 2.4-.5 3.4-2.4 4.2-4.4-.1 2.3-2.1 5.5-4.3 5.3m1.9-.2c.5-.8 1.3-1.2 1.5-2.2.8.3.8 1.3 1.2 2-1-.1-1.5.3-2.7.2m3.7-.5c-1.1-.1-1.9-1.4-1.2-3 3.5-2.3 4.2 3.3 1.2 3m1-3.7c.1-.4.7-.1.7-.5.3.1.2.6.2 1-.6.1-.4-.5-.9-.5m1.2 2.9c-.1-.5.2-.7.2-1 .3.1.4.4.7.5.1.5-.3.6-.9.5m0-2.2c-.2-1.4.9-2.1 2.7-2.5 1.3-.2 2.2-.8 2.7.7.8 2.6-5 4.5-5.4 1.8m8.4-2.7c-.9 2.7-5.2-.6-2.2-2 1-.4 2.7.3 2.2 2m.7-.2c-.4-.3-.5-.8-.5-1.5.8-.2.9.3 1.5.2-.1.6-.8.7-1 1.3m-2.2-2.3c-.2-1.3.3-2 .5-3 .4-.1.4.2.7.2.1.8-.4.9-.2 1.7.5.9 2.3.5 3.2 1-.8 1.3-2.9.1-4.2.1m4.2-.5c-1-.1-1.9-.2-2.7-.5-.1-.8.2-1.1.2-1.7 1.2.2 1.6-.2 2.7.2 0 .8.2 1.7-.2 2m1-.4c-.6-.4-.3-1.9.7-1.5-.1.6-.7.7-.7 1.5m1-1.8h-2c-.4-.4-.2-1.4-.2-2.2 1-.1.2 1.4 1 1.5 1.1.2 1.4-.4 1.2-1.5.4-.6.4 2 0 2.2m1-1.4c-.4-.2-.4-.8-.5-1.2.3-.2.7-.4 1-.7.5.3-.4 1.3-.5 1.9m0-2c-1.5-1.9.6-2.6 1-4.2 1.3-5.5-7.8-7.7-8.6-2-.4 2.9 2 3.1 1.5 5.7-2.5.2-4.4-5.2-2.2-8.4 2.8-4.1 10.5-2.6 11.1 2 .2 2.5-1.3 5.6-2.8 6.9m2.9-8.1c-.8-.2-.9-1.1-1.5-1.5.2-7-1.8-11.9-5.2-15.3 0-.3.1-.4.2-.5 2.2.5 3 3.2 3.9 5.2 1.8 3.6 2.8 7.7 2.6 12.1"/>
      <path d="M116.49 74.2c.3-.2.5-.4.7-.7-.3.2-.5.4-.7.7m12.6-5.7c0-.2.1-.3.1-.5-.1.3-.3.6-.4.8.1 0 .2-.2.3-.3m-.3.3c-1.5 1.2-3.4.9-5.6 1.4 2.8.8 4.6.1 5.6-1.4m9.4-19.7c-1.1.6-2-.2-1.7-1.7-2.1 1.3 3.9 4 1.7-.5-.6.1-1.1.2-1.4.3 1.2-.4 2.2.7 1.4 1.9"/>
      <path d="M136.49 47.4c.1 0 .2-.1.3-.1-.1-.1-.2 0-.3.1m-53.4 0c-.9-.6-2.3-.1-2.7.5-.2 1.1.4 1.4.7 2 1.9.3 2.7-1.1 2-2.5m-.3.2c.7 4.5-4.8-1 0 0m-13 5.7c-.9 1.3-1.9 2.3-3.1 2.6 2.1-.3 4-1.8 3.6-4.8-.4-2.9-3.7-4.1-6.1-3.1.1 0 .1 0 .2-.1 3.5-.9 5.9 1.4 5.4 5.4m-5.8 2.3c-2.4-1.3-2.8-5-1.1-6.8-.2.2-.3.4-.5.6-2.2 3.1-.7 5.3 1.6 6.2m0 0c.1.1.2.1.4.2.9.3 1.6.4 2.3.1-.9.1-1.8 0-2.7-.3m97.6-7c-2.5 1.4-.9 4.9 1.7 4.4 2.9-.5 1.7-6.3-1.7-4.4m-1 2.5c-.3-1.8 1.5-3.3 3.7-2 2.2 3.4-3.1 5-3.7 2"/>
      <path d="M68.29 50.8c-.4-1.4-2.3-1.8-3.7-1-1.4.8-1.4 1.6-1.2 2.5.4 2.9 6.2 2.5 4.9-1.5m-4.2 2.5c-.3-.7-.3-1.7-.2-2.7 4.5-4.2 5.4 6.1.2 2.7m40.7.7c2.1 1.3 3.7 0 3.7-2 0-2.3-1.9-2.5-3.4-1.9.1 0 .1 0 .2-.1 1.5-.4 3.4.5 2.5 3.4-2 2.6-5.1-1.4-3.3-3-1.3.9-1.7 2.4.3 3.6m-22.7 2v-1.7c-3-2.2-2.9 3.8 0 1.7m-.2-.3c-.3.3-.9.3-1.5.2-1.8-1.5 2-3.1 1.5-.2m19.9 9.4c1.6 4.4 9.6 4.5 11.1-.2-1.2-4.1-10.3-4.5-11.1.2m.5.2c.1-4.6 9.9-4 10.1-.5.3 4-9.1 4.4-10.1.5m15-.2c1.3 2 7.2 2.2 7.9-.5-1.1-2.6-7.4-2.7-7.9.5m.3 0c.3-1 1-1.6 2.2-1.7-.7.8-.4 1.8 0 2.7-1.3.1-1.3-.9-2.2-1m4.4 1.2c-2.1.6-3.3-2-1.5-3.4 3.2-.6 3.3 2.9 1.5 3.4m1-.2c.3-.4.9-1.7.2-2.2 2-.6 1.9 2.1-.2 2.2"/>
      <path d="M103.49 65.1c.5 1.2 1.8 1.6 3.2 2-1.6-1-1.6-3.7.2-3.9 2.7-.4 2.3 3.6.3 3.9 1.9-.2 3.7-.5 4.1-2.2-1-2.5-7.1-2.9-7.8.2m2.2 1c-1 .1-1-.2-2-1 .2-.9.9-1.4 2-1.5-.4.5-.8 2 0 2.5m3 .5c.6-.6.6-2.3.2-3.2.9.3 1.5.9 2.2 1.5-.5.8-1.2 1.5-2.4 1.7m50-3c-.8-.4-1.6-.1-2 .5 0 .6.4.8.5 1.2h1.2c.5-.7.4-.7.3-1.7m-1.3 0c.4 0 .5.3 1 .2.5 2.2-2.1 1-1-.2m-87.1 2.5c.1.7 1.4 1 2 .5v-1.2c-.8-.8-1.9-.5-2 .7m1.7.2c-.6.6-1.5.1-1.2-1 .8-.1 1.4.1 1.2 1m80.5-.2c-.4-.7-2-.7-2.5 0-.3 1.6 1.1 2 2.2 1.5.1-.6.5-.8.3-1.5m-1.7 1.4c-.5-.7-.5-1.1 0-1.7 1.9-.3 1.7 2 0 1.7m-.2 3.5c.3-1.1 2.1-.8 1.7.7-.2.3-.9.3-1.3.2.5.7 1.4.9 1.6-1.4-1.7-.8-2.1-.2-2 .5"/>
      <path d="M150.59 71.7c.1.1.2.2.4.2-.2-.31-.33-.65-.4-1-.1.3-.1.5 0 .8m-71.9-.5h-1.2c-1.4 1.1.2 3.1 1.7 2 .1-.9-.1-1.6-.5-2m-1.3 2c.1-.6-.5-.5-.2-1.2.3-.1.4-.4.7-.5.6 0 .8.4 1 .7 0 .8-.6 1.1-1.5 1m74.8 3.2c-.5.1-1.1.1-1.4-.2-.2-.7.3-.6.2-1.2.7-.3 1.5-.1 1.5 1 .5-.7.3-1.6-1.7-1.2-.4 2.2.6 2.2 1.4 1.6"/>
      <path d="M152.19 76.4c.2 0 .3-.1.4-.2V76c-.2.1-.3.2-.4.4m-74.8 1.2c.1 0 .1 0 0 0 0-.1-.1-.2-.2-.4.1.2.1.3.2.4"/>
      <path d="M79.09 76.2c-2.2-1.1-2.4.2-1.9 1.1-.1-.3-.1-.7 0-1.1.8-.4 1.1-.1 1.7.2.1 1-.4 1.3-1.4 1.2.5.6 1.4.7 1.6-1.4m-33.4 6.6c.3-1.4 3.2-1.4 2.7.7-.1.8-1.3.5-1.5 1.2 2.4 0 2.3-4.1-.7-3.2-1.1.5-.7 3.4.5 2.7-.8 0-.8-.8-1-1.4"/>
      <path d="M47.59 82.3h-1.2c-.7 1.2.6 2.2 1.5 1.2.4-.4-.1-.7-.3-1.2m0 1.3h-1v-1c.8-.1 1.1.2 1 1m102.7 4.4c-.2-.9-.9-1-1.7-.7-3.5 1.2 2.5 4.3 1.7.7m-1 1.5c-.9.1-1.1-.4-1.5-.7.1-2.8 3.5-.6 1.5.7m-66.2-1.3c-1.2-.6-2.7-.1-2.2 1.7.5.1.7.6 1.5.5.8-.4 1-1.1.7-2.2m-1 2c-1.8-.1-.7-2.9.7-1.7.2.9-.1 1.5-.7 1.7m-10.8 3c.1-2.8-1.7-4.1-3.7-4.4.7.1 1.3.4 1.9.9 4.5 3.5-1.3 8.4-4.8 7.2 2.7 1.5 6.4-.1 6.6-3.7m-8.2 2.2c-.1-.2-.3-.4-.4-.6.4 1.2 1.1 1.8 2 2.1-.6-.4-1.1-.9-1.6-1.5m2.4-6.5c-2.5.6-4.4 2.7-2.7 5.8 0-.1-.1-.2-.1-.4-.7-2.5.8-4.7 2.8-5.4m2.1-.1c-.7-.1-1.5-.1-2.1.1.7-.1 1.4-.2 2.1-.1m93.5 1.9c.1-1.3 1.4-2.5 3.2-1.7-2.8-1.4-3.8.9-3.2 2.7v-1m.8 2.3c-.4-.3-.6-.8-.8-1.3.1.7.4 1.1.8 1.3m0 0c.6.5 1.4.8 2.4.4.8-.2 1.5-1.4 1.3-2.6-.2 1.4-2.5 2.8-3.7 2.2m2.4-4c.9.4 1.3 1.1 1.3 1.8.2-.7-.1-1.3-1.3-1.8m-79 .5c-.1.6 0 .9.2 1.2 1.2.1 1.4-1.6-.2-1.2m33 .2c-1.4-.9-2.6.7-1.5 1.7 1.3.2 1.6-.5 1.5-1.7m-1.2 1.5c-.1-.2-.2-.4-.5-.5 0-.7.4-1.1 1.2-1 .5.6.1 1.5-.7 1.5"/>
      <path d="M64.89 90.9c-2 1.9-.6 5.4 2.5 4.9 4.5-.6 1.1-8.4-2.5-4.9m.7 4.5c-2.6-1.8-1.1-5.7 2-4.9 2.5.6 2.4 5.9-2 4.9m27.8-2c-.1.6 0 .9.2 1.2 1.3.1 1.4-1.6-.2-1.2m3.7 3.9c-.8 2.4 2.4 2.5 2.5.7-.2-1.1-1.6-1.5-2.5-.7m.5 1.8c0-.6-.4-.7-.2-1.5.3-.3.9-.3 1.5-.2.6.7.1 2.1-1.3 1.7m55.7-1.8c0 .6.4.8.5 1.2 2.7.4.8-2.9-.5-1.2m1.4 1c-.5.1-.7-.2-1-.2-.1-.5.2-.7.2-1 1 .1 1.1.5.8 1.2m1.3 2.5c-.9.9-.5 2.1.7 2.2 2.7.2 1.1-4.1-.7-2.2m1 2c-3.8-2.1 3.1-2.8 0 0m-33-2c-2.1.9-4.7 1.3-7.6 1.5.1 3.3.5 4.8.5 7.1 4 .1 7.1-.7 9.8-2-1-2.1-1.4-4.8-2.7-6.6m0 .7c.1 1.4-.4 2.4-1.7 2.5 0-1.4.2-2.5 1.7-2.5m-6.9 1.3c1.4 0 2.1.7 2.5 1.7-1 .4-2.7-.2-2.5-1.7m.5 6.4c-.8-1.2.6-2.1 1.7-2.2 0 1.3-.6 2-1.7 2.2m1.4-.3c.2-.7.5-1.3.7-2-1.1-.8-1.6.6-2.7.5V104c.5.5 2.1 1.7 2.7.5.2-1.3-1.1-1-1.2-2 1.4-.2 2.6-.6 3.9-.7-.4.6-.6 1.4-.5 2.5 1.6.3 1.4-1.2 2.5-1.5.2 1.2 1 1.8 1 3.2-.7-.6-2.1-.6-2.7 0 .3.9.8 1.5 1.7 1.7-1.3.8-3.5.9-5.4 1.2m4.2-2.9c1.4-.2 2.3.2 2.7 1-.5.9-3 .3-2.7-1m-48-3.7c-.9-1-2.8-.4-2.2 1.5.8.4 1 .4 2 .2 0-.6.3-.9.2-1.7m-1.7 1.4c-1-1 .4-2.4 1.5-1.5.2 1.3-.3 1.8-1.5 1.5m32.5-2.4c-.5 2.5-1.7 4.3-2.2 6.9 3 .7 5.9 1.5 9.6 1.5v-7.4c-3 .2-5.1-.5-7.4-1m6.6 1.5c.2.3.3.7.2 1.2-.7.3-1.9.9-2.5.5.4-1 1.1-1.7 2.3-1.7m-6.1-1c1.3 0 1.3 1.4 1.5 2.5-1 .6-2.2-1.5-1.5-2.5m-2 6.1c0-1.4 1.3-1.5 2.5-1.7.1 1.7-1.3 2.1-2.5 1.7m7.9 1.3c-1.2-.1-1.7-.9-1.7-2.2 1.2-.1 2.4 1 1.7 2.2m.5-1.5c-.6-.3-.9-1-1.7-1.2-.7-.2-.5.5-1 .5 0 .9.8 1.1.7 2.2-1.5-.3-3.2-.4-4.7-.7.3-.7 1-1.1 1.2-2-.6-1-1.8-.1-2.7 0 .2-1.1.7-1.9 1-3 1.1 0 .8 1.5 2.2 1.2.7-.5 0-1.8 0-2.5 1.2 0 2.2.3 3.2.5-.3.6-1 .8-1 1.7 0 .2.2.2.2.5.9-.1 1.9-.1 2.2-.7.7.7.2 2.4.4 3.5"/>
      <path d="M109.89 105c-1.6-1-2.9.8-1.7 2 1.6.3 2.1-1.1 1.7-2m-1.5 1.7c-.4-.3-.4-1.4 0-1.7.8-.1 1 .3 1.2.7 0 .7-.3 1.1-1.2 1m11.6-2c-.2 1.3.2 2 1.2 2 2.1-.6.2-3.5-1.2-2m.5 1.5c.1-.6-.5-.5-.2-1.2.3-.3.9-.3 1.5-.2.4.8 0 1.6-1.3 1.4m14.5.7c.8.7 1.8.4 2-.7-.4-1-2.3-1-2 .7m1.5 0c-.6.1-.9 0-1.2-.2 0-.6.4-1 1-1 .2.3.3.7.2 1.2m-44.1 6c.4.4 1 .6 2 .5 1.8-2.2-2.3-3.9-2-.5m1.8.2c-1.4.2-1.7-.8-1.2-1.7h1.5c.1.9.1 1-.3 1.7m-27.4 4.8c-.1 0-.1-.1-.2-.1 0 .1 0 .1-.1.1h.3m-.7.2c-.4.3-.4.8.7 1.4.2-.2.3-.3.4-.5-.6.3-1.1 0-1.1-.9m0-.1s0 .1 0 0h.1-.1m.1 0c.1 0 .2 0 .3-.1-.1 0-.2.1-.3.1m1.1 1c.5-.8 0-1.1-.5-1.1.3.2.6.5.5 1.1m74.1-1c-.1 1.1.4 1.6 1.5 1.5 1.2-1.1-.4-2.7-1.5-1.5m.5 1.3c0-.4-.3-.5-.2-1 .3-.3.9-.3 1.2 0 .1.7-.2 1.1-1 1m-46.5 1.9c-.2-1.7-2.6-2.6-4.2-1.2-1.8 4.6 4.5 4.6 4.2 1.2m-2.5 2.2c-3-.2-1.4-5.4 1.2-3.7 1.7 1.1.6 3.9-1.2 3.7m35.5-2.9c-.5-.4-1.2-.6-2.2-.5-.1.3-.3.6-.5.7-.4 2.6 3.4 2.5 2.7-.2m-2 1.7c-1.3-1.5 1.3-2.9 1.7-1.2.2 1.1-.6 1.3-1.7 1.2m-13.2-.5c.3-.2.6-.4.9-.5-.4.1-.7.3-.9.5"/>
      <path d="M114.09 121.2c5.3-1.5 5.2 6.4 1 6.2-2.4-.1-3.7-4.1-1.9-5.6-2.3 1.7-1.4 5.6 1.7 5.9 5.2.5 4.7-8.5-.8-6.5m8.6-.2c-1.2-.1-1.8.5-1.7 1.7.6.7 1.2.7 2.2.2.1-.9-.1-1.5-.5-1.9m0 1.9c-1.3.2-1.6-.7-1.2-1.5.9-.5 2 .6 1.2 1.5m11.8-.4c-1.2-.9-2.7.6-1.5 1.5 1.2.1 1.7-.4 1.5-1.5m-.5 1.2c-.9.2-1.1-.4-1-1.2h1v1.2Zm9.7 7.1c.2-.3.3-.7.2-1.2-.5.1-.5-.3-1-.2-.1.3-.3.4-.5.5.1.6.5 1 1.3.9m-17 6.7c-.1-1.5-1.6-1.7-2.5-1-2.5 2 2.7 4.2 2.5 1m-2.5 1.2c-1.4-1.9 1.5-3.1 2.2-1.5.1 1.4-1.1 2.1-2.2 1.5"/>
      <path d="M125.89 137c-1.7-1.2-2.5 1.9-.2 1.5.3-.3.3-.9.2-1.5m-1.2 1.2c-.3-.3-.3-.9 0-1.2.4 0 .5.3 1 .2.1.8-.2 1.1-1 1m-17-.7h-.5c0 .4 0 .9-.5.7-.2-.7.5-.5.5-1-1.1-.5-3.1-.4-3.4.7 1.3.7 3.3 1.1 4.2-.2-.2 0-.3 0-.3-.2m-1.7 1c-.6-.3-.8-.5-.5-1.2h1c.2.7-.4.7-.5 1.2m-8.1-111.6v1h1c.1-.8-.3-1.1-1-1m-7.2 66.3h1c.1-.6 0-.9-.2-1.2-.9 0-1.1.4-.8 1.2m-12.8.2c.3.1.4.4.7.5.1-.3.3-.5.2-1-.5-.1-.8.1-.9.5m49.8 28.6c.1-.2 0-.5.2-.5 0-.7-.4-1-1.2-1-.6.6-.3 1.9 1 1.5"/>
    </g>
    <g fill="black" fill-rule="evenodd" stroke="#bb8" stroke-width="1.25">
      <path d="M224.81 101.93c-1.2 0-2.3-.2-3.3-.7v.5h-5.2v-6.8h4.5c-.9-.5-1.6-.9-2.2-1.2a5.21 5.21 0 0 1-1.7-1.9c-.5-.8-.7-1.7-.7-2.7 0-1.8.6-3.2 1.8-4.2a6 6 0 0 1 4.2-1.5c1.1 0 2.1.2 3 .6v-.4h5.3v6.2h-4.5c1.2.6 2.1 1.1 2.6 1.4.3.2.7.5 1 .9.3.4.6.8.8 1.2.5.9.7 1.9.7 2.9 0 1.6-.6 3-1.8 4.1-1.2 1-2.7 1.6-4.5 1.6m-3.3-6.6c.5 1.5 1.2 1.7 1.8 1.7.6 0 .6-.2.6-.3 0-.1 0-.2-.2-.4-.2-.1-.6-.4-2-1-.1-.1-.2-.1-.3-.2l.1.2Zm2-7.6c-.5 0-.5.1-.5.3v.2c.1.1.4.3 2.1 1.1.1 0 .1.1.2.1l-.1-.2c-.5-1.3-1.2-1.5-1.7-1.5M198 101.63v-5.5h1.3v-7.2H198v-5.5h17.4v6.8h-4.9v4.5h4.9v6.8H198v.1Zm11.5-6.7h-2.3v1.3h2.3v-1.3Zm0-6h-2.3v1.1h2.3v-1.1Zm-20.73 13c-3.4 0-6-.9-7.6-2.7-1.7-1.8-2.5-4-2.5-6.6 0-2.6.8-4.8 2.5-6.6 1.6-1.8 3.8-2.8 6.4-2.8 1.5 0 2.9.3 4.1.9v-.5h5.5v7.6h-5.5l-.2-.5c-.2-.6-.5-1.1-.9-1.4-.4-.3-.8-.5-1.3-.5s-2 0-2 3.9 1.6 3.9 2.1 3.9c.8 0 1.9-.3 2.4-3l.1-.9 5.8 2-.1.6c-.4 1.9-1.3 3.5-2.8 4.8-1.4 1.2-3.5 1.8-6 1.8m-21.7-.3v-5.4h1.5v-7.3h-1.5v-5.4h11v5.4h-1.5v7.3h1.5v5.4h-11Zm-13.57.2-5.3-12.9h-1.5v-5.4h10.5v5.4H156l1.5 4.2 1.5-4.2h-1v-5.4h8.2v5.4h-1.5l-5 12.9h-6.2Zm-13.5-.2-3.6-6.8h-.9v1.3h1.3v5.5h-10.5v-5.5h1.4v-7.2h-1.4v-5.5h12.1c.7 0 1.3.1 1.8.1.5.1 1 .1 1.4.2 1.3.3 2.4.9 3.2 1.9.9 1 1.3 2.2 1.3 3.5 0 1-.3 1.9-.8 2.7-.4.6-.8 1-1.4 1.4l1.7 2.8h1.5v5.5H140v.1Zm-4.5-11.3c1.1 0 1.6 0 1.8-.1.2 0 .4-.1.5-.3.1-.1.2-.2.2-.5s-.1-.4-.2-.5c-.1-.1-.3-.2-.5-.3-.2 0-.7-.1-1.8-.1v1.8Zm-27.14 11.3v-5.5h1.3v-7.2h-1.3v-5.5h17.4v6.8h-4.9v4.5h4.9v6.8h-17.4v.1Zm11.5-6.7h-2.3v1.3h2.3v-1.3Zm0-6h-2.3v1.1h2.3v-1.1Zm-17.87 12.67c-1.2 0-2.2-.2-3.3-.7v.5h-5.2v-6.8h4.5c-.9-.5-1.6-.9-2.2-1.2-.7-.5-1.3-1.1-1.8-1.9-.5-.8-.7-1.7-.7-2.7 0-1.8.6-3.2 1.8-4.2a6 6 0 0 1 4.2-1.5c1.1 0 2.1.2 3 .6v-.4h5.3v6.2h-4.5c1.2.6 2.1 1.1 2.6 1.4.3.2.7.5 1 .9.3.4.6.8.8 1.2.5.9.7 1.9.7 2.9 0 1.6-.6 3-1.8 4.1a6.4 6.4 0 0 1-4.4 1.6m-3.3-6.6c.5 1.5 1.2 1.7 1.8 1.7.6 0 .6-.2.6-.3 0-.1 0-.2-.2-.4-.2-.1-.6-.4-2-1-.1-.1-.2-.1-.3-.2l.1.2Zm2-7.6c-.5 0-.5.1-.5.3v.2c.1.1.4.3 2.1 1.1.1 0 .1.1.2.1l-.1-.2c-.4-1.3-1.1-1.5-1.7-1.5m-31.7 13.9v-5.5h1.3v-7.2h-1.3v-5.5h17.4v6.8h-4.9v4.5h4.9v6.8h-17.4v.1Zm11.5-6.7h-2.3v1.3h2.3v-1.3Zm0-6h-2.3v1.1h2.3v-1.1Zm-22.4 12.7v-5.4h1.4v-4.6l-3.8 10h-3.5l-3.8-9.9v4.5h1.3v5.4h-7.9v-5.4h1.3v-7.3h-1.3v-5.4h11.3l1.9 5.1 2-5.1h11.3v5.4h-1.3v7.3h1.3v5.4h-10.2Z"/>
      <path d="M32.25 101.7c-3 0-5.4-.9-7.3-2.6-1.9-1.7-2.9-4-2.9-6.8 0-1.5.4-3 1.1-4.4a9.7 9.7 0 0 1 3.4-3.6c.6-.3 1.1-.6 1.7-.8.6-.2 1.2-.4 1.9-.5.7-.1 1.4-.2 2.1-.2 3.2 0 5.7 1 7.5 2.9.9.9 1.5 1.9 2 3s.7 2.3.7 3.5a9 9 0 0 1-2.8 6.6c-1.8 2-4.3 2.9-7.4 2.9m0-13.4c-.5 0-.7.2-1 .6-.2.3-.4 1.1-.4 3.4s.3 3.1.4 3.4c.2.4.5.6 1 .6s.8-.2 1-.6c.2-.3.4-1.1.4-3.4 0-2.1-.2-3-.4-3.4-.2-.4-.5-.6-1-.6"/>
      <path d="M12.37 101.3v-5.4h1.1v-1.3h-2.4v1.3h1v5.4H1.87v-5.4h1.2v-7.3h-1.2v-5.4h10.2v5.4h-1v1.1h2.4v-1.1h-1.1v-5.4h10.2v5.4h-1.2v7.3h1.2v5.4h-10.2Z"/>
    </g>
    <g fill="black" fill-rule="evenodd" stroke="#bb8" stroke-linejoin="miter" stroke-width="2">
      <path d="M8.52 42.7v9.8h2.5l-6 16.6h-2.9v9.8h15.2v-9.1h-2.6l1-2.9h8l.9 2.9h-2.8v9.1h19.6v-9.8h-2.8l-6.1-16.6h2.5v-9.8H8.52Zm11.4 11.9 2 6.5h-4.2l2.2-6.5Zm23.13 24.2v-9l16.2-18.1h-6.3V56h-9.4V42.6h35.2v8l-17.1 19.1h7.7V65h9.5v13.8h-35.8ZM88 78.48v-9.8h3v-16.6h-2.5v6.3h-8v-16.1h36v16.1h-8v-6.3H106v16.6h3v9.8H88Zm30.27 0v-9.8h2.7v-16.6h-2.8v-9.8h34.7v12.6h-10.6v-2.8h-6.4v3.8h6.9v8.6h-6.9v4.2h6.4v-2.8h10.6v12.6h-34.6Z"/>
      <path d="M172.92 79.08c-6.8 0-12-1.8-15.3-5.5-3.3-3.6-5-8-5-13.2 0-5.2 1.7-9.7 4.9-13.3 3.3-3.7 7.6-5.5 12.8-5.5 3.6 0 6.7.8 9.2 2.3v-1.6h9.8v14.1h-10l-.2-.5c-.4-1.4-1.1-2.6-2-3.4-.9-.8-2-1.2-3.2-1.2-1.2 0-4.9 0-4.9 9s3.8 9 5.1 9c3 0 4.9-2.3 5.7-7l.1-.9 10.5 3.7-.1.6c-.8 3.9-2.7 7.1-5.5 9.5-2.8 2.6-6.8 3.9-11.9 3.9m23.64-36.76v9.8h2.5l-6 16.6h-2.9v9.8h15.2v-9.1h-2.6l1-2.9h8l.9 2.9h-2.8v9.1h19.6v-9.8h-2.8l-6.1-16.6h2.5v-9.8h-26.5Zm11.4 11.9 2 6.5h-4.2l2.2-6.5Z"/>
    </g>
  </svg>
  