<svg xmlns="http://www.w3.org/2000/svg" xmlns:xlink="http://www.w3.org/1999/xlink" viewBox="0 0 400 400" fill="none" xmlns:v="https://vecta.io/nano"><style><![CDATA[.B{stroke-width:2}.C{stroke-linecap:round}.D{stroke-width:1.5}.E{stroke-width:1.25}.F{stroke-width:2.5}.G{stroke-width:2.25}]]></style><circle cx="200" cy="200" r="200" fill="#000"/><g stroke="#bb8"><g class="F"><circle cx="200" cy="200" r="195.833"/><circle cx="200" cy="200" r="168.333"/><circle cx="200" cy="200" r="160.833"/><circle cx="200" cy="200" r="80.833"/><circle cx="200" cy="200" r="70.833"/></g><path d="m267.484 155.319 28.209 12.671m3.954-8.043-13.603-6.779m12.361-42.262c1-2.5 4.404-3.75 6.569-2.306 1.758 1.173 2.046 4.25.04 6.098" class="B"/><g class="E"><circle cx="296" cy="151" r="6.167"/><circle cx="296" cy="151" r="2.936"/><circle cx="264" cy="135" r="6.167"/><circle cx="264" cy="135" r="2.936"/><circle cx="245" cy="125" r="6.167"/><circle cx="245" cy="125" r="2.936"/><circle cx="261" cy="89" r="6.167"/><circle cx="261" cy="89" r="2.936"/></g><g class="B"><path d="m274.25 147.898-23.259-11.271m23.374-33.162c5.341-2.208 10.091 1.094 10.955 5.698-5.107 1.135-9.615-1.054-10.955-5.698Z"/><circle cx="283.5" cy="115" r="2"/><circle cx="267.5" cy="100.5" r="2"/><circle cx="267.5" cy="107.5" r="2"/><circle cx="289.5" cy="107" r="2"/><circle cx="281" cy="123" r="2"/><circle cx="276.5" cy="128.5" r="2"/><circle cx="267" cy="123" r="2"/><circle cx="259" cy="119" r="2"/><circle cx="279.85" cy="106.35" r="2" transform="rotate(11.191 279.85 106.35)"/><path d="m272 112 7.5 3m-8.5 0 7.5 3m-8.5 0 7.5 3m.513 27.461-3.971 8.937M280.97 150l-3.97 8.937m6.72-7.437-3.97 8.937m-8.78-4.358 9.881-23.155s-5.016 2.901-9.016-2.599-22.489-9.41-20.869-13.84c2.154-5.887 15.468 6.991 18.149-.086 2.557-6.752-14.074-8.302-13.074-11.802s3.978-8.385 8.344-7.21c8.724 2.348 15.831 1.032 20.234 1.811 4.694.83 12.605 3.011 12.105 7.511 3.065-2.969 6.842-4.073 9.984-2.442 3.669 1.904 4.04 3.73 3.54 8.73m-13.35 16.842L283 162m9.519-23.866c3.944 3.249 11.878-2.035 14.243-6.683C308.767 127.508 309 122 306.5 120m-30.118 23.329 10.976-25.609m-3.1 19.529 4.944-11.452m2.756 2.522L287.5 138.5m7.5-5.5-12.5-5.5m11.5 9-12.5-5.5"/><path d="M260 99c3 2-1 6.5-2 7.5m-1 0l-3 8m6.5-6.5l-3 8m6.5-6.5l-3 8m6-6l-2.5 7m33.472 3.84l16.487-6.376c2.065-.876 3.032.028 3.019 2.01-.591-1.366-1.369-1.799-2.413-1.769-1.499.042-2.781 1.92-2.15 3.766.692 2.024 2.922 2.597 5.085 2.029 1.971-.518 4.748-3.868 3-7.5-1.561-3.244-4.834-2.956-6.834-2.456S296.5 118.5 296.5 118.5"/></g><path d="M297 120.383s15.68-6.104 18.2-6.497c2.34-.364 3.749.547 4.249 2.047s.039 3.461-1.461 3.961S315 119.5 315 118.5"/><path d="M305.925 119.323a9.26 9.26 0 0 1 .072 1.196c-.012 3.66-2.15 7.144-5.72 8.692-4.81 2.087-10.41-.124-12.496-4.934s.124-10.41 4.934-12.496a9.51 9.51 0 0 1 10.668 2.169 9.46 9.46 0 0 1 .98 1.218m-2.71 5.388a5.048 5.048 0 0 1-3.047 4.591c-2.553 1.107-5.518-.049-6.616-2.58s.083-5.487 2.637-6.594a5.045 5.045 0 0 1 5.651 1.125m-9.513 27.654L278 138.5m11.152 11.605l-12.765-6.252" class="B"/><path d="M275.425 148.353c.579-2.365 2.882-3.167 4.661-2.323-.885 2.02-2.75 3.014-4.661 2.323zm3 1.5c.579-2.365 2.882-3.167 4.661-2.323-.885 2.02-2.75 3.014-4.661 2.323zm2.585 1.329c.578-2.365 2.881-3.167 4.66-2.323-.884 2.02-2.749 3.014-4.66 2.323zm3 1c.578-2.365 2.881-3.167 4.66-2.323-.884 2.02-2.749 3.014-4.66 2.323zm-4.585-13.829c.579-2.365 2.882-3.167 4.661-2.323-.885 2.02-2.75 3.014-4.661 2.323zm3 1.5c.579-2.365 2.882-3.167 4.661-2.323-.885 2.02-2.75 3.014-4.661 2.323zm2.585 1.329c.578-2.365 2.881-3.167 4.66-2.323-.884 2.02-2.749 3.014-4.66 2.323zm3 1c.578-2.365 2.881-3.167 4.66-2.323-.884 2.02-2.749 3.014-4.66 2.323zm-9.324-1.932c-1.336 2.018-.357 4.258 1.468 5.004.876-2.013.336-4.059-1.468-5.004zm3.135 1.205c-1.336 2.018-.357 4.258 1.468 5.004.876-2.012.336-4.058-1.468-5.004zm2.728 1.014a3.3 3.3 0 0 0 1.468 5.004c.876-2.012.336-4.058-1.468-5.004zm2.769 1.542a3.3 3.3 0 0 0 1.468 5.004c.876-2.012.336-4.058-1.468-5.004z"/><path d="M147.5 106.5s5 4 4.5 8c-3.773.212-8-3.5-8-3.5m-1 2s4 4 3.5 7.5c-4.008.445-6.5-3-6.5-3m7 9.5s.16-2.3-3.34-4.3c-1.914 1.874-.66 4.3-.66 4.3m-2.097.3s.13-1.681-3.37-3.681c-1.506 1.973-1.514 4.017-1.514 4.017" class="B"/><g class="E"><circle cx="140.5" cy="88.5" r="6.167"/><circle cx="140.5" cy="88.5" r="2.936"/><circle cx="109.5" cy="133" r="6.167"/><circle cx="109.5" cy="133" r="2.936"/><circle cx="154.5" cy="123.5" r="6.167"/><circle cx="154.5" cy="123.5" r="2.936"/><circle cx="104.5" cy="152" r="6.167"/><circle cx="104.5" cy="152" r="2.936"/><circle cx="85.5" cy="115.5" r="6.167"/><circle cx="85.5" cy="115.5" r="2.936"/></g><g class="B"><path d="m102.5 161.5 47.507-25.989m-34.615-1.247s3.615 2.32 5.608 4.736c2.038 2.469-11.882 9.978-12.5 7-.613-2.956-1.023-7.161-1.023-7.161M111.5 146l-1.5-6.5m4.5 5.5-2.5-6m5 4.5-3.5-5.5m6 3.5-4.5-5"/><path d="M121 140c2.5.5 4 1.5 4 3s-5-1-6 0 2 3.5 1.5 5-6 5-7 4-3.5-2.5-2.5-4 3 .5 3.5-.5-1-1.5-2-1.5m40.998-44.466c1 3-2.82 2.555-5.998 4.966-3.97 3.013-3.965 9.798-9.965 14.298S121.556 124.458 122 129c.45 4.598 7.254-1.072 10.754-1.072s15.695-2.484 16.315.551c.54 2.638-12.569 3.021-16.569 4.021s-9.469 2.913-13.149.194c-2.805-2.072-5.38-7.766-.88-9.266 2.18-.727 8.412-1.989 8.427-5.337.031-6.43 3.127-8.378 6.156-8.153 2.526.187 3.034 2.15 3.011 3.534-.035 2.126-1.486 3.47-3.018 3.495-3.555.058-3.564-4.462.419-3.895-3.937-.567-4.036 3.953-.464 3.939 4.384-.017 4.98-6.781 5.035-7.687.254-4.115 3.518-5.256 6.109-7.163 2.449-1.803 8.352-3.627 9.352-.627z"/><path d="M112.023 120.451c1.096-5.308 4.335-7.937 8.716-9.023 3.025-.75 7.796 1.174 6.261 3.572-1.388 2.082-5.044-2.12-8.544.88-3.5 3-1.361 6.38-3.519 8.51-1.766 1.743-7.373 1.962-7.873-.538s1.532-4.207 3.5-4c2.376.25 2.54 3.542-1.07 2.868"/><path d="M125.5 115.5c-.734 3.482-4.488 5.989-9.416 5.879M117 118c2.5 1.5 5.5 0 5.5-3"/><rect width="19.5" height="7" x="104.244" y="107.459" rx="3.5" transform="rotate(325 113.994 110.96)"/></g><path d="M106.867 111.684l2.048-1.434 4.015 5.734-2.048 1.434a3.5 3.5 0 0 1-4.014-5.734zm8.133-5.492l2.048-1.434a3.5 3.5 0 0 1 4.014 5.734l-2.047 1.434-4.015-5.734zM113 108l3.45 4.904M111 109l3.45 4.904" class="D"/><g class="B"><path d="M105 115l-17 9.5c-1.568.895-2.716 2.715-.586 5.086 2.196 2.445 3.569 1.742 4.586.914l15.5-12.5"/><path d="M107.516 117.833l-15.133 12.548c-1.256 1.296-1.497 3.371.207 4.678 1.989 1.526 3.384.594 4.401-.234 1.104-.899 11.018-9.765 11.018-9.765M123 111l17.579-12.168c1-1 .733-2.082-.603-3.484-1.377-1.446-2.906-1.824-4.406-.324S122.5 107 122.5 107m0 0l13.128-12.336c1-1 .136-3.187-1.107-4.164-1.627-1.279-3.628-.595-5.128.905S120.5 104 120.5 104"/></g><path stroke-width="4" d="m124.5 98 6.971 7.443M128 93.5l8.486 8.299M98 119l6.5 8.5m-12.5-5 7.496 9.775"/><path d="M109.964 109.05c-.478-1.041-.819-2.706.543-3.6 1.453-.955 2.979-.366 3.509.6m-5.491 3.881c-1.468-2.487-1.508-4.362.917-6.017 2.68-1.829 4.947-.879 6.135 1.44"/><g class="B"><path d="M119 103.5c-.679-5.352-7.189-5.459-11.454-2.85-6.099 3.731-6.558 8.201-2.339 12.617"/><path d="m102.5 108.5-6 1s-2 3.5 2.5 8.5m17-19 4-5s4 .5 4.5 4.5M123 96l-4.5 5M96 112.5l7-1.5m-5.5 5 7-3"/></g><g class="E"><g transform="rotate(359.001 105.884 247.255)"><circle cx="105.877" cy="247.251" r="6.167"/><circle cx="105.877" cy="247.251" r="2.936"/></g><circle cx="85" cy="284.5" r="6.167"/><circle cx="85" cy="284.5" r="2.936"/><circle cx="140.5" cy="311" r="6.167"/><circle cx="140.5" cy="311" r="2.936"/><circle cx="155" cy="276" r="6.167"/><circle cx="155" cy="276" r="2.936"/></g><path d="m103.211 237.797 38.352 19.833" class="B"/><g transform="rotate(358 139.121 260.507)"><circle cx="139.118" cy="260.504" r="3.333"/><circle cx="139.118" cy="260.504" r="1.487"/></g><g transform="rotate(358 119.784 251.177)"><circle cx="119.781" cy="251.174" r="3.333"/><circle cx="119.781" cy="251.174" r="1.487"/></g><g transform="rotate(358 125.902 254.465)"><circle cx="125.899" cy="254.462" r="3.333"/><circle cx="125.899" cy="254.462" r="1.487"/></g><g transform="rotate(358 132.503 257.236)"><circle cx="132.5" cy="257.233" r="3.333"/><circle cx="132.5" cy="257.233" r="1.487"/></g><path transform="rotate(117 113.702 287.136)" d="M111.202 270.136h5v34h-5z"/><path d="m127.428 297.64-1.135 2.227-28.067-14.3a2.5 2.5 0 0 1-1.092-3.363l30.294 15.436z"/><g transform="rotate(117 113.702 287.136)"><path d="M111.202 282.636h5v9h-5z"/><path d="M111.202 278.636h5v17h-5z"/><path d="M111.202 274.636h5v25h-5z"/></g><path d="m112.388 289.594 2.497-4.901"/><path d="M137.5 283.5l-11.5 7-14.5-7.5c-2-1-2.054-3.074-1.497-4.581.515-1.396.521-1.412 1.532-3.484-.964 2.064-3.897 5.58-6.453 4.547-2.073-.838-3.597-2.481-2.597-4.481s2.49-2.855 3.786-2.353c1.957.757 1.218 1.97.235 3.759 1.121-1.321 2.098-6.318 4.993-6.028 2.606.261 3.942 1.76 4.501 2.621 1.361 2.097-1.925 5.873-1 6.5 1.511 1.024 7.5 5 9 4.5s7-3.5 7-3.5l6.5 3z" class="B"/><path d="m132.5 286.5-1-3.5m-3 5.5-.5-3.5m-3 4.5-.5-3.5"/><path d="m137.989 282.76 1.79-3.375s-18.658-9.001-18.658-10.001 3.298-6.395 2.911-7.461c-.439-1.212-6.419-3.883-8.032-3.423-1.133.323-3.002 5.473-3.88 7.503.952-2.118.89-3.776-.997-4.443-1.113-.393-2.894.1-3.981 2.405-.915 1.939-.074 4.204 1.358 5.035 1.232.715 3.481 1.945 5.084.884 1.273-.843 4.047-4.452 4.916-6.384-.942 2.155-3.5 7-2.5 8s21.989 11.26 21.989 11.26Z" class="B"/><path d="M125.5 280l-1 2-7-3.5 1-2m4.499 4.5l1.001-1.576-3-1.424m-7.95 17.588c-7.822-1.967-15.288-8.226-16.55-11.088-1.475-3.345 0-7.5-1-7.5s-4 10.5 2.5 15.5 14.433 6.442 14.433 6.442m-13.812-5.943c-5.629-4.482-11.243-2.884-12.119-1.535-.862 1.326 6.078.704 9.993 4.015C98.61 297.268 108.5 304.5 113 303.5"/><path d="M125.5 299.509c-2.022 2.993-8.094 3.854-11.625 3.991-4.321.168-4.445-3.864 2.938-4.173-7.316.239-8.932-3.153-3.443-3.809l4.078-.195m1.53.645l.888 6.463M119.5 301l-4.5.5m4-4.5l-4.5.5m-4.021-1.154C105.726 295.538 98.5 291 96 286.5m-9.5 5c5.089-.494 9.779 1.611 12 3.5 2.526 2.149 6.5 5 9 5.5m-4.995-5.171c3.077 1.584 2.451 3.765 7.063 4.161"/><path d="M99.5 277c.5-5.5 10-22 10-22s5.5 0 7 3m-13.5 8.5-3-5S92 268 89.5 280" class="B"/><path d="m102 268.5-2.5-3m1.5 5.5-3-3m2 5.5-3.5-3M99 277l-4.5-2.5m0 4-2-1m1.5 4-2.5-.5m3 6.5h-4m3.5-3h-2.5"/><g class="B"><path d="M106 260.5s-4.5-7-11-9m-4.5 9s3.5.5 6.5 3.5"/><path d="M101.5 255s-2.5 1.5-5.5 8"/></g><path d="m94 254 4 2m-5 0 4 2m-5 0 4 2"/><g class="B"><path d="M130 288c1.395 8.591-5.054 17.12-19 16"/><path d="m120 303.5 5.074 7.65s14.014-9.838 11.426-26.65"/></g><path d="M130 291h4.5m-5 2.5 4.5.5m-5 2 4 1.5m-5.5 1 3.5 2.5m-6 0 3.5 4m-6-3 3.5 5.5m11-21 2.5 1 2-6.5 5 2s.5-2 2.5-1.5c1.688.422 2.581 2.559 1.125 4.503-1.12 1.494-3.585 1.467-6.102.483 2.396 1.225 4.992.98 6.047-.104 1.234-1.267 2.104-3.842 4.463-3.375 2.022.399 3.093 1.951 2.407 3.376-.555 1.152-1.249 1.604-1.902 1.539-1.055-.105-1.439-.886-1.038-2.422-.519 2.497-5.622 7.144-10.529 3.513"/><path d="M155.006 287.479c.619 2.699-1.397 7.764-3.506 7.021-1.455-.513-.876-1.905.084-2.995-1.044 1.183-6.049 3.453-9.549-.047m-2.019.37c1.5.5 8.776 3.834 6.984 8.172-1.752 4.241-4 5-6 4s-3.842-2.719-2-6l2.607 1.439s-.574 1.11-.107 1.561c.639.617 1.485-.008 2-1 1.014-1.955-.452-3.5-4-5m-1 3.5-3-1.5m5.5-14.5s4 1.5 5 2 2.5.5 2.5-.5"/><path d="M140 279c4.838-8.411.256-10.076-15.99-17.089" class="B"/><path d="M141.5 275.231c-2.507 2.057-5.014 1.542-6.017-1.029-2.017.755-3.51.515-4.513-2.056-1.495.124-3.009 1.028-4.012-2.057-1.446.573-4.457-.518-4.958-3.089"/><path d="M136.389 267.5c1.778 2-.889 6.5-.889 6.5m-3.611-8c1.778 2-.889 6.5-.889 6.5m-3.111-9c1.778 2-.889 6.5-.889 6.5m13.996-6.58-2.426 5.45m-4.644-8.37-2.426 5.45m-4.074-8.45L125 262.95m-4.074-8.45-1.81 4.481m16.855 2.467-2.396 4.459m-4.179-7.407L127 262.958m-4.604-7.458L120 259.958M116.396 252 114 256.458"/><g class="E"><circle cx="245.5" cy="275.5" r="6.167"/><circle cx="245.5" cy="275.5" r="2.936"/><circle cx="257" cy="299" r="4.167"/><circle cx="257" cy="299" r="1.859"/><circle cx="260.5" cy="311.5" r="6.167"/><circle cx="260.5" cy="311.5" r="2.936"/><circle cx="316" cy="284" r="6.167"/><circle cx="316" cy="284" r="2.936"/><circle cx="309.25" cy="273.25" r="3.917"/><circle cx="309.25" cy="273.25" r="1.725"/><circle cx="294.5" cy="246" r="6.167"/><circle cx="294.5" cy="246" r="2.936"/></g><g class="B"><path d="m297.566 236.599-37.706 18.839m3.225 19.39-9.674 4.479L253 263l30-15 11.408 11.699-9.125 5.207-4.853-5.918L263 267l.085 7.828Z"/><path d="m291.5 257.5-4.582 2.385L281.5 254l-21.523 10.362L260 272l-6.5 2.5"/></g><path d="m286.5 258.5 1-5.5m-4.5 2.5 2.5-4.5m-4 3 .5-5.5m-4 7 .5-5.5m-3 6.5-2-4m-2 6.5-1-5m-2 6-2-4m-4 2 2.5 4m-3 1-2.5-3m0 5.5L255 262m5 7-6.5-4m4 8-4.5-5m28.534 4.199a5.148 5.148 0 0 1 6.17-.158c2.324 1.647 2.881 4.869 1.243 7.191a5.14 5.14 0 0 1-7.176 1.223 5.177 5.177 0 0 1-1.719-6.361"/><path d="M283.31 273.836a2.738 2.738 0 0 1 2.985.124c1.233.875 1.535 2.576.673 3.799s-2.563 1.504-3.796.63a2.75 2.75 0 0 1-1.074-2.941"/><path d="m285.06 274.921-.926 1.668-7.546-4.324 1.52-3.322 6.952 5.978Z"/><circle cx="273.5" cy="268.5" r="4.5" class="D"/><use xlink:href="#B" class="C"/><path d="M282.5 261.5c-.425 3.783-3.684.172-6.117 4.126m-12.883 8.05c1.873-2.956 5.096-.789 6.559-3.049m14.374-7.203c-1.361 3.739-4.652.136-6.433 4.076m-14.5 3.558c1.621-2.447 4.292-.305 5.755-2.565m1.213 3.427c-3.5.5-6.333 1.082-6.436 3.079-.053 1.045 1.018 2.093 2.003 2.031-1.045-.004-2.512.24-2.531 1.451-.022 1.5 1.496 2.519 2.996 2.019s5.642-3.754 6.489-2.163c1.832 3.441-8.75 4.26-7.533 6.663.582 1.151 1.544.5 2.544 0-1.582.958-1.931 1.53-1.484 2.442.486.994 2.013.598 2.958-.077.363.838 2.965 6.472 2.965 6.472L286 287.5l-3-6.5"/><path d="M268.5 276c5.029-3.327 6.395 1.116 8.364 4.772M266.5 280.5l1 2m10.5-.5-5 3m1.496 2.03s4.017-2.323 5.004-.53c1.017 1.848-3.473 3.428-3.473 3.428M265 280.5s-8.078 6.247-7.578 14.247M268 288s-1 4.5-7 8.5m-18.086-13.62s12.428-4.265 11.419 2.366c-.879 5.768-11.419-2.366-11.419-2.366Zm60.156-31.729s2.394 12.92-4.016 10.948c-5.578-1.717 4.016-10.948 4.016-10.948Z"/><path d="M247 283.584s5.414-1.844 4.975 1.022c-.383 2.494-4.975-1.022-4.975-1.022Zm7-.584c.5-1 1.365-4.385 9.045-8.148m38.585-19.571s1.028 5.627-1.742 4.771c-2.411-.745 1.742-4.771 1.742-4.771ZM254 286s3 1 7.5-2"/><path d="m278.5 269 7-3.5L296 285l-22.552 11.672-4.518-9.292" class="B"/><path d="m274 293 1.5 3m.5-4 1.5 3m0-4 1.5 3m.5-3.5 1.5 3m.5-4 1.5 3m.5-4 1.5 3m.5-4 1.5 3m-1.5-9 3.427 6.932M287 280.5l3.427 6.932M288.5 279.5l3.427 6.932m-2.468-8.509 3.968 7.509M290.5 274s5.5 3.5 14.5.5m1-4s-6.41-5.711-18-.5m-1-2.5s3.416-5.172 10.469-6.657"/><path d="M301.5 262s-1.496 4.406-3.496 5.906M271 293l-5.415-.194s-1.204 13.39 9.415 18.694l7.408-3.737S274.051 303.221 273 296m-1-1.5h-5m6 2l-5.5 1m6 1l-5 2m6 0L270 303m5.5-1l-3.5 3.5m5-2l-2.963 4.251M277 303.5s8.34-3.962 7.43-7.002c1.443 2.474 4.17 2.445 5.595 1.469 1.498-1.027 2.475-2.875 1.452-5.493 1.97 2.266 8.641-2.521 8.641-2.521L296 284.5m-10.438 5.951c-1.502.636-2.596 3.102-1.581 5.102"/><path d="M286.084 290.448c1.424-.872 3.838-1.014 4.868.978M282 300.5l-.5 6.5m3.479-9.579c1.511 2.718 2.001 5.562 1.033 9.004m2.439-7.963c1.031 2.079 1.472 4.539.582 7.542"/><path d="M294.966 292.957c1.763.096 2.554 1.531 2.132 3.531m1.491 3.976c.789-1.954.439-3.326-1.089-3.964l-8.622 4.377m4.622-4.377L289 299m6 1l-5.5 2.5"/><path d="M297 296.5s10.94-4.305 7.478-13.616l-3.362-4.418-.491 4.624s4.45 6.391-4.716 9.745"/><path d="M298.84 299.972s12.667-5.769 9.243-17.418l-3.079-4.533-.56 4.941s4.295 7.635-7.12 13.493M302.5 283s4.087 7.41-5.622 11.465"/><path d="M306.439 282.872s3.081 9.006-7.439 15.093m14.466-4.547L308 282.5m.039 7.616 1.854-.748m-2.799 3.3 3.855-1.451M297.5 287l-4.5 2.5m6-1-5 2.5m-20 8 5-2.5m-3.5 5 4.5-2.5"/><g class="F"><circle cx="200" cy="345.5" r="13.833"/><circle cx="200" cy="345.5" r="8.333"/></g><defs><g id="A" class="B"><path d="M191.5 319h17v5.5a7 7 0 0 1-7 7h-3a7 7 0 0 1-7-7V319z"/><path d="M196.75 319h6.5v5a3 3 0 0 1-3 3h-.5a3 3 0 0 1-3-3v-5z"/></g><path id="B" d="M276.062 264.888c-3.696-1.335-5.576 1.045-5.562 3.055.017 2.541 2.573 3.467 4.103 2.395 1.234-.866 1.307-2.139.979-2.945-.524-1.289-3.164-.812-2.544.967"/></defs><use href="#A"/><use href="#A" transform="rotate(9 200 200)"/><use href="#A" transform="rotate(18 200 200)"/><use href="#A" transform="rotate(351 200 200)"/><use href="#A" transform="rotate(342 200 200)"/><path d="M154.222 309.804c24.144 12.334 70.729 10.132 90.745.209" class="B"/><defs><g id="C"><path d="M353.26 200c0 12.136-1.422 19.197-3.604 23.523-3.604 7.148-10.59 10.049-23.269 5.889-5.351-1.755-19.798-8.657-22.693-9.75-5.689-2.149-9.714-2.598-11.414.347-1.967 3.403 1.702 9.54 4.128 13.952 3.992 8.043 18.77 34.909 29.189 53.719l-68.809 33.25-20.267-47.605-5.521 2.35 22.733 53.395 79.796-39.216-35.627-65.94s20.859 9.407 26.701 11.227c5.776 1.799 12.472 2.701 17.961 1.1 5.286-1.541 9.379-4.065 12.425-9.967 2.903-5.627 4.271-13.91 4.271-26.274" class="B"/><g class="F"><circle cx="333.5" cy="253.5" r="15.833"/><circle cx="333.5" cy="253.5" r="10.833"/><circle cx="333.5" cy="253.5" r="4.833"/></g></g></defs><use href="#C"/><use href="#C" transform="matrix(-1 0 0 1 400 0)"/><use href="#C" transform="matrix(-1 0 0 -1 400 400)"/><use href="#C" transform="matrix(1 0 0 -1 0 400)"/><defs><g id="D"><path d="M291.5 195.5v9h-5a4.5 4.5 0 1 1 0-9h5z"/><path d="M291.5 198.28v3.44h-4.36a1.72 1.72 0 1 1 0-3.44h4.36z"/></g><g id="E"><g class="E"><g transform="rotate(356.442 323.832 181.832)"><circle cx="323.831" cy="181.831" r="4.667"/><circle cx="323.831" cy="181.831" r="2.129"/></g><circle cx="301.5" cy="188" r="5.667"/><circle cx="301.5" cy="188" r="2.667"/><circle cx="301.5" cy="200" r="5.667"/><circle cx="301.5" cy="200" r="2.667"/><circle cx="301.5" cy="212" r="5.667"/><circle cx="301.5" cy="212" r="2.667"/></g><g transform="matrix(1 0 0 .9 0 20)"><use href="#D"/><use href="#D" transform="rotate(4.5 400 200)"/><use href="#D" transform="rotate(9 400 200)"/><use href="#D" transform="rotate(355.5 400 200)"/><use href="#D" transform="rotate(351 400 200)"/></g><g class="B"><path d="M293.476 181.6c-3.175 11.176-1.9 23.476.524 36.4m57.519-36.562c-9.037-5.936-6.869 4.562-20.796 11.809-7.058 3.673-9.303.056-12.277 5.444-3.757 6.807.188 13.125-1.432 16.451-1.045 2.142-5.769 4.83-.991 9.981"/><path d="M316.5 216c4.136 4.005 9.744 3.355 17.016-1.7-1.927 9.291-4.506 10.885-11.658 13.044m28.155-46.927c1.89 2.895 2.436 11.647-4 16.311 1.787-5.689.897-13.654-2.503-14.331M341.434 184c3.904.682 4.524 12.158-1.912 16.822 1.788-5.689 1.183-9.982-1.522-12.317m-1.531 1.995c2.519 2.218 1.976 8.895-3.127 13.235 1.788-5.689 2.265-9.695-1.295-10.886m-2.007 1.065c2.684 1.01 3.026 6.64-1.953 10.964 1.013-3.932.659-9.045-1.573-10.187m-1.058 22.975c-5-6 7.162-10.51 15.279-7.704 5.173 1.788 8.681 6.062 7.249 9.236-2.602 5.764-12.863 6.48-16.863 3.48"/></g><path d="M323.054 189.848c-1.785-.556-3.546-1.76-4.781-3.345a9.486 9.486 0 0 1-1.724-8.13" class="G"/><path d="m317.761 184-3.591 1.832m4.778-.332-3.194 2.459m6.612.822-1.031 3.897m-3.921-13.246-3.914-.965m7.671 9.664-2.006 3.497m.853-4.628-2.69 3.003m-.303-9.085-4.021.291m4.209 1.291-3.895 1.038" class="B"/></g></defs><use href="#E"/><use href="#E" transform="matrix(-1 0 0 1 400 0)"/><g class="D"><circle cx="219.5" cy="352.5" r="5.5"/><circle cx="219.5" cy="352.5" r="2.5"/></g><g class="E"><circle cx="276" cy="330" r="4.667"/><circle cx="276" cy="330" r="2.129"/><circle cx="267" cy="334.5" r="4.667"/><circle cx="267" cy="334.5" r="2.129"/><circle cx="258.25" cy="339" r="4.667"/><circle cx="258.25" cy="339" r="2.129"/><circle cx="249" cy="342.5" r="4.667"/><circle cx="249" cy="342.5" r="2.129"/><circle cx="219" cy="340" r="4.667"/><circle cx="219" cy="340" r="2.129"/><circle cx="250.75" cy="333.25" r="3.917"/><circle cx="250.75" cy="333.25" r="1.725"/><circle cx="231.5" cy="337.5" r="4.667"/><circle cx="231.5" cy="337.5" r="2.917"/><circle cx="231.5" cy="337.5" r=".917"/></g><path d="M242.561 355.298A11 11 0 0 1 239.737 340a11 11 0 0 1 2.824 15.298z" class="B"/><path d="M241.727 350.778a4.5 4.5 0 0 1-1.156-6.258 4.5 4.5 0 0 1 1.156 6.258z"/><path d="M225.699 334.345c1.335-1.31 3.23-2.29 5.21-2.628a9.486 9.486 0 0 1 7.978 2.329" class="G"/><g class="B"><path d="M233.156 332.545l.114-4.168m-2.047 4.527l-.646-4.108m-3.987 5.646l-3.001-2.828m13.85 2.824l2.79-3.111m-12.467 2.337l-2.162-3.525m3.747 3.018l-1.382-3.911m8.327 4.117l1.713-3.815m-3.23 3.222l.979-4.062m6.483 7.966c-.459 4.43-7.103.175-2.785-3.085 2.175-1.45 5.528-.052 5.548 2.333.049 5.92-2.952 6.078-2.952 6.078m-14.034-1c-4.089 1.35-4.634 3.438-3.49 4.669 1.771 1.906 4.988-1.273 6.927-.138 1.232.722 1.708 2.689.209 3.718s-5.307 1.105-3.808 3.679 9.218-.414 10.717-3.503M222.054 75.334c-1.557-2.093-4.381-.763-4.381-.763s-1.32 8.556 5.425 10.615c-2.602-6.382-1.044-9.852-1.044-9.852z"/><circle cx="212.25" cy="54.25" r="7.917"/><circle cx="212.25" cy="54.25" r="3.648"/><circle cx="226" cy="66" r="5.667"/><circle cx="226" cy="66" r="2.436"/><path d="M247.583 69.67c1.623 15.726-5.742 31.722-20.189 40.38l-5.14-8.578a41.832 41.832 0 0 1-5.636-16.222c-2.053-16.049 5.315-32.55 20.072-41.394 1.781 1.595 5.776 6.079 7.242 9.211m.04 11.209l16.487-6.377c2.065-.876 3.032.028 3.019 2.01-.591-1.366-1.369-1.799-2.413-1.769-1.499.043-2.781 1.92-2.15 3.767.692 2.023 2.922 2.596 5.085 2.028 1.971-.517 4.748-3.867 3-7.5-1.561-3.244-4.834-2.956-6.834-2.456S242.5 60.435 242.5 60.435"/></g><path d="M243 62.318s15.68-6.104 18.2-6.496c2.34-.365 3.749.546 4.249 2.046s.039 3.461-1.461 3.961S261 61.435 261 60.435"/><g class="B"><path d="M251.925 61.259a9.507 9.507 0 0 1-5.648 9.888 9.51 9.51 0 0 1-12.496-4.935c-2.087-4.81.124-10.409 4.934-12.496 3.758-1.63 7.998-.637 10.668 2.169a9.46 9.46 0 0 1 .98 1.218"/><path d="M247.653 62.492a5.048 5.048 0 0 1-3.047 4.59c-2.553 1.108-5.518-.048-6.616-2.58s.083-5.486 2.637-6.594a5.047 5.047 0 0 1 5.651 1.125M237.5 71l-2.696 11.278M219.5 64.5c0 6.5 2 10.5 8 10s7 2 8 4.5m-.409 1.969c-1.913 5.312 6.593 9.549 10.093 8.049M237 74l10 6m-11-1.5l10 6M241.5 72L237 86m8.5-14.5l-5.368 16.876M233.5 79.5c.166-5.338-5.5-3.5-5.5-3.5s-3.802 8.148 1.919 12.008C229.424 79.3 233.5 79.5 233.5 79.5zm-5.924-3.221c-1.605-2.157-5.123-.312-5.123-.312s-2.925 8.764 5.396 11.906c-3.063-8.69-.273-11.594-.273-11.594z"/></g><path d="M230.542 87.246c.858-2.278 3.241-2.798 4.906-1.746-1.121 1.899-3.092 2.662-4.906 1.746zm2.798 1.85c.858-2.279 3.241-2.798 4.906-1.747-1.121 1.899-3.092 2.663-4.906 1.747zm2.406 1.629c.858-2.278 3.241-2.797 4.906-1.746-1.121 1.899-3.092 2.662-4.906 1.746zm2.858 1.353c.858-2.278 3.241-2.797 4.906-1.746-1.121 1.899-3.092 2.662-4.906 1.746zm-7.035-3.805c-1.595 1.82-.926 4.171.783 5.155 1.138-1.876.878-3.976-.783-5.155zm2.945 1.615c-1.595 1.82-.926 4.172.782 5.156 1.139-1.877.878-3.977-.782-5.156z"/><path d="M237.08 91.259a3.3 3.3 0 0 0 .783 5.156c1.138-1.877.878-3.977-.783-5.156zm2.538 1.9c-1.596 1.82-.927 4.172.782 5.156 1.138-1.877.878-3.977-.782-5.156z"/><g class="B"><path d="M237.368 96.201s-1.775 3.687-8.368 7.299c-7.918-9.462-8.626-20.06-8.626-20.06M227.5 124l-28.571-83-26.429 83"/><path d="M211 75h-9.47L199 69.801 196.906 75h-8.412"/><path d="M215 86.5h-8.816l-7.086-16.69-6.139 16.69h-7.963"/><path d="M220.5 102h-8.669l-12.86-32.154L187.572 102H180"/><path d="m219 121-20-52-18 52s17-7 38 0Z"/><path d="M191.5 119h17l-9-25-8 25Z"/></g><circle cx="150" cy="63.5" r="2.833"/><circle cx="158.75" cy="52.75" r="3.25" class="D"/><circle cx="165" cy="50.5" r="2.167" class="B"/><circle cx="174" cy="52" r="2.833"/><circle cx="174" cy="52" r="1.218"/><circle cx="166.385" cy="87.385" r="1.218"/><circle cx="170.885" cy="85.385" r="1.218"/><path d="M152.929 59.066a1 1 0 0 1 1.3.558l.37.929-1.857.742-.37-.929a1 1 0 0 1 .557-1.3z"/><path d="M154.786 58.324a1 1 0 0 1 1.3.558l.37.929-1.857.742-.37-.929a1 1 0 0 1 .557-1.3zm1.857-.743a1 1 0 0 1 1.3.558l.37.929-1.857.742-.37-.929a1 1 0 0 1 .557-1.3zm5.572-2.226a1 1 0 0 1 1.3.558l.37.929-1.857.742-.37-.929a1 1 0 0 1 .557-1.3z"/><path d="M158.5 56.84a1 1 0 0 1 1.3.557l.37.929-1.857.742-.37-.929a1 1 0 0 1 .557-1.3z"/><path d="M160.357 56.098a1 1 0 0 1 1.3.557l.37.929-1.856.742-.372-.929a1 1 0 0 1 .558-1.3zm3.715-1.485a1 1 0 0 1 1.3.558l.37.929-1.857.742-.37-.929a1 1 0 0 1 .557-1.3z"/><path d="M165.929 53.871a1 1 0 0 1 1.3.558l.37.929-1.857.742-.37-.929a1 1 0 0 1 .557-1.3z"/><path transform="rotate(338.218 160.542 59.255)" d="M152.542 58.254h16v2h-16z"/><g class="D"><path transform="rotate(338.218 159.128 78.12)" d="M153.128 76.619h12v3h-12z"/><path transform="rotate(337.604 161.028 82.744)" d="M155.028 79.494h12v6.5h-12z"/></g><path transform="rotate(337.604 163.068 81.655)" d="M162.068 78.655h2v6h-2z"/><path transform="rotate(337.604 158.894 83.48)" d="M157.644 80.231h2.5v6.5h-2.5z"/><path transform="rotate(338.218 175.67 60.728)" d="M174.671 58.728h2v4h-2z"/><path transform="rotate(338.218 172.17 62.228)" d="M171.171 60.228h2v4h-2z"/><path transform="rotate(338.218 168.67 64.228)" d="M167.671 62.228h2v4h-2z"/><path transform="rotate(338.218 164.67 65.728)" d="M163.671 63.728h2v4h-2z"/><path transform="rotate(338.218 162.006 69.318)" d="M161.006 65.068h2v8.5h-2z"/><path transform="rotate(338.218 158.599 70.55)" d="M157.598 66.05h2v9h-2z"/><path transform="rotate(338.218 155.578 74.496)" d="M154.578 72.746h2v3.5h-2z"/><path d="m155 51-7 .5s-1 4.5 4 9.5"/><path d="M148 52c-3.5 0-7 4.5-9.5 6 2.909 1.13 6.922 1.994 10.422-1.506m-.834-2.93c-2.638.442-3.593 1.485-6.561 3.83 2.909 1.13 4.899-.464 6.956-2.029m-4.493 3.662c-2.556 2.02-1.562 4.606-3.482 7.493 3.427-.4 5.926-3.082 6.492-3.52"/><path d="M146.986 57.982c-1.544 1.1-2.945 3.445-3.509 5.605 2.964-1.56 5.949-4.735 6.515-5.173m-1.967-4.442s2.951-.347 5.479-1.503m-5.042 3.532s3.028-.887 5.556-2.043m-4.521 3.562s2.569-.893 5.035-2.52M150 59.02s2.946-1.03 5.096-3.017M173.5 49s-3-4-4.5-3.5-1.5 4-1.5 4m8.523 4.364S177.5 56 176 58.5"/><path d="M177.5 58 155 67l2 5-5.5 2.5 1.466 3.36L164.901 73l-2.041-4.945s16.115-6.063 16.115-6.563S177.5 58 177.5 58Z" class="B"/><path d="m156.433 88.274 22.045-9.384 1 2.5-2 1 .5 1-2 1 1 2 2-1 .5 1 2-1 1.5 3-21.997 10.041-1.216-3.079 2.695-1.013-.5-1 2.5-1-1-2-2.5 1-.5-1-2.5 1-1.527-3.065Z" class="D"/><path d="M148.311 66.17c-.278 1.332.157 1.835.565 2.214.519.481 5.083-1.519 5.083-2.019S154 65 153 64.5m-4 4c-.5 1.5.915 2.378.915 2.378L155 68.5"/><path d="M150.009 70.5c0 1.038.036 3.035.98 3.977M152 70l1.5 3.5m-2.5-3l.5 2m2-3.5l1 2.5M151 66l-1-2m16.979-6.006S166.502 60.49 167 62m6.5 7s2-4 3-4 4 5.5 3.5 7-4 2-4 2m1.5-8.5s1.5-2 2-2 3 5.5 3 6.5-2.5 1-2.5 1"/><path d="M180.044 64.055s1.478-.635 3.442-5.721c1.679-4.347-3.117-15.091 1.972-16.336 3.559-.87 5.558.253 6.042 3.002.527 2.995-.06 4.08-1.5 4.5-1.544.45-1.913-.442-1.971-1.018-.073-.72.471-.982 1.471-.982-1.894-.379-2.508.056-2 4l4.5-1s2.847 7.984-4.464 15.264L185 64s-1.288 3.742-2.94 4.99"/><path d="M188.38 43.825c-2.5-1-4.02 1.169-3.328 5.234.9 5.29 1.965 10.442-3.09 15.888M192.5 52.5l-5 .5m5 3H188m3.5 3.5-4-1m2.5 4-3.5-1.5m2 3.5-3-2m-2.152-15.495s-4.468-.449-4.5 7.5c.074-.98-.96-1.33-1.544-1.064-1.494.679-.957 4.054 2.044 3.564 2.972-.486.423-7.033 4.004-8.062"/><circle cx="170.75" cy="73.25" r="5.25" class="B"/><g class="F"><circle cx="135.5" cy="335" r="9.833"/><circle cx="135.5" cy="335" r="5.651"/></g><g transform="rotate(20.478 152.172 345.67)"><circle cx="152.172" cy="345.669" r="2.333"/><circle cx="152.172" cy="345.669" r=".833"/></g><g transform="rotate(20.478 147.488 343.92)"><circle cx="147.488" cy="343.92" r="2.333"/><circle cx="147.488" cy="343.92" r=".833"/></g><g transform="rotate(20.478 148.256 349.01)"><circle cx="148.256" cy="349.01" r="2.333"/><circle cx="148.256" cy="349.01" r=".833"/></g><path d="M172.6 332.693l4.456-.189c.957-.059 2.044.612 2.044 1.488 0 .977-1.178 1.817-2.319 1.817l-3.813.191m2.532 1.646c.02 1.387.531 2.382 1.523 2.713 1.604.535 3.545-1.906 1.052-2.246 6.935.438 6.939-1.831 6.939-3.23 0-1.157-.516-2.18-2.057-2.415-2.487-.378-3.454 2.935-.734 3.109-3.244-.002-6.753-.059-6.723 2.069zm1.032 5.251c-.026-1.432 1.347-2.1 2.513-1.942.976.132 3.962 1.587 3.931 4.036-.029-1.914 2.182-1.92 2.027-.033-.076.931-.45 2.171-1.966 2.028-1.687-.16-1.589-3.984-4.522-4.052 2.449.019 1.454 2.517-.039 2.444s-1.925-1.47-1.944-2.481zm-6.042-10.953l.006 4.467m-1.843-4.667l-.094 4.281m-2.196-.251l.139-4.144m-2.661-.382v4.328m-1.831-5.084l-.058 4.465m-1.935-4.497l-.038 8.461m-1.96-8.941l-.024 7.931m-5.735-15.318c-.542-.391-1.483 1.067-1.078 1.354l4.181 4.114a676.61 676.61 0 0 1 1.626-1.174l-4.729-4.294zm3.999 8.391c.439.105-.108 2.183-.399 1.999l-6.57-2.808c-.198-.092-.255-.215-.233-.694.056-.77.311-2.516 1.112-2.015l6.09 3.518z"/><path d="M157.022 329.646c.14.134-.352 1.525-.697 1.371l-6.238-3.601c-1.101-.727.719-3.882 1.062-3.485l5.873 5.715zm6.721 16.247l-.243 1.842 10.552 2.801c.814.168 1.34.4 1.446-2.092m-2.416 2.014c.742-.092 1.338.722 1.338 1.354 0 1.464-3.413 3.526-5.426 3.119 2.1-2.302 1.728-2.216 2.593-3.481.371-.543.879-.916 1.495-.992zm-2.414-.64c.448.109.893.617.893 1.185 0 1.988-3.868 3.282-5.09 3.321 1.714-1.764 1.367-2.278 2.043-3.444.331-.572.969-1.349 2.154-1.062z"/><path d="M163.165 354.02c1.829-1.931 1.872-2.683 2.382-3.813.402-.89.649-1.397 1.795-1.397.66 0 1.266.614 1.266 1.309 0 1.736-4.238 3.885-5.443 3.901Zm1.373-5.676c.817-.003 1.191.647 1.196 1.214.017 1.512-2.608 3.297-4.142 3.762.732-1.536.879-2.121 1.127-3.354.163-.806.853-1.62 1.819-1.622ZM149 330c-1 0-1 2.5-.5 3m.316-.125c-.48-.165-.564 2.709-.174 2.751l6.231.85c.343.05 1.018-1.924.605-2.007l-6.662-1.594Z"/><path d="M148.676 335.626c-.521.008-.108 2.779.315 2.742l5.161-.232c.541.015 1.1-1.747.713-1.651l-6.189-.859zm3.419 3.253c-2.346-1.343-3.994 1.889-2.855 2.61l5.409 2.28c.841.187 2.744-1.856 1.726-2.709l-4.28-2.181zm5.51-9.105c-2.643-2.135-.544-2.962 5.594-2.137 7.92 1.065 10.493 2.803 9.968 4.966l-15.562-2.829z"/><path d="M175.851 345.708c1.511.252.831 2.737-.586 2.406l-11.217-2.686c-.228-.061-.421-.024-.47.303-.813 5.529-1.371 6.833-3.708 6.845-2.138.01-1.923-1.838-2.04-2.546l.117-5.63c-.044 1.261-.209 2.139-1.009 2.102-.917-.042-1.129-1.164-1.15-1.938-.067-2.467 1.452-2.982 2.487-2.92 4.287.258 1.916 5.17 1.995 7.194l.657-4.297c.196-1.147.645-1.418 1.549-1.286l13.375 2.453Z"/><path d="M169.805 336.037c1.506.292.976 2.542-.327 2.336l-6.665-1.074c-.479-.086-.648-.037-.751.373l-.656 2.757c-.384 1.39-1.554 1.888-2.722 1.647-1.247-.257-1.608-1.59-1.362-2.955.09-.496.617-1.378 1.456-1.215.875.17 1.27 1.224 1.163 2.069.263-1.465-.354-5.364 2.168-4.919l7.696.981Z"/><g transform="rotate(20.478 165.86 340.36)"><circle cx="165.86" cy="340.36" r="2.333"/><circle cx="165.86" cy="340.36" r=".833"/></g><path d="M173.545 336.003c1.054.045 1.982.528 1.976 1.528-.014 2.486-3.007 4.538-1.5 5.5-1.011-.971.037-2.024 1.014-1.983 1.02.043 1.516 1.035 1.503 2-.026 2.03-4.404 3.085-5.017-.017-.498-2.52 2.008-2.004 2.002-5.041.033 2.059-1.486 2.018-1.985 1.55-1.139-1.068-.47-3.642 2.007-3.537ZM156 333c.5.5-.5 2-.5 2m.5-1 .083 6.986M173 332.5v3.5"/><path stroke-width="6" d="M159.977 296.704c21.165 11.779 62.476 9.785 80.023.309m-70.14-19.11c22.498 8.781 43.901 8.409 61.336.117"/><defs><g id="F" class="B"><circle cx="216.5" cy="294" r="1.667"/><path d="M202.753 287.822a7 7 0 0 1 9.36 3.222 7 7 0 0 1-9.36-3.222zm29.505 9.217a7 7 0 0 1-9.65-2.212 7 7 0 0 1 9.65 2.212zm-29.165 4.912a7 7 0 0 1 8.26-5.456 7 7 0 0 1-8.26 5.456zm16.994-11.868a7 7 0 0 1 6.742-7.25 7 7 0 0 1-6.742 7.25z"/></g></defs><use href="#F"/><use href="#F" transform="rotate(20 200 200)"/><g class="B"><circle cx="227.5" cy="25.5" r="6.167"/><circle cx="227.5" cy="25.5" r="2.705"/></g><circle cx="239.25" cy="11.25" r="2.583"/><circle cx="239.25" cy="11.25" r="1.083"/><circle cx="221.25" cy="8.25" r="2.583"/><circle cx="221.25" cy="8.25" r="1.083"/><g class="B"><path d="M224.5 19.5S221 5 230.5 7s1.5 13.5 1.5 13.5m-5-2s-1.5-9.5 3-8.5.5 9.5.5 9.5m-9 2.5c-3.5-1-1.17-18.995-9-13-3.359 2.572 1 6 1 9.5s-2 10.5 3.5 12c0 0 7.685 1.732 9.172 1.428M224 12c-1.5-.5-5.969-.345-2.976 9.425m-6.387-9.518c3.046 3.207 1.449 8.242 2.082 11.088C217.311 25.656 219 27 221 27m13.435-2.23c3.639-.039 7.004-19.269 12.97-11.418 2.559 3.367-2.55 5.521-3.475 8.896s-.846 10.654-6.546 10.647c0 0-7.867-.361-9.221-1.047"/><path d="M234.836 13.66c1.174-1.344 6.96.919.066 10.421m9.674-8.491c-3.784 2.288-3.575 7.565-4.937 10.142-1.274 2.409-4.172 2.68-6.1 2.152"/></g><g class="C"><path stroke-width="3" d="M272 23.5s-3.443-.514-2.443-3.014 5.662-.225 6.189 2.056c.356 1.541-4.398 6.469-1.746 7.958 3.619 2.032 3.001-4.388 6.127-5.096 1.926-.437 9.112 2.317 9.373 5.596m-1.925 2.436 1.88.908M286.5 36.5l1.88.908"/><path d="M291 36.5s2 .5 1.5 1.5-2.5 3-2 3.5 4.5 2 4 3.5-1.5 2.5-2.5 2 0-2 0-2m0-11s5.5 2 6 3.5-2 4-1.5 4.5 1.5 1.5 2.5-.5M292.5 31s6.512 3.983 7.012 3.483.543-.975-1.512-1.983" class="B"/><path stroke-width="3" d="M287 41s-11.5-6.5-12.5-5.5-3 8-4 7.5-2.797-.842-2.894-2.062c-.055-.705 4.026-7.661 3.526-8.161s-4.528-3.466-5.645-.574c-.649 1.682 1.694 2.203 1.694 2.203"/><path d="m274 38 11.5 6" class="B"/></g><path d="M277 40c-2.5 4.5-2.5 5-6 3m8.927-1.5c-2.52 5.103-4.427 5.345-5.927 2.845" class="B"/><path d="M283 43c-2.5 4.5-4 5.5-6.5 2.5" class="B"/><path d="M285.5 44c-2.5 5-3.5 6-6 3" class="B"/><path d="M280.081 30.888s-.49 2.203 1.419 3.112c2.007.956 3.531-.671 3.531-.671" class="C D"/><path d="M324.116 50.114c16.252 5.874 20.932 26.351 11.874 40.433-15.218-6.837-22.171-27.421-11.874-40.433Z" class="B"/><circle cx="332" cy="62" r="3.333"/><circle cx="332" cy="62" r="1.487"/><g class="B"><path d="M336.47 60.788c-.5 3.5-.654 5.361-9.47 7.712-6.09 1.504-3.824 10.124.398 15.832" class="C"/><path d="M338.498 64.202c-.963 3.369-4.293 6.05-7.889 6.187-2.62.099-4.067 1.03-4.155 2.415-.094 1.464.655 2.52 3.155 2.52"/></g><rect width="3.5" height="11" x="329.5" y="71.5" rx="1"/><rect width="3.5" height="11" x="333" y="71.5" rx="1"/><rect width="3.5" height="11" x="336.5" y="71.5" rx="1"/><path d="M328.5 62.5c-4.865 2.175-8.822-6.857 1-9.5" class="B"/><path d="m327 54 2 2m-4.5 0 3 1m-4 1.5h3.5m-3 2 3-.5"/><g class="C D"><path d="M361.185 115.596s-1.754 1.422-.823 3.321c.979 1.996 3.184 1.668 3.184 1.668"/><path d="M358 123s-4 4.5-3 5.5 4.5 2.5 5 1.5 1.5-5 3-5 1 5.5 2.5 6 6-1 6-3-4-4-3-5.5 6 2 7 1 2.5-4.5 1-5-6-1.5-6-1.5m-14.996.244s-6.01.372-6.158-1.036.888-5.099 1.979-4.875 4.827 1.91 5.77.727-3.643-4.194-3.088-5.687 4.55-4.117 6.104-2.879.591 5.633 2.385 5.772 2.22-5.974 3.626-6.144 5.067.812 4.512 2.305-2.608 5.664-2.608 5.664"/></g><circle cx="362.75" cy="117.75" r="5.25" class="B"/><g class="C"><path d="m355.5 119 1.535 3.069M353.5 119l2 4.5"/><path d="M370.485 110.376 374 112l-.99 3.721" class="B"/></g><path d="M382.02 173.975c9.057-2.209-1.507-10.388 2.479-10.593-1.895 1.11.332 2.906 1.573 2.025 1.418-1.008.928-3.407-1.572-3.907s-4.341 1.998-3.341 3.498"/><path d="M381 164.5c-4.5 0-3.499-6.571.001-6.071s2.517 3.027.517 3.527-1.952-1.504-.452-1.504m-8.099 5.486L369 173l2 1.5s2-3.5 4-2.5 4.032 2.971 7.5 2.5c5.039-.684 10.468 3.705 6.507 6.433-3.55 2.445-5.957-2.389-3.007-2.933 2.02-.373 1 1.5 1 1.5" class="C"/><path d="M384.49 179.515c-.991 2.443-1.522 4.385-4.008 4.951-2.455.558-4.946-.088-4.456-1.506.517-1.497 4.467-4.109.967-5.609S375.5 181 373.5 181.5s-5.062-3.554-2.476-7.035m13.466 5.366s1.086 9.092 6.086 8.592c-1.484-3.398-2.076-6.923-2.076-6.923m1 3.5l-3.602.037m4.204 1.963l-3.099-.028M389 183h-3.5"/><path d="M389 176c4.5-5 2-21.5-7.5-22s-14.5 5-15.5 10.5" class="B"/><path d="m390.5 172.5-5-1m5.5-1.5-5-.5m5-2h-6m5.5-2.5h-4m3-3-3 .5m2-4-3 3.5m1-6-3.498 5.336m.498-6.836-1.5 4m-2-4.5v4.5m-3.5-4.5 1.524 6.973M373.5 155.5l2.504 6.427M371 157l2.541 4.294M368.5 159l2.5 2.5m-4 0 1.498.87m9.232.558a8 8 0 0 1-11.23 1.374 8 8 0 0 1 11.23-1.374z"/><path d="M374.923 163.272a4 4 0 0 1-5.616.686 4 4 0 0 1 5.616-.686z"/><circle cx="381.5" cy="169.5" r="2"/><path d="M381.062 164.5a7 7 0 0 1 .748 9.872 7 7 0 0 1-.748-9.872zm-5.644 49.435c-.921-.94-2.589-2.779-2.191-3.46.979-1.678 7.852 2.931 9.431 4.158"/><path d="M375.5 218.066c-1.082-1.035-4.678-3.368-3.892-4.485 1.118-1.589 8.819 2.499 10.817 3.829m-8.865 3.152c-1.559-.947-4.102-3.026-3.451-3.982 1.094-1.606 6.774 2.371 8.438 3.481m-5.056 4.877c-1.101-.916-3.63-3.355-3.453-4.301.352-1.877 4.477.358 6.487 1.368"/><path d="M372.518 227.98c-.594-.456-3.551-2.056-2.956-3.361.805-1.769 7.283 1.81 8.978 2.872"/><path d="M373.009 232.348c-1.599-.91-3.943-3.316-3.512-4.181.53-1.062 3.517-.23 4.511.345m8.942-8.589c-.93-2.089-1.024-5.12.054-5.46 1.404-.441 4.498 3.801 5.505 5.53"/><path d="M384.011 226.785c-1.402-1.426-6.968-7.121-5.585-8.532 1.36-1.388 7.047 3.144 8.118 5.667m-6.072 5.062c-1.45-1.371-5.928-5.206-4.598-6.666 1.309-1.436 6.221 2.744 7.67 4.115m-4.036 7.457c-1.623-1.16-6.625-5.26-5.845-6.854.854-1.745 4.776.847 6.399 2.008m6.491-4.066c0-2 .44-5.045 1.959-5.054 1.604-.01 1.953 4.507 1.953 6.507"/><path d="M379.508 234.921c0-2 .484-7.869 1.992-7.921 1.942-.067 2.48 7.991 2.48 9.991m3.477-6.457c.796-1.835 2.561-4.472 3.858-3.738 1.691.957-.494 7.314-1.29 9.149"/><path d="M383.968 233.936c1.063-1.462 2.962-3.927 3.976-3.388 1.179.626.077 3.676-.971 5.379M376.25 238a1.75 1.75 0 1 1-1.427 2.763c1.178-1.221 1.128-1.771 1.427-2.763Z"/><path d="M390 236c-1-1-5 1-7.5 1s-6.5-7-8.5-6-.5 3.5-.5 5.5-2 4-1 4.5 2.425-.576 2.921-1.08c1.015-1.031.579-4.42 1.579-3.92s2.473 2.703 3.5 3c1.569.453.5 2 0 3s-5.5.5-5.5 1.5 7.5 3 9 2 2.012-4.492 3.052-5.579C387.825 239.114 391 237 390 236Zm-4.237-12.5a6.5 6.5 0 0 1-1.448 9.078 6.5 6.5 0 0 1 1.448-9.078z"/><circle cx="385.105" cy="228.105" r="1.75" transform="rotate(13.265 385.105 228.105)"/><g class="B"><path d="M356.026 290.831c-1.5 3-7.984 5.495-8.526 2.169-.323-1.98 2.595-2.144 2.595-2.144"/><path d="M365 291.5c2.5-1.5 9.5-5.5 10-14 0 0 3.5-1 5-3 0 0-.5-5-8.5-6 0 0-6.556-6.487-13.556-3.987L347.5 286.5s-1.514 2.554.986 4.054 5.038-2.657 5.038-2.657l2.494 3.087S355 294 356.5 295s3.018-.164 3.018-.164S359.5 297.5 361.5 297s1-4 3.5-5.5z"/></g><path d="M365 291.5c2.5-1.5 9.5-5.5 10-14 0 0 3.5-1 5-3 0 0-.5-5-8.5-6 0 0-6.556-6.487-13.556-3.987L347.5 286.5s-1.514 2.554.986 4.054 4.014-1.054 4.014-1.054l7.5-17 4.5 2.5-8.5 17s-1 2 .5 3 3.018-.164 3.018-.164S359.5 297.5 361.5 297s1-4 3.5-5.5z"/><g class="B"><path d="M376.236 277s-4 1.5-5-.5 1.5-4 1.5-4" class="C"/><path d="M363.581 293.298c-1.352-2.199-3.706-1.281-4.081 1.202"/></g><path d="m356.5 291-2.536-3.677 4.536-.823"/><path d="m356 283 2.148 3.479L354 287.5m2-5 3.5 1.5m2.5-10-4.5 9.5m11.07-5a7.5 7.5 0 0 1-4.568 9.573 7.5 7.5 0 0 1 4.568-9.573z"/><circle cx="366.232" cy="283.232" r="2" transform="rotate(29.963 366.232 283.231)"/><path d="M336.54 320.929c3.135-2.467 5.39-2.487 6.426-.504 2.046 3.915-3.675 6.157-9.112 6.661"/><path d="M341.514 324.834c1.687-.43 3.81.178 4.339 1.624 1.138 3.11-2.572 5.401-8.009 5.905m-3.263-3.475s8.882-2.941 9.377-1.435-8.896 3.517-8.896 3.517m-.497-7.028s5.929-4.018 6.424-2.512-5.93 4.018-5.93 4.018M320.5 337c-2.456 3.171-2.476 5.453-.5 6.5 3.9 2.068 5.459-3.554 6.561-8.684m-2.17 7.213c-.428 1.707.179 3.854 1.619 4.388 3.098 1.15 4.933-3.111 5.433-8.611m-3.018-2.791S325.5 344 327 344.5s3.5-9 3.5-9m-7-.5s-4 6-2.5 6.5 3.565-4.802 3.565-4.802m2.888-24.289l-14.94 15.437 3.845 4.227c1.226 1.198-1.522 1.538-.432 2.974 1.053 1.385 3.614-.645 3.047-2.672-.491-1.758-1.911-2.602-2.932-4.036l11.906-12.402c1.47 1.511 2.994 2.623 3.981 2.824 2.562.523 5.072-1.761 3.572-3.261s-1.708 1.912-3 1c-1.5-1.059-5.047-4.091-5.047-4.091z"/><path d="M315.5 331c-3.415 1.093-3.173 4.791-1.5 6.5 1.492 1.525 4.479 1.415 6.425-.638 1.621-1.709 1.267-4.838.081-6.463-1.089-1.492-2.006-2.399-2.006-2.399l9.442-9.583s1.628 1.514 3.105 2.447c2.35 1.485 5.008.236 6.278-1.462 2.15-2.873.646-5.311-.977-6.412-1.386-.942-4.784-.483-4.839 2.879"/><circle cx="325.25" cy="325.75" r="2.583"/><circle cx="325.25" cy="325.75" r="1.083"/><path d="m329.818 335.654 3.589 5.239 6.841-7-6.124-3.913"/><path d="m331.548 335.332 2.298 3.275 4.121-4.213-3.495-2.573"/><g class="B"><path d="m336 325-11.5 12.5s-2.572-2.989-1.585-5.623c1.438-1.33 6.505-6.909 8.46-8.731C333.41 322.674 336 325 336 325Z"/><path d="M326 335.5s7.5 1 8.5 0-.5-8-.5-8m-10.5 3-3.5-4m10.5-3-4-3.5"/></g><path d="M328.581 328.869 329 332.5l3.528.855L332 329.5l-3.419-.631Z"/><g class="E"><circle cx="277.25" cy="363.75" r="3.417"/><circle cx="277.25" cy="363.75" r="1.455"/></g><path d="M268.598 358.486a1.75 1.75 0 0 1 2.31.887l.713 1.598-3.197 1.425-.712-1.599a1.75 1.75 0 0 1 .886-2.31zm6.395-2.85a1.75 1.75 0 0 1 2.31.886l.713 1.599-3.197 1.424-.713-1.598a1.75 1.75 0 0 1 .887-2.31zm-3.197 1.425a1.75 1.75 0 0 1 2.31.886l.713 1.599-3.197 1.424-.713-1.598a1.75 1.75 0 0 1 .887-2.31zm6.394-2.85a1.75 1.75 0 0 1 2.31.886l.713 1.599-3.197 1.424-.713-1.598a1.75 1.75 0 0 1 .887-2.31z"/><path d="M267.5 360c-1-1.5-1-3.5 0-4.5l15.014-7.053 2.522 4.961c.431 1.158 2.43.677 2.962 1.535.589.95.472 2.173-.015 2.809-.68.887-2.483.748-2.983-.252.54 1.045 0 2-1 2.5s-2.075-.164-2.575-1.164 1.015-1.488.515-2.488-1.852-2.719-2.448-1.933M285 352.5s6.534-3.428 10.5-1.5c-2.523 5.976-7.427 6.842-7.427 6.842m6.17.538s3.702-.523 5.757.708c-.975 3.741-6.039 6.081-6.039 6.081"/><path d="m292.627 355.5 1.873 2.871s-10.548 8.832-14 3.177"/><path d="M293.5 357s-9 7-13 4.5m11.5-1 2 4.5s-7 5-10.5 2.5"/><path d="m294 365 2 4.5-8 3-2-4.5m8.5-1.5-6.047 2.839m6.485-1.4-5.841 2.655"/><path d="M283.5 363.5c1.494 3.032-.616 5.822-2.53 6.756-2.277 1.112-6.153-.151-6.5-3.804" class="C"/><path d="m284 365-3-.5m2.5 2.5-3-1.5m2 3.5-2.5-2.5m-1.5.5 2 3m-4-3 1 3m15-8.5s-6 4-8.5 3.5m9.5-1.5s-7 4.5-9.5 3m-5 4-.541 3.844s5.06 2.148 9.541-1.844"/><path d="M278.5 373s5 1.5 9-2m-8.5.5s4 1.5 7.5-2m0-1-5 1.5m-8-5-2.409 6.926m7.051 2.158.841-3.617m-8.794 4.052-.689 1.981 7.5 2.5.62-2.669m-5.928-.908L271 377.5m3.5-10.5-1.631 4.892M275.5 369l-1.079 3.237m-1.294 3.882L272.5 378m2.111-1.578L274 378.5m2.5-8.5-.762 2.591m2.012-2.091-.775 2.705m-.972 3.389-.527 1.841"/><ellipse cx="274.121" cy="374.259" rx="4.75" ry="2" transform="rotate(16.391 274.122 374.26)"/><path d="M269.009 363.604c.125-1.494 3.02-1.462 3.52.038s-.024 3.772-1.5 3.5c-1.118-.206-1.121-1.26-.621-1.76s.095-.899-.379-.74c-.504.169-1.108.011-1.02-1.038Z"/><g transform="matrix(1 0 0 -1 0 769)" class="E"><circle cx="225" cy="384.5" r="4.667"/><circle cx="225" cy="384.5" r="2.917"/><circle cx="225" cy="384.5" r=".917"/></g><path d="M234 370c2.389 1.977 4.014 6.271 1.5 6.5-2.477.225-2.789-3.313-1.5-6.5Z"/><path d="M232.987 367c4.766 3.341 8.008 10.596 2.992 10.983-4.942.381-5.565-5.599-2.992-10.983Z"/><path d="M236.09 364.891c4.5 2 9.91 10.609 6.91 17.609s-14.035 12.505-25 11.5c-1.993-3.988 3-6.5 3-6.5" class="B"/><path d="M237 377.5c2.499 1.578 2.309 5.076-.45 6.443-1.999.99-4.093-.487-4.581-2.049-.447-1.432.531-3.394 2.531-3.394s2.836 1.789 2.056 2.922c-1.06 1.541-3.02.162-2.056-1.002m4.5-12.92-4 1m5.5.5-4 1m5.5 1-4.5 1m5.5 1-5 .5m6 2-5.5-.5m5.5 2.5-6-1m5.5 3.5-5.5-1.5m5 4.5-4-1.5m2 4-3-2.5m-1.5 1 2.5 3"/><path d="m237.5 389-4-5m1.5 6.5-3.056-4.707M230 386.5l1.5 5" class="C"/><path d="m228 388.5 1 4m-3-3.5.5 4m-2.5-3.5v4m-1-4.5s-1.5 1.5-1 4.5m0-5s-2.5 1.5-2.5 5m.5-9c-4.5 2-7.571-1.319-6.67-3.451 1.134-2.686 4.189-1.042 3.17.951"/><path d="M216.414 380.43c3.468-.374 5.586-1.93 5.086-4.93s-3-4-7.5-3c0 0-1.659-2.96 6.061-3.17 3.999-.109 6.018.961 6.439 4.67.482 4.243-.506 5.726-.506 5.726"/><path d="m221.5 377-7 1 .5 2m2 .5-.5-3m2.5-.5.5 2.5m2-5-7.011 1.383-.504-3.387m2.515 3.004-.5-3.5m2.5 3-.5-2.5m-3.5 5.5c-2.5.5-4.5-4.5-3-5s3 3 3 3m-45-5-2.5 4-1-4.5-3 4-2.047-4.618-2.393 3.056"/><path d="M160 369.5s12 0 11 4-12.5 0-12.5 0l-1 5.5s5-.5 7 2 6.5 10.5 15.5 6c0 0 3.065 5.123 7 6 2.539-3.139 5-15.5-4.5-15.5 0 0 1.5-7-7.5-8.5s-13.5-3.5-14.5-2.5-.5 3-.5 3Z" class="B"/><path d="M177.03 382.606a7 7 0 0 1-9.53-2.682 7 7 0 0 1 9.53 2.682z"/><circle cx="172.247" cy="381.247" r="1.75" transform="rotate(110.219 172.247 381.247)"/><path d="M186 392.5s-10.273-8.55-5.926-11.496c3.119-2.113 6.265 1.1 5.104 3.324-.959 1.84-3.539 1.273-2.917-.264" class="B"/><path d="M159.432 372.726c-4.023-1.616-2.018-8.81.568-6.226m-57-.5.5-4m-2.5 3v-3.5m-1.5 2.5-.5-2m24.5 14.5 3.5-2m-1.5 3 3-1.5m-1 3 2-1"/><path d="M102.56 355.832l5.405 2.453c.5 0 3.998-5.451 4.498-5.451s16.492 7.587 16.492 8.087-1.863 6.95-1.363 7.45 4.497 2.407 4.497 2.407L136.5 359.5c-2.521-1.136-24.439-12.118-27.5-13.5-1.4 1.742-6.44 9.832-6.44 9.832zM112.5 353l-2-6.5m7 9l2-4.5m6.5 3.5l-2 4m4.5 2.5l6.5-2" class="B"/><path d="M113.057 356.894s-7.226 9.693-3.85 11.326c1.811.876 3.985-3.558 3.985-3.558m4.649 3.575s-2.224 3.892-.265 4.762c.91.404 1.906-.261 2.814-1.289 2.411-2.732 5.188-9.24 5.188-9.24m-12.22 2.209s-5.834 8.149-2.069 9.885c3.853 1.777 6.311-6.842 6.311-6.842"/><circle cx="117.5" cy="363.5" r="4.5"/><use xlink:href="#B" x="-156" y="95" class="C"/><path d="M100.559 357.78l7.941 3.72c.5 0 4-5.5 4.5-5.5s13 6 13 6.5-2 7-1.5 7.5 7.044 3.822 7.044 3.822" class="B"/><path d="M105 363.5c3 0 2.58 3.448 1 3.5-1.826.06-6.5-4-8.5-3m27.628 9.277c-2-2-4.465-.673-3.631 1.708.662 1.888 5.503 2.515 7.003 5.015" class="C"/><g class="E"><circle cx="65.25" cy="330.25" r="2.917"/><circle cx="65.25" cy="330.25" r="1.186"/></g><g class="B"><path d="M71.66 331.425c-2.176 6.92 7.492 10.37 12.906 8.788-.486-4.029-2.316-10.362-8.39-12.304" class="C"/><path d="M74 338.5c-4 6-12.972 1.409-14-5.5-1.113-7.479-6.993-8.958-6.5-11.5.45-2.324 3.195-2.196 4.023-1.179 1.006 1.238 1.025 3.843-2.017 4.13m11.57-5.016c2.081 2.737 2.557 3.065 3.424 3.065 1 0 2.065-1.126 2.028-2.626-.019-.783-.762-1.871-1.74-2.973m-13.775 2.756c1.077-2.397 4.497-5.113 6.159-3.724m4.307-1.442C67.496 313.535 66 312.5 66 312.5s1.5-2 3-1.5 15 13 11 18.5m-1.5-8.5s8.117 5.459 8 8c-.094 2.059-3.5 5-3.5 5"/></g><path d="M70.599 314.549c-3.5-2-8.5 2-9 3.5s.923 2.271 1.4 1.377c1.387-2.602 7.6-4.877 7.6-4.877Z"/><path d="M72 316c-3.5-2-8.5 2-9 3.5s1 2.5 2 1.5 7-5 7-5Z"/><g class="B"><path d="M77.211 339.703s2.309 4.266.332 10.139C71.541 348.9 71 340.5 71 340.5m-32.5-55c-2.075 3.739 2.988 9.974 8 13 3.138-5.815 1.02-10.855-2-15 0 0 3.022-1.764-.5-9.5-3.558-7.816-4-10.5-5.5-10l-1.5.5s3 7 3.5 8.5.015 2.453-.985 2.953S37.5 276 36.5 274s-3.483-8.056-3.483-8.056-5.613 1.201-5.517 3.056c.081 1.579 2.668 4.793 2.79 6.377.12 1.566-.217 8.747 2.73 12.111 2.122 2.421 5.419 1.962 5.419 1.962"/><path d="M38 290c-2.5 1.5-6 7.5-1 13 4.542-4.776 4.5-9 4.5-9m3.5-18c2-1 6.441 6.393 6.941 9.893S48 290 48 290"/></g><path d="m37 264.5-4 2m5.5 1-4 2M40 271l-4 2m3.5 3L35 265.5"/><circle cx="30" cy="268.5" r="1.5"/><path d="m36.5 289.5-6 3M36 290c-2.5 1.5-3.5 7-3.5 7m4.05-7.507c-3.62.603-8.05-.993-8.05-.993" class="D"/><path d="M36.088 285.099a7 7 0 0 1-2.549-9.566 7 7 0 0 1 2.549 9.566z"/><circle cx="34.814" cy="280.314" r="2" transform="rotate(170.087 34.814 280.315)"/><g class="E"><circle cx="15" cy="229.5" r="4.167"/><circle cx="15" cy="229.5" r="1.859"/></g><g class="B"><path d="M18.523 212.962C18.12 215.915 18.5 221 16.5 221.5s-4-1.5-6 0-4.801 7.452-1.447 14.868c3.482 7.699 16.508 7.76 19.436.054 1.264-3.327 4.685-.058 2.576-6.63 1.894-.723 1.334-6.893.449-11.422-.694-3.551-.969-8.429-6.578-6.527l1.591 11.658-2.475.356s-1.089-9.784-1.591-10.96-3.938.065-3.938.065z"/><path d="M24.357 223.591c-2.434 2.656-1.733 2.951-1.228 4.95.419 1.66-2.157 2.387-1.077 3.882.904 1.253 2.844.159 3.349-.994 1.032-2.354 4.644-2.479 6.048-1.486"/><path d="M22.5 230.5c-2 1-1 2.5-2 4.5s-4.5.5-5.5 2"/></g><path d="M21.852 237c-1 1 .5 3.5 0 4.5" class="D"/><path d="M19.5 214c-1.066-1.404-2.875-2.042-4.089-.477-.855 1.102.001 2.452-.906 3.401-.978 1.023-2.051.223-3.033 1.422-.809.988-.472 2.154.028 3.154" class="B"/><path d="M20.34 223.432a1.125 1.125 0 0 1 .965-1.264l1.859-.248.298 2.23-1.859.249a1.125 1.125 0 0 1-1.264-.967zm-.794-5.946a1.125 1.125 0 0 1 .967-1.264l1.858-.248.298 2.23-1.859.249a1.125 1.125 0 0 1-1.264-.967zm.397 2.972a1.125 1.125 0 0 1 .968-1.263l1.858-.248.298 2.23-1.859.249a1.125 1.125 0 0 1-1.264-.967zm-.793-5.946a1.125 1.125 0 0 1 .965-1.264l1.859-.248.298 2.23-1.859.249a1.125 1.125 0 0 1-1.264-.967zm10.193 7.747a1.15 1.15 0 0 0-1.292-.988l-1.834.245.305 2.28 1.833-.245a1.15 1.15 0 0 0 .988-1.292zm-.812-6.079a1.15 1.15 0 0 0-1.292-.988l-1.833.244.304 2.28 1.834-.245a1.15 1.15 0 0 0 .987-1.292zm.406 3.04a1.15 1.15 0 0 0-1.292-.988l-1.834.245.304 2.28 1.834-.245a1.15 1.15 0 0 0 .988-1.292zm-.811-6.08a1.15 1.15 0 0 0-1.292-.988l-1.834.245.305 2.28 1.833-.245a1.15 1.15 0 0 0 .988-1.292z"/><path d="M16.551 161.448c0-2.5 1.354-6.766-4.646-5.266s-7.163 23.187-2.518 29.708c2.986 4.193 15.456 6.795 19.537-4.992 1.707-4.932-.442-9.414 1.432-13.706 1.509-3.457 3.587-6.093 2.564-8.981-1.339-3.776-10.491-1.323-11.68 8.23-1.651 13.267-5.231 11.216-5.24 9.559-.015-2.693 5-5.5 4.5-10s1.712-6.267-.039-6.542c-3.198-.502-2.265 5.89-3.945 5.813-1.096-.05.035-1.323.035-3.823ZM30 170.426 22 164" class="B"/><path d="m30.5 167.5-8.5-6m9.5 3.5-8-5.5m1.5-2 7 5.5m.5-2.5-5-4"/><g class="C"><path d="M12 156l6.5 16m-1-10.5L20 167m-5.668 1.996L16.5 174.5M10 158l2.356 5.981M9 160.5l.886 4.276m1.501 5.138c1.23 3.461 2.934 6.65 5.113 7.086 5 1 9-10 9-10M8 164.5s-.5 16.5 8.5 16 11-11.5 11-11.5m-21 5.5s2 11.5 11.5 10S29.5 171 29.5 171"/><path d="M8 183.5s7.675 5.057 12.963 3.045C26.188 184.558 29.5 178 29.5 178M13 156s-2.5 7-5 9.5m7-9s-.649 3.03-2.945 7.525m-2.6 4.493A54.477 54.477 0 0 1 7 172m9.5-14c-.011 1.639-1.056 4.032-2.454 6.647m-2.942 5.159C9.225 173.014 7.467 176.05 7 178"/><path d="M18 162c-1.5 6.5-8.58 14.574-9 21.5M21 164c-3.034 7.76-8.967 11-9 23.5m4.5-11.5s-1.887 5.998-1.5 12.5m3.5-12.5c1.486 5.554-.5 13-.5 13m2-17c3.105 7.489 1 17 1 17m.5-22.5s3.988 11.297 2 21.5m.445-22.53c1.963 5.191 2.499 14.051 2.055 20.03m0-18s2.5 4.5 2.5 13.5"/></g><path stroke-width=".5" d="M17.033 159.949c-.606 1.958-.926 3.163-.033 3.551 1.469.638 1.799-2.624 1.933-4.502.249-3.506-.428-5.105-3.428-5.605s-4.054-1.817-4.054-1.817-.537 1.02 1.549 2.424c-2.547.054-2.472 1.512-2.472 1.512s1.465-.54 4.492-.088c3.128.468 2.439 3.15 2.013 4.525Z"/><circle cx="12" cy="167" r="2.833"/><circle cx="12" cy="167" r="1.218"/><path d="M37 123.5c-2 .5-3.89 3.335-.978 5.94 3.477 3.109 4.528 4.785 3.942 7.957-1.324-3.308-2.031-2.792-5.915-5.053-4.528-2.636-3.826-8.925-3.688-13.046-.847 2.954-.783 8.035-3.861 6.702-2.425-1.051-2.505-3.452-1.449-5.53-2.153 1.636-2.614-.173-.614-3.173s3.166-5.283 2.642-.326c-.421 3.978-1.024 5.541-.042 5.573 1.589.05.397-8.053 3.963-7.544 2.524.36 1.585 4.691 1 6.5 1.382-2.23 3.58-6.559 1.08-7.059s-7.515-2.225-2.142-6.431c3.063-2.398.612-7.134 3.112-8.134s4.832.116 4.967 1.617c.185 2.053-.818 2.205-1.982 3.805 1 0 2.058-.799 2.558.201s-4.562 1.576-7.39 5.246c1.772-.663 3.902 1.647 4.902 1.647-1.634-.284-2.064-2.06-.105-3.392 2.131-1.449 5.627-6.511 6.5-7 1.493-.836 3 1 3 2s-2.572 4.329-2.572 4.329 1.857-1.122 2.211 1.1c.26 1.627-4.237 4.142-5.639 4.571 3.041.073 4.027 2.563 4.951 4.458.034-1.868-.638-9.388 2.118-9.571C49.066 108.787 52.5 111 52 113s-2.972 7.411-5.5 8.5c-1.893.816-3.885-1.89-4.5-3 .057 1.002-.468 1.953-1.5 2 2.473.048 6.5 3.5 6 5s-5.48 2.047-6.5 2c3.02 1.659 4.629 2.977 4.129 3.977S42.5 135.5 41.5 135s-6.358-6.48-5-8.5c1.371-2.039 6.119-.876 6.119-1.876S39 123 37 123.5z"/><path d="M46.487 104c.975.515 2.923 1.03 2.436 2.059s-2.436 0-2.923-.514m-.513.455c.975.515 2.923 1.03 2.436 2.059s-2.436 0-2.923-.514m3.5-1.045c1 .5 3 1 2.5 2s-2.5 0-3-.5m-5.5-5.5c1 1.5 2.5 1 3 0m-3 3l-5 5.5m4.5-5c1.911 1.975-.466 5.992-3.574 4.387m2.48-3.094c.597 1.646-.813 1.859-1.433 1.566M35 99.5s-1 3-1 4.5m3.5-4.5s-2 3-2 5m13 4.5s-1.5 1.5-2 4m3.5-3.5l-2 4.5m3.5-3l-2 3.5M25 116l1 1.5m-2 1h1m-2 1.5l1.5-.5m19 12.5l-3-2.5m2 4.5l-2.5-3"/><path transform="rotate(315 78.633 77.133)" d="M63.633 74.383h30v5.5h-30z"/><path transform="rotate(315 70.678 79.43)" d="M65.928 78.181h9.5v2.5h-9.5z"/><path d="m74.92 76.956 3.536-3.536-3.889-3.889 6.01-6.01-2.828-2.829-13.125 13.125 2.829 2.829 3.579-3.579 3.888 3.889Z"/><path d="m73.153 75.188-6.718 6.718-7.08-7.08 16.267-16.267 2.13 2.13m-10.963-1.764"/><path d="m66.789 58.925 4.242 4.242 4.596-4.596-1.414-1.414-1.414 1.414-1.414-1.414-1.414 1.414-1.415-1.414-1.767 1.768Zm-5.834 5.833 4.243 4.243 4.596-4.596-1.414-1.415-1.415 1.415-1.414-1.415-1.414 1.415-1.414-1.415-1.768 1.768Zm-5.834 5.834 4.243 4.243 4.596-4.597-1.414-1.414-1.414 1.414-1.414-1.414-1.415 1.414-1.414-1.414-1.768 1.768ZM120.5 31.5c-1.494.531-.5 2 .5 1.5s1.5-2.5 0-3-4 1-3 4-.5 4-1.5 5-1.373 3.433 1.627 4.933S131.389 37.556 134 37.5c2.042-.043 1.903-2.908-1-2-4.65 1.454-12.635 7.54-13.52 4.644-.516-1.686 6.39-8.303 11.52-9.144 3.469-.569 3.027-2.452 1.01-3.007-3.049-.837-10.032 3.928-10.032 3.928"/><path d="M128.907 31.354l2.057 3.589c1.536-1.456 1.544-3.412 1.074-4.538m-6.538 3.044s1.532 2.014 2.034 3.013c1.536-1.456.905-3.43.434-4.557m-4.977 3.427s1.02 1.185 1.521 2.184c1.514-.959 1.029-2.529-.021-3.576m-3.991 3.453l.968 2.085c1.106-.861 1.522-1.636.532-3.478m-4 8c-.5 3.5 2.5 5 6 3s11.002-5.812 13.555-7.059c-1.562-1.884-3.036-1.943-5.081-2.002m-11.987 5.897L123.5 47m-1-4l3.013 3.164M125 42l3.013 3.164M127.5 40.5l3.013 3.164M130 39l3.013 3.164M132 38l3.013 3.164"/><circle cx="110.5" cy="42" r="3.333"/><circle cx="110.5" cy="42" r="1.487"/><path d="M114 42.5c2.5 1 4 4 2.5 5s-2-2.5-3-1.5-2.483 7.021-4.517 7.476c-1.591.355-2.99-2.33-2.49-3.33s4.454-3.147 3.954-4.647m7.053-12.873c-2.55-.503-5.61.502-6.63 3.016s-1.601 2.979-3.088 2.834c-1.014-.099-2.259-2.382-.063-2.877 1.139-.257 1.643 1.005.562 1.486M118 33.5c-3.417.023-5.576.955-7 5m7-5l-7 5m6.974-4.583c1.02 5.028-4.48 6.604-6.452 4.534"/><path d="M116 35c.452 1.638-1.432 3.04-3 2m17-9-3.5-6.5-6 8.5"/><g class="C"><path d="m98.5 37 19-10m-18 12 19-10m47.5-8.5-7 2 7 6 2.5-4-2.5-1" class="B"/><path d="M157.426 22.5c-1.534 1.97-2.027 5.008-.493 5.5L160 24.061"/><path d="M159.758 24c-1.419 1.933-2.515 6.017-1.096 6.5A271.101 271.101 0 0 0 162 26.059m2.587 2.278c-1.5 2-2.387 5.889-.887 6.389 1.943-2.477 5.322-10.267 5.322-10.267m-7.109 2.041c-1.54 1.944-3.371 7.014-1.83 7.5 1.995-2.407 4.417-5.698 4.417-5.698m11.62-8.332c-1.84-1.274-4.217-.754-6.158 1.362-1.72 1.876-3.435-.492-2.768-1.926s2.114-1.239 2.401-.227"/></g><path d="M169.962 21.332c1.502 3.229 6.095 2.235 5.654-1.487m-4.587 1.021c1.097 1.767 3.454 1.157 3.467-.932m-13.443 1.63s-1.536-8.054 1.964-11.554c3.479 2.962 2.972 10.118 2.972 10.118"/><g stroke-width=".5"><circle cx="163.75" cy="14.25" r="1.417"/><circle cx="163.75" cy="14.25" r=".609"/></g><path d="M166.472 19.97S167.501 13.658 169 14c1.564.146 0 4.5 0 4.5"/><path d="M168.958 18.89s1.071-5.219 2.57-4.877c1.565.146.489 5.5.489 5.5"/><path d="M172.475 16.448 176 12l6.5 4.5s-1 1-2 2.5-1.5 4.5-2.5 5.5-2.994 2.37-4.494 1.87m2.509-14.416-1.495-.99L171.5 14m2-2 1.5 1m-2.5 0 1.508.979"/><path d="M170.982 14.067s-3.449-2.439-2.482-5.567c3.497-1.05 6.012 2.49 6.012 2.49m6.383 7.891s1.623 1.149 2.116 3.639c2.446-5.088-.511-6.047-.511-6.047m-3.494 6.503s.539.044 1.033 2.533c3.006-3.073-.113-5.669-.113-5.669"/><path d="m186 28.5-19.422 3.406" class="B C"/><path d="M171.02 26.47c-.53 1.606 1.42 2.033 2.003 1.044.547-.928.107-2.388-.958-2.944-1.435-.751-4.094.858-3.065 3.93.926 2.764 3.04 2.557 4.54 2.557m4.376-6.587s.63 2.602-.859 4.103c-1.577-.383-1.049-2.683-1.049-2.683m7.682 3.089s-1.789-2.37-1.751-4.035c1.623-.038 4.021 3.009 4.021 3.009m-4.947 1.481s-.545-1.747-.48-2.419c.875-.176 2.49 1.489 2.49 1.489M182.5 16.5s3.5-3.5 3-4.5-5 .5-6 2.5m-.5-.182s2.844-2.974 2.09-3.8c-.551-.603-3.044.554-4.177 1.879m-.418-.33s1.528-1.97 1.166-2.636c-.374-.685-2.593-.263-3.725 1.061"/><path d="M182.98 21.907c3.11-.811 5.02 3.093 2.52 5.593"/><path d="M186.499 24.418c2.089.062 3.505 2.137 2.001 5.082-.482-1.484-1.484-2.613-2.484-3.113m-.469-3.995c1.055-.467 1.458-1.37 1.94-3.312 1.111 2.079 1.027 4.496-.487 4.92"/><g class="B"><path d="M229.5 227h-18.69m-22.614 0H170.5m5 7.5.009-7.5m5.491 9v-9m5.5 9v-9m27.5 9v-9m5.5 9v-9m0 7.5V227m5.5 7.5V227"/><path d="M170 224.75a11.26 11.26 0 0 1 11.25-11.25h37.5A11.26 11.26 0 0 1 230 224.75 11.26 11.26 0 0 1 218.75 236h-5.644s1.66 31.646-12.584 32.459c-16.965.969-14.374-32.459-14.374-32.459h-4.898A11.26 11.26 0 0 1 170 224.75zm.5-2.25h59m-5-7.5l-.009 7.5m-5.491-9v9m-5.5-9v9m0-9v9m-5.5-9v9m0-9v9m-5.5-9v9m0-9v9m-5.5-9v9m0-9v9m-5.5-9v9m0-9v9m-5.5-9v9m0-9v9m-5.5-9v9m0-7.5v7.5M175 215v7.5"/></g><path d="M195 135.879V133.5c0-2.76 2.24-5 5-5s5 2.24 5 5v2.741m-6.912-.278v-2.311a1.913 1.913 0 0 1 3.824 0v2.186"/><path d="M203.25 141.5h-6.5v-3a3 3 0 0 1 3-3h.5a3 3 0 0 1 3 3v3zM190 146h20.5a9 9 0 0 1-9 9H199a9 9 0 0 1-9-9z"/><path d="M190 141.5h20.5v4.5H190z"/><path d="M196.5 141.5H190v-3a3 3 0 0 1 3-3h.5a3 3 0 0 1 3 3v3zm14 0H204v-3a3 3 0 0 1 3-3h.5a3 3 0 0 1 3 3v3z"/><g class="B"><path d="M189.43 225.849c-6.705 14.866-3.095 42.651 9.905 42.651s17.534-27.46 10.644-42.958"/><circle cx="206" cy="252" r="5.667"/><circle cx="206" cy="252" r="2.436"/></g><path d="M205.55 259.848c-1.785-.556-3.546-1.76-4.781-3.345a9.486 9.486 0 0 1-1.724-8.13" class="G"/><g class="B"><path d="m200.257 254-3.591 1.832m4.777-.332-3.193 2.459m6.612.822-1.031 3.897m-3.921-13.246-3.914-.965m7.671 9.664-2.006 3.497m.853-4.628-2.69 3.003m-.303-9.085-4.021.291m4.209 1.291-3.895 1.038m14.006-12.487c3.772-.208 1.691-14.122-2.82-14.051 1.816 6.679-.935 14.259 2.82 14.051Z"/><path d="M208 240.5c-7.055 3.938-3.647-7.449-1.565-13.246"/><path d="M204.242 240.337c-7.054 3.938-4.74-12.98 2.16-13.337M200 238.5c-3.697.026-6.771.805-6.781 4.315-.008 2.5 2.672 5.293 8.195 5.293m-8.116-21.041c-4.338 12.666-4.629 28.778 4.752 41.234"/></g><defs><g id="G"><circle cx="220.5" cy="262" r="4.5" class="B"/><path d="M258 234.5c.505.625 1.098 1.995 1 4-.104 2.113-2.5 5.5-6 5.5s-6.543-2.532-6.552-6.044c-.004-1.447.576-2.937 1.067-3.496"/><circle cx="252.75" cy="237.75" r="3.25" class="D"/><g class="F"><circle cx="252.5" cy="212.5" r="16.833"/><circle cx="252.5" cy="212.5" r="10.268"/></g><g class="B"><circle cx="224" cy="146" r="10.667"/><circle cx="224" cy="146" r="5.129"/><circle cx="218.849" cy="179.849" r="5"/><ellipse cx="231.798" cy="256.789" rx="7" ry="4.5" transform="rotate(334.403 231.798 256.79)"/><circle cx="242" cy="250" r="4.5"/><path d="M252.75 209.5c4.001 0 7.25 5.265 7.25 11.75 0 2.736-.578 5.255-1.547 7.252-5.269 1.688-7.544.937-11.184.436-1.102-2.061-1.769-4.749-1.769-7.688 0-6.485 3.249-11.75 7.25-11.75Z"/></g><path d="M246.5 229h6v3.5a3 3 0 1 1-6 0V229z"/><path d="M248.353 229h2.294v3.013a1.147 1.147 0 0 1-2.294 0V229zm4.647 0h6v3.5a3 3 0 1 1-6 0V229z"/><path d="M254.853 229h2.294v3.013a1.147 1.147 0 0 1-2.294 0V229z"/><g class="B"><path d="M204 158c22.497-.537 38.252-1.017 38.868 21.543.315 11.541-2.369 18.588-11.868 18.457-5.956-.082-10.645.296-10.509-2.106.173-3.044 10.217.556 15.494-1.98 3.495-1.681 4.037-6.262 4.011-15.532-1.054-18.372-13.11-17.418-35.945-17.273M224 157h33.004"/><path d="M235 157c13.463 7.975 16.782 22.886 14.843 38.729m-8.189-38.81c11.852 8.549 14.787 22.453 12.849 38.295m-6.001-37.931c10.557 9.491 12.424 22.465 10.485 38.308"/><path d="M254.422 156.905c9.264 9.815 12.135 26.25 9.147 41.148m-53.652-4.972c4.668-.235 5.311 3.418 5.083 5.919-.251 2.755-1.871 4.608-4.34 5.014-2.014.331-4.184-.582-4.169-3.565.446 2.648-1.885 7.586-7.006 7.297M233.7 179.85a21 21 0 0 1-29.7 0 21 21 0 0 1 29.7 0z"/></g></g></defs><use href="#G"/><use href="#G" transform="matrix(-1 0 0 1 400 0)"/></g><g fill="#bb8"><defs><g id="H"><path transform="rotate(90 17.5 200)" d="M15.5 186.5h4v27h-4z"/><path transform="rotate(87.25 17.71 208.756)" d="M15.71 195.256h4v27h-4z"/><path transform="rotate(92.75 17.71 191.244)" d="M15.71 177.744h4v27h-4z"/></g><g id="I"><use href="#H"/><use href="#H" transform="rotate(18 200 200)"/><use href="#H" transform="rotate(36 200 200)"/><use href="#H" transform="rotate(54 200 200)"/><use href="#H" transform="rotate(72 200 200)"/><use href="#H" transform="rotate(90 200 200)"/><use href="#H" transform="rotate(108 200 200)"/><use href="#H" transform="rotate(126 200 200)"/><use href="#H" transform="rotate(144 200 200)"/><use href="#H" transform="rotate(162 200 200)"/></g></defs><use href="#I"/><use href="#I" transform="rotate(180 200 200)"/><path d="M196.5 281.5h7V305h-7zm-27.359-5.5l6.449 2.723-9.14 21.65-6.45-2.723zM225 280.741l6.441-2.741 9.202 21.624-6.441 2.741z"/><circle cx="295.25" cy="38.25" r="1.25"/><circle cx="293.75" cy="40.75" r="1.25"/><path d="M284.23 28.486c1.749.82 2.698 2.491 2.117 3.729l-6.337-2.972c.58-1.238 2.471-1.577 4.22-.757zm-2.146 4.568c-.874-.41-1.207-1.547-.743-2.538l3.169 1.486c-.464.991-1.551 1.462-2.426 1.052zm83.844 83.239c.86 1.729.565 3.628-.659 4.237l-3.119-6.267c1.225-.609 2.917.301 3.778 2.03zm-4.52 2.245c-.43-.864.015-1.962.995-2.449l1.559 3.133c-.979.487-2.124.181-2.554-.684z"/><circle cx="367" cy="106.5" r="1.5"/><circle cx="370.985" cy="119.995" r="1.5" transform="rotate(359.421 370.97 119.997)"/><circle cx="359.515" cy="125.015" r="1.5" transform="rotate(359.421 359.5 125.017)"/><circle cx="355.179" cy="114.679" r="1.5" transform="rotate(82.671 355.18 114.68)"/><circle cx="366" cy="109.5" r="1.5"/><circle cx="352.179" cy="114.179" r="1.5" transform="rotate(82.671 352.18 114.18)"/><circle cx="374.015" cy="120.515" r="1.5" transform="rotate(359.421 374 120.517)"/><circle cx="358.015" cy="127.515" r="1.5" transform="rotate(359.421 358 127.516)"/><circle cx="351" cy="285.5" r="1.5"/><circle cx="353" cy="281.5" r="1.5"/><circle cx="355.5" cy="276" r="1.5"/><circle cx="358.5" cy="270" r="1.5"/><circle cx="360" cy="266" r="1.5"/><circle cx="365" cy="267" r="1.5"/><circle cx="368.5" cy="269" r="1.5"/><circle cx="362.5" cy="271" r="1.5"/><circle cx="366.5" cy="273" r="1.5"/><circle cx="371.5" cy="280.5" r="1.5"/><circle cx="371" cy="284.5" r="1.5"/><circle cx="368.5" cy="288" r="1.5"/><circle cx="365" cy="277.5" r="1.5"/><circle cx="363" cy="280.5" r="1.5"/><circle cx="361.5" cy="284" r="1.5"/><path d="M160.191 376.487c-.118.68-.863 1.12-1.664.981l.426-2.463c.801.138 1.355.802 1.238 1.482z"/></g></svg>