<svg xmlns="http://www.w3.org/2000/svg"
    viewBox="0 0 24 24" fill="#2F2F06">
    <path
        d="M18.7 22a1 1 0 0 1-1-.7 4 4 0 0 0-2.1-2.4 1 1 0 0 1-.5-1.3 1 1 0 0 1 1.3-.5 6 6 0 0 1 3.3 3.5 1 1 0 0 1-1 1.4ZM5.3 22a1 1 0 0 0 1-.7 4 4 0 0 1 2-2.3 1 1 0 0 0 .5-1.3 1 1 0 0 0-1.3-.5 6 6 0 0 0-3.3 3.5 1 1 0 0 0 1 1.4Zm9.5-15.7 1-.3a3.8 3.8 0 0 0 2.4-2.8 1 1 0 1 0-2-.4A1.8 1.8 0 0 1 15 4l-1 .3a1 1 0 0 0-.5 1.3 1 1 0 0 0 1 .7 1 1 0 0 0 .2-.1Zm-4.4-.6a1 1 0 0 0-.6-1.3L9 4.1a1.8 1.8 0 0 1-1.1-1.3 1 1 0 1 0-2 .4A3.8 3.8 0 0 0 8.3 6l.9.3a1 1 0 0 0 .3 0 1 1 0 0 0 1-.6Zm6.8 5.8a6.5 6.5 0 0 0 4.1-3l.6-.9a1 1 0 0 0-1.8-1l-.5.9a4.5 4.5 0 0 1-2.8 2 1 1 0 0 0-.8 1.2 1 1 0 0 0 1 .8Zm4.3 5.7a1 1 0 0 0 .3-1.4l-.3-.5a6 6 0 0 0-4.4-2.8 1 1 0 1 0-.2 2 4 4 0 0 1 3 1.9l.3.5a1 1 0 0 0 1.3.3ZM8 10.7a1 1 0 0 0-.8-1.2 4.5 4.5 0 0 1-2.8-2l-.5-.9a1 1 0 0 0-1.8 1l.6 1a6.5 6.5 0 0 0 4 2.9H7a1 1 0 0 0 1-.8Zm-4.2 6.2.4-.6a4 4 0 0 1 3-1.8 1 1 0 1 0-.3-2 6 6 0 0 0-4.4 2.7l-.3.6a1 1 0 0 0 .8 1.6 1 1 0 0 0 .8-.5Z"
    />
    <path d="M16 8V7a4 4 0 0 0-8 0v1a2 2 0 0 0-2 2v5a6 6 0 0 0 12 0v-5a2 2 0 0 0-2-2Z"
    />
</svg>