<svg xmlns="http://www.w3.org/2000/svg" xml:space="preserve" stroke-linecap="round" stroke-linejoin="round" stroke-miterlimit="10" clip-rule="evenodd" viewBox="0 0 391.3 186.6">
  <path fill="#d44d37" fill-rule="evenodd" d="M22.5 61.8c-2 .3-1.7 1 2 4.2l3.9 3.4 4.3 3.7a351.3 351.3 0 0 1 10.6 9.1l1.1 1 .7.7c.4.2 1.4 1 2.2 1.8 2.6 2.3 4.5 2 5.8-.6l1.5-3.3a521 521 0 0 0 5.9-12.9c1.8-3.7 2-4.3 2-5.1 0-1.1-.6-1.8-2-2-1.1-.2-36.7-.2-38 0m42.7 4.9-1.4 3-7.4 15.9c-2.3 5-2.4 2.2 1.3 27a16512.3 16512.3 0 0 1 7.9 53.5 5979.7 5979.7 0 0 0-.4-99.4"/>
  <g fill="white" fill-rule="evenodd">
    <path d="M113.9 96.7c-2.7.4-2.5.3-2.5 3l.1 17.9v15.7l2.1-.1a66.6 66.6 0 0 0 3.2-.3c1 0 1 0 1-9.3V115l.8-.6c3-2.2 6.2-1.6 7.3 1.3.3.8.4 1.8.4 9v8.2l.5.2c.5.2 4.9 0 5.5-.3.4-.1.4-15 0-17.3-1-6.8-7.3-9-13.2-4.7l-1.2.8-.2-7.3c0-9 .3-8.4-3.8-7.6m102.5 1.2c-3.5 1.2-2.8 6.6.8 6.6 2 0 3.4-1.3 3.4-3.4 0-2.6-1.8-4-4.2-3.2M91.3 99.1c-1 0-2.6.3-3.6.4l-1.7.2v16.6c0 12.2.1 16.6.3 16.8.3.3 5.7 0 6-.3l.1-15v-14.7l.4-.2c3.2-1 7.2 1 8.1 4.2 1.5 5.2-1.1 9.8-5.6 9.8-1.9 0-2 .2-1.1 2 .7 1.3 1.3 1.6 3.8 1.5 5.8-.3 10-4.8 10-10.6 0-7.9-5.8-11.6-16.7-10.7m97.5 9.9c-1.5.7-2.2 2.2-1.5 3 .4.4.4.5.4 10.9v10.4l2.6-.1a10 10 0 0 0 3-.5l.7-.3v-8.6l.1-8.6.7-.6c2.8-2.3 6-2 7.3.7l.5.9.1 8.2c.1 9.8-.1 9 2.3 8.8 2.3-.2 3.5-.3 3.9-.5.4-.2.2-17-.3-18.4-1.8-6.1-7.8-7.6-13.4-3.3a9 9 0 0 1-1.4 1l-.3-1c-.7-2.2-2.6-3-4.7-2m37.8 0a8 8 0 0 0-2.8.7l1 1.7a357 357 0 0 1 6 9c.6 1 1 .3-3.4 6.3-4.7 6.8-4.6 6.2-1.1 6.5 1.9.2 1.8.2 4.8-4.3l2.7-3.8 2.7 3.8c3.1 4.7 3.2 4.8 7.6 4 2-.2 2 0 0-3l-4-6.1-2.3-3.6 3.4-5c4-6.2 3.9-5.7 2.3-6.2-2.9-.9-2.8-1-5.9 4a43.4 43.4 0 0 1-2.4 3.4l-1.2-1.7c-4.4-6.8-4-6.5-7.4-5.8m-9.1.1-2.5.3-.7.2v23.7h2.3c1.8-.1 2.6-.2 3-.4l.7-.4V121c.1-12.2.1-12.3-.7-12.2l-2 .2m-69.2-.5c-1 0-2 .2-3 .5-11.7 3-12 21.8-.2 24.3 8.5 1.7 14.9-3.6 14.9-12.6 0-7.7-5-12.5-11.7-12.2Zm-1 3.5a5 5 0 0 1 2.8.5c5.3 2.7 4.6 16.8-1 17.5-3.6.5-6.1-3.2-6.1-9.4 0-5 1.7-8.2 4.3-8.6Zm26.9-3.4-2.4.3c-8 2.2-11.4 14-6 21 3 3.8 12 5 15 1.8 1.4-1.4 2.2-3.9 1.2-3.6-7 2-11.4.2-12.4-5.2-.3-1.4-.6-1.4 5-1.4 7.2-.1 9-.8 9.1-3.6.4-5.5-4-9.6-9.5-9.3Zm-.6 3.4c.6-.1 1.3 0 2 .3 1.7.7 3 4.3 2.1 5.5-.3.4-4.3.7-6.7.5l-1.5-.2.2-1c.3-2.8 1.9-4.8 3.9-5.1Zm-32.2 44.5c-3.7.9-6 3.6-6 7.2 0 3.2 1.2 5 5 7 4 2.2 4.5 2.6 4.5 4 0 2.5-3.4 3.1-7.3 1.4-1.7-.8-2-.7-2.6.8-.8 1.8.2 3 3.3 3.9 6.7 1.8 12.9-2.3 12.4-8-.3-2.8-1.6-4.3-5.6-6.3-4-2-4.9-3.1-4.2-4.6.8-1.6 3-2 5.3-1.2l1.4.5c.8.3 2.2-2 2-3-.6-1.4-5.2-2.4-8.2-1.7"/>
    <path d="M164.5 156.4c-13.2 2.4-14.8 21.5-2 24.4 6 1.3 10.4-.3 11-4 .3-1.3.4-1.2-1-.8-5.8 1.9-11.1-.5-12.1-5.4-1.6-7.2 3.7-12 10.6-9.6l1.4.4.5-.5c.5-.5 1.1-2.1 1-2.5-.6-1.4-6.2-2.6-9.4-2m14.9.4c-2 .3-1.7-.5-1.7 8 0 10.9.3 12.6 2.5 14.5 3.1 2.8 7.5 2.5 11.9-.8l.8-.6.4.8a3.8 3.8 0 0 0 7 0l.4-.6-.8-.3c-1.3-.6-1.3-.2-1.3-11.3v-10l-2.3.2c-4.5.2-4-.8-4 9.8v8.6l-.7.4c-2 1.6-5.1 1.5-6.5 0-1-1-1-1.3-1-10-.1-6.6-.2-8.3-.4-8.6-.3-.3-2.2-.4-4.3 0m-55.4-.6c-1.2-.2-2.4-.1-3.6.1-11.4 2.4-12.6 21.4-1.5 24.3 4.1 1 8.8.4 10.2-1.4 1.1-1.5 1.8-3.9 1-3.6-6.3 2.5-12 .1-12.6-5.5l-.2-.9h4.8c9-.2 10.8-1.5 9.2-7a8.7 8.7 0 0 0-7.3-6Zm-2.4 3.4c.9-.2 1.8 0 2.5.5 1.4 1 2.4 4.4 1.6 5.4-.3.4-8 .5-8.2.2-.3-.6.8-4 1.8-5 .6-.7 1.4-1 2.3-1.1Zm94.4-3.4c-1.3-.2-2.6-.1-4 .1-11 2.2-12.6 20.8-2 24.1 3.7 1.2 8.8.7 10.4-1 1.1-1.1 2.3-4.1 1.4-3.8-6.5 2.6-12.7-.3-12.7-5.9v-.5h4.7c8.7-.2 10.4-1.3 9.4-6a8.6 8.6 0 0 0-7.3-7Zm-2.4 3.3c.7 0 1.4.1 2.2.6 1 .7 1.7 2.2 1.7 3.8 0 2 .2 2-4.4 2l-4-.2.1-.8c.3-3.1 2.2-5.3 4.4-5.4Z"/>
    <path d="M98.6 147a37.5 37.5 0 0 0-10.9.3l-1.6.3-.1 16.7v16.6h2.7c4-.2 3.5.6 3.5-7.4v-6.8h1.2c2.4 0 3.1.7 6 6.3 3.7 6.8 4.7 8 8.1 8 3.8 0 4.5-.4 3.3-1.6-1-1.2-2.9-4-4.2-6.4a61 61 0 0 0-4.4-7.2l-1-1.1 1-.5a9 9 0 0 0 5.3-8.3c0-5.4-2.7-8.3-8.9-9Zm-3.6 3.3c1 .1 2.1.3 2.6.5 2.5 1 3.8 4.1 3.2 7.3-.7 3.6-3 5.2-7.1 5h-1.4v-6.3c0-6 0-6.3.2-6.4a9 9 0 0 1 2.5 0Zm185.5-4.5c-2.5 1.3-2.2 5.5.4 6.3 2.4.7 4.4-.9 4.4-3.4 0-2.7-2.5-4.2-4.8-3m47.5 0c-3.2 1.7-2.1 7 1.5 6.5 4.2-.4 4.3-6.8.1-6.8-.5 0-1.2.1-1.6.3m-86.7 1.5c-1.5.3-1.5.3-1.5 1l-.5 3.6c-1.2 6.4-4.8 28.5-4.6 28.6.6.6 4.7.6 5 0l1.2-8.1a490 490 0 0 1 2.4-17.3 679 679 0 0 1 8.5 25.3c0 .3 2.6.2 3.6-.2 1-.5 1.2-.9 2.5-4.5a4105.6 4105.6 0 0 0 7.5-20.7 449 449 0 0 0 2 17.7c1 8.8.9 8.3 2.8 8.3a20 20 0 0 0 4.5-.5l-.1-1.4a1201 1201 0 0 1-3.1-20.8c-1-6.9-1.6-10.8-1.8-11-.6-.7-6 0-6 .7a933 933 0 0 0-8.4 22.4l-.4 1-.5-1.5a712.4 712.4 0 0 0-5.5-15.2c-3-8.4-3-8.3-7.6-7.4m54.5 9.3c-3.8 1-6 3.6-6 7.2 0 3.4 1.2 4.9 5.5 7.3 3 1.7 3.6 2 4 2.9 1 3-3.2 4.2-7.5 2-1.4-.6-1.6-.5-2.3.9-1 2 .4 3.5 4.1 4.2 5.7 1 10.7-1.8 11.4-6.4.6-3.6-.9-5.8-5.2-8s-5.2-3.2-4.4-4.9c.6-1.3 3-1.8 5.3-1 1.7.7 1.7.7 2.2 0 .8-.6 1.3-2 1-2.5-.7-1.5-5.2-2.4-8.1-1.7m17.4 0c-5 1.3-7.5 6-5.4 10.2.7 1.6 1.9 2.7 4.4 4 4 2.2 4.7 2.8 4.5 4.3-.3 2.3-3.6 2.8-7.2 1.1-1.6-.7-1.9-.7-2.4.3-1.2 2.1-.2 3.6 3.1 4.4 6.6 1.6 12.2-1.8 12.2-7.4 0-3.1-1.2-4.7-5.5-7-3.7-1.9-4.6-2.8-4.2-4.3.5-1.7 3.3-2.3 5.9-1.2 1.4.6 2.8-.5 2.8-2.3 0-1.6-5-2.9-8.2-2m52 0c-1.6.7-2.3 2-1.6 3.2l.5.8v10.1L364 181h1.5c2 0 4.2-.3 4.5-.6.2-.1.3-2.7.3-8.9l.1-8.7 1.2-.8c2.2-1.5 4.5-1.5 6 0 1.3 1.2 1.3 1.4 1.3 10.3 0 9.6-.3 8.8 2.8 8.6a15 15 0 0 0 2.9-.3l.7-.1v-8c0-8.2-.2-9.6-.8-11.4-1.8-5.4-7.8-6.3-13.3-2.1l-1.1.7-.4-1c-.7-2-2.6-2.9-4.5-2m-83.9 0-1.6.3-1 .2V181l2.6-.2c3 0 3.5-.3 3.8-1.2.2-1.1 0-22-.2-22.6-.3-.4-1.4-.5-3.6-.3m46.7.1c-.7 0-1.3.2-1.5.3-.3 0-.3.9-.3 12v11.8h2.4c2.4-.2 3.4-.4 3.7-.8.2-.4.2-22.5 0-23-.3-.5-1.7-.6-4.3-.3m21.1-.6c-.9 0-1.8 0-2.8.2-12.2 2.2-13.6 21.2-1.7 24.4 8.5 2.3 15.7-3.6 15.4-12.9-.2-7-4.6-11.6-10.9-11.7Zm-.9 3.5c.6 0 1.1.1 1.7.4 5 2.3 5 15.6.2 17.4-2.9 1-5.8-1.3-6.8-5.3-1.5-6.9 1-12.7 5-12.5Z"/>
  </g>
  <g fill="#ffaf67" fill-rule="evenodd">
    <path d="M69.1 16.8c0 .2-.2 8.8-.2 19.3l-.1 19-26.8.1H15.2l-.2.5c-.4.8-.3 2 .1 2.3.4.4.6.4 27 .4H69v60.7c0 41.5 0 60.8.2 61 .2.5 2.3.6 2.7.2.2-.2.2-14 .2-61v-61h26.5c30 0 27.3.2 27.3-1.5 0-1.8 3-1.6-27-1.7H72v-19l-.3-19.4c0-.1-.6-.2-1.3-.2-.8 0-1.3.1-1.4.2"/>
    <path d="M78.2 61.6a4.3 4.3 0 0 0-2.8 2.5c-.1.4-.2 3.2-.1 11.5v10.9l.6.5c1 1 1.4.8 5.5-1.8a1724 1724 0 0 1 29.2-18.7l3.6-2.4c1.8-1.1 2.2-1.7 1.6-2.3-.3-.3-36.5-.5-37.6-.2m-1.8-44.8c-1 .4-1.2.8-1.2 5 0 5.4 0 5.4 3.5 1.4l3.4-3.9c2.2-2.4 2-2.7-2.3-2.7l-3.4.2"/>
  </g>
  <path fill="#35bfb6" fill-rule="evenodd" d="M10.3 7.3c-6 5-6.1 4.8 1.7 9.5 7.3 4.3 7.3 4.3 6-2.8l-1.2-6.3c-.8-4.8-1.3-4.8-6.5-.4m54.3 16a185 185 0 0 0-4.9 12.4c-2.9 7.3-2.8 7.6 1.4 10.2 2.6 1.6 3.4 1.7 4 .6.2-.6.4-22.5.1-23.2-.1-.4-.4-.4-.6 0M4.3 16.8c-.4.4-.2 1.7.5 4a1214 1214 0 0 1 7.5 23.4c1.8 5.6 2.2 6.2 4.3 7.3l.9.5H40c28 0 26.3.6 17.5-4.7A74206.2 74206.2 0 0 1 11 19.8c-5.8-3.5-6.1-3.6-6.8-3m120.4 3.4a173 173 0 0 0-6.4 13c0 1 1 1 3.1.2 8.1-3 8.2-3 6.2-9.3-1.3-3.9-1.5-4.3-2.1-4.3-.3 0-.6.2-.8.4m3.4 14a421 421 0 0 1-11.2 4.3A2712.7 2712.7 0 0 1 94.4 47c-10.7 4.1-11.2 4.3-10.5 4.8.6.5 38.2.4 39.5-.1 2.4-.9 3-1.8 4.6-6.9l2-6.2c1.4-4.3.8-5.6-2-4.4"/>
</svg>
