<svg xmlns="http://www.w3.org/2000/svg" fill="none" viewBox="0 0 66 55">
  <path fill="#BB8" d="M3.57 51.18H0v3.57h3.57v-3.57Zm0-9.8V37.8H0v3.57h3.57Zm4.41 0v3.57h2.44l.89-2.27-3.33-1.3Zm10.94-28 3.33 1.3 1.9-4.88h-5.23v3.57Zm-4.4 0h-3.58v3.56h3.57v-3.57Zm0-9.8V0h-3.58v3.57h3.57Zm36 0h3.57V0h-3.57v3.57Zm0 9.8v3.56h3.57v-3.57h-3.57Zm-4.41 0V9.8h-5.25l1.93 4.88 3.32-1.3Zm11.02 28-3.32 1.3.89 2.27h2.43v-3.57Zm4.41 0h3.57V37.8h-3.57v3.57Zm0 9.8v3.57h3.57v-3.57h-3.57Zm-25.88 0h-3.57v3.57h3.57v-3.57Zm0-9.8V37.8h-3.57v3.57h3.57Zm4.9 0v3.57h4.8l-1.38-4.6-3.42 1.03Zm-1.96-6.53 3.42-1.03-.76-2.55H38.6v3.58Zm-13.88 0v-3.58h-2.6l-.8 2.47 3.4 1.1Zm-2.12 6.53-3.4-1.1-1.52 4.67h4.92v-3.57Zm4.08 0h3.57V37.8h-3.57v3.57Zm0 9.8v3.57h3.57v-3.57h-3.57Zm.9-25.32-3.4-1.1-1.53 4.68h4.93v-3.58Zm8.24 0v3.58h4.8l-1.38-4.6-3.42 1.02Zm-3.75-12.49 3.42-1.02-.77-2.55h-2.65v3.57Zm-.41 0V9.8h-2.6l-.8 2.46 3.4 1.11ZM7.14 51.17v-9.8H0v9.8h7.14Zm-3.57-6.22h4.41v-7.14h-4.4v7.14Zm7.74-2.27 10.94-28-6.66-2.61-10.94 28 6.66 2.61ZM18.92 9.8h-4.4v7.14h4.4V9.8Zm-.84 3.57v-9.8h-7.14v9.8h7.14Zm-3.57-6.23h36V0h-36v7.14Zm32.44-3.57v9.8h7.14v-9.8h-7.14Zm3.57 6.23H46.1v7.14h4.4V9.8Zm-7.73 4.88 11.02 28 6.65-2.6-11.02-28.02-6.65 2.62Zm14.34 30.27h4.41v-7.14h-4.4v7.14Zm.84-3.57v9.8h7.14v-9.8h-7.14Zm3.57 6.23H35.66v7.14h25.88v-7.14Zm-22.3 3.57v-9.8h-7.15v9.8h7.14Zm-3.58-6.23h4.9v-7.14h-4.9v7.14Zm8.32-4.6-1.96-6.53-6.84 2.05 1.96 6.53 6.84-2.05Zm-5.38-9.08H24.72v7.15H38.6v-7.15Zm-17.28 2.47-2.12 6.54 6.8 2.2 2.12-6.53-6.8-2.2Zm1.28 11.21h4.08v-7.14H22.6v7.14Zm.51-3.57v9.8h7.14v-9.8h-7.14Zm3.57 6.23H3.58v7.14h23.1v-7.14Zm.9-18.17h8.25v-7.15h-8.25v7.15Zm11.67-4.6-3.76-12.5-6.84 2.06 3.76 12.49 6.84-2.06ZM32.07 9.8h-.4v7.14h.4V9.8Zm-3.8 2.46-4.08 12.5 6.78 2.21 4.09-12.5-6.79-2.2Z"/>
  <path fill="#000" d="M3.57 51.18v-9.8h4.41l10.94-28h-4.4v-9.8h36v9.8H46.1l11.02 28h4.41v9.8H35.66v-9.8h4.9l-1.96-6.53H24.72l-2.12 6.53h4.08v9.8H3.58Zm24-25.32h8.25l-3.75-12.49h-.41l-4.08 12.5Z"/>
</svg>