<svg xmlns="http://www.w3.org/2000/svg" xml:space="preserve" stroke-linecap="round" stroke-linejoin="round" stroke-miterlimit="10" clip-rule="evenodd" viewBox="0 0 400 186.6">
  <g fill-rule="evenodd">
    <path fill="white" d="M113.86 96.66c-2.63.47-2.5.32-2.41 2.95.04 1.21.06 9.3.05 17.96l-.03 15.76 2.18-.14a66.63 66.63 0 0 0 3.15-.27c.98-.1.98-.1.98-9.36v-8.59l.85-.6c3.01-2.12 6.17-1.53 7.3 1.36.3.74.34 1.74.4 9.01l.06 8.18.45.2c.45.2 4.82-.04 5.5-.3.33-.13.32-15.06 0-17.32-1-6.82-7.33-9.06-13.26-4.7-.61.45-1.15.82-1.2.82-.04 0-.1-3.3-.13-7.34-.08-9.02.26-8.36-3.9-7.62m102.6 1.23c-3.5 1.25-2.9 6.64.76 6.64 2.07 0 3.41-1.35 3.41-3.43 0-2.61-1.85-4.03-4.17-3.2M91.27 99.1c-.97.09-2.57.26-3.54.38l-1.78.23.06 16.54c.05 12.24.12 16.62.28 16.8.27.34 5.72.1 6.09-.26.04-.04.06-6.75.03-14.9l-.05-14.82.44-.14c3.17-1.02 7.2 1.06 8.12 4.2 1.52 5.13-1.12 9.76-5.59 9.8-1.91.01-2.02.18-1.16 1.91.7 1.39 1.29 1.62 3.8 1.51a10.4 10.4 0 0 0 10.1-10.6c0-7.83-5.9-11.57-16.8-10.64m54.17 9.9c-11.77 3.08-11.97 21.83-.26 24.24 8.54 1.76 14.88-3.6 14.87-12.58-.01-8.76-6.35-13.82-14.6-11.66m26.46-.08c-8.04 2.12-11.46 14.02-6.01 20.91 3.08 3.9 12 5 15.08 1.85 1.36-1.38 2.16-3.86 1.15-3.57-7.06 2.07-11.47.22-12.48-5.22-.26-1.42-.52-1.35 4.97-1.43 7.26-.1 9.01-.78 9.19-3.52.4-6.31-5.42-10.73-11.9-9.02m16.84.1c-1.41.7-2.15 2.17-1.46 2.93.39.43.4.54.44 10.9l.05 10.46 2.47-.13c1.71-.09 2.67-.22 3.12-.44l.66-.32.05-8.62.04-8.62.7-.58c2.76-2.29 5.98-2 7.33.66l.46.92.1 8.23c.1 9.76-.1 8.95 2.33 8.78 2.29-.16 3.5-.32 3.83-.5.4-.2.2-16.95-.23-18.37-1.83-6.13-7.81-7.59-13.47-3.3-.7.54-1.3.96-1.33.92-.02-.03-.18-.48-.35-1-.71-2.18-2.64-2.96-4.74-1.92m37.85-.12c-1.6.32-2.8.65-2.8.76 0 .05.49.83 1.08 1.72.6.9 2.04 3.14 3.22 4.99a181 181 0 0 0 2.64 4.08c.63.88.97.21-3.3 6.28-4.76 6.74-4.65 6.17-1.18 6.46 1.94.17 1.86.23 4.82-4.29a37.3 37.3 0 0 1 2.7-3.85c.1 0 1.32 1.73 2.71 3.85 3.11 4.74 3.24 4.8 7.56 4.08 1.96-.34 1.97-.06-.03-3.12l-3.93-6.08-2.31-3.6 3.4-5.07c4.08-6.09 3.9-5.61 2.3-6.1-2.85-.88-2.76-.94-5.87 3.9a43.4 43.4 0 0 1-2.37 3.5c-.1.03-.66-.72-1.26-1.67-4.37-6.87-3.93-6.53-7.38-5.84m-9.06.12c-1.03.08-2.19.22-2.57.3l-.71.14-.01 11.86-.01 11.85 2.38-.05c1.83-.03 2.53-.12 3.05-.37l.68-.33.04-11.43c.06-12.19.05-12.32-.84-12.16-.08.02-.98.1-2 .19m-67.35 3.5c5.32 2.7 4.57 16.74-.93 17.5-3.7.5-6.17-3.27-6.18-9.45 0-6.62 3.08-10.11 7.11-8.05m25.52-.28c1.68.7 3.07 4.34 2.13 5.58-.3.4-4.31.65-6.76.42l-1.47-.13.12-1c.45-3.84 3.16-6.04 5.97-4.87M280.5 145.8c-2.5 1.32-2.24 5.51.4 6.3 2.37.71 4.38-.86 4.38-3.44.01-2.65-2.42-4.1-4.78-2.86m47.56-.1c-3.3 1.72-2.15 6.94 1.43 6.55 4.19-.46 4.3-6.84.13-6.84-.55 0-1.26.14-1.56.3M91.3 146.93a91 91 0 0 0-3.59.4l-1.66.22-.06 16.69-.05 16.68 2.76-.11c3.92-.16 3.5.73 3.5-7.32v-6.8h1.15c2.46 0 3.18.74 6.11 6.32 3.6 6.85 4.66 7.9 8.04 7.92 3.81.03 4.46-.27 3.32-1.54a44.55 44.55 0 0 1-4.27-6.4c-2.06-3.69-3.53-6.07-4.42-7.16l-.92-1.13.97-.51c3.51-1.84 5.32-4.65 5.32-8.24 0-7.28-4.89-10-16.2-9.02m149.96.26c-1.51.3-1.52.3-1.45 1.07.02.33-.2 1.94-.51 3.58-1.2 6.39-4.78 28.44-4.64 28.58.6.6 4.74.62 5 .03.1-.23.65-3.9 1.22-8.17 1.97-14.76 2.31-17.23 2.39-17.3.14-.14 8.52 24.7 8.52 25.27 0 .37 2.58.23 3.58-.19 1-.42 1.23-.84 2.51-4.45 2.97-8.34 4.11-11.56 5.67-16 1.6-4.53 1.86-5.2 1.86-4.72 0 .12.34 3.05.75 6.52.42 3.46 1 8.48 1.3 11.15 1.01 8.87.83 8.31 2.78 8.3 1.27 0 4.32-.3 4.46-.45.06-.05 0-.7-.13-1.45-.53-3.24-1.64-10.7-3.08-20.72-.99-6.92-1.63-10.88-1.8-11.08-.59-.7-5.96-.02-5.96.77 0 .24-.55 1.85-1.23 3.58a932.91 932.91 0 0 0-5.69 14.93 114.1 114.1 0 0 1-1.5 3.92l-.4.9-.51-1.5-2.51-6.9c-1.1-2.98-2.46-6.71-3.02-8.29-2.98-8.34-2.95-8.3-7.6-7.38m-143.7 3.62c2.46 1.07 3.8 4.09 3.22 7.28-.65 3.57-2.94 5.19-7.1 5.01l-1.4-.06-.05-6.28c-.04-5.87-.03-6.3.28-6.39.88-.26 4.08.02 5.05.44m287.99.88c-.38.37-.1.79.57.84l.7.06.06 1.54.05 1.54h1.29v-3.15l.59-.06c.4-.04.63-.19.74-.48.15-.42-3.6-.7-4-.3m4.66 1.62c-.4 2.21-.39 2.32.09 2.47.51.16.65-.08.8-1.44.15-1.32.3-1.28.76.22.52 1.7 1.11 1.58 1.8-.37l.49-1.4.11.79.23 1.56c.1.69.92 1 1.3.5.04-.06-.48-3.5-.58-3.83-.22-.74-1.53-.25-1.87.7-.19.51-.4.93-.48.93-.07 0-.27-.42-.44-.93-.3-.93-.32-.94-1.1-.94h-.8l-.3 1.74m-269.85 3.12c-11.43 2.38-12.6 21.4-1.48 24.24 4.11 1.05 8.78.41 10.15-1.38 1.14-1.5 1.86-3.86 1.09-3.55-6.36 2.51-12 .05-12.69-5.52l-.1-.87 4.73-.1c9.06-.17 10.8-1.48 9.19-6.9-1.3-4.4-5.98-6.94-10.89-5.92m21.14.08c-3.78.86-6.11 3.61-6.11 7.2 0 3.17 1.28 4.94 5.05 6.98 4.02 2.18 4.56 2.67 4.56 4.1 0 2.44-3.45 3.04-7.33 1.28-1.66-.76-1.9-.68-2.58.8-.86 1.85.19 3.12 3.23 3.93 6.74 1.79 12.95-2.24 12.4-8.06-.25-2.68-1.58-4.19-5.5-6.22-4.04-2.1-4.95-3.1-4.2-4.63.75-1.54 2.93-2.02 5.29-1.16l1.36.49c.79.25 2.22-1.93 1.9-2.92-.45-1.45-5.06-2.48-8.07-1.79m22.96-.08c-13.2 2.38-14.77 21.47-2 24.35 5.98 1.36 10.38-.24 11.07-4.02.22-1.24.34-1.17-1.1-.7-5.76 1.84-11.06-.53-12.1-5.41-1.53-7.22 3.72-12 10.61-9.66l1.4.47.54-.54c.51-.5 1.1-2.1.93-2.54-.52-1.37-6.1-2.53-9.35-1.95m47.55.01c-11.05 2.13-12.67 20.8-2.1 24.07 3.8 1.17 8.82.74 10.43-.9 1.17-1.2 2.3-4.22 1.45-3.88-6.47 2.56-12.74-.34-12.76-5.89v-.49l4.7-.1c8.75-.17 10.4-1.22 9.38-6-1.06-5.03-5.67-7.85-11.1-6.8m83.74.09c-3.82.92-6 3.53-6 7.17 0 3.36 1.17 4.9 5.5 7.26 3.1 1.7 3.66 2.1 3.94 2.94 1 3.06-3.1 4.21-7.43 2.08-1.35-.66-1.6-.57-2.3.82-1.04 2.01.46 3.52 4.14 4.19 5.7 1.02 10.65-1.78 11.37-6.44.55-3.56-.87-5.74-5.22-7.95-4.25-2.16-5.18-3.2-4.4-4.85.66-1.38 3.03-1.84 5.28-1.02 1.73.63 1.7.63 2.29.06.75-.72 1.23-2 .96-2.59-.66-1.45-5.19-2.39-8.13-1.67m17.38-.02c-4.98 1.26-7.48 6-5.4 10.21.79 1.62 1.93 2.63 4.47 3.99 4.04 2.15 4.66 2.74 4.46 4.26-.3 2.29-3.56 2.8-7.17 1.13-1.63-.75-1.88-.72-2.43.25-1.23 2.18-.17 3.7 3.13 4.48 6.58 1.57 12.17-1.83 12.2-7.43.03-3.14-1.2-4.69-5.48-6.9-3.79-1.98-4.68-2.9-4.27-4.37.5-1.78 3.31-2.36 5.92-1.23 1.43.62 2.83-.5 2.83-2.27 0-1.62-5.1-2.93-8.26-2.12m33.2-.1c-12.25 2.22-13.64 21.19-1.8 24.38 8.57 2.31 15.71-3.64 15.46-12.86-.23-8.02-6.03-12.9-13.67-11.52m18.83.17c-1.62.74-2.25 2.05-1.56 3.26l.45.78-.03 10.12-.04 10.13 1.53-.01c2.03-.01 4.22-.28 4.48-.54.16-.16.25-2.7.31-8.92l.1-8.7 1.15-.8c2.2-1.5 4.57-1.54 6.02-.08 1.29 1.29 1.32 1.52 1.32 10.36 0 9.63-.27 8.8 2.78 8.61 1.2-.07 2.49-.19 2.88-.26l.72-.13-.03-7.93c-.02-8.24-.11-9.62-.74-11.45-1.86-5.39-7.8-6.35-13.35-2.16a4.6 4.6 0 0 1-1.1.7c-.04-.03-.21-.5-.38-1.01-.66-2.03-2.56-2.85-4.5-1.97m-185.8.24c-1.9.27-1.74-.52-1.7 7.95.04 10.92.34 12.66 2.52 14.58 3.1 2.71 7.44 2.41 11.86-.82l.84-.62.34.82a3.84 3.84 0 0 0 7.12.04l.29-.7-.76-.3c-1.34-.54-1.3-.17-1.3-11.3v-9.93l-2.29.13c-4.47.25-4.05-.77-4.05 9.86v8.53l-.62.47c-2 1.52-5.14 1.51-6.52-.02-.95-1.05-.98-1.27-1.08-10.06-.07-6.6-.14-8.3-.35-8.54-.29-.35-2.2-.4-4.3-.09m101.9-.09c-.36.04-1.08.16-1.59.26l-.93.18v23.75l2.53-.1c2.95-.1 3.52-.3 3.77-1.25.28-1.07.1-22.04-.2-22.55-.24-.43-1.4-.52-3.58-.29m46.7.07c-.64.09-1.31.2-1.5.26-.29.1-.31.91-.31 11.98v11.88l2.43-.1c2.36-.1 3.39-.3 3.68-.76.2-.33.17-22.41-.04-22.98-.2-.53-1.6-.62-4.26-.28m-203.87 3.42c1.4.93 2.38 4.37 1.52 5.4-.27.34-7.92.5-8.11.18-.37-.62.79-4 1.7-4.97a3.88 3.88 0 0 1 4.9-.61m91.6-.02c1.08.7 1.76 2.17 1.79 3.84.04 1.98.2 1.91-4.43 1.85l-3.94-.05.06-.84c.34-4.19 3.7-6.67 6.53-4.8m134.2-.1c4.88 2.31 4.97 15.57.12 17.41-2.84 1.08-5.8-1.26-6.7-5.32-1.77-7.82 1.8-14.37 6.58-12.1"/>
    <path fill="#d44d37" d="M22.5 61.77c-2.09.34-1.73 1.1 1.96 4.25l3.92 3.36c1.3 1.1 3.23 2.77 4.3 3.69l2.8 2.43 2.6 2.24c.96.82 2.26 1.96 2.9 2.52.63.57 1.67 1.44 2.3 1.95.63.5 1.14.98 1.14 1.05 0 .07.32.34.7.6.39.26 1.38 1.07 2.2 1.8 2.6 2.32 4.52 2.13 5.76-.58l1.53-3.33c.68-1.48 1.61-3.53 2.06-4.55.45-1.02 1.24-2.7 1.75-3.76.52-1.04.94-1.96.94-2.02 0-.07.51-1.2 1.14-2.5 1.8-3.74 2.03-4.33 2.03-5.17 0-1.05-.68-1.7-2.05-1.97-1.11-.2-36.7-.22-37.99-.01m42.7 4.91c-.1.13-.73 1.45-1.4 2.94a1783.8 1783.8 0 0 1-7.36 15.96c-2.35 5-2.47 2.2 1.23 27.07 1.64 10.96 4.54 30.69 6.55 44.49.7 4.86 1.33 8.88 1.39 8.94.06.06.1-22.29.1-49.66 0-28.73-.07-49.8-.16-49.86-.1-.06-.25 0-.35.12"/>
    <path fill="#35bfb6" d="M10.25 7.3c-6.04 5.04-6.08 4.8 1.78 9.48 7.27 4.33 7.28 4.33 5.91-2.81-.4-2.09-.92-4.92-1.16-6.3-.82-4.76-1.25-4.79-6.53-.38m-5.92 9.55c-.4.4-.24 1.7.5 3.97.41 1.23 1.55 4.8 2.54 7.94a1761.04 1761.04 0 0 0 4.96 15.49c1.77 5.54 2.16 6.2 4.28 7.3l.84.44 22.52.05c28.05.06 26.31.53 17.49-4.71a74206.17 74206.17 0 0 1-46.35-27.53c-5.8-3.45-6.13-3.6-6.78-2.95m120.23 3.36c-.46.5-6.4 12.6-6.4 13.03 0 .9 1.01.96 3.18.17 8.1-2.95 8.14-3.01 6.13-9.25-1.26-3.92-1.48-4.36-2.1-4.36-.24 0-.6.18-.81.41M64.6 23.3a185 185 0 0 0-1.88 4.7l-3.02 7.7c-2.9 7.33-2.86 7.59 1.42 10.18 2.62 1.58 3.36 1.7 3.93.6.28-.55.43-22.5.16-23.22-.15-.38-.4-.37-.6.04m63.33 10.88-4.1 1.58-7.1 2.7a2712.66 2712.66 0 0 1-14.84 5.7l-7.56 2.89c-10.69 4.06-11.1 4.25-10.46 4.75.65.51 38.17.42 39.56-.1 2.36-.88 2.97-1.8 4.59-6.9l1.98-6.15c1.4-4.3.8-5.61-2.07-4.47"/>
    <path fill="#fbac64" d="M69.12 16.85c-.08.12-.2 8.8-.25 19.27l-.09 19.04-26.8.04-26.8.05-.22.48c-.34.76-.27 1.9.16 2.32.37.37.62.37 27.06.37h26.7v60.68c0 41.47.06 60.79.19 61.03.23.43 2.36.53 2.76.14.17-.17.22-13.99.22-61.04v-60.8H98.5c30 0 27.3.15 27.3-1.57 0-1.8 3.03-1.6-27.07-1.66l-26.6-.04-.1-19.04a638.65 638.65 0 0 0-.24-19.27c-.1-.15-.59-.24-1.34-.24-.75 0-1.24.09-1.34.24m7.3-.05c-1.1.44-1.2.84-1.2 5.04 0 5.39 0 5.39 3.47 1.37l3.4-3.88c2.17-2.45 1.95-2.72-2.28-2.7-1.65 0-3.18.08-3.4.17M21.84 61.62c-1.87.74-1.58 1.08 7.46 8.84 3.23 2.77 8.44 7.27 11.58 9.99 7.2 6.23 7.36 6.37 8.08 6.76 1.1.62 2.51.36 3.43-.63.45-.48 1.13-1.95.82-1.75-.11.06-.2.23-.2.36 0 .47-1.33 1.78-2.02 2-1.13.33-1.98-.02-3.67-1.53a28.65 28.65 0 0 0-2.2-1.8c-.38-.26-.7-.53-.7-.6 0-.07-.51-.54-1.14-1.05-.63-.5-1.67-1.38-2.3-1.95-.64-.56-1.94-1.7-2.9-2.52l-2.6-2.24-2.8-2.43-4.3-3.69-3.92-3.36c-3.23-2.75-3.75-3.53-2.76-4.1.55-.3 37.08-.45 38.73-.14 1.87.34 2.68 1.85 1.82 3.36a2 2 0 0 0-.27.66c0 .1.17-.11.36-.47.8-1.45.32-3.09-1.05-3.66-.76-.32-38.65-.37-39.45-.05m56.32-.03a4.27 4.27 0 0 0-2.72 2.53c-.17.42-.22 3.22-.18 11.45l.05 10.88.61.55c1.04.92 1.4.8 5.47-1.83l7.27-4.67a6917.16 6917.16 0 0 0 16.9-10.78l5.08-3.25 3.59-2.32c1.8-1.17 2.2-1.74 1.6-2.34-.34-.34-36.56-.55-37.67-.22m-12.43 54.88c-.04 27.36-.13 49.54-.21 49.28-.13-.38-.16-.4-.17-.1-.02.55.3 1.02.44.65.05-.15.08-22.61.05-49.92l-.05-49.65-.06 49.74m-4.67-48.76c-.7 1.39-2.1 4.57-2.02 4.64.07.07.36-.52 1.89-3.9.68-1.48.76-1.98.13-.74m1.69 3.88c-.32.69-.26.83.08.2.16-.28.25-.56.21-.6-.04-.04-.17.14-.3.4m-4.37 1.9a40.9 40.9 0 0 0-1.76 4.09c.04.04.51-.86 1.04-2 .78-1.68 1.19-2.87.72-2.1m-2.65 5.8a64.53 64.53 0 0 0-2.28 5.2c.04.04.67-1.24 1.41-2.84a28.7 28.7 0 0 0 1.28-2.99c-.04-.03-.22.25-.4.63m1.33 4.63c-.44.92-.38 1.08.08.2.2-.39.34-.74.3-.78-.04-.05-.21.22-.38.58m54.46 29.86c0 6.57.02 9.23.05 5.9.03-3.31.03-8.69 0-11.94s-.05-.53-.05 6.04m-25.6-10.64c0 .61.03.84.08.5.04-.33.04-.83 0-1.11-.05-.28-.08-.01-.08.6m6.56 13.45c0 7.49.03 10.53.05 6.75.03-3.78.03-9.91 0-13.63-.03-3.71-.05-.62-.05 6.88m32.25-7.99c.29.04.7.04.94 0 .23-.05 0-.08-.52-.08-.51 0-.7.04-.42.08m23.43 0c.33.04.88.04 1.21 0 .33-.04.06-.07-.6-.07-.67 0-.95.03-.61.07m26.03 0c.29.04.75.04 1.03 0s.05-.08-.51-.08c-.57 0-.8.04-.52.08m15.97 0c.23.04.56.04.74 0 .18-.05 0-.09-.42-.09-.41 0-.56.04-.32.09m10.73 0c.28.04.7.04.93 0 .23-.05 0-.08-.51-.08-.52 0-.7.04-.42.08m27.8 0c.19.04.48.04.66 0 .18-.05.03-.1-.32-.1-.37 0-.51.05-.33.1m-10.64.37c.28.05.7.05.94 0 .22-.04 0-.08-.52-.08-.51 0-.7.04-.42.08m-3.88 10.79c0 4.72.02 6.63.05 4.23.03-2.4.03-6.25 0-8.58s-.05-.37-.05 4.35m-42.05-1.45c.7.04 1.87.04 2.62 0s.18-.06-1.25-.06c-1.44 0-2.06.02-1.37.06m-45.87 6.58c0 3.65.03 5.14.06 3.31.03-1.82.03-4.8 0-6.62-.03-1.82-.06-.33-.06 3.31m33.95-4.1c0 .66.03.94.07.6a4.9 4.9 0 0 0 0-1.21c-.04-.33-.07-.06-.07.6m-6.55-.37c0 .36.04.5.09.33.04-.18.04-.47 0-.66-.05-.17-.09-.03-.09.33m-56.46.13c.23.05.6.05.84 0 .23-.04.04-.08-.42-.08-.46 0-.65.04-.42.08m74.38 1.13c1.1.03 2.91.03 4.01 0 1.1-.03.2-.06-2-.06s-3.11.03-2 .06m-17.93.6c0 .37.04.52.09.33.04-.17.04-.47 0-.65-.05-.18-.09-.03-.09.33m60.5 7.28c0 .67.03.94.07.6.04-.33.04-.88 0-1.2-.04-.34-.08-.07-.08.6m-81.57 1.03c0 .5.04.7.08.41.04-.28.04-.7 0-.93-.05-.23-.08 0-.08.51m15.67-.52c.29.05.7.05.94 0 .23-.04 0-.08-.52-.07-.51 0-.7.03-.42.07m32.51 1.97-.54.6.6-.54c.34-.3.6-.57.6-.6 0-.15-.15-.02-.66.54m-33.35 1.58a6 6 0 0 0 1.21 0c.34-.04.06-.07-.6-.07-.67 0-.94.03-.61.07m27.06 0a6 6 0 0 0 1.22 0c.33-.04.06-.07-.6-.07-.68 0-.95.03-.62.07m-79.5 13.07c.33.04.83.04 1.11 0 .28-.05.01-.08-.6-.08-.62 0-.85.04-.52.08m-2.7.18c.17.05.47.05.65 0 .18-.05.03-.09-.33-.09s-.5.04-.33.09m5.6 0c.18.05.48.05.66 0 .18-.05.03-.09-.33-.09s-.5.04-.33.09m145.97 0c.28.05.74.05 1.02 0 .29-.04.06-.07-.51-.07-.56 0-.8.03-.51.07m24.26 0c.29.05.7.05.94 0 .23-.04 0-.08-.52-.08-.51 0-.7.04-.42.08m-182.17 2.39c0 .51.04.7.09.42.04-.29.04-.7 0-.94-.05-.22-.09 0-.09.52m6.38 7.47c0 3.49.03 4.89.06 3.11.03-1.78.03-4.63 0-6.35-.03-1.7-.06-.25-.06 3.24m294.52-2.62c0 .82.04 1.14.07.7a9.3 9.3 0 0 0 0-1.5c-.04-.38-.07-.02-.07.8m-279.24 1.96c0 .57.03.8.08.52a4.2 4.2 0 0 0 0-1.03c-.05-.28-.08-.05-.08.51m-6.72.66c0 .51.03.7.08.41.04-.28.04-.7 0-.93-.05-.23-.09 0-.08.52m97.8.65c0 .46.04.65.08.42.05-.23.05-.6 0-.84-.04-.23-.08-.04-.08.42m86.42 1.5c0 .46.04.64.08.41.05-.23.05-.6 0-.84-.04-.23-.08-.04-.08.42m54.73.98-.74.8.8-.74c.73-.69.87-.85.73-.85-.03 0-.39.36-.8.8m-13.65.41c0 .52.04.7.08.42.04-.28.04-.7 0-.93-.05-.23-.08 0-.08.51m-36.59 3.64c0 .46.04.65.08.42.05-.23.05-.6 0-.84-.04-.23-.08-.04-.08.42m-163.7.47c0 .41.04.56.09.32a2.3 2.3 0 0 0 0-.74c-.05-.18-.09 0-.09.42m-33.56 8.87c0 3.64.03 5.13.06 3.3.03-1.81.03-4.8 0-6.62-.03-1.82-.06-.33-.06 3.31m250.66-5.03c0 .76.03 1.08.07.7.04-.39.04-1.02 0-1.4-.04-.39-.07-.07-.07.7m17.17.18c0 .77.03 1.09.07.7.04-.38.04-1.01 0-1.4-.04-.38-.07-.07-.07.7m-157.35.65c0 .72.03 1 .07.6.04-.38.04-.97 0-1.3-.04-.33-.07-.01-.07.7m150.81 0c0 .72.04 1 .08.6.04-.38.04-.97 0-1.3-.04-.33-.08-.01-.08.7m-242.48.1c0 .36.04.5.09.32.05-.17.05-.47 0-.65-.05-.18-.09-.03-.09.33m66.64 4.3c0 .35.04.5.08.32.05-.18.05-.47 0-.66-.04-.17-.08-.03-.08.33m-91.81 2.61c0 1.08.03 1.52.07.99.04-.54.04-1.43 0-1.97-.04-.53-.07-.1-.07.98m240.22-.09c0 .72.03 1 .07.6.04-.38.04-.97 0-1.3-.04-.33-.08-.02-.07.7m-201.8.79c.3.04.75.04 1.04 0 .28-.04.05-.08-.52-.08-.56 0-.8.04-.51.08m63.56 0c.23.04.56.04.74 0 .18-.05 0-.09-.42-.09-.41 0-.56.04-.32.09m28.09 0c.28.04.74.04 1.02 0s.05-.08-.51-.08c-.57 0-.8.04-.51.08m62.72 1.73c0 .57.04.8.08.52a4.1 4.1 0 0 0 0-1.03c-.04-.28-.08-.05-.08.51m60.42-.87c0 .03.27.3.6.6l.61.55-.54-.6c-.51-.57-.67-.7-.67-.55"/>
  </g>
</svg>
