<svg xmlns="http://www.w3.org/2000/svg" stroke="#000" stroke-width="10" viewBox="-10 -10 532 532"><path d="m508 266-107-58v-29c0-5-4-8-8-8h-26v-9l-2-19 57-24c3-2 5-5 5-8V17h51a9 9 0 1 0 0-17h-60c-5 0-8 4-8 9v96l-49 21c-8-23-23-42-43-56a34 34 0 0 0-19-61 9 9 0 1 0 0 17 17 17 0 0 1 0 34 110 110 0 0 0-86 0 17 17 0 0 1 0-34 9 9 0 1 0 0-17 34 34 0 0 0-19 61c-20 14-35 33-43 56l-49-21V9c0-5-3-9-8-9H34a9 9 0 1 0 0 17h51v94c0 3 2 6 6 8l56 24-2 19v9h-26c-4 0-8 3-8 8v29L4 266a9 9 0 1 0 9 15l98-53v75l-48 40c-3 3-4 7-2 10l40 90-32 56a9 9 0 1 0 15 9l34-60c2-2 2-5 1-8l-40-88 32-27v8a145 145 0 0 0 290 0v-8l32 27-40 88c-1 3-1 6 1 8l34 60a9 9 0 1 0 15-9l-32-56 41-90c1-3 0-7-3-10l-48-40v-75l98 53 4 1a9 9 0 0 0 5-16zM162 162a94 94 0 0 1 188 0v9H162v-9zm-8 26h230v29l-128 72-128-72v-29h26zm-26 145v-97l119 68v157c-66-5-119-60-119-128zm137 128V304l119-68v97c0 68-53 123-119 128z"/></svg>