<svg xmlns="http://www.w3.org/2000/svg" xml:space="preserve" viewBox="0 0 463 463"><path d="M430 35c-2-3-7-4-10-2a5403 5403 0 0 0-48 32 31 31 0 0 0-22-7L327 5a7 7 0 1 0-14 5l23 53c-6 3-11 9-14 15l-4 10-11-5a7 7 0 1 0-6 13l10 5v1l-7 11-10-9a8 8 0 0 0-10 12l11 9-13 11-7-10a8 8 0 0 0-12 8l7 11-11 7-5-9a7 7 0 1 0-13 7l4 9a161 161 0 0 1-13 5l-5-11a7 7 0 1 0-14 7l5 9-11 5-7-11a8 8 0 0 0-13 8l6 9-12 5-7-11a7 7 0 1 0-12 9l6 9a324 324 0 0 0-10 6l-11-9a7 7 0 1 0-10 11l7 6-9 6v1l-13-8a8 8 0 0 0-8 13l9 5c-4 2-7 5-9 8h-1l-7-7a7 7 0 1 0-11 11l7 7v1l-8 9-3-6a7 7 0 1 0-14 7l7 12-6 11-6-7a8 8 0 0 0-12 9l10 13-5 12-11-6a7 7 0 1 0-7 13l13 7-3 12-12-2a7 7 0 1 0-3 14l12 2-3 14-14 5a7 7 0 1 0 4 14l9-3c-1 9 2 17 7 23l-24 48a8 8 0 0 0 14 7l23-46 3 1v49a7 7 0 1 0 15 0v-49c13-3 23-14 24-28l7 3a7 7 0 0 0 10-3c2-4 1-8-3-10l-12-6 3-16 9 4a7 7 0 1 0 6-14l-11-4 6-15 11 7a7 7 0 0 0 10-2c2-3 1-8-2-10l-12-8 7-10 12 8a7 7 0 0 0 10-2c2-4 1-8-2-11l-11-6 12-12 6 8a7 7 0 1 0 12-8l-6-9 12-8 3 10a8 8 0 0 0 14-5l-4-12 11-6 6 10a7 7 0 1 0 13-7l-5-9 11-5 7 10a7 7 0 1 0 12-9l-5-6 10-4 2-1 10 9a7 7 0 0 0 10 0c3-3 3-8 0-11l-5-4 12-6 11 9a7 7 0 0 0 10-1c3-3 3-8 0-10l-7-6 14-10 6 9a7 7 0 1 0 12-8l-6-11 10-10 5 7a7 7 0 1 0 12-8l-6-11h1v-1l7-11 5 8a7 7 0 1 0 13-8l-9-14 6-10 12 6a7 7 0 0 0 10-3c2-3 1-8-3-10l-13-7 3-7c3-7 3-16 0-24h1l46-31c4-2 5-7 2-11zm-74 39c5 1 8 4 10 8s3 9 1 14l-6 14c-5-7-14-13-29-16l4-10a16 16 0 0 1 20-10zM235 214l-8 3c0-8-4-19-15-29l17-7c15 13 15 25 15 30a616 616 0 0 0-9 3zm-37 16c0-9-4-19-15-29l14-7c15 12 16 24 15 29l-14 7zm-27 16c-1-8-6-18-18-27l15-10c19 13 15 27 15 30l-12 7zm88-41c0-8-4-19-14-30l12-5c17 11 18 23 18 28l-16 7zm30-15c-1-8-5-18-17-28l11-7c18 7 23 17 24 23l-18 12zm31-23c-4-7-10-16-24-23l9-9c19 3 26 12 28 18l-13 14zM129 285c-4-6-13-14-29-16l13-16c20 6 23 18 24 22l-8 10zm-31 84c-7-3-18-5-33-1l3-22c25-5 32 6 32 7l1-1-3 17zm-22-52c24-5 31 7 32 8l-4 11c-6-4-16-8-32-6l4-13zm38-7c-6-5-16-11-32-9l9-17h1c10 0 18 2 22 7 4 3 4 6 5 6h-1 3l-7 13zm-33 82a16 16 0 0 1-15-9c17-5 26-1 29 2-3 4-8 7-14 7zm68-129c-3-7-10-16-24-22l15-13c18 11 18 24 17 28l-8 7zm167-141 8-13c21 1 27 12 29 16l-10 15c-5-7-13-14-27-18z"/></svg>