<svg xmlns="http://www.w3.org/2000/svg" xml:space="preserve" stroke="#000" stroke-width="10" viewBox="0 0 512 512"><path d="m484 446-51-51-2-1 3-5c2-4 2-8-2-11L309 262l46-13 39 55a9 9 0 0 0 9 3l42-8a9 9 0 0 0-3-17l-37 7-40-55q-3-4.5-9-3l-53 15a478 478 0 0 0-4-41l-1-9h3l62-16 40 55a9 9 0 0 0 8 4l43-9a9 9 0 0 0-3-17l-38 8-39-55c-2-3-6-4-9-4l-67 17a60 60 0 0 0 1-84v-3c-7-43 71-75 72-76a9 9 0 0 0-7-15c-3 1-78 32-82 82a59 59 0 0 0-51-1c-4-49-79-80-83-81a9 9 0 0 0-6 15c1 1 79 33 71 76v3a60 60 0 0 0-2 81l-55-14c-4 0-7 1-9 4l-40 55-37-8c-5 0-9 3-10 7-1 5 2 9 7 10l42 9h2c3 0 5-1 7-4l39-55 57 15a61 61 0 0 0 0 18l-1 1-4 32-53-15q-6-1.5-9 3l-40 55-37-7c-5-1-9 2-10 6-1 5 2 10 7 11l42 8h2c3 0 5-1 7-3l39-55 46 13L80 378c-4 3-4 7-2 11l3 5-2 1-51 51a9 9 0 0 0 2 14l94 51 4 1a9 9 0 0 0 4-16l-84-46 43-42 4 6a9 9 0 0 0 13 2l97-82c2 84 18 169 51 169s49-85 51-169l97 82a9 9 0 0 0 13-2l4-6 43 42-84 46a9 9 0 1 0 8 15l94-51a9 9 0 0 0 2-14zM205 312l-101 85-8-12 110-102zm8-175a43 43 0 1 1 72 31 37 37 0 0 0-58 0c-9-8-14-20-14-31zm69 68c0 19-12 34-26 34s-26-15-26-34 12-34 26-34 26 15 26 34zm-26 281c-12 0-34-58-34-166 0-28 1-54 4-78 8 9 19 14 30 14s22-5 30-14c3 24 4 50 4 78 0 108-22 166-34 166zm152-89-101-85-1-29 110 102z"/></svg>