<svg xmlns="http://www.w3.org/2000/svg" viewBox="0 -5 247.9 257.9"><path d="m199.2 148.9 13.9 13.8a7.5 7.5 0 1 0 10.6-10.6l-16-16a7.5 7.5 0 0 0-5.3-2.2h-11.5a83 83 0 0 0-2.2-14.8h10.5l13.9 13.9a7.5 7.5 0 1 0 10.6-10.6l-16-16a7.5 7.5 0 0 0-5.3-2.3h-19.1a57.3 57.3 0 0 0-29.4-27 24 24 0 0 0 8-18c0-12.7-9.4-27-23-33.2l13-13.1a7.5 7.5 0 1 0-10.6-10.6L124 19.4l-17-17A7.5 7.5 0 0 0 96.4 13l12.8 12.8A39.3 39.3 0 0 0 86 59.1c0 7.2 2.8 13.4 8 18a59.6 59.6 0 0 0-29.5 27h-19c-2 0-4 .8-5.4 2.2l-16 16A7.5 7.5 0 0 0 34.8 133l13.8-14h10.5a83 83 0 0 0-2 14.8H45.4c-2 0-3.9.8-5.3 2.2l-16 16a7.5 7.5 0 1 0 10.6 10.6L48.6 149h8.7c.5 5 1.3 10 2.4 14.7H45.5c-2 0-3.9.8-5.3 2.2l-16 16a7.5 7.5 0 1 0 10.6 10.7l13.8-13.9h16a76.8 76.8 0 0 0 39.3 42.6v19.2a7.5 7.5 0 0 0 15 0V225a50.2 50.2 0 0 0 10 0v15.1a7.5 7.5 0 1 0 15 0v-18.9a76.4 76.4 0 0 0 39.4-42.7h16l13.8 13.9a7.5 7.5 0 1 0 10.6-10.6l-16-16a7.5 7.5 0 0 0-5.4-2.3h-14.1c1.1-4.8 2-9.7 2.4-14.7h8.6zM124 37.5c12.4 0 23 11.9 23 21.6 0 11.7-19.1 12.3-23 12.3-3.8 0-22.8-.6-22.8-12.3 0-9.7 10.5-21.6 22.8-21.6m0 48.9c18.4 0 32.7 6.3 41.6 17.7h-83c8.8-11.4 23-17.7 41.4-17.7M74.7 119h98.5c1.4 4.5 2.3 9.5 2.6 14.8H72a67 67 0 0 1 2.7-14.8m49.2 91.2c-17.2 0-33.2-12.8-42.8-31.7h85.7c-9.6 18.9-25.6 31.7-42.9 31.7m48.7-46.7H75.3a88.5 88.5 0 0 1-3-14.7h103.2a89 89 0 0 1-2.9 14.7"/></svg>