<svg xmlns="http://www.w3.org/2000/svg" viewBox="2 0 202 206"><path d="M199 60c-3-3-8-3-11 0l-29 29c-8-9-15-18-23-25l15-7c2 0 3-2 4-4l15-43a8 8 0 0 0-14-5l-14 40-2 1v-2c0-17-16-37-37-37a39 39 0 0 0-38 39l-2-1L49 5a8 8 0 0 0-14 5l15 43c1 2 2 4 4 4l15 7c-8 7-15 16-23 25L17 60A7 7 0 1 0 6 71l31 30c-19 26-32 53-20 66 3 3 7 4 12 4 7 0 14-2 21-5l10 34a8 8 0 0 0 15-5l-11-36 13-9a29 29 0 0 0 51 0l13 9-11 36a8 8 0 0 0 15 5l10-34c7 3 14 5 21 5 5 0 9-1 12-4 12-13-1-40-20-66l31-30c3-3 3-8 0-11zm-96-38c12 0 22 12 22 22 0 12-19 12-22 12-4 0-23 0-23-12 0-10 10-22 23-22zM27 156c0-1-1-9 11-29a242 242 0 0 1 36-47v54c-29 21-44 24-47 22zm76-5c-8 0-14-7-14-14V70a61 61 0 0 0 27 0v67c0 7-6 14-13 14zm75 5c-3 2-18-1-47-22V80l21 25 15 22c12 20 11 28 11 29z"/></svg>