<svg xmlns="http://www.w3.org/2000/svg" xml:space="preserve" viewBox="0 0 463 463"><path d="M462.7 241.4a7.5 7.5 0 0 0-9.3-5.1l-48.8 14c-3.2.9-6.6.8-9.8-.3l-37.2-12.4c-3.2-1-6.6-1.6-10-1.6h-33.2a173 173 0 0 0-10.3-20.1l60.5-26.9c5.1-2.3 9.5-5.9 12.8-10.5l31.7-44.4a31.3 31.3 0 0 0 5.9-18.3v-8.3a7.5 7.5 0 1 0-15 0v8.3c0 3.5-1 6.8-3 9.6l-31.8 44.4c-1.7 2.4-4 4.3-6.7 5.5l-62.8 27.9a124.4 124.4 0 0 0-17.5-19.3l72-50.3c4.6-3.2 8.4-7.3 11.2-12l16-26.6a39.5 39.5 0 0 0 5.6-20.4V59.5a7.5 7.5 0 1 0-15 0v15.1c0 4.5-1.2 8.8-3.5 12.6l-16 26.6q-2.55 4.5-6.9 7.5l-74.4 52-1.4 1.3-2.8-1.7c5.1-15 1.1-43-9-61a7.5 7.5 0 0 0-11.8-1.7l-10.7 10.7-10.7-10.7a7.5 7.5 0 0 0-11.8 1.6c-10.1 18-14 46-9 61.1l-2.8 1.7-1.4-1.2-74.4-52.1a25 25 0 0 1-7-7.5l-16-26.6A24.5 24.5 0 0 1 95 74.6V59.5a7.5 7.5 0 1 0-15 0v15.1c0 7.2 2 14.2 5.6 20.4l16 26.5c2.8 4.8 6.6 8.9 11.2 12l72 50.4c-6.2 5.5-12 12-17.5 19.3l-62.8-27.9c-2.7-1.2-5-3-6.7-5.5l-31.7-44.4c-2-2.8-3.1-6.1-3.1-9.6v-8.3a7.5 7.5 0 1 0-15 0v8.3c0 6.6 2 13 5.9 18.3l31.7 44.4c3.3 4.6 7.7 8.2 12.8 10.5l60.6 27a166 166 0 0 0-10.3 20.1h-33.2c-3.4 0-6.7.5-10 1.6L68.2 250a16.4 16.4 0 0 1-9.8.3l-48.8-14a7.5 7.5 0 0 0-4.2 14.4l48.9 14a31.5 31.5 0 0 0 18.6-.4l37.3-12.5c1.7-.5 3.4-.8 5.2-.8H143c-4 12-6.2 24-6.8 35l-14.1 4.7a23.4 23.4 0 0 0-11.7 8.7L74.2 350l-1 1-47 47.1a7.5 7.5 0 1 0 10.6 10.6l47-47c1-1 1.8-2 2.6-3l36.2-50.7c1-1.5 2.5-2.6 4.2-3.1l9.8-3.3a95.6 95.6 0 0 0 189.9 0l9.7 3.3a8 8 0 0 1 4.2 3l36.2 50.8 2.5 3 47.1 47a7.5 7.5 0 0 0 10.6 0c3-3 3-7.7 0-10.6l-47-47-1-1.1-36.2-50.7c-2.9-4-7-7-11.7-8.7l-14-4.7c-.6-11-3-23-6.8-35h27.5c1.8 0 3.5.3 5.2.8l37.3 12.5a31.4 31.4 0 0 0 18.6.4l48.9-14c4-1.1 6.3-5.3 5.1-9.3zM218 128.5l8.3 8.3c3 3 7.7 3 10.6 0l8.3-8.3c5.2 14.7 6.5 32.5 3.4 40.2l-.2.6a16 16 0 0 0-9.7 6.9 8.4 8.4 0 0 1-14.1 0 16 16 0 0 0-9.8-6.9 8 8 0 0 0-.2-.6c-3.1-7.7-1.8-25.5 3.4-40.2M231.5 372a80.6 80.6 0 0 1-80.5-80.5c0-37.2 25.8-91.1 60.2-107.5.2 0 .5.1.7.4a23.4 23.4 0 0 0 39.2 0c.2-.3.6-.5.7-.4 34.4 16.4 60.2 70.3 60.2 107.5a80.6 80.6 0 0 1-80.5 80.5"/></svg>