<svg xmlns="http://www.w3.org/2000/svg" stroke="#000" stroke-width="8" viewBox="0 -10 463 483"><path d="M359.4 190c12.7-3.4 35.2-10.2 42.4-17.1a18.2 18.2 0 0 0 3.6-21.4c-5.2-11-18.7-17.1-34.5-15.5-10.4 1.1-33.5 8-58 15.3-20.2 6-44.5 13.2-57.9 15.8v-7.6c0-1.2 0-2.4-.3-3.6l25-15c9.4-5.6 15.3-16 15.3-27V89.6l47-78.2a7.5 7.5 0 0 0-13-7.8l-48 80c-.6 1.2-1 2.5-1 3.9v26.4c0 5.8-3 11.2-8 14.2l-24.2 14.5a23.5 23.5 0 0 0-8.8-5.4V71.5a7.5 7.5 0 1 0-15 0v65.7a25 25 0 0 0-8.8 5.4L191 128c-5-3-8-8.4-8-14.2V87.5c0-1.4-.4-2.7-1-3.9l-48-80a7.5 7.5 0 0 0-13 7.8l47 78.2v24.3c0 11 5.9 21.4 15.3 27l25 15-.3 3.6v7.6c-13.4-2.6-37.7-9.8-58-15.8-24.4-7.3-47.5-14.2-58-15.3-15.7-1.6-29.2 4.5-34.4 15.5a18.2 18.2 0 0 0 3.6 21.4c7.2 7 29.7 13.7 42.4 17.1 21 5.6 41.2 9 54 9 10.1 0 21-1.1 30.7-2.6l-16.9 14a47.5 47.5 0 0 0-14.6 21.5l-20 60-63.2 79a7.5 7.5 0 0 0 11.8 9.3l64-80c.5-.7 1-1.5 1.2-2.3l20.4-61.2c2-5.8 5.4-10.8 10-14.7l27-22.5v5.4l-21.6 27a47.7 47.7 0 0 0-10.4 29.6v56.3l-63.3 134.5a7.5 7.5 0 1 0 13.6 6.4l64-136c.5-1 .7-2 .7-3.2v-58c0-7.3 2.5-14.5 7.1-20.3L208 229v26.6c0 22.5 10.1 39.5 23.5 39.5s23.5-17 23.5-39.5V229l9.9 12.3c4.6 5.8 7.1 13 7.1 20.3v58c0 1.1.2 2.2.7 3.2l64 136a7.5 7.5 0 1 0 13.6-6.4L287 317.8v-56.3c0-10.7-3.7-21.3-10.4-29.6l-21.6-27v-5.4l27 22.5c4.6 3.9 8 9 10 14.7l20.4 61.2c.3.8.7 1.6 1.2 2.3l64 80a7.5 7.5 0 1 0 11.8-9.4l-63.2-79-20-59.9a47.5 47.5 0 0 0-14.6-21.4l-16.9-14a222 222 0 0 0 30.8 2.5 239 239 0 0 0 54-9zm-42.2-24.3c22.7-6.8 46.2-13.8 55.3-14.7 10.6-1.2 17.3 2.6 19.3 6.9.8 1.7.6 3.1-.5 4.2-6 5.9-58.5 21.9-85.8 21.9a229 229 0 0 1-38.9-4.1c12.6-3 29.6-8 50.6-14.2zM223 200v-18.6a23.4 23.4 0 0 0 17 0V200h-17zm17 15v17h-17v-17h17zm-8.5-64a8.5 8.5 0 1 1 0 17 8.5 8.5 0 0 1 0-17zM71.7 162.1c-1.1-1-1.3-2.5-.5-4.2 1.8-3.8 7.2-7.1 15.7-7.1 1.1 0 2.3 0 3.6.2 9.1 1 32.6 7.9 55.3 14.7 21 6.2 38 11.2 50.6 14.2a229 229 0 0 1-38.9 4.1c-27.3 0-79.8-16-85.8-21.9zM231.5 280c-2.1 0-8.5-8.7-8.5-24.5V247h17v8.5c0 15.8-6.4 24.5-8.5 24.5z"/></svg>