<svg xmlns="http://www.w3.org/2000/svg" xml:space="preserve" viewBox="20 -10 475 533"><path stroke="#000" stroke-width="12" d="M483 277c-3-4-8-4-12-1l-46 38-39-46c-1-2-4-3-6-3h-28l-4-36h23c5 0 7-3 7-8v-51l35-50c3-4 2-10-2-13-4-2-10-1-12 3l-36 53-2 5v44h-16a443 443 0 0 0-11-41c-11-29-24-52-40-67 10-16 47-66 123-87a9 9 0 1 0-4-17c-82 23-121 74-134 94a46 46 0 0 0-46 0C220 74 181 23 99 0a9 9 0 1 0-4 17c76 21 113 71 123 87a160 160 0 0 0-41 73c-4 10-7 24-10 35h-18v-44l-1-5-35-53c-3-4-8-5-12-3-4 3-6 9-3 13l33 50v51c0 5 5 8 10 8h23l-4 36h-28c-2 0-5 1-6 3l-39 46-46-38a9 9 0 0 0-11 13l53 44c1 2 3 2 5 2 3 0 5-1 7-3l42-50h22a532 532 0 0 0 1 48l-24 16c-3 1-5 4-5 7v66l-66 51c-4 3-5 8-2 12a9 9 0 0 0 13 2l70-53c2-2 3-4 3-7v-66l12-8c10 94 48 162 95 162 46 0 84-68 94-162l11 8v66c0 3 2 5 4 7l71 53 5 2c3 0 6-2 7-4 3-4 2-9-2-12l-68-51v-66c0-3 0-6-3-7l-23-16 1-30v-18h22l42 50a9 9 0 0 0 12 1l53-44c4-3 5-8 1-12zM256 106c21 0 44 24 59 66-12 5-35 13-59 13-23 0-47-8-59-13 15-42 38-66 59-66zm-10 387c-29-9-56-62-66-132l2-1c0-1 33-28 64-33zm18 0V327c33 5 65 32 65 33l2 1c-11 74-39 123-67 132zm70-153c-14-10-46-31-78-31s-64 21-78 31a449 449 0 0 1 13-151c14 5 39 14 65 14s51-9 65-14a396 396 0 0 1 13 151z"/></svg>