<svg xmlns="http://www.w3.org/2000/svg" fill="none" stroke="#000" stroke-linecap="round" stroke-linejoin="round" stroke-miterlimit="10" stroke-width="1.51" viewBox="0 2 24 20"><path d="m14.34 6.68-2.52-1.94A6.43 6.43 0 0 0 5.3 4a6.63 6.63 0 0 0-3.8 6.11v4.79h0a5.72 5.72 0 0 0 5.73 5.73h.83a7.35 7.35 0 0 0 3.77-1h0a7.3 7.3 0 0 1 6.34-.63l4.33 1.62"/><path d="M1.5 10.09h0a4.77 4.77 0 0 0 4.77 4.77h15a1.28 1.28 0 0 0 1.28-1.28h0a1.26 1.26 0 0 0-.5-1l-3.16-2.42a2.86 2.86 0 0 0-4.18-3.96 2.37 2.37 0 0 0-.37.48 2.85 2.85 0 0 0 .41 3.53"/><path d="M6.27 9.14a2.86 2.86 0 1 1 0 5.72"/></svg>