<svg xmlns="http://www.w3.org/2000/svg" fill="none" stroke="#000" stroke-linecap="round" stroke-linejoin="round" stroke-miterlimit="10" stroke-width="2" viewBox="0 0 32 32"><circle cx="16" cy="19.1" r="2.9" class="st0"/><path d="M14 24c0-1.1.9-2 2-2s2 .9 2 2m-4.1-6.8c-1.7-.8-2.9-2.6-2.9-4.6C11 7.5 16 6 16 6s5 1.5 5 6.5c0 2-1.2 3.8-2.9 4.6" class="st0"/><path d="M6 28h0c1.3-.6 2.2-1.8 2.6-3.2L10 20l3-3-4-6-.5-3.2C8.2 6 7.3 4.3 6 3h0" class="st0"/><path d="M3 16h0c1.3 0 2.5-.5 3.4-1.4L7 14l6 3-5 1-1.3 2.6c-.5.9-1.2 1.7-2.2 2.2L4 23m22 5h0c-1.3-.6-2.2-1.8-2.6-3.2L22 20l-3-3 4-6 .5-3.2C23.8 6 24.7 4.3 26 3h0" class="st0"/><path d="M29 16h0c-1.3 0-2.5-.5-3.4-1.4L25 14l-6 3 5 1 1.3 2.6c.5.9 1.2 1.7 2.2 2.2l.5.2" class="st0"/></svg>