<svg xmlns="http://www.w3.org/2000/svg" stroke="#000" stroke-width="10" viewBox="150 -5.5 160 476"><path d="M263 271.5c0-4.1-3.4-7.5-7.5-7.5h-48a7.5 7.5 0 0 0 0 15h48c4.1 0 7.5-3.4 7.5-7.5zM215.5 223h32a7.5 7.5 0 0 0 0-15h-32a7.5 7.5 0 0 0 0 15zm8-48h16a7.5 7.5 0 0 0 0-15h-16a7.5 7.5 0 0 0 0 15zm16 193h-16a7.5 7.5 0 0 0 0 15h16a7.5 7.5 0 0 0 0-15zm8-48h-32a7.5 7.5 0 0 0 0 15h32a7.5 7.5 0 0 0 0-15z"/><path d="m298.9 120.8-15-7.5-23-23.1c-.6-.5-1.2-1-1.9-1.3l3.4-1.1 21 14c1.2.8 2.6 1.2 4.1 1.2h8a7.5 7.5 0 0 0 0-15h-5.7l-22.1-14.7a7.5 7.5 0 0 0-6.6-1L239 79.9v-2c8-2.7 14-9.6 15.6-18l21-14a7.5 7.5 0 1 0-8.3-12.5L255 41.5v-8.8l7.6-22.8A7.5 7.5 0 1 0 248.4 5l-8 24c-.3.8-.4 1.6-.4 2.4V40h-17v-8.5c0-.8-.1-1.6-.4-2.4l-8-24a7.5 7.5 0 1 0-14.2 4.8l7.6 22.8v8.8l-12.3-8.2a7.5 7.5 0 1 0-8.4 12.4l21.1 14a23.6 23.6 0 0 0 15.6 18v2l-22.1-7.3a7.5 7.5 0 0 0-6.6.9l-22 14.7h-5.8a7.5 7.5 0 0 0 0 15h8a7 7 0 0 0 4.2-1.3l21-14L204 89a6 6 0 0 0-1.8 1.3l-23.1 23.1-15 7.5a7.5 7.5 0 1 0 6.8 13.4l16-8 2-1.4 1.3-1.4c-2 5-3.8 10.2-5.5 15.8C174 174.7 168 221.6 168 271.5s6 96.9 16.7 132.3c11.8 38.7 28 59.2 46.8 59.2s35-20.5 46.8-59.2C289 368.4 295 321.4 295 271.5s-6-96.8-16.7-132.3c-1.7-5.6-3.6-10.9-5.5-15.8l1.4 1.4c.6.6 1.2 1 2 1.4l16 8a7.5 7.5 0 0 0 10-3.3c1.9-3.7.4-8.3-3.3-10.1zM223 55.5V55h17v.5a8.5 8.5 0 0 1-17 0zm8.5 392.5c-13 0-25.3-25-32.4-48.6-1.6-5.2-3-10.7-4.5-16.4h4.9a7.5 7.5 0 0 0 0-15h-8c-2-10.4-3.7-21.5-5-33h5a7.5 7.5 0 0 0 0-15H185a599 599 0 0 1-2-41h.5a7.5 7.5 0 0 0 0-15h-.5c.2-14 .9-27.8 2-41h6.5a7.5 7.5 0 0 0 0-15h-5a435 435 0 0 1 5-33h8a7.5 7.5 0 0 0 0-15h-4.9c1.4-5.7 2.9-11.2 4.5-16.4C206.2 120 218.5 95 231.5 95s25.3 25.1 32.4 48.6c1.6 5.2 3 10.7 4.5 16.4h-4.9a7.5 7.5 0 0 0 0 15h8c2 10.4 3.7 21.5 5 33h-5a7.5 7.5 0 0 0 0 15h6.5a599 599 0 0 1 2 41h-.5a7.5 7.5 0 0 0 0 15h.5a599 599 0 0 1-2 41h-6.5a7.5 7.5 0 0 0 0 15h5a435 435 0 0 1-5 33h-8a7.5 7.5 0 0 0 0 15h4.9c-1.4 5.7-2.9 11.2-4.5 16.4-7.1 23.5-19.4 48.6-32.4 48.6z"/></svg>