<svg xmlns="http://www.w3.org/2000/svg" xml:space="preserve" stroke="#000" stroke-width="10" viewBox="-10 0 509 539"><path d="M496 171a106 106 0 0 0-62-27c-37 0-63 11-79 20-20 12-39 21-58 28v-10l91-74 2-3 34-60a9 9 0 1 0-15-8l-33 58-82 68-3-13a26 26 0 0 0-11-49h-6c7-27 24-77 49-77a9 9 0 1 0 0-17c-42 0-61 70-67 94h-3c-5-24-25-94-67-94a9 9 0 1 0 0 17c25 0 43 50 49 77h-6a26 26 0 0 0-10 49l-4 13-82-68-33-58a9 9 0 1 0-15 8l34 60 2 3 91 74v10c-19-7-37-16-58-28-16-9-42-20-79-20-2 0-38 3-62 27a45 45 0 0 0-5 57c6 8 18 18 42 18h33c2 1 8 3 12 7a68 68 0 0 0 70 10c14-6 33-20 49-38 2 5 4 10 8 14-9 3-16 10-18 19l-98 74-59 17a9 9 0 1 0 5 16l60-17 3-1 88-67v6c-15 21-21 42-24 57-3 21-14 42-30 58l-2 2q-19.5 19.5-30 45l-15 43a9 9 0 0 0 16 6l15-43c6-14 15-28 26-39l2-2c19-19 31-42 35-68l7-25a193 193 0 0 0 45 119 9 9 0 0 0 13 0 193 193 0 0 0 45-119c4 10 6 18 7 25 4 26 16 49 35 68l2 2c12 11 20 25 26 39l16 43a9 9 0 0 0 16-6l-16-43c-7-17-17-32-30-46l-2-1c-16-16-27-37-30-58-3-15-9-36-24-57v-6l89 67 2 1 60 17a9 9 0 1 0 5-16l-58-17-99-74c-2-9-9-16-17-19l7-14c16 18 35 32 49 38 8 4 17 5 26 5 16 0 31-5 44-15 4-4 10-6 12-7h33c24 0 36-10 42-18 13-17 10-42-5-57zm-338 76c-17 8-37 5-52-7a56 56 0 0 0-22-11H50c-13 0-23-4-28-12-8-10-6-25 4-34 18-19 47-22 50-22 32 0 56 10 70 18 21 13 41 22 61 29-15 18-35 34-49 39zm97-9c-15 0-26-12-26-26v-33l7-27h38l6 27v33c0 14-11 26-25 26zm-26-120h51a9 9 0 0 1 0 17h-51a9 9 0 0 1 0-17zm-7 222h65l-5 26h-54c-3-9-5-17-6-26zm67-24v7h-68l-1-7v-19h69zm-34 104c-9-12-16-24-21-37h42c-6 13-13 25-21 37zm34-140h-69v-15c0-6 5-10 10-10h49c5 0 10 4 10 10zm199-63c-6 8-15 12-29 12h-36c-1 1-12 3-20 11a51 51 0 0 1-52 7c-13-5-34-21-49-39 20-7 40-16 62-29 14-8 37-18 69-18 4 0 33 3 51 22 9 9 11 24 4 34z"/></svg>