<svg xmlns="http://www.w3.org/2000/svg" fill="none" style="-webkit-print-color-adjust:exact" viewBox="-0.5 -0.5 34.1 27.4"><path d="m10 12.2-7 2 7 6 2.5-4-2.5-1"/><path stroke="#F2F2D9" stroke-linecap="round" stroke-width="2" d="m10 12.2-7 2 7 6 2.5-4-2.5-1"/><path d="M1.4 14.2c-1.5 2-2 5-.5 5.5 2-2.4 3.1-4 3.1-4"/><path stroke="#F2F2D9" stroke-linecap="round" d="M1.4 14.2c-1.5 2-2 5-.5 5.5 2-2.4 3.1-4 3.1-4"/><path d="M3.8 15.7c-1.5 2-2.6 6-1.1 6.5L6 17.8"/><path stroke="#F2F2D9" stroke-linecap="round" d="M3.8 15.7c-1.5 2-2.6 6-1.1 6.5L6 17.8"/><path d="M8.6 20c-1.5 2-2.4 6-.9 6.4C9.7 24 13 16.2 13 16.2"/><path stroke="#F2F2D9" stroke-linecap="round" d="M8.6 20c-1.5 2-2.4 6-.9 6.4C9.7 24 13 16.2 13 16.2"/><path d="M6 18.2c-1.6 2-3.5 7-2 7.5L8.6 20"/><path stroke="#F2F2D9" stroke-linecap="round" d="M6 18.2c-1.6 2-3.5 7-2 7.5L8.6 20"/><path d="M20.1 11.7c-1.8-1.3-4.2-.8-6.1 1.3-1.8 1.9-3.5-.5-2.8-1.9.7-1.4 2.1-1.2 2.4-.2"/><path stroke="#F2F2D9" stroke-linecap="round" d="M20.1 11.7c-1.8-1.3-4.2-.8-6.1 1.3-1.8 1.9-3.5-.5-2.8-1.9.7-1.4 2.1-1.2 2.4-.2"/><path d="M14 13c1.5 3.3 6 2.3 5.6-1.5"/><path stroke="#F2F2D9" d="M14 13c1.5 3.3 6 2.3 5.6-1.5"/><path d="M15 12.6c1.1 1.7 3.5 1.1 3.5-1"/><defs><marker id="a" fill="#F2F2D9" fill-opacity="1" markerHeight="6" markerWidth="6" orient="auto-start-reverse" refX="3" refY="3" viewBox="0 0 6 6"><path d="M3 2.5a.5.5 0 0 1 0 1"/></marker></defs><path stroke="#F2F2D9" marker-end="url(#a)" d="M15 12.6c1.1 1.7 3.5 1.1 3.5-1"/><path d="M5 13.3S3.6 5.2 7 1.7c3.5 3 3 10.1 3 10.1"/><path stroke="#F2F2D9" d="M5 13.3S3.6 5.2 7 1.7c3.5 3 3 10.1 3 10.1"/><circle cx="7.8" cy="5.9" r="1.8"/><defs><clipPath id="c"><use href="#b"/></clipPath><circle id="b" cx="7.8" cy="5.9" r="1.8" fill="none" stroke="#F2F2D9" stroke-opacity="1" stroke-width="1"/></defs><use clip-path="url('#c')" href="#b"/><circle cx="7.8" cy="5.9" r=".9"/><defs><clipPath id="e"><use href="#d"/></clipPath><circle id="d" cx="7.8" cy="5.9" r=".9" fill="none" stroke="#F2F2D9" stroke-opacity="1" stroke-width="1"/></defs><use clip-path="url('#e')" href="#d"/><path d="M10.5 11.7s1-6.3 2.5-6c1.6.1 0 4.5 0 4.5"/><path stroke="#F2F2D9" d="M10.5 11.7s1-6.3 2.5-6c1.6.1 0 4.5 0 4.5"/><path d="M13 10.6s1-5.2 2.5-4.9c1.6.2.5 5.5.5 5.5"/><path stroke="#F2F2D9" d="M13 10.6s1-5.2 2.5-4.9c1.6.2.5 5.5.5 5.5"/><path d="M16.5 8.1 20 3.7l6.5 4.5s-1 1-2 2.5-1.5 4.5-2.5 5.5-3 2.4-4.5 1.9"/><path stroke="#F2F2D9" d="M16.5 8.1 20 3.7l6.5 4.5s-1 1-2 2.5-1.5 4.5-2.5 5.5-3 2.4-4.5 1.9"/><path d="m20 3.6-1.5-1-3 3.1"/><path stroke="#F2F2D9" d="m20 3.6-1.5-1-3 3.1"/><path d="m17.5 3.7 1.5 1"/><path stroke="#F2F2D9" d="m17.5 3.7 1.5 1"/><path d="m16.5 4.7 1.5 1"/><path stroke="#F2F2D9" d="m16.5 4.7 1.5 1"/><path d="M15 5.8S11.5 3.3 12.5.2c3.5-1 6 2.5 6 2.5"/><path stroke="#F2F2D9" d="M15 5.8S11.5 3.3 12.5.2c3.5-1 6 2.5 6 2.5"/><path d="M24.9 10.6a6 6 0 0 0 2.1 3.6c2.5-5-.5-6-.5-6"/><path stroke="#F2F2D9" d="M24.9 10.6a6 6 0 0 0 2.1 3.6c2.5-5-.5-6-.5-6"/><path d="M23 14.7s.5 0 1 2.5c3-3 0-5.7 0-5.7"/><path stroke="#F2F2D9" d="M23 14.7s.5 0 1 2.5c3-3 0-5.7 0-5.7"/><path d="m30 20.2-19.4 3.4"/><path stroke="#F2F2D9" stroke-linecap="round" stroke-width="2" d="m30 20.2-19.4 3.4"/><path d="M15 18.2c-.5 1.6 1.4 2 2 1 .6-1 .1-2.4-1-3-1.4-.7-4 1-3 4 1 2.8 3 2.6 4.5 2.6"/><defs><marker id="f" fill="#F2F2D9" fill-opacity="1" markerHeight="6" markerWidth="6" orient="auto-start-reverse" refX="3" refY="3" viewBox="0 0 6 6"><path d="M3 2.5a.5.5 0 0 1 0 1"/></marker></defs><path stroke="#F2F2D9" marker-start="url(#f)" d="M15 18.2c-.5 1.6 1.4 2 2 1 .6-1 .1-2.4-1-3-1.4-.7-4 1-3 4 1 2.8 3 2.6 4.5 2.6"/><path d="M22 16.2s.5 2.6-1 4c-1.5-.3-1-2.6-1-2.6"/><path stroke="#F2F2D9" d="M22 16.2s.5 2.6-1 4c-1.5-.3-1-2.6-1-2.6"/><path d="M27.7 20.7s-1.8-2.4-1.8-4c1.7-.1 4 3 4 3"/><path stroke="#F2F2D9" d="M27.7 20.7s-1.8-2.4-1.8-4c1.7-.1 4 3 4 3"/><path d="M25 21.1s-.5-1.7-.5-2.4c1-.2 2.5 1.5 2.5 1.5"/><path stroke="#F2F2D9" d="M25 21.1s-.5-1.7-.5-2.4c1-.2 2.5 1.5 2.5 1.5"/><path d="M26.5 8.2s3.5-3.5 3-4.5-5 .5-6 2.5"/><path stroke="#F2F2D9" d="M26.5 8.2s3.5-3.5 3-4.5-5 .5-6 2.5"/><path d="M23 6s2.8-3 2-3.8c-.5-.6-3 .6-4 1.9"/><path stroke="#F2F2D9" d="M23 6s2.8-3 2-3.8c-.5-.6-3 .6-4 1.9"/><path d="M20.5 3.8s1.5-2 1.2-2.7c-.4-.7-2.6-.2-3.8 1"/><path stroke="#F2F2D9" d="M20.5 3.8s1.5-2 1.2-2.7c-.4-.7-2.6-.2-3.8 1"/><path d="M27 13.6c3-.8 5 3.1 2.5 5.6"/><path stroke="#F2F2D9" d="M27 13.6c3-.8 5 3.1 2.5 5.6"/><path d="M30.5 16.1c2 0 3.5 2.1 2 5a5.3 5.3 0 0 0-2.5-3"/><path stroke="#F2F2D9" d="M30.5 16.1c2 0 3.5 2.1 2 5a5.3 5.3 0 0 0-2.5-3"/><path d="M29.5 14c1.1-.4 1.5-1.3 2-3.2 1.1 2 1 4.5-.5 4.9"/><path stroke="#F2F2D9" d="M29.5 14c1.1-.4 1.5-1.3 2-3.2 1.1 2 1 4.5-.5 4.9"/></svg>