<svg xmlns="http://www.w3.org/2000/svg" fill="none" style="-webkit-print-color-adjust:exact" viewBox="-1 -1 26.8 32.8"><circle cx="7.5" cy="18.1" r="5"/><defs><clipPath id="b"><use href="#a"/></clipPath><circle id="a" cx="7.5" cy="18.1" r="5" fill="none" stroke="#F2F2D9" stroke-opacity="1" stroke-width="2.5"/></defs><use clip-path="url('#b')" href="#a"/><circle cx="7.5" cy="18.1" r="2.7"/><defs><clipPath id="d"><use href="#c"/></clipPath><circle id="c" cx="7.5" cy="18.1" r="2.7" fill="none" stroke="#F2F2D9" stroke-opacity="1" stroke-width="2.5"/></defs><use clip-path="url('#d')" href="#c"/><path d="M11 1.5c-.4 3 0 8-2 8.6-2 .5-4-1.5-6 0S-1.8 17.5 1.6 25C5 32.6 18 32.7 21 25c1.3-3.3 4.7 0 2.6-6.6 1.9-.7 1.3-7 .4-11.4-.7-3.6-1-8.5-6.6-6.6L19 12.1l-2.4.3s-1.1-9.7-1.6-11c-.5-1.1-4 .1-4 .1"/><path stroke="#F2F2D9" stroke-width="2" d="M11 1.5c-.4 3 0 8-2 8.6-2 .5-4-1.5-6 0S-1.8 17.5 1.6 25C5 32.6 18 32.7 21 25c1.3-3.3 4.7 0 2.6-6.6 1.9-.7 1.3-7 .4-11.4-.7-3.6-1-8.5-6.6-6.6L19 12.1l-2.4.3s-1.1-9.7-1.6-11c-.5-1.1-4 .1-4 .1Z"/><path d="M16.9 12.2c-2.5 2.6-1.8 3-1.3 5 .5 1.6-2.1 2.3-1 3.8.9 1.3 2.8.2 3.3-1 1-2.3 4.7-2.5 6-1.5"/><path stroke="#F2F2D9" stroke-width="2" d="M16.9 12.2c-2.5 2.6-1.8 3-1.3 5 .5 1.6-2.1 2.3-1 3.8.9 1.3 2.8.2 3.3-1 1-2.3 4.7-2.5 6-1.5"/><path d="M15 19c-2 1-1 2.6-2 4.6s-4.5.5-5.5 2"/><defs><marker id="e" fill="#F2F2D9" fill-opacity="1" markerHeight="6" markerWidth="6" orient="auto-start-reverse" refX="3" refY="3" viewBox="0 0 6 6"><path d="M3 2.5a.5.5 0 0 1 0 1"/></marker></defs><path stroke="#F2F2D9" stroke-width="2" marker-end="url(#e)" d="M15 19c-2 1-1 2.6-2 4.6s-4.5.5-5.5 2"/><path d="M14.4 25.6c-1 1 .5 3.5 0 4.5"/><defs><marker id="f" fill="#F2F2D9" fill-opacity="1" markerHeight="6" markerWidth="6" orient="auto-start-reverse" refX="3" refY="3" viewBox="0 0 6 6"><path d="M3 2.5a.5.5 0 0 1 0 1"/></marker></defs><path stroke="#F2F2D9" stroke-width="1.5" marker-start="url(#f)" d="M14.4 25.6c-1 1 .5 3.5 0 4.5"/><path d="M12 2.6C11 1.2 9.1.6 8 2 7 3.2 8 4.6 7 5.5c-1 1-2 .2-3 1.4-.8 1-.5 2.2 0 3.2"/><path stroke="#F2F2D9" stroke-width="2" d="M12 2.6C11 1.2 9.1.6 8 2 7 3.2 8 4.6 7 5.5c-1 1-2 .2-3 1.4-.8 1-.5 2.2 0 3.2"/><path d="M12.8 12a1.1 1.1 0 0 1 1-1.2l1.9-.3.3 2.2-1.9.3a1.1 1.1 0 0 1-1.3-1"/><path stroke="#F2F2D9" d="M12.8 12a1.1 1.1 0 0 1 1-1.2l1.9-.3.3 2.2-1.9.3a1.1 1.1 0 0 1-1.3-1z"/><path d="M12 6a1.1 1.1 0 0 1 1-1.2l1.9-.2.3 2.2-1.9.2a1.1 1.1 0 0 1-1.2-1z"/><path stroke="#F2F2D9" d="M12 6a1.1 1.1 0 0 1 1-1.2l1.9-.2.3 2.2-1.9.2a1.1 1.1 0 0 1-1.2-1z"/><path d="M12.4 9a1.1 1.1 0 0 1 1-1.2l1.9-.3.3 2.3-1.9.2a1.1 1.1 0 0 1-1.3-1"/><path stroke="#F2F2D9" d="M12.4 9a1.1 1.1 0 0 1 1-1.2l1.9-.3.3 2.3-1.9.2a1.1 1.1 0 0 1-1.3-1z"/><path d="M11.7 3.1a1.1 1.1 0 0 1 1-1.3l1.8-.2.3 2.2-1.9.3a1.1 1.1 0 0 1-1.2-1"/><path stroke="#F2F2D9" d="M11.7 3.1a1.1 1.1 0 0 1 1-1.3l1.8-.2.3 2.2-1.9.3a1.1 1.1 0 0 1-1.2-1z"/><path d="M21.9 10.8a1.2 1.2 0 0 0-1.3-1l-1.9.3.3 2.3 2-.4a1.2 1.2 0 0 0 1-1.3z"/><path stroke="#F2F2D9" d="M21.9 10.8a1.2 1.2 0 0 0-1.3-1l-1.9.3.3 2.3 2-.4a1.2 1.2 0 0 0 1-1.3z"/><path d="M21 4.8a1.2 1.2 0 0 0-1.3-1L18 4l.3 2.3 1.9-.2a1.2 1.2 0 0 0 1-1.3z"/><path stroke="#F2F2D9" d="M21 4.8a1.2 1.2 0 0 0-1.3-1L18 4l.3 2.3 1.9-.2a1.2 1.2 0 0 0 1-1.3z"/><path d="M21.4 7.8a1.2 1.2 0 0 0-1.2-1l-1.9.3.3 2.2 1.9-.2a1.2 1.2 0 0 0 1-1.3z"/><path stroke="#F2F2D9" d="M21.4 7.8a1.2 1.2 0 0 0-1.2-1l-1.9.3.3 2.2 1.9-.2a1.2 1.2 0 0 0 1-1.3z"/><path d="M20.6 1.7a1.2 1.2 0 0 0-1.3-1l-1.8.3.3 2.3 1.8-.3a1.2 1.2 0 0 0 1-1.3"/><path stroke="#F2F2D9" d="M20.6 1.7a1.2 1.2 0 0 0-1.3-1l-1.8.3.3 2.3 1.8-.3a1.2 1.2 0 0 0 1-1.3z"/></svg>