<svg xmlns="http://www.w3.org/2000/svg" fill="none" style="-webkit-print-color-adjust:exact" viewBox="-0.6 -0.7 33.8 28.8"><path d="M12.4 5 9.9 9l-1-4.4-3 4-2.1-4.7-2.4 3"/><path stroke="#d6d6af" d="M12.4 5 9.9 9l-1-4.4-3 4-2.1-4.7-2.4 3"/><path d="M2.9 3.6s12 0 11 4-12.5 0-12.5 0L.4 13s5-.5 7 2 6.5 10.5 15.5 6c0 0 3 5 7 6 2.5-3.2 5-15.5-4.5-15.5 0 0 1.5-7-7.5-8.5S4.4-.4 3.4.6s-.5 3-.5 3Z"/><path stroke="#d6d6af" stroke-width="2" d="M2.9 3.6s12 0 11 4-12.5 0-12.5 0L.4 13s5-.5 7 2 6.5 10.5 15.5 6c0 0 3 5 7 6 2.5-3.2 5-15.5-4.5-15.5 0 0 1.5-7-7.5-8.5S4.4-.4 3.4.6s-.5 3-.5 3Z"/><path d="M19.9 16.7a7 7 0 0 1-9.5-2.7 7 7 0 0 1 9.5 2.7z"/><path stroke="#d6d6af" d="M19.9 16.7a7 7 0 0 1-9.5-2.7 7 7 0 0 1 9.5 2.7z"/><circle cx="15.1" cy="15.3" r="1.8" transform="rotate(110 15.1 15.3)"/><circle cx="15.1" cy="15.3" r="1.8" stroke="#d6d6af" transform="rotate(110 15.1 15.3)"/><path d="M28.9 26.6S18.6 18 22.9 15c3.1-2.2 6.3 1 5.1 3.3-1 1.8-3.5 1.3-2.9-.3"/><defs><marker id="a" fill="#d6d6af" fill-opacity="1" markerHeight="6" markerWidth="6" orient="auto-start-reverse" refX="3" refY="3" viewBox="0 0 6 6"><path d="M3 2.5a.5.5 0 0 1 0 1"/></marker></defs><path stroke="#d6d6af" stroke-width="2" marker-end="url(#a)" d="M28.9 26.6S18.6 18 22.9 15c3.1-2.2 6.3 1 5.1 3.3-1 1.8-3.5 1.3-2.9-.3"/><path d="M2.3 6.8c-4-1.6-2-8.8.6-6.2"/><path stroke="#d6d6af" d="M2.3 6.8c-4-1.6-2-8.8.6-6.2"/><path fill="#d6d6af" d="M3 10.5c0 .7-.8 1.2-1.6 1l.4-2.4c.8.1 1.4.8 1.2 1.4Z"/></svg>