<svg xmlns="http://www.w3.org/2000/svg" fill="none" style="-webkit-print-color-adjust:exact" viewBox="-0.5 -0.5 26 38.3"><path d="M6.9 5.4c-1-.9-2.6-2.7-2.2-3.4 1-1.7 7.8 3 9.3 4"/><path stroke="#F2F2D9" d="M6.9 5.4c-1-.9-2.6-2.7-2.2-3.4 1-1.7 7.8 3 9.3 4"/><path d="M7 9.6C5.8 8.6 2.2 6.2 3 5c1.2-1.5 9 2.6 11 3.9"/><path stroke="#F2F2D9" d="M7 9.6C5.8 8.6 2.2 6.2 3 5c1.2-1.5 9 2.6 11 3.9"/><path d="M5 12C3.4 11.2.9 9 1.5 8c1.1-1.5 6.8 2.5 8.5 3.6"/><path stroke="#F2F2D9" d="M5 12C3.4 11.2.9 9 1.5 8c1.1-1.5 6.8 2.5 8.5 3.6"/><path d="M5 16.4c-1.2-.9-3.7-3.3-3.5-4.3.3-1.8 4.5.4 6.5 1.4"/><path stroke="#F2F2D9" d="M5 16.4c-1.2-.9-3.7-3.3-3.5-4.3.3-1.8 4.5.4 6.5 1.4"/><path d="M4 19.5c-.6-.5-3.6-2-3-3.4.8-1.7 7.3 1.8 9 2.9"/><path stroke="#F2F2D9" d="M4 19.5c-.6-.5-3.6-2-3-3.4.8-1.7 7.3 1.8 9 2.9"/><path d="M4.4 23.9c-1.6-1-3.9-3.4-3.5-4.2.6-1 3.6-.3 4.5.3"/><path stroke="#F2F2D9" d="M4.4 23.9c-1.6-1-3.9-3.4-3.5-4.2.6-1 3.6-.3 4.5.3"/><path d="M14.4 11.4c-1-2-1-5 0-5.4 1.4-.5 4.5 3.8 5.5 5.5"/><path stroke="#F2F2D9" d="M14.4 11.4c-1-2-1-5 0-5.4 1.4-.5 4.5 3.8 5.5 5.5"/><path d="M15.4 18.3c-1.4-1.4-7-7.1-5.5-8.5 1.3-1.4 7 3.1 8 5.6"/><path stroke="#F2F2D9" d="M15.4 18.3c-1.4-1.4-7-7.1-5.5-8.5 1.3-1.4 7 3.1 8 5.6"/><path d="M12 20.5c-1.5-1.4-6-5.2-4.7-6.7 1.3-1.4 6.2 2.8 7.7 4.1"/><path stroke="#F2F2D9" d="M12 20.5c-1.5-1.4-6-5.2-4.7-6.7 1.3-1.4 6.2 2.8 7.7 4.1"/><path d="M11 25.4c-1.8-1.2-6.8-5.4-6-6.9.9-1.7 4.8.9 6.4 2"/><path stroke="#F2F2D9" d="M11 25.4c-1.8-1.2-6.8-5.4-6-6.9.9-1.7 4.8.9 6.4 2"/><path d="M18 16.5c0-2 .4-5 2-5s1.9 4.4 1.9 6.4"/><path stroke="#F2F2D9" d="M18 16.5c0-2 .4-5 2-5s1.9 4.4 1.9 6.4"/><path d="M11 26.4c0-2 .4-7.8 2-7.9 1.9 0 2.4 8 2.4 10"/><path stroke="#F2F2D9" d="M11 26.4c0-2 .4-7.8 2-7.9 1.9 0 2.4 8 2.4 10"/><path d="M18.9 22c.8-1.8 2.6-4.4 3.9-3.7 1.6 1-.5 7.3-1.3 9.1"/><path stroke="#F2F2D9" d="M18.9 22c.8-1.8 2.6-4.4 3.9-3.7 1.6 1-.5 7.3-1.3 9.1"/><path d="M15.4 25.4c1-1.4 3-3.9 4-3.3 1.2.6 0 3.6-1 5.3"/><path stroke="#F2F2D9" d="M15.4 25.4c1-1.4 3-3.9 4-3.3 1.2.6 0 3.6-1 5.3"/><path d="M7.7 29.5a1.8 1.8 0 1 1-1.4 2.8c1.1-1.3 1-1.8 1.4-2.8"/><path stroke="#F2F2D9" d="M7.7 29.5a1.8 1.8 0 1 1-1.4 2.8c1.1-1.3 1-1.8 1.4-2.8Z"/><path d="M21.4 27.5c-1-1-5 1-7.5 1s-6.5-7-8.5-6S5 26 5 28s-2 4-1 4.5 2.5-.6 3-1c1-1.1.5-4.5 1.5-4s2.5 2.7 3.5 3c1.6.5.5 2 0 3S6.4 34 6.4 35s7.5 3 9 2 2-4.5 3-5.6c.9-.8 4-2.9 3-3.9"/><path stroke="#F2F2D9" d="M21.4 27.5c-1-1-5 1-7.5 1s-6.5-7-8.5-6S5 26 5 28s-2 4-1 4.5 2.5-.6 3-1c1-1.1.5-4.5 1.5-4s2.5 2.7 3.5 3c1.6.5.5 2 0 3S6.4 34 6.4 35s7.5 3 9 2 2-4.5 3-5.6c.9-.8 4-2.9 3-3.9Z"/><path d="M17.2 15a6.5 6.5 0 0 1-1.4 9 6.5 6.5 0 0 1 1.4-9"/><path stroke="#F2F2D9" d="M17.2 15a6.5 6.5 0 0 1-1.4 9 6.5 6.5 0 0 1 1.4-9z"/><ellipse cx="16.5" cy="19.6" rx="1.7" ry="1.8" transform="rotate(13 16.5 19.6)"/><ellipse cx="16.5" cy="19.6" stroke="#F2F2D9" rx="1.7" ry="1.8" transform="rotate(13 16.5 19.6)"/></svg>