<svg xmlns="http://www.w3.org/2000/svg" fill="none" style="-webkit-print-color-adjust:exact" viewBox="-1 -1 23.3 42.4"><path d="M4.9 0c16.2 5.9 21 26.4 11.9 40.4C1.5 33.6-5.4 13 4.8 0Z"/><path stroke="#F2F2D9" stroke-width="2" d="M4.9 0c16.2 5.9 21 26.4 11.9 40.4C1.5 33.6-5.4 13 4.8 0Z"/><circle cx="12.8" cy="11.9" r="4"/><defs><clipPath id="b"><use href="#a"/></clipPath><circle id="a" cx="12.8" cy="11.9" r="4" fill="none" stroke="#F2F2D9" stroke-opacity="1" stroke-width="2"/></defs><use clip-path="url('#b')" href="#a"/><circle cx="12.8" cy="11.9" r="2.2"/><defs><clipPath id="d"><use href="#c"/></clipPath><circle id="c" cx="12.8" cy="11.9" r="2.2" fill="none" stroke="#F2F2D9" stroke-opacity="1" stroke-width="2"/></defs><use clip-path="url('#d')" href="#c"/><path d="M17.2 10.7c-.5 3.5-.6 5.3-9.4 7.7-6.1 1.5-3.9 10.1.4 15.8"/><path stroke="#F2F2D9" stroke-linecap="round" stroke-width="2" d="M17.2 10.7c-.5 3.5-.6 5.3-9.4 7.7-6.1 1.5-3.9 10.1.4 15.8"/><path d="M19.3 14a9 9 0 0 1-8 6.3c-2.5 0-4 1-4 2.4-.2 1.5.6 2.5 3 2.5"/><path stroke="#F2F2D9" stroke-width="2" d="M19.3 14a9 9 0 0 1-8 6.3c-2.5 0-4 1-4 2.4-.2 1.5.6 2.5 3 2.5"/><rect width="3.5" height="11" x="10.3" y="21.4" rx="1" ry="1"/><rect width="3.5" height="11" x="10.3" y="21.4" stroke="#F2F2D9" rx="1" ry="1"/><rect width="3.5" height="11" x="13.8" y="21.4" rx="1" ry="1"/><rect width="3.5" height="11" x="13.8" y="21.4" stroke="#F2F2D9" rx="1" ry="1"/><rect width="3.5" height="11" x="17.3" y="21.4" rx="1" ry="1"/><rect width="3.5" height="11" x="17.3" y="21.4" stroke="#F2F2D9" rx="1" ry="1"/><path d="M9.3 12.4c-4.9 2.2-8.9-6.9 1-9.5"/><path stroke="#F2F2D9" stroke-width="2" d="M9.3 12.4c-4.9 2.2-8.9-6.9 1-9.5"/><path d="m7.8 3.9 2 2"/><defs><marker id="e" fill="#F2F2D9" fill-opacity="1" markerHeight="6" markerWidth="6" orient="auto-start-reverse" refX="3" refY="3" viewBox="0 0 6 6"><path d="M3 2.5a.5.5 0 0 1 0 1"/></marker></defs><path stroke="#F2F2D9" marker-end="url(#e)" d="m7.8 3.9 2 2"/><path d="m5.3 5.9 3 1"/><defs><marker id="f" fill="#F2F2D9" fill-opacity="1" markerHeight="6" markerWidth="6" orient="auto-start-reverse" refX="3" refY="3" viewBox="0 0 6 6"><path d="M3 2.5a.5.5 0 0 1 0 1"/></marker></defs><path stroke="#F2F2D9" marker-end="url(#f)" d="m5.3 5.9 3 1"/><path d="M4.3 8.4h3.5"/><defs><marker id="g" fill="#F2F2D9" fill-opacity="1" markerHeight="6" markerWidth="6" orient="auto-start-reverse" refX="3" refY="3" viewBox="0 0 6 6"><path d="M3 2.5a.5.5 0 0 1 0 1"/></marker></defs><path stroke="#F2F2D9" marker-end="url(#g)" d="M4.3 8.4h3.5"/><path d="m4.8 10.4 3-.5"/><defs><marker id="h" fill="#F2F2D9" fill-opacity="1" markerHeight="6" markerWidth="6" orient="auto-start-reverse" refX="3" refY="3" viewBox="0 0 6 6"><path d="M3 2.5a.5.5 0 0 1 0 1"/></marker></defs><path stroke="#F2F2D9" marker-end="url(#h)" d="m4.8 10.4 3-.5"/></svg>