<svg xmlns="http://www.w3.org/2000/svg" fill="none" style="-webkit-print-color-adjust:exact" viewBox="-1 0 39.7 31.8"><circle cx="16.3" cy="20.5" r="7.5"/><defs><clipPath id="b"><use href="#a"/></clipPath><circle id="a" cx="16.3" cy="20.5" r="7.5" fill="none" stroke="#F2F2D9" stroke-opacity="1" stroke-width="4"/></defs><use clip-path="url('#b')" href="#a"/><circle cx="16.3" cy="20.5" r="4"/><defs><clipPath id="d"><use href="#c"/></clipPath><circle id="c" cx="16.3" cy="20.5" r="4" fill="none" stroke="#F2F2D9" stroke-opacity="1" stroke-width="4"/></defs><use clip-path="url('#d')" href="#c"/><circle cx="28" cy="6.3" r="3.3"/><defs><clipPath id="f"><use href="#e"/></clipPath><circle id="e" cx="28" cy="6.3" r="3.3" fill="none" stroke="#F2F2D9" stroke-opacity="1" stroke-width="2"/></defs><use clip-path="url('#f')" href="#e"/><circle cx="28" cy="6.3" r="1.8"/><defs><clipPath id="h"><use href="#g"/></clipPath><circle id="g" cx="28" cy="6.3" r="1.8" fill="none" stroke="#F2F2D9" stroke-opacity="1" stroke-width="2"/></defs><use clip-path="url('#h')" href="#g"/><circle cx="10" cy="3.3" r="3.3"/><defs><clipPath id="j"><use href="#i"/></clipPath><circle id="i" cx="10" cy="3.3" r="3.3" fill="none" stroke="#F2F2D9" stroke-opacity="1" stroke-width="2"/></defs><use clip-path="url('#j')" href="#i"/><circle cx="10" cy="3.3" r="1.8"/><defs><clipPath id="l"><use href="#k"/></clipPath><circle id="k" cx="10" cy="3.3" r="1.8" fill="none" stroke="#F2F2D9" stroke-opacity="1" stroke-width="2"/></defs><use clip-path="url('#l')" href="#k"/><path d="M13.3 14.5S9.8 0 19.3 2s1.5 13.5 1.5 13.5"/><path stroke="#F2F2D9" stroke-width="2" d="M13.3 14.5S9.8 0 19.3 2s1.5 13.5 1.5 13.5"/><path d="M15.8 13.5S14.3 4 18.8 5s.5 9.5.5 9.5"/><path stroke="#F2F2D9" stroke-width="2" d="M15.8 13.5S14.3 4 18.8 5s.5 9.5.5 9.5"/><path d="M10.3 17C6.8 16 9-2 1.3 4c-3.4 2.6 1 6 1 9.5s-2 10.5 3.5 12c0 0 7.7 1.7 9.1 1.4"/><path stroke="#F2F2D9" stroke-width="2" d="M10.3 17C6.8 16 9-2 1.3 4c-3.4 2.6 1 6 1 9.5s-2 10.5 3.5 12c0 0 7.7 1.7 9.1 1.4"/><path d="M12.8 7c-1.5-.5-6-.3-3 9.4"/><path stroke="#F2F2D9" stroke-width="2" d="M12.8 7c-1.5-.5-6-.3-3 9.4"/><path d="M3.4 7c3 3.1 1.5 8.1 2 11 .7 2.7 2.4 4 4.4 4"/><defs><marker id="m" fill="#F2F2D9" fill-opacity="1" markerHeight="6" markerWidth="6" orient="auto-start-reverse" refX="3" refY="3" viewBox="0 0 6 6"><path d="M3 2.5a.5.5 0 0 1 0 1"/></marker></defs><path stroke="#F2F2D9" stroke-width="2" marker-start="url(#m)" d="M3.4 7c3 3.1 1.5 8.1 2 11 .7 2.7 2.4 4 4.4 4"/><path d="M23.2 19.8c3.6 0 7-19.3 13-11.4 2.5 3.3-2.6 5.5-3.5 8.8-1 3.4-.8 10.7-6.5 10.7 0 0-8-.4-9.3-1"/><path stroke="#F2F2D9" stroke-width="2" d="M23.2 19.8c3.6 0 7-19.3 13-11.4 2.5 3.3-2.6 5.5-3.5 8.8-1 3.4-.8 10.7-6.5 10.7 0 0-8-.4-9.3-1"/><path d="M23.6 8.7c1.2-1.4 7 .9 0 10.4"/><path stroke="#F2F2D9" stroke-width="2" d="M23.6 8.7c1.2-1.4 7 .9 0 10.4"/><path d="M33.3 10.6c-3.7 2.3-3.5 7.6-4.9 10.1-1.3 2.4-4.2 2.7-6 2.2"/><defs><marker id="n" fill="#F2F2D9" fill-opacity="1" markerHeight="6" markerWidth="6" orient="auto-start-reverse" refX="3" refY="3" viewBox="0 0 6 6"><path d="M3 2.5a.5.5 0 0 1 0 1"/></marker></defs><path stroke="#F2F2D9" stroke-width="2" marker-start="url(#n)" d="M33.3 10.6c-3.7 2.3-3.5 7.6-4.9 10.1-1.3 2.4-4.2 2.7-6 2.2"/></svg>