<svg xmlns="http://www.w3.org/2000/svg" fill="none" style="-webkit-print-color-adjust:exact" viewBox="-1 -1 34.954 35.123"><path d="M8.981 26.892c-1.5 3-7.985 5.495-8.527 2.169-.322-1.98 2.595-2.145 2.595-2.145"/><path stroke="#F2F2D9" stroke-width="2" d="M8.981 26.892c-1.5 3-7.985 5.495-8.527 2.169-.322-1.98 2.595-2.145 2.595-2.145"/><path d="M17.954 27.561c2.5-1.5 9.5-5.5 10-14 0 0 3.5-1 5-3 0 0-.5-5-8.5-6 0 0-6.556-6.488-13.556-3.988L.454 22.561s-1.514 2.553.986 4.053 5.038-2.657 5.038-2.657l2.494 3.087s-1.018 3.017.482 4.017 3.018-.164 3.018-.164-.018 2.664 1.982 2.164 1-4 3.5-5.5"/><path stroke="#F2F2D9" stroke-width="2" d="M17.954 27.561c2.5-1.5 9.5-5.5 10-14 0 0 3.5-1 5-3 0 0-.5-5-8.5-6 0 0-6.556-6.488-13.556-3.988L.454 22.561s-1.514 2.553.986 4.053 5.038-2.657 5.038-2.657l2.494 3.087s-1.018 3.017.482 4.017 3.018-.164 3.018-.164-.018 2.664 1.982 2.164 1-4 3.5-5.5Z"/><path d="M17.954 27.561c2.5-1.5 9.5-5.5 10-14 0 0 3.5-1 5-3 0 0-.5-5-8.5-6 0 0-6.556-6.488-13.556-3.988L.454 22.561s-1.514 2.553.986 4.053 4.014-1.053 4.014-1.053l7.5-17 4.5 2.5-8.5 17s-1 2 .5 3 3.018-.164 3.018-.164-.018 2.664 1.982 2.164 1-4 3.5-5.5"/><path stroke="#F2F2D9" d="M17.954 27.561c2.5-1.5 9.5-5.5 10-14 0 0 3.5-1 5-3 0 0-.5-5-8.5-6 0 0-6.556-6.488-13.556-3.988L.454 22.561s-1.514 2.553.986 4.053 4.014-1.053 4.014-1.053l7.5-17 4.5 2.5-8.5 17s-1 2 .5 3 3.018-.164 3.018-.164-.018 2.664 1.982 2.164 1-4 3.5-5.5Z"/><path d="M29.19 13.061s-4 1.5-5-.5 1.5-4 1.5-4"/><path stroke="#F2F2D9" stroke-linecap="round" stroke-width="2" d="M29.19 13.061s-4 1.5-5-.5 1.5-4 1.5-4"/><path d="M16.536 29.358c-1.353-2.198-3.707-1.281-4.082 1.203"/><path stroke="#F2F2D9" stroke-width="2" d="M16.536 29.358c-1.353-2.198-3.707-1.281-4.082 1.203"/><path d="m9.454 27.061-2.536-3.677 4.536-.823"/><path stroke="#F2F2D9" d="m9.454 27.061-2.536-3.677 4.536-.823"/><path d="m8.954 19.061 2.148 3.479-4.148 1.021"/><path stroke="#F2F2D9" d="m8.954 19.061 2.148 3.479-4.148 1.021"/><circle cx="3.954" cy="21.561" r="1.5" fill="#F2F2D9"/><circle cx="5.954" cy="17.561" r="1.5" fill="#F2F2D9"/><circle cx="8.454" cy="12.06" r="1.5" fill="#F2F2D9"/><circle cx="11.454" cy="6.061" r="1.5" fill="#F2F2D9"/><circle cx="12.954" cy="2.061" r="1.5" fill="#F2F2D9"/><circle cx="17.954" cy="3.061" r="1.5" fill="#F2F2D9"/><circle cx="21.454" cy="5.061" r="1.5" fill="#F2F2D9"/><circle cx="15.454" cy="7.061" r="1.5" fill="#F2F2D9"/><circle cx="19.454" cy="9.06" r="1.5" fill="#F2F2D9"/><circle cx="24.454" cy="16.561" r="1.5" fill="#F2F2D9"/><circle cx="23.954" cy="20.561" r="1.5" fill="#F2F2D9"/><circle cx="21.454" cy="24.061" r="1.5" fill="#F2F2D9"/><circle cx="17.954" cy="13.56" r="1.5" fill="#F2F2D9"/><circle cx="15.954" cy="16.561" r="1.5" fill="#F2F2D9"/><circle cx="14.454" cy="20.061" r="1.5" fill="#F2F2D9"/><path d="m8.954 18.561 3.5 1.5"/><path stroke="#F2F2D9" d="m8.954 18.561 3.5 1.5"/><path d="m14.954 10.061-4.5 9.5"/><path stroke="#F2F2D9" d="m14.954 10.061-4.5 9.5"/><path d="M21.524 14.56a7.5 7.5 0 0 1-4.567 9.573 7.5 7.5 0 0 1 4.567-9.572"/><path stroke="#F2F2D9" d="M21.524 14.56a7.5 7.5 0 0 1-4.567 9.573 7.5 7.5 0 0 1 4.567-9.572z"/><circle cx="19.186" cy="19.292" r="2" transform="rotate(30 19.186 19.292)"/><circle cx="19.186" cy="19.292" r="2" stroke="#F2F2D9" transform="rotate(30 19.186 19.292)"/></svg>