<svg xmlns="http://www.w3.org/2000/svg" fill="none" style="-webkit-print-color-adjust:exact" viewBox="-0.5 -0.5 30.05 38.9"><path d="M14 24c-2 .5-3.89 3.34-.98 5.95 3.48 3.1 4.53 4.78 3.94 7.95-1.32-3.3-2.03-2.79-5.91-5.05-4.53-2.64-3.83-8.93-3.69-13.05-.85 2.96-.78 8.04-3.86 6.7-2.42-1.05-2.5-3.45-1.45-5.52-2.15 1.63-2.61-.18-.61-3.18s3.16-5.28 2.64-.32c-.42 3.97-1.02 5.54-.04 5.57 1.59.05.4-8.05 3.96-7.54 2.52.36 1.59 4.69 1 6.5 1.38-2.23 3.58-6.56 1.08-7.06s-7.52-2.23-2.14-6.43c3.06-2.4.61-7.14 3.11-8.14S15.88.5 16.02 2c.18 2.05-.82 2.2-1.98 3.8 1 0 2.05-.8 2.55.2s-4.56 1.58-7.39 5.25c1.78-.66 3.9 1.65 4.9 1.65-1.63-.29-2.06-2.06-.1-3.4 2.13-1.44 5.63-6.5 6.5-7 1.5-.83 3 1 3 2s-2.57 4.33-2.57 4.33 1.86-1.12 2.2 1.1c.27 1.63-4.23 4.15-5.63 4.58 3.04.07 4.03 2.56 4.95 4.45.04-1.87-.64-9.39 2.12-9.57 1.5-.1 4.93 2.12 4.43 4.12s-2.97 7.4-5.5 8.5c-1.9.81-3.89-1.9-4.5-3 .06 1-.47 1.95-1.5 2 2.47.04 6.5 3.5 6 5s-5.48 2.04-6.5 2c3.02 1.65 4.63 2.97 4.13 3.97s-1.63 4.03-2.63 3.53-6.36-6.48-5-8.5c1.37-2.04 6.12-.88 6.12-1.88S16 23.5 14 24"/><path stroke="#F2F2D9" d="M14 24c-2 .5-3.89 3.34-.98 5.95 3.48 3.1 4.53 4.78 3.94 7.95-1.32-3.3-2.03-2.79-5.91-5.05-4.53-2.64-3.83-8.93-3.69-13.05-.85 2.96-.78 8.04-3.86 6.7-2.42-1.05-2.5-3.45-1.45-5.52-2.15 1.63-2.61-.18-.61-3.18s3.16-5.28 2.64-.32c-.42 3.97-1.02 5.54-.04 5.57 1.59.05.4-8.05 3.96-7.54 2.52.36 1.59 4.69 1 6.5 1.38-2.23 3.58-6.56 1.08-7.06s-7.52-2.23-2.14-6.43c3.06-2.4.61-7.14 3.11-8.14S15.88.5 16.02 2c.18 2.05-.82 2.2-1.98 3.8 1 0 2.05-.8 2.55.2s-4.56 1.58-7.39 5.25c1.78-.66 3.9 1.65 4.9 1.65-1.63-.29-2.06-2.06-.1-3.4 2.13-1.44 5.63-6.5 6.5-7 1.5-.83 3 1 3 2s-2.57 4.33-2.57 4.33 1.86-1.12 2.2 1.1c.27 1.63-4.23 4.15-5.63 4.58 3.04.07 4.03 2.56 4.95 4.45.04-1.87-.64-9.39 2.12-9.57 1.5-.1 4.93 2.12 4.43 4.12s-2.97 7.4-5.5 8.5c-1.9.81-3.89-1.9-4.5-3 .06 1-.47 1.95-1.5 2 2.47.04 6.5 3.5 6 5s-5.48 2.04-6.5 2c3.02 1.65 4.63 2.97 4.13 3.97s-1.63 4.03-2.63 3.53-6.36-6.48-5-8.5c1.37-2.04 6.12-.88 6.12-1.88S16 23.5 14 24Z"/><path d="M23.49 4.5c.97.52 2.92 1.04 2.43 2.07-.48 1.02-2.43 0-2.92-.52"/><path stroke="#F2F2D9" d="M23.49 4.5c.97.52 2.92 1.04 2.43 2.07-.48 1.02-2.43 0-2.92-.52"/><path d="M22.49 6.5c.97.52 2.92 1.04 2.43 2.06-.48 1.03-2.43 0-2.92-.51"/><path stroke="#F2F2D9" d="M22.49 6.5c.97.52 2.92 1.04 2.43 2.06-.48 1.03-2.43 0-2.92-.51"/><path d="M25.5 7c1 .5 3 1 2.5 2s-2.5 0-3-.5"/><path stroke="#F2F2D9" d="M25.5 7c1 .5 3 1 2.5 2s-2.5 0-3-.5"/><path d="M19.5 3c1 1.5 2.5 1 3 0"/><path stroke="#F2F2D9" d="M19.5 3c1 1.5 2.5 1 3 0"/><path d="m19.5 6-5 5.5"/><path stroke="#F2F2D9" d="m19.5 6-5 5.5"/><path d="M19 6.5c1.91 1.98-.47 6-3.57 4.4"/><path stroke="#F2F2D9" d="M19 6.5c1.91 1.98-.47 6-3.57 4.4"/><path d="M17.9 7.8c.6 1.64-.8 1.86-1.43 1.56"/><path stroke="#F2F2D9" d="M17.9 7.8c.6 1.64-.8 1.86-1.43 1.56"/><path d="M12 0s-1 3-1 4.5"/><defs><marker id="a" fill="#F2F2D9" fill-opacity="1" markerHeight="6" markerWidth="6" orient="auto-start-reverse" refX="3" refY="3" viewBox="0 0 6 6"><path d="M3 2.5a.5.5 0 0 1 0 1"/></marker></defs><path stroke="#F2F2D9" marker-end="url(#a)" d="M12 0s-1 3-1 4.5"/><path d="M14.5 0s-2 3-2 5"/><defs><marker id="b" fill="#F2F2D9" fill-opacity="1" markerHeight="6" markerWidth="6" orient="auto-start-reverse" refX="3" refY="3" viewBox="0 0 6 6"><path d="M3 2.5a.5.5 0 0 1 0 1"/></marker></defs><path stroke="#F2F2D9" marker-end="url(#b)" d="M14.5 0s-2 3-2 5"/><path d="M25.5 9.5s-1.5 1.5-2 4"/><defs><marker id="c" fill="#F2F2D9" fill-opacity="1" markerHeight="6" markerWidth="6" orient="auto-start-reverse" refX="3" refY="3" viewBox="0 0 6 6"><path d="M3 2.5a.5.5 0 0 1 0 1"/></marker></defs><path stroke="#F2F2D9" marker-end="url(#c)" d="M25.5 9.5s-1.5 1.5-2 4"/><path d="m27 10-2 4.5"/><defs><marker id="d" fill="#F2F2D9" fill-opacity="1" markerHeight="6" markerWidth="6" orient="auto-start-reverse" refX="3" refY="3" viewBox="0 0 6 6"><path d="M3 2.5a.5.5 0 0 1 0 1"/></marker></defs><path stroke="#F2F2D9" marker-end="url(#d)" d="m27 10-2 4.5"/><path d="m28.5 11.5-2 3.5"/><defs><marker id="e" fill="#F2F2D9" fill-opacity="1" markerHeight="6" markerWidth="6" orient="auto-start-reverse" refX="3" refY="3" viewBox="0 0 6 6"><path d="M3 2.5a.5.5 0 0 1 0 1"/></marker></defs><path stroke="#F2F2D9" marker-end="url(#e)" d="m28.5 11.5-2 3.5"/><path d="M2 16.5 3 18"/><defs><marker id="f" fill="#F2F2D9" fill-opacity="1" markerHeight="6" markerWidth="6" orient="auto-start-reverse" refX="3" refY="3" viewBox="0 0 6 6"><path d="M3 2.5a.5.5 0 0 1 0 1"/></marker></defs><path stroke="#F2F2D9" marker-end="url(#f)" d="M2 16.5 3 18"/><path d="M1 19h1"/><defs><marker id="g" fill="#F2F2D9" fill-opacity="1" markerHeight="6" markerWidth="6" orient="auto-start-reverse" refX="3" refY="3" viewBox="0 0 6 6"><path d="M3 2.5a.5.5 0 0 1 0 1"/></marker></defs><path stroke="#F2F2D9" marker-end="url(#g)" d="M1 19h1"/><path d="m0 20.5 1.5-.5"/><defs><marker id="h" fill="#F2F2D9" fill-opacity="1" markerHeight="6" markerWidth="6" orient="auto-start-reverse" refX="3" refY="3" viewBox="0 0 6 6"><path d="M3 2.5a.5.5 0 0 1 0 1"/></marker></defs><path stroke="#F2F2D9" marker-end="url(#h)" d="m0 20.5 1.5-.5"/><path d="m20.5 32.5-3-2.5"/><defs><marker id="i" fill="#F2F2D9" fill-opacity="1" markerHeight="6" markerWidth="6" orient="auto-start-reverse" refX="3" refY="3" viewBox="0 0 6 6"><path d="M3 2.5a.5.5 0 0 1 0 1"/></marker></defs><path stroke="#F2F2D9" marker-end="url(#i)" d="m20.5 32.5-3-2.5"/><path d="m19.5 34.5-2.5-3"/><defs><marker id="j" fill="#F2F2D9" fill-opacity="1" markerHeight="6" markerWidth="6" orient="auto-start-reverse" refX="3" refY="3" viewBox="0 0 6 6"><path d="M3 2.5a.5.5 0 0 1 0 1"/></marker></defs><path stroke="#F2F2D9" marker-end="url(#j)" d="m19.5 34.5-2.5-3"/></svg>