<svg xmlns="http://www.w3.org/2000/svg" fill="none" style="-webkit-print-color-adjust:exact" viewBox="-0.5 -1 34.4 31.2"><circle cx="14" cy="19.6" r="5.5" transform="matrix(1 0 0 -1 0 39.2)"/><g transform="matrix(1 0 0 -1 0 39.2)"><defs><clipPath id="b"><use href="#a"/></clipPath><circle id="a" cx="14" cy="19.6" r="5.5" fill="none" stroke="#F2F2D9" stroke-opacity="1" stroke-width="2.5"/></defs><use clip-path="url('#b')" href="#a"/></g><circle cx="14" cy="19.6" r="3.7" transform="matrix(1 0 0 -1 0 39.2)"/><g transform="matrix(1 0 0 -1 0 39.2)"><defs><clipPath id="d"><use href="#c"/></clipPath><circle id="c" cx="14" cy="19.6" r="3.7" fill="none" stroke="#F2F2D9" stroke-opacity="1" stroke-width="2.5"/></defs><use clip-path="url('#d')" href="#c"/></g><ellipse cx="14" cy="19.6" rx="1.8" ry="1.7" transform="matrix(1 0 0 -1 0 39.2)"/><g transform="matrix(1 0 0 -1 0 39.2)"><defs><clipPath id="f"><use href="#e"/></clipPath><ellipse id="e" cx="14" cy="19.6" fill="none" stroke="#F2F2D9" stroke-opacity="1" stroke-width="2.5" rx="1.8" ry="1.7"/></defs><use clip-path="url('#f')" href="#e"/></g><path d="M23 5.1c2.4 2 4 6.3 1.5 6.5-2.5.2-2.8-3.3-1.5-6.5Z"/><path stroke="#F2F2D9" d="M23 5.1c2.4 2 4 6.3 1.5 6.5-2.5.2-2.8-3.3-1.5-6.5Z"/><path d="M22 2.1c4.8 3.4 8 10.6 3 11-5 .4-5.6-5.6-3-11Z"/><path stroke="#F2F2D9" d="M22 2.1c4.8 3.4 8 10.6 3 11-5 .4-5.6-5.6-3-11Z"/><path d="M25.1 0c4.5 2 10 10.6 7 17.6-3 7-14.1 12.5-25 11.5-2-4 3-6.5 3-6.5"/><path stroke="#F2F2D9" stroke-width="2" d="M25.1 0c4.5 2 10 10.6 7 17.6-3 7-14.1 12.5-25 11.5-2-4 3-6.5 3-6.5"/><path d="M26 12.6c2.5 1.6 2.3 5-.4 6.5-2 1-4.1-.5-4.6-2.1-.5-1.4.5-3.4 2.5-3.4s2.9 1.8 2 3c-1 1.5-3 0-2-1"/><defs><marker id="g" fill="#F2F2D9" fill-opacity="1" markerHeight="6" markerWidth="6" orient="auto-start-reverse" refX="3" refY="3" viewBox="0 0 6 6"><path d="M3 2.5a.5.5 0 0 1 0 1"/></marker></defs><path stroke="#F2F2D9" marker-end="url(#g)" d="M26 12.6c2.5 1.6 2.3 5-.4 6.5-2 1-4.1-.5-4.6-2.1-.5-1.4.5-3.4 2.5-3.4s2.9 1.8 2 3c-1 1.5-3 0-2-1"/><path d="m28 2.6-4 1"/><path stroke="#F2F2D9" d="m28 2.6-4 1"/><path d="m29.5 4.1-4 1"/><path stroke="#F2F2D9" d="m29.5 4.1-4 1"/><path d="m31 6.1-4.5 1"/><path stroke="#F2F2D9" d="m31 6.1-4.5 1"/><path d="m32 8.1-5 .5"/><path stroke="#F2F2D9" d="m32 8.1-5 .5"/><path d="m33 10.6-5.5-.5"/><path stroke="#F2F2D9" d="m33 10.6-5.5-.5"/><path d="m33 12.6-6-1"/><path stroke="#F2F2D9" d="m33 12.6-6-1"/><path d="M32.5 15.1 27 13.6"/><path stroke="#F2F2D9" d="M32.5 15.1 27 13.6"/><path d="m32 18.1-4-1.5"/><path stroke="#F2F2D9" d="m32 18.1-4-1.5"/><path d="m30 20.6-3-2.5"/><path stroke="#F2F2D9" d="m30 20.6-3-2.5"/><path d="m25.5 19.1 2.5 3"/><path stroke="#F2F2D9" d="m25.5 19.1 2.5 3"/><path d="m26.5 24.1-4-5"/><path stroke="#F2F2D9" stroke-linecap="round" d="m26.5 24.1-4-5"/><path d="M24 25.6 21 21"/><path stroke="#F2F2D9" stroke-linecap="round" d="M24 25.6 21 21"/><path d="m19 21.6 1.5 5"/><path stroke="#F2F2D9" stroke-linecap="round" d="m19 21.6 1.5 5"/><path d="m17 23.6 1 4"/><path stroke="#F2F2D9" d="m17 23.6 1 4"/><path d="m15 24.1.5 4"/><path stroke="#F2F2D9" d="m15 24.1.5 4"/><path d="M13 24.6v4"/><path stroke="#F2F2D9" d="M13 24.6v4"/><path d="M12 24.1s-1.5 1.5-1 4.5"/><path stroke="#F2F2D9" d="M12 24.1s-1.5 1.5-1 4.5"/><path d="M11 23.6s-2.5 1.5-2.5 5"/><path stroke="#F2F2D9" d="M11 23.6s-2.5 1.5-2.5 5"/><path d="M9 19.6c-4.5 2-7.6-1.3-6.7-3.4 1.2-2.7 4.2-1 3.2 1"/><defs><marker id="h" fill="#F2F2D9" fill-opacity="1" markerHeight="6" markerWidth="6" orient="auto-start-reverse" refX="3" refY="3" viewBox="0 0 6 6"><path d="M3 2.5a.5.5 0 0 1 0 1"/></marker></defs><path stroke="#F2F2D9" marker-end="url(#h)" d="M9 19.6c-4.5 2-7.6-1.3-6.7-3.4 1.2-2.7 4.2-1 3.2 1"/><path d="M5.4 15.5c3.5-.3 5.6-1.9 5.1-4.9-.5-3-3-4-7.5-3 0 0-1.6-3 6-3.2 4 0 6.1 1 6.5 4.7.5 4.3-.5 5.7-.5 5.7"/><path stroke="#F2F2D9" d="M5.4 15.5c3.5-.3 5.6-1.9 5.1-4.9-.5-3-3-4-7.5-3 0 0-1.6-3 6-3.2 4 0 6.1 1 6.5 4.7.5 4.3-.5 5.7-.5 5.7"/><path d="m10.5 12.1-7 1 .5 2"/><path stroke="#F2F2D9" d="m10.5 12.1-7 1 .5 2"/><path d="m6 15.6-.5-3"/><path stroke="#F2F2D9" d="m6 15.6-.5-3"/><path d="m8 12.1.5 2.5"/><path stroke="#F2F2D9" d="m8 12.1.5 2.5"/><path d="m10.5 9.6-7 1.4L3 7.6"/><path stroke="#F2F2D9" d="m10.5 9.6-7 1.4L3 7.6"/><path d="M5.5 10.6 5 7.1"/><path stroke="#F2F2D9" d="M5.5 10.6 5 7.1"/><path d="M7.5 10.1 7 7.6"/><path stroke="#F2F2D9" d="M7.5 10.1 7 7.6"/><path d="M3.5 13.1c-2.5.5-4.5-4.5-3-5s3 3 3 3"/><path stroke="#F2F2D9" d="M3.5 13.1c-2.5.5-4.5-4.5-3-5s3 3 3 3"/></svg>