<svg xmlns="http://www.w3.org/2000/svg" fill="none" style="-webkit-print-color-adjust:exact" viewBox="-0.8 -0.8 31.4 35.5"><path d="M14 18.5s-1.8 1.4-.9 3.3c1 2 3.2 1.7 3.2 1.7"/><path stroke="#F2F2D9" stroke-linecap="round" stroke-width="1.5" d="M14 18.5s-1.8 1.4-.9 3.3c1 2 3.2 1.7 3.2 1.7"/><path fill="#F2F2D9" d="M18.7 19.2c.9 1.7.6 3.6-.7 4.2l-3-6.3c1.1-.6 2.8.3 3.7 2Zm-4.5 2.2c-.4-.9 0-2 1-2.4l1.5 3c-1 .6-2 .3-2.5-.6"/><path d="M10.8 25.9s-4 4.5-3 5.5 4.5 2.5 5 1.5 1.5-5 3-5 1 5.5 2.5 6 6-1 6-3-4-4-3-5.5 6 2 7 1 2.5-4.5 1-5-6-1.5-6-1.5"/><path stroke="#F2F2D9" stroke-linecap="round" stroke-width="1.5" d="M10.8 25.9s-4 4.5-3 5.5 4.5 2.5 5 1.5 1.5-5 3-5 1 5.5 2.5 6 6-1 6-3-4-4-3-5.5 6 2 7 1 2.5-4.5 1-5-6-1.5-6-1.5"/><path d="M8.3 20.1s-6 .4-6.2-1c-.1-1.4 1-5.1 2-4.9s4.8 2 5.8.7c1-1.2-3.7-4.2-3.1-5.7.5-1.4 4.5-4 6-2.8 1.6 1.2.7 5.6 2.5 5.7 1.8.2 2.2-6 3.6-6.1 1.4-.2 5 .8 4.5 2.3S20.8 14 20.8 14"/><path stroke="#F2F2D9" stroke-linecap="round" stroke-width="1.5" d="M8.3 20.1s-6 .4-6.2-1c-.1-1.4 1-5.1 2-4.9s4.8 2 5.8.7c1-1.2-3.7-4.2-3.1-5.7.5-1.4 4.5-4 6-2.8 1.6 1.2.7 5.6 2.5 5.7 1.8.2 2.2-6 3.6-6.1 1.4-.2 5 .8 4.5 2.3S20.8 14 20.8 14"/><circle cx="15.5" cy="20.6" r="5.3"/><circle cx="15.5" cy="20.6" r="5.3" stroke="#F2F2D9" stroke-width="2"/><path d="m8.3 21.9 1.5 3"/><path stroke="#F2F2D9" stroke-linecap="round" d="m8.3 21.9 1.5 3"/><path d="m6.3 21.9 2 4.5"/><path stroke="#F2F2D9" stroke-linecap="round" d="m6.3 21.9 2 4.5"/><path d="m23.3 13.2 3.5 1.7-1 3.7"/><path stroke="#F2F2D9" stroke-linecap="round" stroke-width="2" d="m23.3 13.2 3.5 1.7-1 3.7"/><circle cx="19.8" cy="9.4" r="1.5" fill="#F2F2D9"/><circle cx="23.8" cy="22.9" r="1.5" fill="#F2F2D9" transform="rotate(-1 23.8 22.9)"/><circle cx="12.3" cy="27.9" r="1.5" fill="#F2F2D9" transform="rotate(-1 12.3 27.9)"/><circle cx="8" cy="17.5" r="1.5" fill="#F2F2D9" transform="rotate(83 8 17.5)"/><circle cx="18.8" cy="12.4" r="1.5" fill="#F2F2D9"/><circle cx="5" cy="17" r="1.5" fill="#F2F2D9" transform="rotate(83 5 17)"/><circle cx="26.8" cy="23.4" r="1.5" fill="#F2F2D9" transform="rotate(-1 26.8 23.4)"/><circle cx="10.8" cy="30.4" r="1.5" fill="#F2F2D9" transform="rotate(-1 10.8 30.4)"/></svg>