<svg xmlns="http://www.w3.org/2000/svg" fill="none" style="-webkit-print-color-adjust:exact" viewBox="-1 -1 35.03 40.92"><circle cx="11.78" cy="19.33" r="3.75"/><defs><clipPath id="b"><use href="#a"/></clipPath><circle id="a" cx="11.78" cy="19.33" r="3.75" fill="none" stroke="#F2F2D9" stroke-opacity="1" stroke-width="2.5"/></defs><use clip-path="url('#b')" href="#a"/><circle cx="11.78" cy="19.33" r="2.02"/><defs><clipPath id="d"><use href="#c"/></clipPath><circle id="c" cx="11.78" cy="19.33" r="2.02" fill="none" stroke="#F2F2D9" stroke-opacity="1" stroke-width="2.5"/></defs><use clip-path="url('#d')" href="#c"/><path d="M18.19 20.5c-2.18 6.93 7.5 10.38 12.9 8.8-.48-4.04-2.31-10.37-8.39-12.31"/><path stroke="#F2F2D9" stroke-linecap="round" stroke-width="2" d="M18.19 20.5c-2.18 6.93 7.5 10.38 12.9 8.8-.48-4.04-2.31-10.37-8.39-12.31"/><path d="M20.53 27.58c-4 6-12.97 1.4-14-5.5-1.11-7.48-7-8.96-6.5-11.5.45-2.32 3.2-2.2 4.02-1.18 1 1.24 1.03 3.84-2.01 4.13"/><defs><marker id="e" fill="#F2F2D9" fill-opacity="1" markerHeight="6" markerWidth="6" orient="auto-start-reverse" refX="3" refY="3" viewBox="0 0 6 6"><path d="M3 2.5a.5.5 0 0 1 0 1"/></marker></defs><path stroke="#F2F2D9" stroke-width="2" marker-end="url(#e)" d="M20.53 27.58c-4 6-12.97 1.4-14-5.5-1.11-7.48-7-8.96-6.5-11.5.45-2.32 3.2-2.2 4.02-1.18 1 1.24 1.03 3.84-2.01 4.13"/><path d="M13.6 8.52c2.09 2.73 2.56 3.06 3.43 3.06 1 0 2.06-1.13 2.03-2.63-.02-.78-.76-1.87-1.74-2.97"/><path stroke="#F2F2D9" stroke-width="2" d="M13.6 8.52c2.09 2.73 2.56 3.06 3.43 3.06 1 0 2.06-1.13 2.03-2.63-.02-.78-.76-1.87-1.74-2.97"/><path d="M3.54 8.74C4.62 6.34 8.04 3.62 9.7 5"/><path stroke="#F2F2D9" stroke-width="2" d="M3.54 8.74C4.62 6.34 8.04 3.62 9.7 5"/><path d="M14 3.57c.03-.95-1.47-1.99-1.47-1.99s1.5-2 3-1.5 15 13 11 18.5"/><path stroke="#F2F2D9" stroke-width="2" d="M14 3.57c.03-.95-1.47-1.99-1.47-1.99s1.5-2 3-1.5 15 13 11 18.5"/><path d="M25.03 10.08s8.12 5.46 8 8c-.1 2.06-3.5 5-3.5 5"/><defs><marker id="f" fill="#F2F2D9" fill-opacity="1" markerHeight="6" markerWidth="6" orient="auto-start-reverse" refX="3" refY="3" viewBox="0 0 6 6"><path d="M3 2.5a.5.5 0 0 1 0 1"/></marker></defs><path stroke="#F2F2D9" stroke-width="2" marker-start="url(#f)" d="M25.03 10.08s8.12 5.46 8 8c-.1 2.06-3.5 5-3.5 5"/><path d="M17.13 3.63c-3.5-2-8.5 2-9 3.5s.92 2.27 1.4 1.38c1.39-2.6 7.6-4.88 7.6-4.88"/><path stroke="#F2F2D9" d="M17.13 3.63c-3.5-2-8.5 2-9 3.5s.92 2.27 1.4 1.38c1.39-2.6 7.6-4.88 7.6-4.88Z"/><path d="M18.53 5.08c-3.5-2-8.5 2-9 3.5s1 2.5 2 1.5 7-5 7-5"/><path stroke="#F2F2D9" d="M18.53 5.08c-3.5-2-8.5 2-9 3.5s1 2.5 2 1.5 7-5 7-5Z"/><path d="M23.74 28.78s2.3 4.27.33 10.14c-6-.94-6.54-9.34-6.54-9.34"/><path stroke="#F2F2D9" stroke-width="2" d="M23.74 28.78s2.3 4.27.33 10.14c-6-.94-6.54-9.34-6.54-9.34"/></svg>