<svg xmlns="http://www.w3.org/2000/svg" fill="none" style="-webkit-print-color-adjust:exact" viewBox="-1.5 -1.5 36.9 31.8"><path d="M6.6 4.1s-3.4-.5-2.4-3 5.6-.2 6.2 2c.3 1.6-4.4 6.5-1.8 8 3.6 2 3-4.4 6.2-5 1.9-.5 9 2.2 9.3 5.5"/><path stroke="#d6d6af" stroke-linecap="round" stroke-width="3" d="M6.6 4.1s-3.4-.5-2.4-3 5.6-.2 6.2 2c.3 1.6-4.4 6.5-1.8 8 3.6 2 3-4.4 6.2-5 1.9-.5 9 2.2 9.3 5.5"/><path d="m22.2 14 1.9 1"/><path stroke="#d6d6af" stroke-linecap="round" stroke-width="3" d="m22.2 14 1.9 1"/><path d="m21.1 17.1 2 1"/><path stroke="#d6d6af" stroke-linecap="round" stroke-width="3" d="m21.1 17.1 2 1"/><path d="M25.6 17.1s2 .5 1.5 1.5-2.5 3-2 3.5 4.5 2 4 3.5-1.5 2.5-2.5 2 0-2 0-2"/><path stroke="#d6d6af" stroke-linecap="round" stroke-width="2" d="M25.6 17.1s2 .5 1.5 1.5-2.5 3-2 3.5 4.5 2 4 3.5-1.5 2.5-2.5 2 0-2 0-2"/><path d="M26.6 14.6s5.5 2 6 3.5-2 4-1.5 4.5 1.5 1.5 2.5-.5"/><path stroke="#d6d6af" stroke-linecap="round" stroke-width="2" d="M26.6 14.6s5.5 2 6 3.5-2 4-1.5 4.5 1.5 1.5 2.5-.5"/><path d="M27.1 11.6s6.5 4 7 3.5.6-1-1.5-2"/><path stroke="#d6d6af" stroke-linecap="round" stroke-width="2" d="M27.1 11.6s6.5 4 7 3.5.6-1-1.5-2"/><path d="M21.6 21.6s-11.5-6.5-12.5-5.5-3 8-4 7.5-2.8-.8-2.9-2c0-.8 4-7.7 3.6-8.2-.5-.5-4.6-3.5-5.7-.6-.6 1.7 1.7 2.2 1.7 2.2"/><path stroke="#d6d6af" stroke-linecap="round" stroke-width="3" d="M21.6 21.6s-11.5-6.5-12.5-5.5-3 8-4 7.5-2.8-.8-2.9-2c0-.8 4-7.7 3.6-8.2-.5-.5-4.6-3.5-5.7-.6-.6 1.7 1.7 2.2 1.7 2.2"/><path d="m8.6 18.6 11.5 6"/><path stroke="#d6d6af" stroke-linecap="round" stroke-width="2" d="m8.6 18.6 11.5 6"/><path d="M11.6 20.6c-2.5 4.5-2.5 5-6 3"/><path stroke="#d6d6af" stroke-width="2" d="M11.6 20.6c-2.5 4.5-2.5 5-6 3"/><path d="M14.6 22.1c-2.6 5.1-4.5 5.3-6 2.8"/><path stroke="#d6d6af" stroke-width="2" d="M14.6 22.1c-2.6 5.1-4.5 5.3-6 2.8"/><path d="M17.6 23.6c-2.5 4.5-4 5.5-6.5 2.5"/><path stroke="#d6d6af" stroke-width="2" d="M17.6 23.6c-2.5 4.5-4 5.5-6.5 2.5"/><path d="M20.1 24.6c-2.5 5-3.5 6-6 3"/><path stroke="#d6d6af" stroke-width="2" d="M20.1 24.6c-2.5 5-3.5 6-6 3"/><circle cx="29.9" cy="18.9" r="1.3" fill="#d6d6af"/><circle cx="28.4" cy="21.4" r="1.3" fill="#d6d6af"/><path d="M14.7 11.5s-.5 2.2 1.4 3.1c2 1 3.6-.7 3.6-.7"/><path stroke="#d6d6af" stroke-linecap="round" stroke-width="1.5" d="M14.7 11.5s-.5 2.2 1.4 3.1c2 1 3.6-.7 3.6-.7"/><path fill="#d6d6af" d="M18.9 9c1.7 1 2.7 2.6 2 3.8l-6.3-3c.6-1.2 2.5-1.5 4.3-.7Zm-2.2 4.7c-.9-.5-1.2-1.6-.7-2.6l3.1 1.5c-.4 1-1.5 1.5-2.4 1Z"/></svg>