<svg xmlns="http://www.w3.org/2000/svg" fill="none" style="-webkit-print-color-adjust:exact" viewBox="-1 -1 27.17 35.97"><path d="M16.02 20c9.06-2.2-1.5-10.38 2.48-10.59-1.9 1.11.33 2.91 1.57 2.03 1.42-1 .93-3.4-1.57-3.9s-4.34 1.99-3.34 3.49"/><path stroke="#d6d6af" d="M16.02 20c9.06-2.2-1.5-10.38 2.48-10.59-1.9 1.11.33 2.91 1.57 2.03 1.42-1 .93-3.4-1.57-3.9s-4.34 1.99-3.34 3.49"/><path d="M15 10.53c-4.5 0-3.5-6.57 0-6.07s2.52 3.03.52 3.53-1.95-1.5-.45-1.5"/><path stroke="#d6d6af" stroke-linecap="round" d="M15 10.53c-4.5 0-3.5-6.57 0-6.07s2.52 3.03.52 3.53-1.95-1.5-.45-1.5"/><path d="M6.97 11.97 3 19.03l2 1.5s2-3.5 4-2.5 4.03 2.97 7.5 2.5c5.04-.68 10.47 3.7 6.5 6.43-3.54 2.45-5.95-2.38-3-2.93 2.02-.37 1 1.5 1 1.5"/><path stroke="#d6d6af" stroke-linecap="round" d="M6.97 11.97 3 19.03l2 1.5s2-3.5 4-2.5 4.03 2.97 7.5 2.5c5.04-.68 10.47 3.7 6.5 6.43-3.54 2.45-5.95-2.38-3-2.93 2.02-.37 1 1.5 1 1.5"/><path d="M18.49 25.55c-1 2.44-1.52 4.38-4 4.95-2.46.56-4.95-.09-4.46-1.5.51-1.5 4.46-4.12.96-5.62S9.5 27.03 7.5 27.53c-2 .5-5.06-3.55-2.48-7.03"/><defs><marker id="a" fill="#d6d6af" fill-opacity="1" markerHeight="6" markerWidth="6" orient="auto-start-reverse" refX="3" refY="3" viewBox="0 0 6 6"><path d="M3 2.5a.5.5 0 0 1 0 1"/></marker></defs><path stroke="#d6d6af" marker-start="url(#a)" d="M18.49 25.55c-1 2.44-1.52 4.38-4 4.95-2.46.56-4.95-.09-4.46-1.5.51-1.5 4.46-4.12.96-5.62S9.5 27.03 7.5 27.53c-2 .5-5.06-3.55-2.48-7.03"/><path d="M18.49 25.86s1.09 9.1 6.09 8.6c-1.49-3.4-2.08-6.93-2.08-6.93"/><path stroke="#d6d6af" d="M18.49 25.86s1.09 9.1 6.09 8.6c-1.49-3.4-2.08-6.93-2.08-6.93"/><path d="m23.5 31.03-3.6.04"/><path stroke="#d6d6af" d="m23.5 31.03-3.6.04"/><path d="M24.1 33.03 21 33"/><path stroke="#d6d6af" d="M24.1 33.03 21 33"/><path d="M23 29.03h-3.5"/><path stroke="#d6d6af" d="M23 29.03h-3.5"/><path d="M23 22.03c4.5-5 2-21.5-7.5-22S1 5.03 0 10.53"/><path stroke="#d6d6af" stroke-width="2" d="M23 22.03c4.5-5 2-21.5-7.5-22S1 5.03 0 10.53"/><path d="m24.5 18.53-5-1"/><path stroke="#d6d6af" d="m24.5 18.53-5-1"/><path d="m25 16.03-5-.5"/><path stroke="#d6d6af" d="m25 16.03-5-.5"/><path d="M25 13.53h-6"/><path stroke="#d6d6af" d="M25 13.53h-6"/><path d="M24.5 11.03h-4"/><path stroke="#d6d6af" d="M24.5 11.03h-4"/><path d="m23.5 8.03-3 .5"/><path stroke="#d6d6af" d="m23.5 8.03-3 .5"/><path d="m22.5 4.53-3 3.5"/><path stroke="#d6d6af" d="m22.5 4.53-3 3.5"/><path d="M20.5 2.03 17 7.37"/><path stroke="#d6d6af" d="M20.5 2.03 17 7.37"/><path d="m17.5.53-1.5 4"/><path stroke="#d6d6af" d="m17.5.53-1.5 4"/><path d="M14 .03v4.5"/><path stroke="#d6d6af" d="M14 .03v4.5"/><path d="M10.5.03 12.02 7"/><path stroke="#d6d6af" d="M10.5.03 12.02 7"/><path d="M7.5 1.53 10 7.96"/><path stroke="#d6d6af" d="M7.5 1.53 10 7.96"/><path d="m5 3.03 2.54 4.3"/><path stroke="#d6d6af" d="m5 3.03 2.54 4.3"/><path d="M2.5 5.03 5 7.53"/><path stroke="#d6d6af" d="M2.5 5.03 5 7.53"/><path d="m1 7.53 1.5.87"/><path stroke="#d6d6af" d="m1 7.53 1.5.87"/><path d="M11.73 8.96A8 8 0 0 1 .5 10.33a8 8 0 0 1 11.23-1.37z"/><path stroke="#d6d6af" d="M11.73 8.96A8 8 0 0 1 .5 10.33a8 8 0 0 1 11.23-1.37z"/><path d="M8.92 9.3a4 4 0 0 1-5.61.69 4 4 0 0 1 5.61-.69z"/><path stroke="#d6d6af" d="M8.92 9.3a4 4 0 0 1-5.61.69 4 4 0 0 1 5.61-.69z"/><circle cx="15.5" cy="15.53" r="2"/><circle cx="15.5" cy="15.53" r="2" stroke="#d6d6af"/><path d="M15.06 10.53a7 7 0 0 1 .75 9.87 7 7 0 0 1-.75-9.87z"/><path stroke="#d6d6af" d="M15.06 10.53a7 7 0 0 1 .75 9.87 7 7 0 0 1-.75-9.87z"/></svg>