<svg xmlns="http://www.w3.org/2000/svg" xml:space="preserve" stroke-linecap="round" stroke-linejoin="round" stroke-miterlimit="10" clip-rule="evenodd" viewBox="0 0 1773 519">
  <g fill="#fff" fill-rule="evenodd">
    <path d="M1429 6c3 0 4 1 5 3-3 7-5 15-6 23l7 36c1 10-1 20-5 30-9 12-20 22-33 29-2 1-3 1-4-2 11-7 21-16 29-27 8-19 5-36-9-50l-47 81c-9 8-20 11-32 8-13-2-19-9-18-22 3-8 10-13 18-14 14-2 25 1 34 11l8-13c-97-53-195-55-294-6a418 418 0 0 0-109 80c35-51 79-94 131-127a281 281 0 0 1 298 6c10-15 19-30 27-46Z" opacity=".9"/>
    <path d="M5 7h226c34 2 64 14 90 34 24 25 33 55 28 89-3 30-17 54-42 72-8 5-17 11-26 15-12 6-25 11-38 15l66 89a370 370 0 0 0 331 144c48-3 94-14 139-31l1 1c-55 32-114 54-177 66a339 339 0 0 1-334-125c-30-43-61-85-93-126h-44l1 149c2 10 7 17 17 20 14 4 28 6 42 6 1 8 2 16 1 24H5l1-24c13-1 26-2 38-5 12-4 18-12 20-24V62c-1-12-7-20-18-24-13-4-27-6-41-7V7Zm127 27h67c36 5 58 24 69 58 5 25 3 49-5 73a95 95 0 0 1-71 54c-20 2-40 2-60 2V34Z"/>
    <path d="M446 57h9l2 2 1 124c13-15 29-24 48-29 38-4 59 13 63 51l1 108c3 6 9 10 16 11l9 1v14h-89v-14c7 0 14 0 20-3 3-2 6-4 7-8V205c-6-22-20-31-43-27-8 3-16 7-23 13l-9 12v108c3 8 9 12 17 13l10 1v14h-89v-14c9 1 17-1 23-6 2-2 2-5 3-7V96c-2-12-9-19-21-21l-13-1-1-13 59-4Zm1083 0h10l3 3 1 249c3 6 8 10 14 12l16 1v14l-64 3-2-2-1-16a70 70 0 0 1-82 16c-17-9-30-22-38-40-11-25-13-51-6-78 15-46 46-67 94-65 11 2 21 5 31 10 1-21 2-43 1-64-2-15-10-23-25-25l-17-1V61l65-4Zm-73 113c24-3 41 6 50 29v105c-8 9-18 15-30 18-22 4-38-4-49-23-9-15-13-31-12-49 0-20 4-38 13-56 7-11 16-19 28-24Zm-778-16h32c30 4 46 21 47 51v105c2 5 5 9 10 11 7 2 13 2 19 2 1 4 0 9-1 13-13 6-27 8-42 5-11-4-18-12-21-23a71 71 0 0 1-86 18 47 47 0 0 1-18-45c3-20 14-34 32-42 24-7 47-16 70-25 2-13 1-25-2-37-6-12-16-18-30-19-8 1-16 3-23 8 0 8 0 15 2 23-1 13-9 19-22 19-13-1-19-8-19-22 0-5 2-10 5-15 12-15 28-24 47-27Zm40 87h3v61a48 48 0 0 1-48 19c-12-5-18-14-18-28 1-15 8-26 21-35 14-7 28-13 42-17Zm185-87c40-1 67 17 81 54 9 28 8 55-2 83-21 42-54 59-101 50-7-2-13-5-19-9v59c1 5 4 8 9 10 9 3 17 4 26 5v14H796v-14c8 0 15-2 22-4 4-1 6-4 7-7V191c-2-5-6-10-10-13-6-2-12-4-19-4v-14a1051 1051 0 0 0 64-2l1 21c11-13 26-21 42-25Zm-12 22c22-3 38 6 49 25a123 123 0 0 1-7 113c-15 16-31 19-51 10-9-5-16-12-20-22V194c8-10 18-16 29-18Zm175-22c19-2 36 0 53 8l4-7 15-1 2 59-13-1c-3-16-12-29-27-39-11-5-23-5-35-2-15 9-19 22-12 38 4 4 8 8 13 10l51 19c27 13 37 33 32 62-7 22-21 36-44 41-25 6-48 2-69-12l-4 10-15 1-2-64 14 1c5 17 15 31 28 42 17 12 34 13 52 3 10-8 13-18 11-31-4-9-11-16-20-20l-51-19c-28-16-36-40-23-70 9-15 23-25 40-28Zm183 0c42-5 73 10 94 46 14 37 12 72-7 107a85 85 0 0 1-73 38c-47-4-75-28-85-74-6-33 1-63 21-89 8-10 18-17 29-22l21-6Zm11 15c15-2 28 4 37 16 5 6 8 14 11 22 8 31 7 62-3 92-6 14-16 24-31 29-22 4-38-5-48-25-9-23-13-47-10-71 0-22 8-40 23-55l10-6 11-2Z" opacity=".9"/>
    <path d="M1571 159h84v14l-15 2-6 5 45 110c16-34 30-69 42-104 0-3-2-6-5-8-6-3-12-5-19-6v-13h67v12l-18 9-8 11-75 177c-7 13-16 25-25 37a45 45 0 0 1-50 11c-13-8-17-20-9-34 9-9 19-9 29-2 5 5 9 10 12 16h3c16-17 28-37 36-59l-59-146c-4-8-9-13-17-16l-11-3-1-13Z" opacity=".9"/>
  </g>
</svg>
